ISO-10303-21;
HEADER;
/* Generated by software containing ST-Developer
 * from STEP Tools, Inc. (www.steptools.com) 
 */

FILE_DESCRIPTION(
/* description */ (''),
/* implementation_level */ '2;1');

FILE_NAME(
/* name */ 'Angle Sensor, Attachment Plate v2.step',
/* time_stamp */ '2025-05-26T12:14:15-07:00',
/* author */ (''),
/* organization */ (''),
/* preprocessor_version */ 'ST-DEVELOPER v20.1',
/* originating_system */ 'Autodesk Translation Framework v14.10.0.0',
/* authorisation */ '');

FILE_SCHEMA (('AUTOMOTIVE_DESIGN { 1 0 10303 214 3 1 1 }'));
ENDSEC;

DATA;
#10=MECHANICAL_DESIGN_GEOMETRIC_PRESENTATION_REPRESENTATION('',(#13),#1468);
#11=SHAPE_REPRESENTATION_RELATIONSHIP('SRR','None',#1475,#12);
#12=ADVANCED_BREP_SHAPE_REPRESENTATION('',(#14),#1467);
#13=STYLED_ITEM('',(#1485),#14);
#14=MANIFOLD_SOLID_BREP('Body1',#821);
#15=B_SPLINE_CURVE_WITH_KNOTS('',3,(#1298,#1299,#1300,#1301),
 .UNSPECIFIED.,.F.,.F.,(4,4),(0.0331372790899191,0.0660531087482273),
 .UNSPECIFIED.);
#16=B_SPLINE_CURVE_WITH_KNOTS('',3,(#1305,#1306,#1307,#1308,#1309,#1310,
#1311,#1312),.UNSPECIFIED.,.F.,.F.,(4,2,2,4),(0.310035719981267,0.347452572377998,
0.422023874712987,0.463457897958056),.UNSPECIFIED.);
#17=B_SPLINE_CURVE_WITH_KNOTS('',3,(#1315,#1316,#1317,#1318,#1319,#1320,
#1321,#1322),.UNSPECIFIED.,.F.,.F.,(4,2,2,4),(0.0660531087482273,0.0745713023349885,
0.149142604669977,0.186559457066708),.UNSPECIFIED.);
#18=B_SPLINE_CURVE_WITH_KNOTS('',3,(#1333,#1334,#1335,#1336,#1337,#1338,
#1339,#1340),.UNSPECIFIED.,.F.,.F.,(4,2,2,4),(0.310035719981267,0.347452572377998,
0.422023874712987,0.430542068299748),.UNSPECIFIED.);
#19=B_SPLINE_CURVE_WITH_KNOTS('',3,(#1344,#1345,#1346,#1347,#1348,#1349,
#1350,#1351),.UNSPECIFIED.,.F.,.F.,(4,2,2,4),(0.0331372790899191,0.0745713023349884,
0.149142604669977,0.186559457066708),.UNSPECIFIED.);
#20=B_SPLINE_CURVE_WITH_KNOTS('',3,(#1354,#1355,#1356,#1357),
 .UNSPECIFIED.,.F.,.F.,(4,4),(0.430542068299748,0.463457897958056),
 .UNSPECIFIED.);
#21=B_SPLINE_CURVE_WITH_KNOTS('',3,(#1370,#1371,#1372,#1373,#1374,#1375,
#1376,#1377),.UNSPECIFIED.,.F.,.F.,(4,2,2,4),(0.0331372790899191,0.0745713023349884,
0.149142604669977,0.186559457066708),.UNSPECIFIED.);
#22=B_SPLINE_CURVE_WITH_KNOTS('',3,(#1381,#1382,#1383,#1384,#1385,#1386,
#1387,#1388),.UNSPECIFIED.,.F.,.F.,(4,2,2,4),(0.310035719981267,0.347452572377998,
0.422023874712987,0.463457897958056),.UNSPECIFIED.);
#23=B_SPLINE_CURVE_WITH_KNOTS('',3,(#1402,#1403,#1404,#1405,#1406,#1407,
#1408,#1409),.UNSPECIFIED.,.F.,.F.,(4,2,2,4),(0.310035719981268,0.347452572377998,
0.422023874712987,0.463457897958056),.UNSPECIFIED.);
#24=B_SPLINE_CURVE_WITH_KNOTS('',3,(#1413,#1414,#1415,#1416,#1417,#1418,
#1419,#1420),.UNSPECIFIED.,.F.,.F.,(4,2,2,4),(0.0331372790899191,0.0745713023349885,
0.149142604669977,0.186559457066708),.UNSPECIFIED.);
#25=ELLIPSE('',#843,7.07106781186547,5.);
#26=ELLIPSE('',#849,7.07106781186547,5.);
#27=ELLIPSE('',#858,7.07106781186547,5.);
#28=ELLIPSE('',#862,7.07106781186549,5.);
#29=CYLINDRICAL_SURFACE('',#839,11.2);
#30=CYLINDRICAL_SURFACE('',#870,1.55);
#31=CYLINDRICAL_SURFACE('',#876,1.55);
#32=CYLINDRICAL_SURFACE('',#882,1.55);
#33=CYLINDRICAL_SURFACE('',#889,1.55);
#34=CYLINDRICAL_SURFACE('',#908,5.);
#35=CYLINDRICAL_SURFACE('',#910,5.);
#36=CYLINDRICAL_SURFACE('',#912,5.);
#37=CYLINDRICAL_SURFACE('',#914,5.);
#38=CYLINDRICAL_SURFACE('',#918,3.5);
#39=FACE_BOUND('',#120,.T.);
#40=FACE_BOUND('',#149,.T.);
#41=FACE_BOUND('',#161,.T.);
#42=FACE_BOUND('',#166,.T.);
#43=FACE_BOUND('',#167,.T.);
#44=FACE_BOUND('',#168,.T.);
#45=FACE_BOUND('',#169,.T.);
#46=FACE_BOUND('',#170,.T.);
#47=PLANE('',#838);
#48=PLANE('',#841);
#49=PLANE('',#842);
#50=PLANE('',#844);
#51=PLANE('',#845);
#52=PLANE('',#846);
#53=PLANE('',#847);
#54=PLANE('',#848);
#55=PLANE('',#850);
#56=PLANE('',#851);
#57=PLANE('',#854);
#58=PLANE('',#855);
#59=PLANE('',#856);
#60=PLANE('',#857);
#61=PLANE('',#859);
#62=PLANE('',#860);
#63=PLANE('',#861);
#64=PLANE('',#863);
#65=PLANE('',#864);
#66=PLANE('',#893);
#67=PLANE('',#906);
#68=PLANE('',#907);
#69=PLANE('',#916);
#70=PLANE('',#920);
#71=PLANE('',#921);
#72=PLANE('',#922);
#73=FACE_OUTER_BOUND('',#118,.T.);
#74=FACE_OUTER_BOUND('',#119,.T.);
#75=FACE_OUTER_BOUND('',#121,.T.);
#76=FACE_OUTER_BOUND('',#122,.T.);
#77=FACE_OUTER_BOUND('',#123,.T.);
#78=FACE_OUTER_BOUND('',#124,.T.);
#79=FACE_OUTER_BOUND('',#125,.T.);
#80=FACE_OUTER_BOUND('',#126,.T.);
#81=FACE_OUTER_BOUND('',#127,.T.);
#82=FACE_OUTER_BOUND('',#128,.T.);
#83=FACE_OUTER_BOUND('',#129,.T.);
#84=FACE_OUTER_BOUND('',#130,.T.);
#85=FACE_OUTER_BOUND('',#131,.T.);
#86=FACE_OUTER_BOUND('',#132,.T.);
#87=FACE_OUTER_BOUND('',#133,.T.);
#88=FACE_OUTER_BOUND('',#134,.T.);
#89=FACE_OUTER_BOUND('',#135,.T.);
#90=FACE_OUTER_BOUND('',#136,.T.);
#91=FACE_OUTER_BOUND('',#137,.T.);
#92=FACE_OUTER_BOUND('',#138,.T.);
#93=FACE_OUTER_BOUND('',#139,.T.);
#94=FACE_OUTER_BOUND('',#140,.T.);
#95=FACE_OUTER_BOUND('',#141,.T.);
#96=FACE_OUTER_BOUND('',#142,.T.);
#97=FACE_OUTER_BOUND('',#143,.T.);
#98=FACE_OUTER_BOUND('',#144,.T.);
#99=FACE_OUTER_BOUND('',#145,.T.);
#100=FACE_OUTER_BOUND('',#146,.T.);
#101=FACE_OUTER_BOUND('',#147,.T.);
#102=FACE_OUTER_BOUND('',#148,.T.);
#103=FACE_OUTER_BOUND('',#150,.T.);
#104=FACE_OUTER_BOUND('',#151,.T.);
#105=FACE_OUTER_BOUND('',#152,.T.);
#106=FACE_OUTER_BOUND('',#153,.T.);
#107=FACE_OUTER_BOUND('',#154,.T.);
#108=FACE_OUTER_BOUND('',#155,.T.);
#109=FACE_OUTER_BOUND('',#156,.T.);
#110=FACE_OUTER_BOUND('',#157,.T.);
#111=FACE_OUTER_BOUND('',#158,.T.);
#112=FACE_OUTER_BOUND('',#159,.T.);
#113=FACE_OUTER_BOUND('',#160,.T.);
#114=FACE_OUTER_BOUND('',#162,.T.);
#115=FACE_OUTER_BOUND('',#163,.T.);
#116=FACE_OUTER_BOUND('',#164,.T.);
#117=FACE_OUTER_BOUND('',#165,.T.);
#118=EDGE_LOOP('',(#531,#532,#533,#534));
#119=EDGE_LOOP('',(#535,#536,#537,#538,#539,#540,#541,#542));
#120=EDGE_LOOP('',(#543));
#121=EDGE_LOOP('',(#544,#545,#546,#547));
#122=EDGE_LOOP('',(#548,#549,#550));
#123=EDGE_LOOP('',(#551,#552,#553,#554));
#124=EDGE_LOOP('',(#555,#556,#557,#558));
#125=EDGE_LOOP('',(#559,#560,#561));
#126=EDGE_LOOP('',(#562,#563,#564,#565));
#127=EDGE_LOOP('',(#566,#567,#568,#569));
#128=EDGE_LOOP('',(#570,#571,#572,#573));
#129=EDGE_LOOP('',(#574,#575,#576,#577,#578,#579,#580,#581));
#130=EDGE_LOOP('',(#582,#583,#584,#585,#586,#587));
#131=EDGE_LOOP('',(#588,#589,#590));
#132=EDGE_LOOP('',(#591,#592,#593));
#133=EDGE_LOOP('',(#594,#595,#596,#597));
#134=EDGE_LOOP('',(#598,#599,#600,#601));
#135=EDGE_LOOP('',(#602,#603,#604,#605));
#136=EDGE_LOOP('',(#606,#607,#608,#609));
#137=EDGE_LOOP('',(#610,#611,#612,#613));
#138=EDGE_LOOP('',(#614,#615,#616,#617,#618,#619,#620,#621));
#139=EDGE_LOOP('',(#622,#623,#624,#625,#626,#627));
#140=EDGE_LOOP('',(#628,#629,#630,#631));
#141=EDGE_LOOP('',(#632,#633,#634,#635,#636,#637,#638,#639));
#142=EDGE_LOOP('',(#640,#641,#642,#643));
#143=EDGE_LOOP('',(#644,#645,#646,#647,#648,#649,#650,#651));
#144=EDGE_LOOP('',(#652,#653,#654,#655));
#145=EDGE_LOOP('',(#656,#657,#658,#659,#660,#661,#662,#663));
#146=EDGE_LOOP('',(#664,#665,#666,#667));
#147=EDGE_LOOP('',(#668,#669,#670,#671,#672,#673,#674,#675));
#148=EDGE_LOOP('',(#676));
#149=EDGE_LOOP('',(#677,#678,#679,#680,#681,#682,#683,#684,#685));
#150=EDGE_LOOP('',(#686,#687,#688,#689));
#151=EDGE_LOOP('',(#690,#691,#692,#693,#694));
#152=EDGE_LOOP('',(#695,#696,#697,#698,#699));
#153=EDGE_LOOP('',(#700,#701,#702,#703));
#154=EDGE_LOOP('',(#704,#705,#706,#707));
#155=EDGE_LOOP('',(#708,#709,#710,#711));
#156=EDGE_LOOP('',(#712,#713,#714,#715,#716));
#157=EDGE_LOOP('',(#717,#718,#719,#720,#721));
#158=EDGE_LOOP('',(#722,#723,#724,#725,#726));
#159=EDGE_LOOP('',(#727,#728,#729,#730,#731));
#160=EDGE_LOOP('',(#732,#733,#734,#735,#736,#737,#738,#739,#740));
#161=EDGE_LOOP('',(#741));
#162=EDGE_LOOP('',(#742,#743,#744,#745));
#163=EDGE_LOOP('',(#746,#747,#748,#749));
#164=EDGE_LOOP('',(#750,#751,#752,#753));
#165=EDGE_LOOP('',(#754,#755,#756,#757,#758,#759,#760,#761));
#166=EDGE_LOOP('',(#762));
#167=EDGE_LOOP('',(#763));
#168=EDGE_LOOP('',(#764));
#169=EDGE_LOOP('',(#765));
#170=EDGE_LOOP('',(#766));
#171=LINE('',#1171,#236);
#172=LINE('',#1176,#237);
#173=LINE('',#1178,#238);
#174=LINE('',#1180,#239);
#175=LINE('',#1182,#240);
#176=LINE('',#1184,#241);
#177=LINE('',#1186,#242);
#178=LINE('',#1188,#243);
#179=LINE('',#1189,#244);
#180=LINE('',#1192,#245);
#181=LINE('',#1197,#246);
#182=LINE('',#1199,#247);
#183=LINE('',#1200,#248);
#184=LINE('',#1205,#249);
#185=LINE('',#1206,#250);
#186=LINE('',#1208,#251);
#187=LINE('',#1209,#252);
#188=LINE('',#1213,#253);
#189=LINE('',#1215,#254);
#190=LINE('',#1216,#255);
#191=LINE('',#1218,#256);
#192=LINE('',#1219,#257);
#193=LINE('',#1221,#258);
#194=LINE('',#1222,#259);
#195=LINE('',#1227,#260);
#196=LINE('',#1228,#261);
#197=LINE('',#1231,#262);
#198=LINE('',#1233,#263);
#199=LINE('',#1235,#264);
#200=LINE('',#1237,#265);
#201=LINE('',#1238,#266);
#202=LINE('',#1243,#267);
#203=LINE('',#1247,#268);
#204=LINE('',#1249,#269);
#205=LINE('',#1250,#270);
#206=LINE('',#1254,#271);
#207=LINE('',#1256,#272);
#208=LINE('',#1257,#273);
#209=LINE('',#1259,#274);
#210=LINE('',#1260,#275);
#211=LINE('',#1265,#276);
#212=LINE('',#1266,#277);
#213=LINE('',#1268,#278);
#214=LINE('',#1269,#279);
#215=LINE('',#1271,#280);
#216=LINE('',#1275,#281);
#217=LINE('',#1278,#282);
#218=LINE('',#1280,#283);
#219=LINE('',#1281,#284);
#220=LINE('',#1286,#285);
#221=LINE('',#1292,#286);
#222=LINE('',#1296,#287);
#223=LINE('',#1327,#288);
#224=LINE('',#1331,#289);
#225=LINE('',#1362,#290);
#226=LINE('',#1366,#291);
#227=LINE('',#1394,#292);
#228=LINE('',#1398,#293);
#229=LINE('',#1440,#294);
#230=LINE('',#1444,#295);
#231=LINE('',#1448,#296);
#232=LINE('',#1452,#297);
#233=LINE('',#1459,#298);
#234=LINE('',#1461,#299);
#235=LINE('',#1463,#300);
#236=VECTOR('',#929,11.45);
#237=VECTOR('',#934,10.);
#238=VECTOR('',#935,10.);
#239=VECTOR('',#936,10.);
#240=VECTOR('',#937,10.);
#241=VECTOR('',#938,10.);
#242=VECTOR('',#939,10.);
#243=VECTOR('',#940,10.);
#244=VECTOR('',#941,10.);
#245=VECTOR('',#944,11.2);
#246=VECTOR('',#949,10.);
#247=VECTOR('',#950,10.);
#248=VECTOR('',#951,10.);
#249=VECTOR('',#956,10.);
#250=VECTOR('',#957,10.);
#251=VECTOR('',#960,10.);
#252=VECTOR('',#961,10.);
#253=VECTOR('',#964,10.);
#254=VECTOR('',#965,10.);
#255=VECTOR('',#966,10.);
#256=VECTOR('',#969,10.);
#257=VECTOR('',#970,10.);
#258=VECTOR('',#973,10.);
#259=VECTOR('',#974,10.);
#260=VECTOR('',#979,10.);
#261=VECTOR('',#980,10.);
#262=VECTOR('',#983,10.);
#263=VECTOR('',#984,10.);
#264=VECTOR('',#985,10.);
#265=VECTOR('',#986,10.);
#266=VECTOR('',#987,10.);
#267=VECTOR('',#992,10.);
#268=VECTOR('',#997,10.);
#269=VECTOR('',#998,10.);
#270=VECTOR('',#999,10.);
#271=VECTOR('',#1002,10.);
#272=VECTOR('',#1003,10.);
#273=VECTOR('',#1004,10.);
#274=VECTOR('',#1007,10.);
#275=VECTOR('',#1008,10.);
#276=VECTOR('',#1013,10.);
#277=VECTOR('',#1014,10.);
#278=VECTOR('',#1017,10.);
#279=VECTOR('',#1018,10.);
#280=VECTOR('',#1021,10.);
#281=VECTOR('',#1026,10.);
#282=VECTOR('',#1029,10.);
#283=VECTOR('',#1030,10.);
#284=VECTOR('',#1031,10.);
#285=VECTOR('',#1036,10.);
#286=VECTOR('',#1043,2.15);
#287=VECTOR('',#1048,1.55);
#288=VECTOR('',#1057,2.15);
#289=VECTOR('',#1062,1.55);
#290=VECTOR('',#1071,2.15);
#291=VECTOR('',#1076,1.55);
#292=VECTOR('',#1087,2.15);
#293=VECTOR('',#1092,1.55);
#294=VECTOR('',#1133,10.);
#295=VECTOR('',#1138,10.);
#296=VECTOR('',#1143,10.);
#297=VECTOR('',#1148,10.);
#298=VECTOR('',#1157,3.5);
#299=VECTOR('',#1160,10.);
#300=VECTOR('',#1163,10.);
#301=CIRCLE('',#836,11.7);
#302=CIRCLE('',#837,11.2);
#303=CIRCLE('',#840,11.2);
#304=CIRCLE('',#852,5.);
#305=CIRCLE('',#853,5.);
#306=CIRCLE('',#865,5.);
#307=CIRCLE('',#866,5.);
#308=CIRCLE('',#868,2.75);
#309=CIRCLE('',#869,1.55);
#310=CIRCLE('',#871,1.55);
#311=CIRCLE('',#872,1.55);
#312=CIRCLE('',#874,2.75);
#313=CIRCLE('',#875,1.55);
#314=CIRCLE('',#877,1.55);
#315=CIRCLE('',#878,1.55);
#316=CIRCLE('',#880,2.75);
#317=CIRCLE('',#881,1.55);
#318=CIRCLE('',#883,1.55);
#319=CIRCLE('',#884,1.55);
#320=CIRCLE('',#885,1.55);
#321=CIRCLE('',#887,2.75);
#322=CIRCLE('',#888,1.55);
#323=CIRCLE('',#890,1.55);
#324=CIRCLE('',#891,1.55);
#325=CIRCLE('',#892,1.55);
#326=CIRCLE('',#894,7.25);
#327=CIRCLE('',#895,7.25);
#328=CIRCLE('',#896,7.25);
#329=CIRCLE('',#897,7.25);
#330=CIRCLE('',#899,6.25);
#331=CIRCLE('',#901,6.25);
#332=CIRCLE('',#903,6.25);
#333=CIRCLE('',#905,6.25);
#334=CIRCLE('',#909,5.);
#335=CIRCLE('',#911,5.);
#336=CIRCLE('',#913,5.);
#337=CIRCLE('',#915,5.);
#338=CIRCLE('',#917,3.5);
#339=CIRCLE('',#919,3.5);
#340=VERTEX_POINT('',#1168);
#341=VERTEX_POINT('',#1170);
#342=VERTEX_POINT('',#1174);
#343=VERTEX_POINT('',#1175);
#344=VERTEX_POINT('',#1177);
#345=VERTEX_POINT('',#1179);
#346=VERTEX_POINT('',#1181);
#347=VERTEX_POINT('',#1183);
#348=VERTEX_POINT('',#1185);
#349=VERTEX_POINT('',#1187);
#350=VERTEX_POINT('',#1191);
#351=VERTEX_POINT('',#1195);
#352=VERTEX_POINT('',#1196);
#353=VERTEX_POINT('',#1198);
#354=VERTEX_POINT('',#1202);
#355=VERTEX_POINT('',#1203);
#356=VERTEX_POINT('',#1211);
#357=VERTEX_POINT('',#1212);
#358=VERTEX_POINT('',#1214);
#359=VERTEX_POINT('',#1224);
#360=VERTEX_POINT('',#1225);
#361=VERTEX_POINT('',#1230);
#362=VERTEX_POINT('',#1232);
#363=VERTEX_POINT('',#1234);
#364=VERTEX_POINT('',#1236);
#365=VERTEX_POINT('',#1240);
#366=VERTEX_POINT('',#1242);
#367=VERTEX_POINT('',#1246);
#368=VERTEX_POINT('',#1248);
#369=VERTEX_POINT('',#1252);
#370=VERTEX_POINT('',#1253);
#371=VERTEX_POINT('',#1255);
#372=VERTEX_POINT('',#1262);
#373=VERTEX_POINT('',#1263);
#374=VERTEX_POINT('',#1273);
#375=VERTEX_POINT('',#1277);
#376=VERTEX_POINT('',#1279);
#377=VERTEX_POINT('',#1283);
#378=VERTEX_POINT('',#1285);
#379=VERTEX_POINT('',#1289);
#380=VERTEX_POINT('',#1291);
#381=VERTEX_POINT('',#1295);
#382=VERTEX_POINT('',#1297);
#383=VERTEX_POINT('',#1302);
#384=VERTEX_POINT('',#1304);
#385=VERTEX_POINT('',#1313);
#386=VERTEX_POINT('',#1324);
#387=VERTEX_POINT('',#1326);
#388=VERTEX_POINT('',#1330);
#389=VERTEX_POINT('',#1332);
#390=VERTEX_POINT('',#1341);
#391=VERTEX_POINT('',#1343);
#392=VERTEX_POINT('',#1352);
#393=VERTEX_POINT('',#1359);
#394=VERTEX_POINT('',#1361);
#395=VERTEX_POINT('',#1365);
#396=VERTEX_POINT('',#1367);
#397=VERTEX_POINT('',#1369);
#398=VERTEX_POINT('',#1378);
#399=VERTEX_POINT('',#1380);
#400=VERTEX_POINT('',#1391);
#401=VERTEX_POINT('',#1393);
#402=VERTEX_POINT('',#1397);
#403=VERTEX_POINT('',#1399);
#404=VERTEX_POINT('',#1401);
#405=VERTEX_POINT('',#1410);
#406=VERTEX_POINT('',#1412);
#407=VERTEX_POINT('',#1438);
#408=VERTEX_POINT('',#1442);
#409=VERTEX_POINT('',#1446);
#410=VERTEX_POINT('',#1450);
#411=VERTEX_POINT('',#1454);
#412=VERTEX_POINT('',#1457);
#413=EDGE_CURVE('',#340,#340,#301,.T.);
#414=EDGE_CURVE('',#340,#341,#171,.T.);
#415=EDGE_CURVE('',#341,#341,#302,.T.);
#416=EDGE_CURVE('',#342,#343,#172,.T.);
#417=EDGE_CURVE('',#342,#344,#173,.T.);
#418=EDGE_CURVE('',#345,#344,#174,.T.);
#419=EDGE_CURVE('',#345,#346,#175,.T.);
#420=EDGE_CURVE('',#347,#346,#176,.T.);
#421=EDGE_CURVE('',#347,#348,#177,.T.);
#422=EDGE_CURVE('',#349,#348,#178,.T.);
#423=EDGE_CURVE('',#349,#343,#179,.T.);
#424=EDGE_CURVE('',#341,#350,#180,.T.);
#425=EDGE_CURVE('',#350,#350,#303,.T.);
#426=EDGE_CURVE('',#351,#352,#181,.T.);
#427=EDGE_CURVE('',#353,#351,#182,.T.);
#428=EDGE_CURVE('',#352,#353,#183,.T.);
#429=EDGE_CURVE('',#354,#355,#25,.F.);
#430=EDGE_CURVE('',#355,#353,#184,.T.);
#431=EDGE_CURVE('',#351,#354,#185,.T.);
#432=EDGE_CURVE('',#343,#352,#186,.T.);
#433=EDGE_CURVE('',#353,#342,#187,.T.);
#434=EDGE_CURVE('',#356,#357,#188,.T.);
#435=EDGE_CURVE('',#358,#356,#189,.T.);
#436=EDGE_CURVE('',#357,#358,#190,.T.);
#437=EDGE_CURVE('',#352,#358,#191,.T.);
#438=EDGE_CURVE('',#356,#351,#192,.T.);
#439=EDGE_CURVE('',#348,#357,#193,.T.);
#440=EDGE_CURVE('',#358,#349,#194,.T.);
#441=EDGE_CURVE('',#359,#360,#26,.F.);
#442=EDGE_CURVE('',#360,#356,#195,.T.);
#443=EDGE_CURVE('',#357,#359,#196,.T.);
#444=EDGE_CURVE('',#361,#355,#197,.T.);
#445=EDGE_CURVE('',#362,#361,#198,.T.);
#446=EDGE_CURVE('',#363,#362,#199,.T.);
#447=EDGE_CURVE('',#364,#363,#200,.T.);
#448=EDGE_CURVE('',#344,#364,#201,.T.);
#449=EDGE_CURVE('',#365,#360,#304,.T.);
#450=EDGE_CURVE('',#365,#366,#202,.T.);
#451=EDGE_CURVE('',#354,#366,#305,.T.);
#452=EDGE_CURVE('',#367,#364,#203,.T.);
#453=EDGE_CURVE('',#368,#367,#204,.T.);
#454=EDGE_CURVE('',#364,#368,#205,.T.);
#455=EDGE_CURVE('',#369,#370,#206,.T.);
#456=EDGE_CURVE('',#371,#369,#207,.T.);
#457=EDGE_CURVE('',#370,#371,#208,.T.);
#458=EDGE_CURVE('',#369,#368,#209,.T.);
#459=EDGE_CURVE('',#367,#371,#210,.T.);
#460=EDGE_CURVE('',#372,#373,#27,.F.);
#461=EDGE_CURVE('',#373,#370,#211,.T.);
#462=EDGE_CURVE('',#371,#372,#212,.T.);
#463=EDGE_CURVE('',#346,#369,#213,.T.);
#464=EDGE_CURVE('',#370,#347,#214,.T.);
#465=EDGE_CURVE('',#368,#345,#215,.T.);
#466=EDGE_CURVE('',#363,#374,#28,.F.);
#467=EDGE_CURVE('',#374,#367,#216,.T.);
#468=EDGE_CURVE('',#375,#373,#217,.T.);
#469=EDGE_CURVE('',#376,#375,#218,.T.);
#470=EDGE_CURVE('',#359,#376,#219,.T.);
#471=EDGE_CURVE('',#377,#374,#306,.T.);
#472=EDGE_CURVE('',#377,#378,#220,.T.);
#473=EDGE_CURVE('',#372,#378,#307,.T.);
#474=EDGE_CURVE('',#379,#379,#308,.T.);
#475=EDGE_CURVE('',#379,#380,#221,.T.);
#476=EDGE_CURVE('',#380,#380,#309,.T.);
#477=EDGE_CURVE('',#380,#381,#222,.T.);
#478=EDGE_CURVE('',#382,#381,#15,.T.);
#479=EDGE_CURVE('',#383,#382,#310,.T.);
#480=EDGE_CURVE('',#384,#383,#16,.T.);
#481=EDGE_CURVE('',#385,#384,#311,.T.);
#482=EDGE_CURVE('',#381,#385,#17,.T.);
#483=EDGE_CURVE('',#386,#386,#312,.T.);
#484=EDGE_CURVE('',#386,#387,#223,.T.);
#485=EDGE_CURVE('',#387,#387,#313,.T.);
#486=EDGE_CURVE('',#387,#388,#224,.T.);
#487=EDGE_CURVE('',#389,#388,#18,.T.);
#488=EDGE_CURVE('',#390,#389,#314,.T.);
#489=EDGE_CURVE('',#391,#390,#19,.T.);
#490=EDGE_CURVE('',#392,#391,#315,.T.);
#491=EDGE_CURVE('',#388,#392,#20,.T.);
#492=EDGE_CURVE('',#393,#393,#316,.T.);
#493=EDGE_CURVE('',#393,#394,#225,.T.);
#494=EDGE_CURVE('',#394,#394,#317,.T.);
#495=EDGE_CURVE('',#394,#395,#226,.T.);
#496=EDGE_CURVE('',#396,#395,#318,.T.);
#497=EDGE_CURVE('',#397,#396,#21,.T.);
#498=EDGE_CURVE('',#398,#397,#319,.T.);
#499=EDGE_CURVE('',#399,#398,#22,.T.);
#500=EDGE_CURVE('',#395,#399,#320,.T.);
#501=EDGE_CURVE('',#400,#400,#321,.T.);
#502=EDGE_CURVE('',#400,#401,#227,.T.);
#503=EDGE_CURVE('',#401,#401,#322,.T.);
#504=EDGE_CURVE('',#401,#402,#228,.T.);
#505=EDGE_CURVE('',#403,#402,#323,.T.);
#506=EDGE_CURVE('',#404,#403,#23,.T.);
#507=EDGE_CURVE('',#405,#404,#324,.T.);
#508=EDGE_CURVE('',#406,#405,#24,.T.);
#509=EDGE_CURVE('',#402,#406,#325,.T.);
#510=EDGE_CURVE('',#403,#382,#326,.T.);
#511=EDGE_CURVE('',#392,#406,#327,.T.);
#512=EDGE_CURVE('',#398,#391,#328,.T.);
#513=EDGE_CURVE('',#383,#397,#329,.T.);
#514=EDGE_CURVE('',#390,#399,#330,.T.);
#515=EDGE_CURVE('',#405,#389,#331,.T.);
#516=EDGE_CURVE('',#385,#404,#332,.T.);
#517=EDGE_CURVE('',#396,#384,#333,.T.);
#518=EDGE_CURVE('',#376,#407,#334,.T.);
#519=EDGE_CURVE('',#407,#365,#229,.T.);
#520=EDGE_CURVE('',#408,#361,#335,.T.);
#521=EDGE_CURVE('',#366,#408,#230,.T.);
#522=EDGE_CURVE('',#362,#409,#336,.T.);
#523=EDGE_CURVE('',#409,#377,#231,.T.);
#524=EDGE_CURVE('',#410,#375,#337,.T.);
#525=EDGE_CURVE('',#378,#410,#232,.T.);
#526=EDGE_CURVE('',#411,#411,#338,.T.);
#527=EDGE_CURVE('',#412,#412,#339,.T.);
#528=EDGE_CURVE('',#412,#411,#233,.T.);
#529=EDGE_CURVE('',#410,#409,#234,.T.);
#530=EDGE_CURVE('',#408,#407,#235,.T.);
#531=ORIENTED_EDGE('',*,*,#413,.T.);
#532=ORIENTED_EDGE('',*,*,#414,.T.);
#533=ORIENTED_EDGE('',*,*,#415,.T.);
#534=ORIENTED_EDGE('',*,*,#414,.F.);
#535=ORIENTED_EDGE('',*,*,#416,.F.);
#536=ORIENTED_EDGE('',*,*,#417,.T.);
#537=ORIENTED_EDGE('',*,*,#418,.F.);
#538=ORIENTED_EDGE('',*,*,#419,.T.);
#539=ORIENTED_EDGE('',*,*,#420,.F.);
#540=ORIENTED_EDGE('',*,*,#421,.T.);
#541=ORIENTED_EDGE('',*,*,#422,.F.);
#542=ORIENTED_EDGE('',*,*,#423,.T.);
#543=ORIENTED_EDGE('',*,*,#413,.F.);
#544=ORIENTED_EDGE('',*,*,#415,.F.);
#545=ORIENTED_EDGE('',*,*,#424,.T.);
#546=ORIENTED_EDGE('',*,*,#425,.T.);
#547=ORIENTED_EDGE('',*,*,#424,.F.);
#548=ORIENTED_EDGE('',*,*,#426,.F.);
#549=ORIENTED_EDGE('',*,*,#427,.F.);
#550=ORIENTED_EDGE('',*,*,#428,.F.);
#551=ORIENTED_EDGE('',*,*,#429,.T.);
#552=ORIENTED_EDGE('',*,*,#430,.T.);
#553=ORIENTED_EDGE('',*,*,#427,.T.);
#554=ORIENTED_EDGE('',*,*,#431,.T.);
#555=ORIENTED_EDGE('',*,*,#416,.T.);
#556=ORIENTED_EDGE('',*,*,#432,.T.);
#557=ORIENTED_EDGE('',*,*,#428,.T.);
#558=ORIENTED_EDGE('',*,*,#433,.T.);
#559=ORIENTED_EDGE('',*,*,#434,.F.);
#560=ORIENTED_EDGE('',*,*,#435,.F.);
#561=ORIENTED_EDGE('',*,*,#436,.F.);
#562=ORIENTED_EDGE('',*,*,#426,.T.);
#563=ORIENTED_EDGE('',*,*,#437,.T.);
#564=ORIENTED_EDGE('',*,*,#435,.T.);
#565=ORIENTED_EDGE('',*,*,#438,.T.);
#566=ORIENTED_EDGE('',*,*,#422,.T.);
#567=ORIENTED_EDGE('',*,*,#439,.T.);
#568=ORIENTED_EDGE('',*,*,#436,.T.);
#569=ORIENTED_EDGE('',*,*,#440,.T.);
#570=ORIENTED_EDGE('',*,*,#441,.T.);
#571=ORIENTED_EDGE('',*,*,#442,.T.);
#572=ORIENTED_EDGE('',*,*,#434,.T.);
#573=ORIENTED_EDGE('',*,*,#443,.T.);
#574=ORIENTED_EDGE('',*,*,#433,.F.);
#575=ORIENTED_EDGE('',*,*,#430,.F.);
#576=ORIENTED_EDGE('',*,*,#444,.F.);
#577=ORIENTED_EDGE('',*,*,#445,.F.);
#578=ORIENTED_EDGE('',*,*,#446,.F.);
#579=ORIENTED_EDGE('',*,*,#447,.F.);
#580=ORIENTED_EDGE('',*,*,#448,.F.);
#581=ORIENTED_EDGE('',*,*,#417,.F.);
#582=ORIENTED_EDGE('',*,*,#431,.F.);
#583=ORIENTED_EDGE('',*,*,#438,.F.);
#584=ORIENTED_EDGE('',*,*,#442,.F.);
#585=ORIENTED_EDGE('',*,*,#449,.F.);
#586=ORIENTED_EDGE('',*,*,#450,.T.);
#587=ORIENTED_EDGE('',*,*,#451,.F.);
#588=ORIENTED_EDGE('',*,*,#452,.F.);
#589=ORIENTED_EDGE('',*,*,#453,.F.);
#590=ORIENTED_EDGE('',*,*,#454,.F.);
#591=ORIENTED_EDGE('',*,*,#455,.F.);
#592=ORIENTED_EDGE('',*,*,#456,.F.);
#593=ORIENTED_EDGE('',*,*,#457,.F.);
#594=ORIENTED_EDGE('',*,*,#456,.T.);
#595=ORIENTED_EDGE('',*,*,#458,.T.);
#596=ORIENTED_EDGE('',*,*,#453,.T.);
#597=ORIENTED_EDGE('',*,*,#459,.T.);
#598=ORIENTED_EDGE('',*,*,#460,.T.);
#599=ORIENTED_EDGE('',*,*,#461,.T.);
#600=ORIENTED_EDGE('',*,*,#457,.T.);
#601=ORIENTED_EDGE('',*,*,#462,.T.);
#602=ORIENTED_EDGE('',*,*,#420,.T.);
#603=ORIENTED_EDGE('',*,*,#463,.T.);
#604=ORIENTED_EDGE('',*,*,#455,.T.);
#605=ORIENTED_EDGE('',*,*,#464,.T.);
#606=ORIENTED_EDGE('',*,*,#418,.T.);
#607=ORIENTED_EDGE('',*,*,#448,.T.);
#608=ORIENTED_EDGE('',*,*,#454,.T.);
#609=ORIENTED_EDGE('',*,*,#465,.T.);
#610=ORIENTED_EDGE('',*,*,#466,.T.);
#611=ORIENTED_EDGE('',*,*,#467,.T.);
#612=ORIENTED_EDGE('',*,*,#452,.T.);
#613=ORIENTED_EDGE('',*,*,#447,.T.);
#614=ORIENTED_EDGE('',*,*,#439,.F.);
#615=ORIENTED_EDGE('',*,*,#421,.F.);
#616=ORIENTED_EDGE('',*,*,#464,.F.);
#617=ORIENTED_EDGE('',*,*,#461,.F.);
#618=ORIENTED_EDGE('',*,*,#468,.F.);
#619=ORIENTED_EDGE('',*,*,#469,.F.);
#620=ORIENTED_EDGE('',*,*,#470,.F.);
#621=ORIENTED_EDGE('',*,*,#443,.F.);
#622=ORIENTED_EDGE('',*,*,#462,.F.);
#623=ORIENTED_EDGE('',*,*,#459,.F.);
#624=ORIENTED_EDGE('',*,*,#467,.F.);
#625=ORIENTED_EDGE('',*,*,#471,.F.);
#626=ORIENTED_EDGE('',*,*,#472,.T.);
#627=ORIENTED_EDGE('',*,*,#473,.F.);
#628=ORIENTED_EDGE('',*,*,#474,.F.);
#629=ORIENTED_EDGE('',*,*,#475,.T.);
#630=ORIENTED_EDGE('',*,*,#476,.T.);
#631=ORIENTED_EDGE('',*,*,#475,.F.);
#632=ORIENTED_EDGE('',*,*,#476,.F.);
#633=ORIENTED_EDGE('',*,*,#477,.T.);
#634=ORIENTED_EDGE('',*,*,#478,.F.);
#635=ORIENTED_EDGE('',*,*,#479,.F.);
#636=ORIENTED_EDGE('',*,*,#480,.F.);
#637=ORIENTED_EDGE('',*,*,#481,.F.);
#638=ORIENTED_EDGE('',*,*,#482,.F.);
#639=ORIENTED_EDGE('',*,*,#477,.F.);
#640=ORIENTED_EDGE('',*,*,#483,.F.);
#641=ORIENTED_EDGE('',*,*,#484,.T.);
#642=ORIENTED_EDGE('',*,*,#485,.T.);
#643=ORIENTED_EDGE('',*,*,#484,.F.);
#644=ORIENTED_EDGE('',*,*,#485,.F.);
#645=ORIENTED_EDGE('',*,*,#486,.T.);
#646=ORIENTED_EDGE('',*,*,#487,.F.);
#647=ORIENTED_EDGE('',*,*,#488,.F.);
#648=ORIENTED_EDGE('',*,*,#489,.F.);
#649=ORIENTED_EDGE('',*,*,#490,.F.);
#650=ORIENTED_EDGE('',*,*,#491,.F.);
#651=ORIENTED_EDGE('',*,*,#486,.F.);
#652=ORIENTED_EDGE('',*,*,#492,.F.);
#653=ORIENTED_EDGE('',*,*,#493,.T.);
#654=ORIENTED_EDGE('',*,*,#494,.T.);
#655=ORIENTED_EDGE('',*,*,#493,.F.);
#656=ORIENTED_EDGE('',*,*,#494,.F.);
#657=ORIENTED_EDGE('',*,*,#495,.T.);
#658=ORIENTED_EDGE('',*,*,#496,.F.);
#659=ORIENTED_EDGE('',*,*,#497,.F.);
#660=ORIENTED_EDGE('',*,*,#498,.F.);
#661=ORIENTED_EDGE('',*,*,#499,.F.);
#662=ORIENTED_EDGE('',*,*,#500,.F.);
#663=ORIENTED_EDGE('',*,*,#495,.F.);
#664=ORIENTED_EDGE('',*,*,#501,.F.);
#665=ORIENTED_EDGE('',*,*,#502,.T.);
#666=ORIENTED_EDGE('',*,*,#503,.T.);
#667=ORIENTED_EDGE('',*,*,#502,.F.);
#668=ORIENTED_EDGE('',*,*,#503,.F.);
#669=ORIENTED_EDGE('',*,*,#504,.T.);
#670=ORIENTED_EDGE('',*,*,#505,.F.);
#671=ORIENTED_EDGE('',*,*,#506,.F.);
#672=ORIENTED_EDGE('',*,*,#507,.F.);
#673=ORIENTED_EDGE('',*,*,#508,.F.);
#674=ORIENTED_EDGE('',*,*,#509,.F.);
#675=ORIENTED_EDGE('',*,*,#504,.F.);
#676=ORIENTED_EDGE('',*,*,#425,.F.);
#677=ORIENTED_EDGE('',*,*,#479,.T.);
#678=ORIENTED_EDGE('',*,*,#510,.F.);
#679=ORIENTED_EDGE('',*,*,#505,.T.);
#680=ORIENTED_EDGE('',*,*,#509,.T.);
#681=ORIENTED_EDGE('',*,*,#511,.F.);
#682=ORIENTED_EDGE('',*,*,#490,.T.);
#683=ORIENTED_EDGE('',*,*,#512,.F.);
#684=ORIENTED_EDGE('',*,*,#498,.T.);
#685=ORIENTED_EDGE('',*,*,#513,.F.);
#686=ORIENTED_EDGE('',*,*,#489,.T.);
#687=ORIENTED_EDGE('',*,*,#514,.T.);
#688=ORIENTED_EDGE('',*,*,#499,.T.);
#689=ORIENTED_EDGE('',*,*,#512,.T.);
#690=ORIENTED_EDGE('',*,*,#487,.T.);
#691=ORIENTED_EDGE('',*,*,#491,.T.);
#692=ORIENTED_EDGE('',*,*,#511,.T.);
#693=ORIENTED_EDGE('',*,*,#508,.T.);
#694=ORIENTED_EDGE('',*,*,#515,.T.);
#695=ORIENTED_EDGE('',*,*,#478,.T.);
#696=ORIENTED_EDGE('',*,*,#482,.T.);
#697=ORIENTED_EDGE('',*,*,#516,.T.);
#698=ORIENTED_EDGE('',*,*,#506,.T.);
#699=ORIENTED_EDGE('',*,*,#510,.T.);
#700=ORIENTED_EDGE('',*,*,#480,.T.);
#701=ORIENTED_EDGE('',*,*,#513,.T.);
#702=ORIENTED_EDGE('',*,*,#497,.T.);
#703=ORIENTED_EDGE('',*,*,#517,.T.);
#704=ORIENTED_EDGE('',*,*,#432,.F.);
#705=ORIENTED_EDGE('',*,*,#423,.F.);
#706=ORIENTED_EDGE('',*,*,#440,.F.);
#707=ORIENTED_EDGE('',*,*,#437,.F.);
#708=ORIENTED_EDGE('',*,*,#463,.F.);
#709=ORIENTED_EDGE('',*,*,#419,.F.);
#710=ORIENTED_EDGE('',*,*,#465,.F.);
#711=ORIENTED_EDGE('',*,*,#458,.F.);
#712=ORIENTED_EDGE('',*,*,#518,.T.);
#713=ORIENTED_EDGE('',*,*,#519,.T.);
#714=ORIENTED_EDGE('',*,*,#449,.T.);
#715=ORIENTED_EDGE('',*,*,#441,.F.);
#716=ORIENTED_EDGE('',*,*,#470,.T.);
#717=ORIENTED_EDGE('',*,*,#520,.T.);
#718=ORIENTED_EDGE('',*,*,#444,.T.);
#719=ORIENTED_EDGE('',*,*,#429,.F.);
#720=ORIENTED_EDGE('',*,*,#451,.T.);
#721=ORIENTED_EDGE('',*,*,#521,.T.);
#722=ORIENTED_EDGE('',*,*,#522,.T.);
#723=ORIENTED_EDGE('',*,*,#523,.T.);
#724=ORIENTED_EDGE('',*,*,#471,.T.);
#725=ORIENTED_EDGE('',*,*,#466,.F.);
#726=ORIENTED_EDGE('',*,*,#446,.T.);
#727=ORIENTED_EDGE('',*,*,#524,.T.);
#728=ORIENTED_EDGE('',*,*,#468,.T.);
#729=ORIENTED_EDGE('',*,*,#460,.F.);
#730=ORIENTED_EDGE('',*,*,#473,.T.);
#731=ORIENTED_EDGE('',*,*,#525,.T.);
#732=ORIENTED_EDGE('',*,*,#481,.T.);
#733=ORIENTED_EDGE('',*,*,#517,.F.);
#734=ORIENTED_EDGE('',*,*,#496,.T.);
#735=ORIENTED_EDGE('',*,*,#500,.T.);
#736=ORIENTED_EDGE('',*,*,#514,.F.);
#737=ORIENTED_EDGE('',*,*,#488,.T.);
#738=ORIENTED_EDGE('',*,*,#515,.F.);
#739=ORIENTED_EDGE('',*,*,#507,.T.);
#740=ORIENTED_EDGE('',*,*,#516,.F.);
#741=ORIENTED_EDGE('',*,*,#526,.F.);
#742=ORIENTED_EDGE('',*,*,#527,.F.);
#743=ORIENTED_EDGE('',*,*,#528,.T.);
#744=ORIENTED_EDGE('',*,*,#526,.T.);
#745=ORIENTED_EDGE('',*,*,#528,.F.);
#746=ORIENTED_EDGE('',*,*,#523,.F.);
#747=ORIENTED_EDGE('',*,*,#529,.F.);
#748=ORIENTED_EDGE('',*,*,#525,.F.);
#749=ORIENTED_EDGE('',*,*,#472,.F.);
#750=ORIENTED_EDGE('',*,*,#519,.F.);
#751=ORIENTED_EDGE('',*,*,#530,.F.);
#752=ORIENTED_EDGE('',*,*,#521,.F.);
#753=ORIENTED_EDGE('',*,*,#450,.F.);
#754=ORIENTED_EDGE('',*,*,#518,.F.);
#755=ORIENTED_EDGE('',*,*,#469,.T.);
#756=ORIENTED_EDGE('',*,*,#524,.F.);
#757=ORIENTED_EDGE('',*,*,#529,.T.);
#758=ORIENTED_EDGE('',*,*,#522,.F.);
#759=ORIENTED_EDGE('',*,*,#445,.T.);
#760=ORIENTED_EDGE('',*,*,#520,.F.);
#761=ORIENTED_EDGE('',*,*,#530,.T.);
#762=ORIENTED_EDGE('',*,*,#474,.T.);
#763=ORIENTED_EDGE('',*,*,#483,.T.);
#764=ORIENTED_EDGE('',*,*,#492,.T.);
#765=ORIENTED_EDGE('',*,*,#501,.T.);
#766=ORIENTED_EDGE('',*,*,#527,.T.);
#767=CONICAL_SURFACE('',#835,11.45,0.785398163397449);
#768=CONICAL_SURFACE('',#867,2.15,0.785398163397448);
#769=CONICAL_SURFACE('',#873,2.15,0.785398163397448);
#770=CONICAL_SURFACE('',#879,2.15,0.785398163397448);
#771=CONICAL_SURFACE('',#886,2.15,0.785398163397448);
#772=CONICAL_SURFACE('',#898,6.75,0.785398163397448);
#773=CONICAL_SURFACE('',#900,6.75,0.785398163397448);
#774=CONICAL_SURFACE('',#902,6.75,0.785398163397448);
#775=CONICAL_SURFACE('',#904,6.75,0.785398163397448);
#776=ADVANCED_FACE('',(#73),#767,.F.);
#777=ADVANCED_FACE('',(#74,#39),#47,.F.);
#778=ADVANCED_FACE('',(#75),#29,.F.);
#779=ADVANCED_FACE('',(#76),#48,.T.);
#780=ADVANCED_FACE('',(#77),#49,.T.);
#781=ADVANCED_FACE('',(#78),#50,.T.);
#782=ADVANCED_FACE('',(#79),#51,.T.);
#783=ADVANCED_FACE('',(#80),#52,.T.);
#784=ADVANCED_FACE('',(#81),#53,.T.);
#785=ADVANCED_FACE('',(#82),#54,.T.);
#786=ADVANCED_FACE('',(#83),#55,.T.);
#787=ADVANCED_FACE('',(#84),#56,.T.);
#788=ADVANCED_FACE('',(#85),#57,.T.);
#789=ADVANCED_FACE('',(#86),#58,.T.);
#790=ADVANCED_FACE('',(#87),#59,.T.);
#791=ADVANCED_FACE('',(#88),#60,.T.);
#792=ADVANCED_FACE('',(#89),#61,.T.);
#793=ADVANCED_FACE('',(#90),#62,.T.);
#794=ADVANCED_FACE('',(#91),#63,.T.);
#795=ADVANCED_FACE('',(#92),#64,.T.);
#796=ADVANCED_FACE('',(#93),#65,.T.);
#797=ADVANCED_FACE('',(#94),#768,.F.);
#798=ADVANCED_FACE('',(#95),#30,.F.);
#799=ADVANCED_FACE('',(#96),#769,.F.);
#800=ADVANCED_FACE('',(#97),#31,.F.);
#801=ADVANCED_FACE('',(#98),#770,.F.);
#802=ADVANCED_FACE('',(#99),#32,.F.);
#803=ADVANCED_FACE('',(#100),#771,.F.);
#804=ADVANCED_FACE('',(#101),#33,.F.);
#805=ADVANCED_FACE('',(#102,#40),#66,.F.);
#806=ADVANCED_FACE('',(#103),#772,.F.);
#807=ADVANCED_FACE('',(#104),#773,.F.);
#808=ADVANCED_FACE('',(#105),#774,.F.);
#809=ADVANCED_FACE('',(#106),#775,.F.);
#810=ADVANCED_FACE('',(#107),#67,.T.);
#811=ADVANCED_FACE('',(#108),#68,.T.);
#812=ADVANCED_FACE('',(#109),#34,.T.);
#813=ADVANCED_FACE('',(#110),#35,.T.);
#814=ADVANCED_FACE('',(#111),#36,.T.);
#815=ADVANCED_FACE('',(#112),#37,.T.);
#816=ADVANCED_FACE('',(#113,#41),#69,.F.);
#817=ADVANCED_FACE('',(#114),#38,.F.);
#818=ADVANCED_FACE('',(#115),#70,.T.);
#819=ADVANCED_FACE('',(#116),#71,.T.);
#820=ADVANCED_FACE('',(#117,#42,#43,#44,#45,#46),#72,.T.);
#821=CLOSED_SHELL('',(#776,#777,#778,#779,#780,#781,#782,#783,#784,#785,
#786,#787,#788,#789,#790,#791,#792,#793,#794,#795,#796,#797,#798,#799,#800,
#801,#802,#803,#804,#805,#806,#807,#808,#809,#810,#811,#812,#813,#814,#815,
#816,#817,#818,#819,#820));
#822=DERIVED_UNIT_ELEMENT(#824,1.);
#823=DERIVED_UNIT_ELEMENT(#1470,-3.);
#824=(
MASS_UNIT()
NAMED_UNIT(*)
SI_UNIT(.KILO.,.GRAM.)
);
#825=DERIVED_UNIT((#822,#823));
#826=MEASURE_REPRESENTATION_ITEM('density measure',
POSITIVE_RATIO_MEASURE(7850.),#825);
#827=PROPERTY_DEFINITION_REPRESENTATION(#832,#829);
#828=PROPERTY_DEFINITION_REPRESENTATION(#833,#830);
#829=REPRESENTATION('material name',(#831),#1467);
#830=REPRESENTATION('density',(#826),#1467);
#831=DESCRIPTIVE_REPRESENTATION_ITEM('Steel','Steel');
#832=PROPERTY_DEFINITION('material property','material name',#1477);
#833=PROPERTY_DEFINITION('material property','density of part',#1477);
#834=AXIS2_PLACEMENT_3D('',#1166,#923,#924);
#835=AXIS2_PLACEMENT_3D('',#1167,#925,#926);
#836=AXIS2_PLACEMENT_3D('',#1169,#927,#928);
#837=AXIS2_PLACEMENT_3D('',#1172,#930,#931);
#838=AXIS2_PLACEMENT_3D('',#1173,#932,#933);
#839=AXIS2_PLACEMENT_3D('',#1190,#942,#943);
#840=AXIS2_PLACEMENT_3D('',#1193,#945,#946);
#841=AXIS2_PLACEMENT_3D('',#1194,#947,#948);
#842=AXIS2_PLACEMENT_3D('',#1201,#952,#953);
#843=AXIS2_PLACEMENT_3D('',#1204,#954,#955);
#844=AXIS2_PLACEMENT_3D('',#1207,#958,#959);
#845=AXIS2_PLACEMENT_3D('',#1210,#962,#963);
#846=AXIS2_PLACEMENT_3D('',#1217,#967,#968);
#847=AXIS2_PLACEMENT_3D('',#1220,#971,#972);
#848=AXIS2_PLACEMENT_3D('',#1223,#975,#976);
#849=AXIS2_PLACEMENT_3D('',#1226,#977,#978);
#850=AXIS2_PLACEMENT_3D('',#1229,#981,#982);
#851=AXIS2_PLACEMENT_3D('',#1239,#988,#989);
#852=AXIS2_PLACEMENT_3D('',#1241,#990,#991);
#853=AXIS2_PLACEMENT_3D('',#1244,#993,#994);
#854=AXIS2_PLACEMENT_3D('',#1245,#995,#996);
#855=AXIS2_PLACEMENT_3D('',#1251,#1000,#1001);
#856=AXIS2_PLACEMENT_3D('',#1258,#1005,#1006);
#857=AXIS2_PLACEMENT_3D('',#1261,#1009,#1010);
#858=AXIS2_PLACEMENT_3D('',#1264,#1011,#1012);
#859=AXIS2_PLACEMENT_3D('',#1267,#1015,#1016);
#860=AXIS2_PLACEMENT_3D('',#1270,#1019,#1020);
#861=AXIS2_PLACEMENT_3D('',#1272,#1022,#1023);
#862=AXIS2_PLACEMENT_3D('',#1274,#1024,#1025);
#863=AXIS2_PLACEMENT_3D('',#1276,#1027,#1028);
#864=AXIS2_PLACEMENT_3D('',#1282,#1032,#1033);
#865=AXIS2_PLACEMENT_3D('',#1284,#1034,#1035);
#866=AXIS2_PLACEMENT_3D('',#1287,#1037,#1038);
#867=AXIS2_PLACEMENT_3D('',#1288,#1039,#1040);
#868=AXIS2_PLACEMENT_3D('',#1290,#1041,#1042);
#869=AXIS2_PLACEMENT_3D('',#1293,#1044,#1045);
#870=AXIS2_PLACEMENT_3D('',#1294,#1046,#1047);
#871=AXIS2_PLACEMENT_3D('',#1303,#1049,#1050);
#872=AXIS2_PLACEMENT_3D('',#1314,#1051,#1052);
#873=AXIS2_PLACEMENT_3D('',#1323,#1053,#1054);
#874=AXIS2_PLACEMENT_3D('',#1325,#1055,#1056);
#875=AXIS2_PLACEMENT_3D('',#1328,#1058,#1059);
#876=AXIS2_PLACEMENT_3D('',#1329,#1060,#1061);
#877=AXIS2_PLACEMENT_3D('',#1342,#1063,#1064);
#878=AXIS2_PLACEMENT_3D('',#1353,#1065,#1066);
#879=AXIS2_PLACEMENT_3D('',#1358,#1067,#1068);
#880=AXIS2_PLACEMENT_3D('',#1360,#1069,#1070);
#881=AXIS2_PLACEMENT_3D('',#1363,#1072,#1073);
#882=AXIS2_PLACEMENT_3D('',#1364,#1074,#1075);
#883=AXIS2_PLACEMENT_3D('',#1368,#1077,#1078);
#884=AXIS2_PLACEMENT_3D('',#1379,#1079,#1080);
#885=AXIS2_PLACEMENT_3D('',#1389,#1081,#1082);
#886=AXIS2_PLACEMENT_3D('',#1390,#1083,#1084);
#887=AXIS2_PLACEMENT_3D('',#1392,#1085,#1086);
#888=AXIS2_PLACEMENT_3D('',#1395,#1088,#1089);
#889=AXIS2_PLACEMENT_3D('',#1396,#1090,#1091);
#890=AXIS2_PLACEMENT_3D('',#1400,#1093,#1094);
#891=AXIS2_PLACEMENT_3D('',#1411,#1095,#1096);
#892=AXIS2_PLACEMENT_3D('',#1421,#1097,#1098);
#893=AXIS2_PLACEMENT_3D('',#1422,#1099,#1100);
#894=AXIS2_PLACEMENT_3D('',#1423,#1101,#1102);
#895=AXIS2_PLACEMENT_3D('',#1424,#1103,#1104);
#896=AXIS2_PLACEMENT_3D('',#1425,#1105,#1106);
#897=AXIS2_PLACEMENT_3D('',#1426,#1107,#1108);
#898=AXIS2_PLACEMENT_3D('',#1427,#1109,#1110);
#899=AXIS2_PLACEMENT_3D('',#1428,#1111,#1112);
#900=AXIS2_PLACEMENT_3D('',#1429,#1113,#1114);
#901=AXIS2_PLACEMENT_3D('',#1430,#1115,#1116);
#902=AXIS2_PLACEMENT_3D('',#1431,#1117,#1118);
#903=AXIS2_PLACEMENT_3D('',#1432,#1119,#1120);
#904=AXIS2_PLACEMENT_3D('',#1433,#1121,#1122);
#905=AXIS2_PLACEMENT_3D('',#1434,#1123,#1124);
#906=AXIS2_PLACEMENT_3D('',#1435,#1125,#1126);
#907=AXIS2_PLACEMENT_3D('',#1436,#1127,#1128);
#908=AXIS2_PLACEMENT_3D('',#1437,#1129,#1130);
#909=AXIS2_PLACEMENT_3D('',#1439,#1131,#1132);
#910=AXIS2_PLACEMENT_3D('',#1441,#1134,#1135);
#911=AXIS2_PLACEMENT_3D('',#1443,#1136,#1137);
#912=AXIS2_PLACEMENT_3D('',#1445,#1139,#1140);
#913=AXIS2_PLACEMENT_3D('',#1447,#1141,#1142);
#914=AXIS2_PLACEMENT_3D('',#1449,#1144,#1145);
#915=AXIS2_PLACEMENT_3D('',#1451,#1146,#1147);
#916=AXIS2_PLACEMENT_3D('',#1453,#1149,#1150);
#917=AXIS2_PLACEMENT_3D('',#1455,#1151,#1152);
#918=AXIS2_PLACEMENT_3D('',#1456,#1153,#1154);
#919=AXIS2_PLACEMENT_3D('',#1458,#1155,#1156);
#920=AXIS2_PLACEMENT_3D('',#1460,#1158,#1159);
#921=AXIS2_PLACEMENT_3D('',#1462,#1161,#1162);
#922=AXIS2_PLACEMENT_3D('',#1464,#1164,#1165);
#923=DIRECTION('axis',(0.,0.,1.));
#924=DIRECTION('refdir',(1.,0.,0.));
#925=DIRECTION('center_axis',(0.,-1.,0.));
#926=DIRECTION('ref_axis',(1.,0.,0.));
#927=DIRECTION('center_axis',(0.,-1.,0.));
#928=DIRECTION('ref_axis',(1.,0.,0.));
#929=DIRECTION('',(0.707106781186548,0.707106781186547,8.65956056235494E-17));
#930=DIRECTION('center_axis',(0.,1.,0.));
#931=DIRECTION('ref_axis',(1.,0.,0.));
#932=DIRECTION('center_axis',(0.,1.,0.));
#933=DIRECTION('ref_axis',(1.,0.,0.));
#934=DIRECTION('',(-0.707106781186548,0.,-0.707106781186548));
#935=DIRECTION('',(1.36642833800019E-16,0.,1.));
#936=DIRECTION('',(0.707106781186546,0.,-0.707106781186549));
#937=DIRECTION('',(-1.,0.,0.));
#938=DIRECTION('',(0.707106781186548,0.,0.707106781186548));
#939=DIRECTION('',(0.,0.,-1.));
#940=DIRECTION('',(-0.707106781186548,0.,0.707106781186548));
#941=DIRECTION('',(1.,0.,0.));
#942=DIRECTION('center_axis',(0.,1.,0.));
#943=DIRECTION('ref_axis',(1.,0.,0.));
#944=DIRECTION('',(0.,1.,0.));
#945=DIRECTION('center_axis',(0.,1.,0.));
#946=DIRECTION('ref_axis',(1.,0.,0.));
#947=DIRECTION('center_axis',(0.577350269189626,0.577350269189626,-0.577350269189626));
#948=DIRECTION('ref_axis',(-0.707106781186548,0.,-0.707106781186548));
#949=DIRECTION('',(0.,-0.707106781186547,-0.707106781186548));
#950=DIRECTION('',(-0.707106781186548,0.707106781186547,0.));
#951=DIRECTION('',(0.707106781186547,0.,0.707106781186547));
#952=DIRECTION('center_axis',(0.707106781186547,0.707106781186548,0.));
#953=DIRECTION('ref_axis',(0.,0.,-1.));
#954=DIRECTION('center_axis',(0.707106781186547,0.707106781186548,0.));
#955=DIRECTION('ref_axis',(0.707106781186548,-0.707106781186547,0.));
#956=DIRECTION('',(0.,0.,-1.));
#957=DIRECTION('',(0.,0.,1.));
#958=DIRECTION('center_axis',(0.707106781186548,0.,-0.707106781186548));
#959=DIRECTION('ref_axis',(-0.707106781186548,0.,-0.707106781186548));
#960=DIRECTION('',(0.,1.,0.));
#961=DIRECTION('',(0.,-1.,0.));
#962=DIRECTION('center_axis',(-0.577350269189626,0.577350269189626,-0.577350269189626));
#963=DIRECTION('ref_axis',(-0.707106781186548,0.,0.707106781186548));
#964=DIRECTION('',(-0.707106781186548,-0.707106781186547,0.));
#965=DIRECTION('',(0.,0.707106781186547,0.707106781186548));
#966=DIRECTION('',(0.707106781186547,0.,-0.707106781186547));
#967=DIRECTION('center_axis',(0.,0.707106781186548,-0.707106781186547));
#968=DIRECTION('ref_axis',(-1.,0.,0.));
#969=DIRECTION('',(-1.,0.,0.));
#970=DIRECTION('',(1.,0.,0.));
#971=DIRECTION('center_axis',(-0.707106781186548,0.,-0.707106781186548));
#972=DIRECTION('ref_axis',(-0.707106781186548,0.,0.707106781186548));
#973=DIRECTION('',(0.,1.,0.));
#974=DIRECTION('',(0.,-1.,0.));
#975=DIRECTION('center_axis',(-0.707106781186547,0.707106781186548,0.));
#976=DIRECTION('ref_axis',(0.,0.,1.));
#977=DIRECTION('center_axis',(-0.707106781186547,0.707106781186548,0.));
#978=DIRECTION('ref_axis',(-0.707106781186548,-0.707106781186547,0.));
#979=DIRECTION('',(0.,0.,-1.));
#980=DIRECTION('',(0.,0.,1.));
#981=DIRECTION('center_axis',(1.,0.,0.));
#982=DIRECTION('ref_axis',(0.,0.,-1.));
#983=DIRECTION('',(0.,-1.,0.));
#984=DIRECTION('',(0.,0.,-1.));
#985=DIRECTION('',(0.,1.,0.));
#986=DIRECTION('',(0.,0.,-1.));
#987=DIRECTION('',(0.,1.,0.));
#988=DIRECTION('center_axis',(0.,1.,0.));
#989=DIRECTION('ref_axis',(1.,0.,0.));
#990=DIRECTION('center_axis',(0.,1.,0.));
#991=DIRECTION('ref_axis',(-0.707106781186547,0.,-0.707106781186547));
#992=DIRECTION('',(1.,0.,0.));
#993=DIRECTION('center_axis',(0.,1.,0.));
#994=DIRECTION('ref_axis',(0.707106781186547,0.,-0.707106781186547));
#995=DIRECTION('center_axis',(0.577350269189627,0.577350269189625,0.577350269189625));
#996=DIRECTION('ref_axis',(0.707106781186546,0.,-0.707106781186549));
#997=DIRECTION('',(0.707106781186546,-0.707106781186549,0.));
#998=DIRECTION('',(0.,0.707106781186547,-0.707106781186548));
#999=DIRECTION('',(-0.707106781186546,0.,0.707106781186549));
#1000=DIRECTION('center_axis',(-0.577350269189626,0.577350269189626,0.577350269189626));
#1001=DIRECTION('ref_axis',(0.707106781186548,0.,0.707106781186548));
#1002=DIRECTION('',(-0.707106781186547,0.,-0.707106781186547));
#1003=DIRECTION('',(0.,-0.707106781186547,0.707106781186548));
#1004=DIRECTION('',(0.707106781186548,0.707106781186547,0.));
#1005=DIRECTION('center_axis',(0.,0.707106781186548,0.707106781186547));
#1006=DIRECTION('ref_axis',(1.,0.,0.));
#1007=DIRECTION('',(1.,0.,0.));
#1008=DIRECTION('',(-1.,0.,0.));
#1009=DIRECTION('center_axis',(-0.707106781186547,0.707106781186548,0.));
#1010=DIRECTION('ref_axis',(0.,0.,1.));
#1011=DIRECTION('center_axis',(-0.707106781186547,0.707106781186548,0.));
#1012=DIRECTION('ref_axis',(-0.707106781186548,-0.707106781186547,0.));
#1013=DIRECTION('',(0.,0.,1.));
#1014=DIRECTION('',(0.,0.,-1.));
#1015=DIRECTION('center_axis',(-0.707106781186548,0.,0.707106781186548));
#1016=DIRECTION('ref_axis',(0.707106781186548,0.,0.707106781186548));
#1017=DIRECTION('',(0.,1.,0.));
#1018=DIRECTION('',(0.,-1.,0.));
#1019=DIRECTION('center_axis',(0.707106781186549,0.,0.707106781186546));
#1020=DIRECTION('ref_axis',(0.707106781186546,0.,-0.707106781186549));
#1021=DIRECTION('',(0.,-1.,0.));
#1022=DIRECTION('center_axis',(0.707106781186549,0.707106781186546,0.));
#1023=DIRECTION('ref_axis',(0.,0.,-1.));
#1024=DIRECTION('center_axis',(0.707106781186549,0.707106781186546,0.));
#1025=DIRECTION('ref_axis',(0.707106781186546,-0.707106781186549,0.));
#1026=DIRECTION('',(0.,0.,1.));
#1027=DIRECTION('center_axis',(-1.,0.,0.));
#1028=DIRECTION('ref_axis',(0.,0.,1.));
#1029=DIRECTION('',(0.,-1.,0.));
#1030=DIRECTION('',(0.,0.,1.));
#1031=DIRECTION('',(0.,1.,0.));
#1032=DIRECTION('center_axis',(0.,1.,0.));
#1033=DIRECTION('ref_axis',(1.,0.,0.));
#1034=DIRECTION('center_axis',(0.,1.,0.));
#1035=DIRECTION('ref_axis',(0.707106781186547,0.,0.707106781186547));
#1036=DIRECTION('',(-1.,0.,0.));
#1037=DIRECTION('center_axis',(0.,1.,0.));
#1038=DIRECTION('ref_axis',(-0.707106781186547,0.,0.707106781186547));
#1039=DIRECTION('center_axis',(0.,1.,0.));
#1040=DIRECTION('ref_axis',(0.,0.,1.));
#1041=DIRECTION('center_axis',(0.,-1.,0.));
#1042=DIRECTION('ref_axis',(0.,0.,1.));
#1043=DIRECTION('',(-8.65956056235493E-17,-0.707106781186548,0.707106781186548));
#1044=DIRECTION('center_axis',(0.,-1.,0.));
#1045=DIRECTION('ref_axis',(0.,0.,1.));
#1046=DIRECTION('center_axis',(0.,-1.,0.));
#1047=DIRECTION('ref_axis',(0.,0.,1.));
#1048=DIRECTION('',(0.,-1.,0.));
#1049=DIRECTION('center_axis',(0.,1.,0.));
#1050=DIRECTION('ref_axis',(0.,0.,1.));
#1051=DIRECTION('center_axis',(0.,1.,0.));
#1052=DIRECTION('ref_axis',(0.,0.,1.));
#1053=DIRECTION('center_axis',(0.,1.,0.));
#1054=DIRECTION('ref_axis',(0.,0.,1.));
#1055=DIRECTION('center_axis',(0.,-1.,0.));
#1056=DIRECTION('ref_axis',(0.,0.,1.));
#1057=DIRECTION('',(-8.65956056235493E-17,-0.707106781186548,0.707106781186548));
#1058=DIRECTION('center_axis',(0.,-1.,0.));
#1059=DIRECTION('ref_axis',(0.,0.,1.));
#1060=DIRECTION('center_axis',(0.,-1.,0.));
#1061=DIRECTION('ref_axis',(0.,0.,1.));
#1062=DIRECTION('',(0.,-1.,0.));
#1063=DIRECTION('center_axis',(0.,1.,0.));
#1064=DIRECTION('ref_axis',(0.,0.,1.));
#1065=DIRECTION('center_axis',(0.,1.,0.));
#1066=DIRECTION('ref_axis',(0.,0.,1.));
#1067=DIRECTION('center_axis',(0.,1.,0.));
#1068=DIRECTION('ref_axis',(0.,0.,1.));
#1069=DIRECTION('center_axis',(0.,-1.,0.));
#1070=DIRECTION('ref_axis',(0.,0.,1.));
#1071=DIRECTION('',(-8.65956056235493E-17,-0.707106781186548,0.707106781186548));
#1072=DIRECTION('center_axis',(0.,-1.,0.));
#1073=DIRECTION('ref_axis',(0.,0.,1.));
#1074=DIRECTION('center_axis',(0.,-1.,0.));
#1075=DIRECTION('ref_axis',(0.,0.,1.));
#1076=DIRECTION('',(0.,-1.,0.));
#1077=DIRECTION('center_axis',(0.,1.,0.));
#1078=DIRECTION('ref_axis',(0.,0.,1.));
#1079=DIRECTION('center_axis',(0.,1.,0.));
#1080=DIRECTION('ref_axis',(0.,0.,1.));
#1081=DIRECTION('center_axis',(0.,1.,0.));
#1082=DIRECTION('ref_axis',(0.,0.,1.));
#1083=DIRECTION('center_axis',(0.,1.,0.));
#1084=DIRECTION('ref_axis',(0.,0.,1.));
#1085=DIRECTION('center_axis',(0.,-1.,0.));
#1086=DIRECTION('ref_axis',(0.,0.,1.));
#1087=DIRECTION('',(-8.65956056235493E-17,-0.707106781186548,0.707106781186548));
#1088=DIRECTION('center_axis',(0.,-1.,0.));
#1089=DIRECTION('ref_axis',(0.,0.,1.));
#1090=DIRECTION('center_axis',(0.,-1.,0.));
#1091=DIRECTION('ref_axis',(0.,0.,1.));
#1092=DIRECTION('',(0.,-1.,0.));
#1093=DIRECTION('center_axis',(0.,1.,0.));
#1094=DIRECTION('ref_axis',(0.,0.,1.));
#1095=DIRECTION('center_axis',(0.,1.,0.));
#1096=DIRECTION('ref_axis',(0.,0.,1.));
#1097=DIRECTION('center_axis',(0.,1.,0.));
#1098=DIRECTION('ref_axis',(0.,0.,1.));
#1099=DIRECTION('center_axis',(0.,1.,0.));
#1100=DIRECTION('ref_axis',(1.,0.,0.));
#1101=DIRECTION('center_axis',(0.,-1.,0.));
#1102=DIRECTION('ref_axis',(1.,0.,0.));
#1103=DIRECTION('center_axis',(0.,-1.,0.));
#1104=DIRECTION('ref_axis',(1.,0.,0.));
#1105=DIRECTION('center_axis',(0.,-1.,0.));
#1106=DIRECTION('ref_axis',(1.,0.,0.));
#1107=DIRECTION('center_axis',(0.,-1.,0.));
#1108=DIRECTION('ref_axis',(1.,0.,0.));
#1109=DIRECTION('center_axis',(0.,-1.,0.));
#1110=DIRECTION('ref_axis',(1.,0.,0.));
#1111=DIRECTION('center_axis',(0.,1.,0.));
#1112=DIRECTION('ref_axis',(1.,0.,0.));
#1113=DIRECTION('center_axis',(0.,-1.,0.));
#1114=DIRECTION('ref_axis',(-0.866025403784439,0.,-0.5));
#1115=DIRECTION('center_axis',(0.,1.,0.));
#1116=DIRECTION('ref_axis',(1.,0.,0.));
#1117=DIRECTION('center_axis',(0.,-1.,0.));
#1118=DIRECTION('ref_axis',(1.,0.,0.));
#1119=DIRECTION('center_axis',(0.,1.,0.));
#1120=DIRECTION('ref_axis',(1.,0.,0.));
#1121=DIRECTION('center_axis',(0.,-1.,0.));
#1122=DIRECTION('ref_axis',(1.,0.,0.));
#1123=DIRECTION('center_axis',(0.,1.,0.));
#1124=DIRECTION('ref_axis',(1.,0.,0.));
#1125=DIRECTION('center_axis',(0.,0.,-1.));
#1126=DIRECTION('ref_axis',(1.,0.,0.));
#1127=DIRECTION('center_axis',(0.,0.,1.));
#1128=DIRECTION('ref_axis',(-1.,0.,0.));
#1129=DIRECTION('center_axis',(0.,1.,0.));
#1130=DIRECTION('ref_axis',(-0.707106781186547,0.,-0.707106781186547));
#1131=DIRECTION('center_axis',(0.,-1.,0.));
#1132=DIRECTION('ref_axis',(-0.707106781186547,0.,-0.707106781186547));
#1133=DIRECTION('',(0.,-1.,0.));
#1134=DIRECTION('center_axis',(0.,1.,0.));
#1135=DIRECTION('ref_axis',(0.707106781186547,0.,-0.707106781186547));
#1136=DIRECTION('center_axis',(0.,-1.,0.));
#1137=DIRECTION('ref_axis',(0.707106781186547,0.,-0.707106781186547));
#1138=DIRECTION('',(0.,1.,0.));
#1139=DIRECTION('center_axis',(0.,1.,0.));
#1140=DIRECTION('ref_axis',(0.707106781186547,0.,0.707106781186547));
#1141=DIRECTION('center_axis',(0.,-1.,0.));
#1142=DIRECTION('ref_axis',(0.707106781186547,0.,0.707106781186547));
#1143=DIRECTION('',(0.,-1.,0.));
#1144=DIRECTION('center_axis',(0.,1.,0.));
#1145=DIRECTION('ref_axis',(-0.707106781186547,0.,0.707106781186547));
#1146=DIRECTION('center_axis',(0.,-1.,0.));
#1147=DIRECTION('ref_axis',(-0.707106781186547,0.,0.707106781186547));
#1148=DIRECTION('',(0.,1.,0.));
#1149=DIRECTION('center_axis',(0.,1.,0.));
#1150=DIRECTION('ref_axis',(1.,0.,0.));
#1151=DIRECTION('center_axis',(0.,-1.,0.));
#1152=DIRECTION('ref_axis',(1.,0.,0.));
#1153=DIRECTION('center_axis',(0.,1.,0.));
#1154=DIRECTION('ref_axis',(1.,0.,0.));
#1155=DIRECTION('center_axis',(0.,-1.,0.));
#1156=DIRECTION('ref_axis',(1.,0.,0.));
#1157=DIRECTION('',(0.,-1.,0.));
#1158=DIRECTION('center_axis',(0.,0.,1.));
#1159=DIRECTION('ref_axis',(1.,0.,0.));
#1160=DIRECTION('',(1.,0.,0.));
#1161=DIRECTION('center_axis',(0.,0.,-1.));
#1162=DIRECTION('ref_axis',(-1.,0.,0.));
#1163=DIRECTION('',(-1.,0.,0.));
#1164=DIRECTION('center_axis',(0.,1.,0.));
#1165=DIRECTION('ref_axis',(1.,0.,0.));
#1166=CARTESIAN_POINT('',(0.,0.,0.));
#1167=CARTESIAN_POINT('Origin',(0.,-4.75,0.));
#1168=CARTESIAN_POINT('',(-11.7,-5.,-1.4328367550024E-15));
#1169=CARTESIAN_POINT('Origin',(0.,-5.,0.));
#1170=CARTESIAN_POINT('',(-11.2,-4.5,1.37160441504504E-15));
#1171=CARTESIAN_POINT('',(-11.45,-4.75,-1.40222058502372E-15));
#1172=CARTESIAN_POINT('Origin',(0.,-4.5,0.));
#1173=CARTESIAN_POINT('Origin',(2.22044604925031E-15,-5.,2.22044604925031E-15));
#1174=CARTESIAN_POINT('',(12.25,-5.,-15.25));
#1175=CARTESIAN_POINT('',(11.25,-5.,-16.25));
#1176=CARTESIAN_POINT('',(12.75,-5.,-14.75));
#1177=CARTESIAN_POINT('',(12.25,-5.,15.25));
#1178=CARTESIAN_POINT('',(12.25,-5.,-16.25));
#1179=CARTESIAN_POINT('',(11.25,-5.,16.25));
#1180=CARTESIAN_POINT('',(12.75,-5.,14.75));
#1181=CARTESIAN_POINT('',(-11.25,-5.,16.25));
#1182=CARTESIAN_POINT('',(12.25,-5.,16.25));
#1183=CARTESIAN_POINT('',(-12.25,-5.,15.25));
#1184=CARTESIAN_POINT('',(-12.75,-5.,14.75));
#1185=CARTESIAN_POINT('',(-12.25,-5.,-15.25));
#1186=CARTESIAN_POINT('',(-12.25,-5.,16.25));
#1187=CARTESIAN_POINT('',(-11.25,-5.,-16.25));
#1188=CARTESIAN_POINT('',(-12.75,-5.,-14.75));
#1189=CARTESIAN_POINT('',(-12.25,-5.,-16.25));
#1190=CARTESIAN_POINT('Origin',(0.,0.,0.));
#1191=CARTESIAN_POINT('',(-11.2,2.,1.37160441504504E-15));
#1192=CARTESIAN_POINT('',(-11.2,0.,1.37160441504504E-15));
#1193=CARTESIAN_POINT('Origin',(0.,2.,0.));
#1194=CARTESIAN_POINT('Origin',(12.25,-1.,-15.25));
#1195=CARTESIAN_POINT('',(11.25,0.,-15.25));
#1196=CARTESIAN_POINT('',(11.25,-1.,-16.25));
#1197=CARTESIAN_POINT('',(11.25,0.,-15.25));
#1198=CARTESIAN_POINT('',(12.25,-1.,-15.25));
#1199=CARTESIAN_POINT('',(12.25,-1.,-15.25));
#1200=CARTESIAN_POINT('',(11.25,-1.,-16.25));
#1201=CARTESIAN_POINT('Origin',(11.75,-0.5,6.125));
#1202=CARTESIAN_POINT('',(11.25,0.,-10.25));
#1203=CARTESIAN_POINT('',(12.25,-1.,-7.25));
#1204=CARTESIAN_POINT('Origin',(7.25,3.99999999999999,-7.25));
#1205=CARTESIAN_POINT('',(12.25,-1.,6.125));
#1206=CARTESIAN_POINT('',(11.25,0.,6.125));
#1207=CARTESIAN_POINT('Origin',(11.75,0.,-15.75));
#1208=CARTESIAN_POINT('',(11.25,0.,-16.25));
#1209=CARTESIAN_POINT('',(12.25,0.,-15.25));
#1210=CARTESIAN_POINT('Origin',(-11.25,-1.,-16.25));
#1211=CARTESIAN_POINT('',(-11.25,0.,-15.25));
#1212=CARTESIAN_POINT('',(-12.25,-1.,-15.25));
#1213=CARTESIAN_POINT('',(-11.25,0.,-15.25));
#1214=CARTESIAN_POINT('',(-11.25,-1.,-16.25));
#1215=CARTESIAN_POINT('',(-11.25,-1.,-16.25));
#1216=CARTESIAN_POINT('',(-12.25,-1.,-15.25));
#1217=CARTESIAN_POINT('Origin',(-6.125,-0.5,-15.75));
#1218=CARTESIAN_POINT('',(-6.125,-1.,-16.25));
#1219=CARTESIAN_POINT('',(-6.125,0.,-15.25));
#1220=CARTESIAN_POINT('Origin',(-11.75,0.,-15.75));
#1221=CARTESIAN_POINT('',(-12.25,0.,-15.25));
#1222=CARTESIAN_POINT('',(-11.25,0.,-16.25));
#1223=CARTESIAN_POINT('Origin',(-11.75,-0.5,-6.125));
#1224=CARTESIAN_POINT('',(-12.25,-1.,-7.25));
#1225=CARTESIAN_POINT('',(-11.25,0.,-10.25));
#1226=CARTESIAN_POINT('Origin',(-7.25,3.99999999999999,-7.25));
#1227=CARTESIAN_POINT('',(-11.25,0.,-6.125));
#1228=CARTESIAN_POINT('',(-12.25,-1.,-6.125));
#1229=CARTESIAN_POINT('Origin',(12.25,0.,12.25));
#1230=CARTESIAN_POINT('',(12.25,5.,-7.25));
#1231=CARTESIAN_POINT('',(12.25,0.,-7.25));
#1232=CARTESIAN_POINT('',(12.25,5.,7.25));
#1233=CARTESIAN_POINT('',(12.25,5.,-12.25));
#1234=CARTESIAN_POINT('',(12.25,-1.,7.25));
#1235=CARTESIAN_POINT('',(12.25,0.,7.25));
#1236=CARTESIAN_POINT('',(12.25,-1.,15.25));
#1237=CARTESIAN_POINT('',(12.25,-1.,6.125));
#1238=CARTESIAN_POINT('',(12.25,0.,15.25));
#1239=CARTESIAN_POINT('Origin',(2.22044604925031E-15,0.,2.22044604925031E-15));
#1240=CARTESIAN_POINT('',(-7.25,0.,-12.25));
#1241=CARTESIAN_POINT('Origin',(-7.25,0.,-7.25));
#1242=CARTESIAN_POINT('',(7.25,0.,-12.25));
#1243=CARTESIAN_POINT('',(-12.25,0.,-12.25));
#1244=CARTESIAN_POINT('Origin',(7.25,0.,-7.25));
#1245=CARTESIAN_POINT('Origin',(11.25,-1.,16.25));
#1246=CARTESIAN_POINT('',(11.25,0.,15.25));
#1247=CARTESIAN_POINT('',(11.25,0.,15.25));
#1248=CARTESIAN_POINT('',(11.25,-1.,16.25));
#1249=CARTESIAN_POINT('',(11.25,-1.,16.25));
#1250=CARTESIAN_POINT('',(12.25,-1.,15.25));
#1251=CARTESIAN_POINT('Origin',(-11.25,0.,15.25));
#1252=CARTESIAN_POINT('',(-11.25,-1.,16.25));
#1253=CARTESIAN_POINT('',(-12.25,-1.,15.25));
#1254=CARTESIAN_POINT('',(-11.25,-1.,16.25));
#1255=CARTESIAN_POINT('',(-11.25,0.,15.25));
#1256=CARTESIAN_POINT('',(-11.25,0.,15.25));
#1257=CARTESIAN_POINT('',(-12.25,-1.,15.25));
#1258=CARTESIAN_POINT('Origin',(6.125,-0.5,15.75));
#1259=CARTESIAN_POINT('',(6.125,-1.,16.25));
#1260=CARTESIAN_POINT('',(6.125,0.,15.25));
#1261=CARTESIAN_POINT('Origin',(-11.75,-0.5,-6.125));
#1262=CARTESIAN_POINT('',(-11.25,0.,10.25));
#1263=CARTESIAN_POINT('',(-12.25,-1.,7.25));
#1264=CARTESIAN_POINT('Origin',(-7.25,3.99999999999999,7.25));
#1265=CARTESIAN_POINT('',(-12.25,-1.,-6.125));
#1266=CARTESIAN_POINT('',(-11.25,0.,-6.125));
#1267=CARTESIAN_POINT('Origin',(-11.75,0.,15.75));
#1268=CARTESIAN_POINT('',(-11.25,0.,16.25));
#1269=CARTESIAN_POINT('',(-12.25,0.,15.25));
#1270=CARTESIAN_POINT('Origin',(11.75,0.,15.75));
#1271=CARTESIAN_POINT('',(11.25,0.,16.25));
#1272=CARTESIAN_POINT('Origin',(11.75,-0.5,6.125));
#1273=CARTESIAN_POINT('',(11.25,0.,10.25));
#1274=CARTESIAN_POINT('Origin',(7.25,4.00000000000002,7.25));
#1275=CARTESIAN_POINT('',(11.25,0.,6.125));
#1276=CARTESIAN_POINT('Origin',(-12.25,0.,-12.25));
#1277=CARTESIAN_POINT('',(-12.25,5.,7.25));
#1278=CARTESIAN_POINT('',(-12.25,0.,7.25));
#1279=CARTESIAN_POINT('',(-12.25,5.,-7.25));
#1280=CARTESIAN_POINT('',(-12.25,5.,12.25));
#1281=CARTESIAN_POINT('',(-12.25,0.,-7.25));
#1282=CARTESIAN_POINT('Origin',(2.22044604925031E-15,0.,2.22044604925031E-15));
#1283=CARTESIAN_POINT('',(7.25,0.,12.25));
#1284=CARTESIAN_POINT('Origin',(7.25,0.,7.25));
#1285=CARTESIAN_POINT('',(-7.25,0.,12.25));
#1286=CARTESIAN_POINT('',(12.25,0.,12.25));
#1287=CARTESIAN_POINT('Origin',(-7.25,0.,7.25));
#1288=CARTESIAN_POINT('Origin',(6.62509433895096,4.4,3.825));
#1289=CARTESIAN_POINT('',(6.62509433895096,5.,1.075));
#1290=CARTESIAN_POINT('Origin',(6.62509433895096,5.,3.825));
#1291=CARTESIAN_POINT('',(6.62509433895096,3.8,2.275));
#1292=CARTESIAN_POINT('',(6.62509433895096,4.4,1.675));
#1293=CARTESIAN_POINT('Origin',(6.62509433895096,3.8,3.825));
#1294=CARTESIAN_POINT('Origin',(6.62509433895096,-0.5,3.825));
#1295=CARTESIAN_POINT('',(6.62509433895095,2.24518023072684,2.275));
#1296=CARTESIAN_POINT('',(6.62509433895096,-0.5,2.275));
#1297=CARTESIAN_POINT('',(6.87696970300258,2.,2.29560181738572));
#1298=CARTESIAN_POINT('Ctrl Pts',(6.87696970300258,2.,2.29560181738572));
#1299=CARTESIAN_POINT('Ctrl Pts',(6.79550435027431,2.08152187879637,2.28218535357056));
#1300=CARTESIAN_POINT('Ctrl Pts',(6.71097662890238,2.16395354799774,2.275));
#1301=CARTESIAN_POINT('Ctrl Pts',(6.62509433895095,2.24518023072685,2.275));
#1302=CARTESIAN_POINT('',(5.42653434233105,2.,4.8078295551633));
#1303=CARTESIAN_POINT('Origin',(6.62509433895096,2.,3.825));
#1304=CARTESIAN_POINT('',(5.08732744928544,3.,3.63064724584294));
#1305=CARTESIAN_POINT('Ctrl Pts',(5.08732744928544,3.,3.63064724584294));
#1306=CARTESIAN_POINT('Ctrl Pts',(5.07235839563659,2.94338285173388,3.74908608747737));
#1307=CARTESIAN_POINT('Ctrl Pts',(5.07215692932634,2.87446424050336,3.86345853240492));
#1308=CARTESIAN_POINT('Ctrl Pts',(5.1001715271935,2.6636310812195,4.1702367243171));
#1309=CARTESIAN_POINT('Ctrl Pts',(5.15993078380873,2.49025059509044,4.36744139351105));
#1310=CARTESIAN_POINT('Ctrl Pts',(5.30089683837325,2.2066785082352,4.63793933265871));
#1311=CARTESIAN_POINT('Ctrl Pts',(5.36063472699516,2.10261869307547,4.72746501756948));
#1312=CARTESIAN_POINT('Ctrl Pts',(5.42653434233105,2.,4.8078295551633));
#1313=CARTESIAN_POINT('',(5.68789647172271,3.,2.59043118552961));
#1314=CARTESIAN_POINT('Origin',(6.62509433895096,3.,3.825));
#1315=CARTESIAN_POINT('Ctrl Pts',(6.62509433895095,2.24518023072685,2.275));
#1316=CARTESIAN_POINT('Ctrl Pts',(6.60286910631745,2.26620065205845,2.275));
#1317=CARTESIAN_POINT('Ctrl Pts',(6.58055320151639,2.28714042203187,2.27547822399687));
#1318=CARTESIAN_POINT('Ctrl Pts',(6.36228058822465,2.49025059509044,2.28491044379219));
#1319=CARTESIAN_POINT('Ctrl Pts',(6.16161670665016,2.6636310812195,2.3317597440491));
#1320=CARTESIAN_POINT('Ctrl Pts',(5.88193170019358,2.87446424050336,2.46088748657542));
#1321=CARTESIAN_POINT('Ctrl Pts',(5.78298299054851,2.94338285173388,2.51824818398188));
#1322=CARTESIAN_POINT('Ctrl Pts',(5.68789647172271,3.,2.59043118552961));
#1323=CARTESIAN_POINT('Origin',(-6.62509433895096,4.4,3.825));
#1324=CARTESIAN_POINT('',(-6.62509433895096,5.,1.075));
#1325=CARTESIAN_POINT('Origin',(-6.62509433895096,5.,3.825));
#1326=CARTESIAN_POINT('',(-6.62509433895096,3.8,2.275));
#1327=CARTESIAN_POINT('',(-6.62509433895096,4.4,1.675));
#1328=CARTESIAN_POINT('Origin',(-6.62509433895096,3.8,3.825));
#1329=CARTESIAN_POINT('Origin',(-6.62509433895096,-0.5,3.825));
#1330=CARTESIAN_POINT('',(-6.62509433895095,2.24518023072685,2.275));
#1331=CARTESIAN_POINT('',(-6.62509433895096,-0.5,2.275));
#1332=CARTESIAN_POINT('',(-5.68789647172271,3.,2.59043118552961));
#1333=CARTESIAN_POINT('Ctrl Pts',(-5.68789647172271,3.,2.59043118552961));
#1334=CARTESIAN_POINT('Ctrl Pts',(-5.78298299054851,2.94338285173388,2.51824818398188));
#1335=CARTESIAN_POINT('Ctrl Pts',(-5.88193170019357,2.87446424050336,2.46088748657542));
#1336=CARTESIAN_POINT('Ctrl Pts',(-6.16161670665016,2.6636310812195,2.3317597440491));
#1337=CARTESIAN_POINT('Ctrl Pts',(-6.36228058822465,2.49025059509044,2.28491044379219));
#1338=CARTESIAN_POINT('Ctrl Pts',(-6.58055320151639,2.28714042203188,2.27547822399687));
#1339=CARTESIAN_POINT('Ctrl Pts',(-6.60286910631745,2.26620065205845,2.275));
#1340=CARTESIAN_POINT('Ctrl Pts',(-6.62509433895095,2.24518023072685,2.275));
#1341=CARTESIAN_POINT('',(-5.08732744928544,3.,3.63064724584294));
#1342=CARTESIAN_POINT('Origin',(-6.62509433895096,3.,3.825));
#1343=CARTESIAN_POINT('',(-5.42653434233105,2.,4.8078295551633));
#1344=CARTESIAN_POINT('Ctrl Pts',(-5.42653434233105,2.,4.8078295551633));
#1345=CARTESIAN_POINT('Ctrl Pts',(-5.36063472699516,2.10261869307547,4.72746501756948));
#1346=CARTESIAN_POINT('Ctrl Pts',(-5.30089683837325,2.2066785082352,4.6379393326587));
#1347=CARTESIAN_POINT('Ctrl Pts',(-5.15993078380873,2.49025059509044,4.36744139351105));
#1348=CARTESIAN_POINT('Ctrl Pts',(-5.1001715271935,2.6636310812195,4.1702367243171));
#1349=CARTESIAN_POINT('Ctrl Pts',(-5.07215692932634,2.87446424050336,3.86345853240492));
#1350=CARTESIAN_POINT('Ctrl Pts',(-5.07235839563659,2.94338285173388,3.74908608747737));
#1351=CARTESIAN_POINT('Ctrl Pts',(-5.08732744928544,3.,3.63064724584294));
#1352=CARTESIAN_POINT('',(-6.87696970300258,2.,2.29560181738572));
#1353=CARTESIAN_POINT('Origin',(-6.62509433895096,2.,3.825));
#1354=CARTESIAN_POINT('Ctrl Pts',(-6.62509433895095,2.24518023072685,2.275));
#1355=CARTESIAN_POINT('Ctrl Pts',(-6.71097662890238,2.16395354799774,2.275));
#1356=CARTESIAN_POINT('Ctrl Pts',(-6.79550435027431,2.08152187879637,2.28218535357056));
#1357=CARTESIAN_POINT('Ctrl Pts',(-6.87696970300258,2.,2.29560181738572));
#1358=CARTESIAN_POINT('Origin',(1.54074395550979E-33,4.4,7.65));
#1359=CARTESIAN_POINT('',(3.36777869765522E-16,5.,4.9));
#1360=CARTESIAN_POINT('Origin',(1.54074395550979E-33,5.,7.65));
#1361=CARTESIAN_POINT('',(1.8982025386784E-16,3.8,6.1));
#1362=CARTESIAN_POINT('',(2.63299061816681E-16,4.4,5.5));
#1363=CARTESIAN_POINT('Origin',(1.54074395550979E-33,3.8,7.65));
#1364=CARTESIAN_POINT('Origin',(1.54074395550979E-33,-0.5,7.65));
#1365=CARTESIAN_POINT('',(1.8982025386784E-16,3.,6.1));
#1366=CARTESIAN_POINT('',(1.8982025386784E-16,-0.5,6.1));
#1367=CARTESIAN_POINT('',(0.600569022437272,3.,6.22107843137255));
#1368=CARTESIAN_POINT('Origin',(1.54074395550979E-33,3.,7.65));
#1369=CARTESIAN_POINT('',(1.45043536067153,2.,7.10343137254902));
#1370=CARTESIAN_POINT('Ctrl Pts',(1.45043536067153,2.,7.10343137254902));
#1371=CARTESIAN_POINT('Ctrl Pts',(1.41378743721984,2.10261869307547,7.00617836277161));
#1372=CARTESIAN_POINT('Ctrl Pts',(1.36612486410686,2.2066785082352,6.9096809912012));
#1373=CARTESIAN_POINT('Ctrl Pts',(1.20234980441592,2.49025059509044,6.65235183730324));
#1374=CARTESIAN_POINT('Ctrl Pts',(1.06144517945666,2.6636310812195,6.5019964683662));
#1375=CARTESIAN_POINT('Ctrl Pts',(0.809774770867238,2.87446424050335,6.32434601898034));
#1376=CARTESIAN_POINT('Ctrl Pts',(0.710624594911917,2.94338285173388,6.26733427145925));
#1377=CARTESIAN_POINT('Ctrl Pts',(0.600569022437272,3.,6.22107843137255));
#1378=CARTESIAN_POINT('',(-1.45043536067153,2.,7.10343137254902));
#1379=CARTESIAN_POINT('Origin',(1.54074395550979E-33,2.,7.65));
#1380=CARTESIAN_POINT('',(-0.600569022437272,3.,6.22107843137255));
#1381=CARTESIAN_POINT('Ctrl Pts',(-0.600569022437272,3.,6.22107843137255));
#1382=CARTESIAN_POINT('Ctrl Pts',(-0.710624594911918,2.94338285173387,6.26733427145925));
#1383=CARTESIAN_POINT('Ctrl Pts',(-0.809774770867238,2.87446424050335,6.32434601898034));
#1384=CARTESIAN_POINT('Ctrl Pts',(-1.06144517945666,2.6636310812195,6.5019964683662));
#1385=CARTESIAN_POINT('Ctrl Pts',(-1.20234980441592,2.49025059509044,6.65235183730324));
#1386=CARTESIAN_POINT('Ctrl Pts',(-1.36612486410686,2.2066785082352,6.9096809912012));
#1387=CARTESIAN_POINT('Ctrl Pts',(-1.41378743721984,2.10261869307547,7.00617836277161));
#1388=CARTESIAN_POINT('Ctrl Pts',(-1.45043536067153,2.,7.10343137254902));
#1389=CARTESIAN_POINT('Origin',(1.54074395550979E-33,3.,7.65));
#1390=CARTESIAN_POINT('Origin',(0.,4.4,-7.65));
#1391=CARTESIAN_POINT('',(3.36777869765522E-16,5.,-10.4));
#1392=CARTESIAN_POINT('Origin',(0.,5.,-7.65));
#1393=CARTESIAN_POINT('',(1.8982025386784E-16,3.8,-9.2));
#1394=CARTESIAN_POINT('',(2.63299061816681E-16,4.4,-9.8));
#1395=CARTESIAN_POINT('Origin',(0.,3.8,-7.65));
#1396=CARTESIAN_POINT('Origin',(0.,-0.5,-7.65));
#1397=CARTESIAN_POINT('',(1.8982025386784E-16,2.,-9.2));
#1398=CARTESIAN_POINT('',(1.8982025386784E-16,-0.5,-9.2));
#1399=CARTESIAN_POINT('',(1.45043536067153,2.,-7.10343137254902));
#1400=CARTESIAN_POINT('Origin',(0.,2.,-7.65));
#1401=CARTESIAN_POINT('',(0.600569022437272,3.,-6.22107843137255));
#1402=CARTESIAN_POINT('Ctrl Pts',(0.600569022437272,3.,-6.22107843137255));
#1403=CARTESIAN_POINT('Ctrl Pts',(0.710624594911917,2.94338285173388,-6.26733427145925));
#1404=CARTESIAN_POINT('Ctrl Pts',(0.809774770867238,2.87446424050335,-6.32434601898034));
#1405=CARTESIAN_POINT('Ctrl Pts',(1.06144517945666,2.6636310812195,-6.5019964683662));
#1406=CARTESIAN_POINT('Ctrl Pts',(1.20234980441592,2.49025059509044,-6.65235183730324));
#1407=CARTESIAN_POINT('Ctrl Pts',(1.36612486410686,2.2066785082352,-6.9096809912012));
#1408=CARTESIAN_POINT('Ctrl Pts',(1.41378743721984,2.10261869307547,-7.00617836277161));
#1409=CARTESIAN_POINT('Ctrl Pts',(1.45043536067153,2.,-7.10343137254902));
#1410=CARTESIAN_POINT('',(-0.600569022437272,3.,-6.22107843137255));
#1411=CARTESIAN_POINT('Origin',(0.,3.,-7.65));
#1412=CARTESIAN_POINT('',(-1.45043536067153,2.,-7.10343137254902));
#1413=CARTESIAN_POINT('Ctrl Pts',(-1.45043536067153,2.,-7.10343137254902));
#1414=CARTESIAN_POINT('Ctrl Pts',(-1.41378743721984,2.10261869307547,-7.00617836277161));
#1415=CARTESIAN_POINT('Ctrl Pts',(-1.36612486410686,2.2066785082352,-6.9096809912012));
#1416=CARTESIAN_POINT('Ctrl Pts',(-1.20234980441592,2.49025059509044,-6.65235183730324));
#1417=CARTESIAN_POINT('Ctrl Pts',(-1.06144517945666,2.6636310812195,-6.5019964683662));
#1418=CARTESIAN_POINT('Ctrl Pts',(-0.809774770867237,2.87446424050336,-6.32434601898034));
#1419=CARTESIAN_POINT('Ctrl Pts',(-0.710624594911917,2.94338285173388,-6.26733427145925));
#1420=CARTESIAN_POINT('Ctrl Pts',(-0.600569022437272,3.,-6.22107843137255));
#1421=CARTESIAN_POINT('Origin',(0.,2.,-7.65));
#1422=CARTESIAN_POINT('Origin',(0.,2.,0.));
#1423=CARTESIAN_POINT('Origin',(0.,2.,0.));
#1424=CARTESIAN_POINT('Origin',(0.,2.,0.));
#1425=CARTESIAN_POINT('Origin',(0.,2.,0.));
#1426=CARTESIAN_POINT('Origin',(0.,2.,0.));
#1427=CARTESIAN_POINT('Origin',(0.,2.5,0.));
#1428=CARTESIAN_POINT('Origin',(0.,3.,0.));
#1429=CARTESIAN_POINT('Origin',(0.,2.5,0.));
#1430=CARTESIAN_POINT('Origin',(0.,3.,0.));
#1431=CARTESIAN_POINT('Origin',(0.,2.5,0.));
#1432=CARTESIAN_POINT('Origin',(0.,3.,0.));
#1433=CARTESIAN_POINT('Origin',(0.,2.5,0.));
#1434=CARTESIAN_POINT('Origin',(0.,3.,0.));
#1435=CARTESIAN_POINT('Origin',(-12.25,0.,-16.25));
#1436=CARTESIAN_POINT('Origin',(12.25,0.,16.25));
#1437=CARTESIAN_POINT('Origin',(-7.25,0.,-7.25));
#1438=CARTESIAN_POINT('',(-7.25,5.,-12.25));
#1439=CARTESIAN_POINT('Origin',(-7.25,5.,-7.25));
#1440=CARTESIAN_POINT('',(-7.25,0.,-12.25));
#1441=CARTESIAN_POINT('Origin',(7.25,0.,-7.25));
#1442=CARTESIAN_POINT('',(7.25,5.,-12.25));
#1443=CARTESIAN_POINT('Origin',(7.25,5.,-7.25));
#1444=CARTESIAN_POINT('',(7.25,0.,-12.25));
#1445=CARTESIAN_POINT('Origin',(7.25,0.,7.25));
#1446=CARTESIAN_POINT('',(7.25,5.,12.25));
#1447=CARTESIAN_POINT('Origin',(7.25,5.,7.25));
#1448=CARTESIAN_POINT('',(7.25,0.,12.25));
#1449=CARTESIAN_POINT('Origin',(-7.25,0.,7.25));
#1450=CARTESIAN_POINT('',(-7.25,5.,12.25));
#1451=CARTESIAN_POINT('Origin',(-7.25,5.,7.25));
#1452=CARTESIAN_POINT('',(-7.25,0.,12.25));
#1453=CARTESIAN_POINT('Origin',(0.,3.,0.));
#1454=CARTESIAN_POINT('',(-3.5,3.,4.28626379701574E-16));
#1455=CARTESIAN_POINT('Origin',(0.,3.,0.));
#1456=CARTESIAN_POINT('Origin',(0.,0.,0.));
#1457=CARTESIAN_POINT('',(-3.5,5.,4.28626379701574E-16));
#1458=CARTESIAN_POINT('Origin',(0.,5.,0.));
#1459=CARTESIAN_POINT('',(-3.5,0.,4.28626379701574E-16));
#1460=CARTESIAN_POINT('Origin',(-12.25,0.,12.25));
#1461=CARTESIAN_POINT('',(12.25,5.,12.25));
#1462=CARTESIAN_POINT('Origin',(12.25,0.,-12.25));
#1463=CARTESIAN_POINT('',(-12.25,5.,-12.25));
#1464=CARTESIAN_POINT('Origin',(0.,5.,0.));
#1465=UNCERTAINTY_MEASURE_WITH_UNIT(LENGTH_MEASURE(0.01),#1469,
'DISTANCE_ACCURACY_VALUE',
'Maximum model space distance between geometric entities at asserted c
onnectivities');
#1466=UNCERTAINTY_MEASURE_WITH_UNIT(LENGTH_MEASURE(0.01),#1469,
'DISTANCE_ACCURACY_VALUE',
'Maximum model space distance between geometric entities at asserted c
onnectivities');
#1467=(
GEOMETRIC_REPRESENTATION_CONTEXT(3)
GLOBAL_UNCERTAINTY_ASSIGNED_CONTEXT((#1465))
GLOBAL_UNIT_ASSIGNED_CONTEXT((#1469,#1471,#1472))
REPRESENTATION_CONTEXT('','3D')
);
#1468=(
GEOMETRIC_REPRESENTATION_CONTEXT(3)
GLOBAL_UNCERTAINTY_ASSIGNED_CONTEXT((#1466))
GLOBAL_UNIT_ASSIGNED_CONTEXT((#1469,#1471,#1472))
REPRESENTATION_CONTEXT('','3D')
);
#1469=(
LENGTH_UNIT()
NAMED_UNIT(*)
SI_UNIT(.MILLI.,.METRE.)
);
#1470=(
LENGTH_UNIT()
NAMED_UNIT(*)
SI_UNIT($,.METRE.)
);
#1471=(
NAMED_UNIT(*)
PLANE_ANGLE_UNIT()
SI_UNIT($,.RADIAN.)
);
#1472=(
NAMED_UNIT(*)
SI_UNIT($,.STERADIAN.)
SOLID_ANGLE_UNIT()
);
#1473=SHAPE_DEFINITION_REPRESENTATION(#1474,#1475);
#1474=PRODUCT_DEFINITION_SHAPE('',$,#1477);
#1475=SHAPE_REPRESENTATION('',(#834),#1467);
#1476=PRODUCT_DEFINITION_CONTEXT('part definition',#1481,'design');
#1477=PRODUCT_DEFINITION('35582','Angle Sensor, Attachment Plate v2',#1478,
#1476);
#1478=PRODUCT_DEFINITION_FORMATION('',$,#1483);
#1479=PRODUCT_RELATED_PRODUCT_CATEGORY(
'Angle Sensor, Attachment Plate v2','Angle Sensor, Attachment Plate v2',
(#1483));
#1480=APPLICATION_PROTOCOL_DEFINITION('international standard',
'automotive_design',2009,#1481);
#1481=APPLICATION_CONTEXT(
'Core Data for Automotive Mechanical Design Process');
#1482=PRODUCT_CONTEXT('part definition',#1481,'mechanical');
#1483=PRODUCT('35582','Angle Sensor, Attachment Plate v2',$,(#1482));
#1484=PRESENTATION_STYLE_ASSIGNMENT((#1486));
#1485=PRESENTATION_STYLE_ASSIGNMENT((#1487));
#1486=SURFACE_STYLE_USAGE(.BOTH.,#1488);
#1487=SURFACE_STYLE_USAGE(.BOTH.,#1489);
#1488=SURFACE_SIDE_STYLE('',(#1490));
#1489=SURFACE_SIDE_STYLE('',(#1491));
#1490=SURFACE_STYLE_FILL_AREA(#1492);
#1491=SURFACE_STYLE_FILL_AREA(#1493);
#1492=FILL_AREA_STYLE('Steel - Satin',(#1494));
#1493=FILL_AREA_STYLE(
'PA 12 - Nylon - PA 603-CF (with EOS P 3D Printers)',(#1495));
#1494=FILL_AREA_STYLE_COLOUR('Steel - Satin',#1496);
#1495=FILL_AREA_STYLE_COLOUR(
'PA 12 - Nylon - PA 603-CF (with EOS P 3D Printers)',#1497);
#1496=COLOUR_RGB('Steel - Satin',0.627450980392157,0.627450980392157,0.627450980392157);
#1497=COLOUR_RGB('PA 12 - Nylon - PA 603-CF (with EOS P 3D Printers)',0.247058823529412,
0.247058823529412,0.247058823529412);
ENDSEC;
END-ISO-10303-21;
