ISO-10303-21;
HEADER;
/* Generated by software containing ST-Developer
 * from STEP Tools, Inc. (www.steptools.com) 
 */

FILE_DESCRIPTION(
/* description */ (''),
/* implementation_level */ '2;1');

FILE_NAME(
/* name */ '28175 Brush, Throttle v1.step',
/* time_stamp */ '2025-05-25T18:07:07-07:00',
/* author */ (''),
/* organization */ (''),
/* preprocessor_version */ 'ST-DEVELOPER v20.1',
/* originating_system */ 'Autodesk Translation Framework v14.10.0.0',
/* authorisation */ '');

FILE_SCHEMA (('AUTOMOTIVE_DESIGN { 1 0 10303 214 3 1 1 }'));
ENDSEC;

DATA;
#10=MECHANICAL_DESIGN_GEOMETRIC_PRESENTATION_REPRESENTATION('',(#17),#329);
#11=ITEM_DEFINED_TRANSFORMATION($,$,#209,#220);
#12=(
REPRESENTATION_RELATIONSHIP($,$,#340,#339)
REPRESENTATION_RELATIONSHIP_WITH_TRANSFORMATION(#11)
SHAPE_REPRESENTATION_RELATIONSHIP()
);
#13=CONTEXT_DEPENDENT_SHAPE_REPRESENTATION(#12,#338);
#14=NEXT_ASSEMBLY_USAGE_OCCURRENCE(
'74405T109_Tight-Seal Strip Brush with Nylon Bristles:1',
'74405T109_Tight-Seal Strip Brush with Nylon Bristles:1',
'74405T109_Tight-Seal Strip Brush with Nylon Bristles:1',#342,#343,
'74405T109_Tight-Seal Strip Brush with Nylon Bristles:1');
#15=SHAPE_REPRESENTATION_RELATIONSHIP('SRR','None',#340,#16);
#16=ADVANCED_BREP_SHAPE_REPRESENTATION('',(#18),#328);
#17=STYLED_ITEM('',(#353),#18);
#18=MANIFOLD_SOLID_BREP('Body1',#195);
#19=FACE_OUTER_BOUND('',#29,.T.);
#20=FACE_OUTER_BOUND('',#30,.T.);
#21=FACE_OUTER_BOUND('',#31,.T.);
#22=FACE_OUTER_BOUND('',#32,.T.);
#23=FACE_OUTER_BOUND('',#33,.T.);
#24=FACE_OUTER_BOUND('',#34,.T.);
#25=FACE_OUTER_BOUND('',#35,.T.);
#26=FACE_OUTER_BOUND('',#36,.T.);
#27=FACE_OUTER_BOUND('',#37,.T.);
#28=FACE_OUTER_BOUND('',#38,.T.);
#29=EDGE_LOOP('',(#127,#128,#129,#130,#131,#132,#133,#134));
#30=EDGE_LOOP('',(#135,#136,#137,#138));
#31=EDGE_LOOP('',(#139,#140,#141,#142));
#32=EDGE_LOOP('',(#143,#144,#145,#146));
#33=EDGE_LOOP('',(#147,#148,#149,#150));
#34=EDGE_LOOP('',(#151,#152,#153,#154));
#35=EDGE_LOOP('',(#155,#156,#157,#158));
#36=EDGE_LOOP('',(#159,#160,#161,#162));
#37=EDGE_LOOP('',(#163,#164,#165,#166));
#38=EDGE_LOOP('',(#167,#168,#169,#170,#171,#172,#173,#174));
#39=LINE('',#276,#63);
#40=LINE('',#278,#64);
#41=LINE('',#280,#65);
#42=LINE('',#282,#66);
#43=LINE('',#284,#67);
#44=LINE('',#286,#68);
#45=LINE('',#288,#69);
#46=LINE('',#289,#70);
#47=LINE('',#293,#71);
#48=LINE('',#294,#72);
#49=LINE('',#295,#73);
#50=LINE('',#298,#74);
#51=LINE('',#299,#75);
#52=LINE('',#302,#76);
#53=LINE('',#303,#77);
#54=LINE('',#306,#78);
#55=LINE('',#307,#79);
#56=LINE('',#310,#80);
#57=LINE('',#311,#81);
#58=LINE('',#314,#82);
#59=LINE('',#315,#83);
#60=LINE('',#318,#84);
#61=LINE('',#319,#85);
#62=LINE('',#321,#86);
#63=VECTOR('',#227,1000.);
#64=VECTOR('',#228,1000.);
#65=VECTOR('',#229,1000.);
#66=VECTOR('',#230,1000.);
#67=VECTOR('',#231,1000.);
#68=VECTOR('',#232,1000.);
#69=VECTOR('',#233,1000.);
#70=VECTOR('',#234,1000.);
#71=VECTOR('',#237,10.);
#72=VECTOR('',#238,1000.);
#73=VECTOR('',#239,1000.);
#74=VECTOR('',#242,10.);
#75=VECTOR('',#243,1000.);
#76=VECTOR('',#246,10.);
#77=VECTOR('',#247,1000.);
#78=VECTOR('',#250,10.);
#79=VECTOR('',#251,1000.);
#80=VECTOR('',#254,10.);
#81=VECTOR('',#255,1000.);
#82=VECTOR('',#258,10.);
#83=VECTOR('',#259,1000.);
#84=VECTOR('',#262,10.);
#85=VECTOR('',#263,1000.);
#86=VECTOR('',#266,10.);
#87=VERTEX_POINT('',#274);
#88=VERTEX_POINT('',#275);
#89=VERTEX_POINT('',#277);
#90=VERTEX_POINT('',#279);
#91=VERTEX_POINT('',#281);
#92=VERTEX_POINT('',#283);
#93=VERTEX_POINT('',#285);
#94=VERTEX_POINT('',#287);
#95=VERTEX_POINT('',#291);
#96=VERTEX_POINT('',#292);
#97=VERTEX_POINT('',#297);
#98=VERTEX_POINT('',#301);
#99=VERTEX_POINT('',#305);
#100=VERTEX_POINT('',#309);
#101=VERTEX_POINT('',#313);
#102=VERTEX_POINT('',#317);
#103=EDGE_CURVE('',#87,#88,#39,.T.);
#104=EDGE_CURVE('',#89,#87,#40,.T.);
#105=EDGE_CURVE('',#90,#89,#41,.T.);
#106=EDGE_CURVE('',#91,#90,#42,.T.);
#107=EDGE_CURVE('',#92,#91,#43,.T.);
#108=EDGE_CURVE('',#93,#92,#44,.T.);
#109=EDGE_CURVE('',#94,#93,#45,.T.);
#110=EDGE_CURVE('',#88,#94,#46,.T.);
#111=EDGE_CURVE('',#95,#96,#47,.T.);
#112=EDGE_CURVE('',#95,#89,#48,.T.);
#113=EDGE_CURVE('',#96,#87,#49,.T.);
#114=EDGE_CURVE('',#97,#95,#50,.T.);
#115=EDGE_CURVE('',#97,#90,#51,.T.);
#116=EDGE_CURVE('',#98,#97,#52,.T.);
#117=EDGE_CURVE('',#98,#91,#53,.T.);
#118=EDGE_CURVE('',#99,#98,#54,.T.);
#119=EDGE_CURVE('',#99,#92,#55,.T.);
#120=EDGE_CURVE('',#96,#100,#56,.T.);
#121=EDGE_CURVE('',#100,#88,#57,.T.);
#122=EDGE_CURVE('',#100,#101,#58,.T.);
#123=EDGE_CURVE('',#101,#94,#59,.T.);
#124=EDGE_CURVE('',#101,#102,#60,.T.);
#125=EDGE_CURVE('',#102,#93,#61,.T.);
#126=EDGE_CURVE('',#102,#99,#62,.T.);
#127=ORIENTED_EDGE('',*,*,#103,.F.);
#128=ORIENTED_EDGE('',*,*,#104,.F.);
#129=ORIENTED_EDGE('',*,*,#105,.F.);
#130=ORIENTED_EDGE('',*,*,#106,.F.);
#131=ORIENTED_EDGE('',*,*,#107,.F.);
#132=ORIENTED_EDGE('',*,*,#108,.F.);
#133=ORIENTED_EDGE('',*,*,#109,.F.);
#134=ORIENTED_EDGE('',*,*,#110,.F.);
#135=ORIENTED_EDGE('',*,*,#111,.F.);
#136=ORIENTED_EDGE('',*,*,#112,.T.);
#137=ORIENTED_EDGE('',*,*,#104,.T.);
#138=ORIENTED_EDGE('',*,*,#113,.F.);
#139=ORIENTED_EDGE('',*,*,#114,.F.);
#140=ORIENTED_EDGE('',*,*,#115,.T.);
#141=ORIENTED_EDGE('',*,*,#105,.T.);
#142=ORIENTED_EDGE('',*,*,#112,.F.);
#143=ORIENTED_EDGE('',*,*,#116,.F.);
#144=ORIENTED_EDGE('',*,*,#117,.T.);
#145=ORIENTED_EDGE('',*,*,#106,.T.);
#146=ORIENTED_EDGE('',*,*,#115,.F.);
#147=ORIENTED_EDGE('',*,*,#118,.F.);
#148=ORIENTED_EDGE('',*,*,#119,.T.);
#149=ORIENTED_EDGE('',*,*,#107,.T.);
#150=ORIENTED_EDGE('',*,*,#117,.F.);
#151=ORIENTED_EDGE('',*,*,#120,.F.);
#152=ORIENTED_EDGE('',*,*,#113,.T.);
#153=ORIENTED_EDGE('',*,*,#103,.T.);
#154=ORIENTED_EDGE('',*,*,#121,.F.);
#155=ORIENTED_EDGE('',*,*,#122,.F.);
#156=ORIENTED_EDGE('',*,*,#121,.T.);
#157=ORIENTED_EDGE('',*,*,#110,.T.);
#158=ORIENTED_EDGE('',*,*,#123,.F.);
#159=ORIENTED_EDGE('',*,*,#124,.F.);
#160=ORIENTED_EDGE('',*,*,#123,.T.);
#161=ORIENTED_EDGE('',*,*,#109,.T.);
#162=ORIENTED_EDGE('',*,*,#125,.F.);
#163=ORIENTED_EDGE('',*,*,#126,.F.);
#164=ORIENTED_EDGE('',*,*,#125,.T.);
#165=ORIENTED_EDGE('',*,*,#108,.T.);
#166=ORIENTED_EDGE('',*,*,#119,.F.);
#167=ORIENTED_EDGE('',*,*,#120,.T.);
#168=ORIENTED_EDGE('',*,*,#122,.T.);
#169=ORIENTED_EDGE('',*,*,#124,.T.);
#170=ORIENTED_EDGE('',*,*,#126,.T.);
#171=ORIENTED_EDGE('',*,*,#118,.T.);
#172=ORIENTED_EDGE('',*,*,#116,.T.);
#173=ORIENTED_EDGE('',*,*,#114,.T.);
#174=ORIENTED_EDGE('',*,*,#111,.T.);
#175=PLANE('',#210);
#176=PLANE('',#211);
#177=PLANE('',#212);
#178=PLANE('',#213);
#179=PLANE('',#214);
#180=PLANE('',#215);
#181=PLANE('',#216);
#182=PLANE('',#217);
#183=PLANE('',#218);
#184=PLANE('',#219);
#185=ADVANCED_FACE('',(#19),#175,.F.);
#186=ADVANCED_FACE('',(#20),#176,.F.);
#187=ADVANCED_FACE('',(#21),#177,.F.);
#188=ADVANCED_FACE('',(#22),#178,.F.);
#189=ADVANCED_FACE('',(#23),#179,.F.);
#190=ADVANCED_FACE('',(#24),#180,.F.);
#191=ADVANCED_FACE('',(#25),#181,.F.);
#192=ADVANCED_FACE('',(#26),#182,.F.);
#193=ADVANCED_FACE('',(#27),#183,.F.);
#194=ADVANCED_FACE('',(#28),#184,.T.);
#195=CLOSED_SHELL('',(#185,#186,#187,#188,#189,#190,#191,#192,#193,#194));
#196=DERIVED_UNIT_ELEMENT(#198,1.);
#197=DERIVED_UNIT_ELEMENT(#331,-3.);
#198=(
MASS_UNIT()
NAMED_UNIT(*)
SI_UNIT(.KILO.,.GRAM.)
);
#199=DERIVED_UNIT((#196,#197));
#200=MEASURE_REPRESENTATION_ITEM('density measure',
POSITIVE_RATIO_MEASURE(7850.),#199);
#201=PROPERTY_DEFINITION_REPRESENTATION(#206,#203);
#202=PROPERTY_DEFINITION_REPRESENTATION(#207,#204);
#203=REPRESENTATION('material name',(#205),#328);
#204=REPRESENTATION('density',(#200),#328);
#205=DESCRIPTIVE_REPRESENTATION_ITEM('Steel','Steel');
#206=PROPERTY_DEFINITION('material property','material name',#343);
#207=PROPERTY_DEFINITION('material property','density of part',#343);
#208=AXIS2_PLACEMENT_3D('',#271,#221,#222);
#209=AXIS2_PLACEMENT_3D('',#272,#223,#224);
#210=AXIS2_PLACEMENT_3D('',#273,#225,#226);
#211=AXIS2_PLACEMENT_3D('',#290,#235,#236);
#212=AXIS2_PLACEMENT_3D('',#296,#240,#241);
#213=AXIS2_PLACEMENT_3D('',#300,#244,#245);
#214=AXIS2_PLACEMENT_3D('',#304,#248,#249);
#215=AXIS2_PLACEMENT_3D('',#308,#252,#253);
#216=AXIS2_PLACEMENT_3D('',#312,#256,#257);
#217=AXIS2_PLACEMENT_3D('',#316,#260,#261);
#218=AXIS2_PLACEMENT_3D('',#320,#264,#265);
#219=AXIS2_PLACEMENT_3D('',#322,#267,#268);
#220=AXIS2_PLACEMENT_3D('',#323,#269,#270);
#221=DIRECTION('axis',(0.,0.,1.));
#222=DIRECTION('refdir',(1.,0.,0.));
#223=DIRECTION('axis',(0.,0.,1.));
#224=DIRECTION('refdir',(1.,0.,0.));
#225=DIRECTION('center_axis',(0.,0.,1.));
#226=DIRECTION('ref_axis',(1.,0.,0.));
#227=DIRECTION('',(-0.0499376169438921,-0.998752338877845,0.));
#228=DIRECTION('',(1.,-5.90197654722931E-15,0.));
#229=DIRECTION('',(2.73184799366426E-16,-1.,0.));
#230=DIRECTION('',(-1.,0.,0.));
#231=DIRECTION('',(0.,1.,0.));
#232=DIRECTION('',(1.,5.90197654722931E-15,0.));
#233=DIRECTION('',(-0.0499376169438924,0.998752338877845,0.));
#234=DIRECTION('',(1.,0.,0.));
#235=DIRECTION('center_axis',(5.90197654722931E-15,1.,0.));
#236=DIRECTION('ref_axis',(-1.,5.90197654722932E-15,0.));
#237=DIRECTION('',(1.,-5.90197654722931E-15,2.2204460492503E-16));
#238=DIRECTION('',(0.,0.,-1.));
#239=DIRECTION('',(0.,0.,-1.));
#240=DIRECTION('center_axis',(1.,2.73184799366426E-16,0.));
#241=DIRECTION('ref_axis',(-2.73184799366426E-16,1.,0.));
#242=DIRECTION('',(2.73184799366426E-16,-1.,-1.38777878078144E-16));
#243=DIRECTION('',(0.,0.,-1.));
#244=DIRECTION('center_axis',(0.,-1.,0.));
#245=DIRECTION('ref_axis',(0.,0.,-1.));
#246=DIRECTION('',(-1.,0.,-2.22044604925031E-16));
#247=DIRECTION('',(0.,0.,-1.));
#248=DIRECTION('center_axis',(-1.,0.,0.));
#249=DIRECTION('ref_axis',(0.,0.,1.));
#250=DIRECTION('',(0.,1.,1.38777878078144E-16));
#251=DIRECTION('',(0.,0.,-1.));
#252=DIRECTION('center_axis',(0.998752338877845,-0.0499376169438921,0.));
#253=DIRECTION('ref_axis',(0.0499376169438921,0.998752338877845,0.));
#254=DIRECTION('',(-0.0499376169438921,-0.998752338877845,-1.49693108740255E-16));
#255=DIRECTION('',(0.,0.,-1.));
#256=DIRECTION('center_axis',(0.,1.,0.));
#257=DIRECTION('ref_axis',(0.,0.,1.));
#258=DIRECTION('',(1.,0.,2.22044604925031E-16));
#259=DIRECTION('',(0.,0.,-1.));
#260=DIRECTION('center_axis',(-0.998752338877845,-0.0499376169438924,0.));
#261=DIRECTION('ref_axis',(0.0499376169438924,-0.998752338877845,0.));
#262=DIRECTION('',(-0.0499376169438924,0.998752338877845,1.27516351889847E-16));
#263=DIRECTION('',(0.,0.,-1.));
#264=DIRECTION('center_axis',(-5.90197654722931E-15,1.,0.));
#265=DIRECTION('ref_axis',(-1.,-5.90197654722932E-15,0.));
#266=DIRECTION('',(1.,5.90197654722931E-15,2.22044604925032E-16));
#267=DIRECTION('center_axis',(-2.22044604925031E-16,-1.38777878078144E-16,
1.));
#268=DIRECTION('ref_axis',(1.,0.,2.22044604925031E-16));
#269=DIRECTION('',(-1.38777878078145E-16,1.,-2.22044604925031E-16));
#270=DIRECTION('',(-1.31838984174237E-15,-2.22044604925031E-16,-1.));
#271=CARTESIAN_POINT('',(0.,0.,0.));
#272=CARTESIAN_POINT('',(0.,0.,0.));
#273=CARTESIAN_POINT('Origin',(-3.17500000000001,-25.1859481598744,6.13594815987437));
#274=CARTESIAN_POINT('',(-2.38125000000001,-9.31094815987437,6.13594815987437));
#275=CARTESIAN_POINT('',(-3.17500000000001,-25.1859481598744,6.13594815987437));
#276=CARTESIAN_POINT('',(-2.38125000000001,-9.31094815987437,6.13594815987437));
#277=CARTESIAN_POINT('',(-3.17500000000001,-9.31094815987436,6.13594815987437));
#278=CARTESIAN_POINT('',(-2.38125000000001,-9.31094815987437,6.13594815987437));
#279=CARTESIAN_POINT('',(-3.17500000000001,-6.13594815987436,6.13594815987437));
#280=CARTESIAN_POINT('',(-3.17500000000001,-9.31094815987436,6.13594815987437));
#281=CARTESIAN_POINT('',(-8.04911692853238E-15,-6.13594815987436,6.13594815987437));
#282=CARTESIAN_POINT('',(-3.17500000000001,-6.13594815987436,6.13594815987437));
#283=CARTESIAN_POINT('',(-8.04911692853238E-15,-9.31094815987436,6.13594815987437));
#284=CARTESIAN_POINT('',(-8.04911692853238E-15,-6.13594815987436,6.13594815987437));
#285=CARTESIAN_POINT('',(-0.793750000000008,-9.31094815987437,6.13594815987437));
#286=CARTESIAN_POINT('',(-0.793750000000008,-9.31094815987437,6.13594815987437));
#287=CARTESIAN_POINT('',(-5.27355936696949E-15,-25.1859481598744,6.13594815987437));
#288=CARTESIAN_POINT('',(-0.793750000000008,-9.31094815987437,6.13594815987437));
#289=CARTESIAN_POINT('',(-3.17500000000001,-25.1859481598744,6.13594815987437));
#290=CARTESIAN_POINT('Origin',(-2.38125000000001,-9.31094815987437,310.935948159874));
#291=CARTESIAN_POINT('',(-3.17500000000001,-9.31094815987436,176.135948159874));
#292=CARTESIAN_POINT('',(-2.38125000000001,-9.31094815987437,176.135948159874));
#293=CARTESIAN_POINT('',(-1.98437499999997,-9.31094815987437,176.135948159874));
#294=CARTESIAN_POINT('',(-3.17500000000001,-9.31094815987436,310.935948159874));
#295=CARTESIAN_POINT('',(-2.38125000000001,-9.31094815987437,310.935948159874));
#296=CARTESIAN_POINT('Origin',(-3.17500000000001,-9.31094815987436,310.935948159874));
#297=CARTESIAN_POINT('',(-3.17500000000001,-6.13594815987436,176.135948159874));
#298=CARTESIAN_POINT('',(-3.17500000000001,-12.4859481598744,176.135948159874));
#299=CARTESIAN_POINT('',(-3.17500000000001,-6.13594815987436,310.935948159874));
#300=CARTESIAN_POINT('Origin',(-3.17500000000001,-6.13594815987436,310.935948159874));
#301=CARTESIAN_POINT('',(-8.04911692853238E-15,-6.13594815987436,176.135948159874));
#302=CARTESIAN_POINT('',(-2.38124999999999,-6.13594815987436,176.135948159874));
#303=CARTESIAN_POINT('',(-8.04911692853238E-15,-6.13594815987436,310.935948159874));
#304=CARTESIAN_POINT('Origin',(-8.04911692853238E-15,-6.13594815987436,
310.935948159874));
#305=CARTESIAN_POINT('',(-8.04911692853238E-15,-9.31094815987436,176.135948159874));
#306=CARTESIAN_POINT('',(-8.04911692853238E-15,-10.8984481598744,176.135948159874));
#307=CARTESIAN_POINT('',(-8.04911692853238E-15,-9.31094815987436,310.935948159874));
#308=CARTESIAN_POINT('Origin',(-2.38125000000001,-9.31094815987437,310.935948159874));
#309=CARTESIAN_POINT('',(-3.17500000000001,-25.1859481598744,176.135948159874));
#310=CARTESIAN_POINT('',(-2.53861440149627,-12.4582361897995,176.135948159874));
#311=CARTESIAN_POINT('',(-3.17500000000001,-25.1859481598744,310.935948159874));
#312=CARTESIAN_POINT('Origin',(-3.17500000000001,-25.1859481598744,310.935948159874));
#313=CARTESIAN_POINT('',(-5.27355936696949E-15,-25.1859481598744,176.135948159874));
#314=CARTESIAN_POINT('',(-2.38124999999999,-25.1859481598744,176.135948159874));
#315=CARTESIAN_POINT('',(-5.27355936696949E-15,-25.1859481598744,310.935948159874));
#316=CARTESIAN_POINT('Origin',(-0.793750000000008,-9.31094815987437,310.935948159874));
#317=CARTESIAN_POINT('',(-0.793750000000008,-9.31094815987437,176.135948159874));
#318=CARTESIAN_POINT('',(-0.636385598503748,-12.4582361897995,176.135948159874));
#319=CARTESIAN_POINT('',(-0.793750000000008,-9.31094815987437,310.935948159874));
#320=CARTESIAN_POINT('Origin',(-0.793750000000008,-9.31094815987437,310.935948159874));
#321=CARTESIAN_POINT('',(-1.19062500000001,-9.31094815987437,176.135948159874));
#322=CARTESIAN_POINT('Origin',(-1.58750000000001,-15.6609481598744,176.135948159874));
#323=CARTESIAN_POINT('',(-6.13594815987437,-6.13594815987437,1.23710287251239E-16));
#324=UNCERTAINTY_MEASURE_WITH_UNIT(LENGTH_MEASURE(0.01),#330,
'DISTANCE_ACCURACY_VALUE',
'Maximum model space distance between geometric entities at asserted c
onnectivities');
#325=UNCERTAINTY_MEASURE_WITH_UNIT(LENGTH_MEASURE(0.01),#330,
'DISTANCE_ACCURACY_VALUE',
'Maximum model space distance between geometric entities at asserted c
onnectivities');
#326=UNCERTAINTY_MEASURE_WITH_UNIT(LENGTH_MEASURE(0.01),#330,
'DISTANCE_ACCURACY_VALUE',
'Maximum model space distance between geometric entities at asserted c
onnectivities');
#327=(
GEOMETRIC_REPRESENTATION_CONTEXT(3)
GLOBAL_UNCERTAINTY_ASSIGNED_CONTEXT((#324))
GLOBAL_UNIT_ASSIGNED_CONTEXT((#330,#332,#333))
REPRESENTATION_CONTEXT('','3D')
);
#328=(
GEOMETRIC_REPRESENTATION_CONTEXT(3)
GLOBAL_UNCERTAINTY_ASSIGNED_CONTEXT((#325))
GLOBAL_UNIT_ASSIGNED_CONTEXT((#330,#332,#333))
REPRESENTATION_CONTEXT('','3D')
);
#329=(
GEOMETRIC_REPRESENTATION_CONTEXT(3)
GLOBAL_UNCERTAINTY_ASSIGNED_CONTEXT((#326))
GLOBAL_UNIT_ASSIGNED_CONTEXT((#330,#332,#333))
REPRESENTATION_CONTEXT('','3D')
);
#330=(
LENGTH_UNIT()
NAMED_UNIT(*)
SI_UNIT(.MILLI.,.METRE.)
);
#331=(
LENGTH_UNIT()
NAMED_UNIT(*)
SI_UNIT($,.METRE.)
);
#332=(
NAMED_UNIT(*)
PLANE_ANGLE_UNIT()
SI_UNIT($,.RADIAN.)
);
#333=(
NAMED_UNIT(*)
SI_UNIT($,.STERADIAN.)
SOLID_ANGLE_UNIT()
);
#334=SHAPE_DEFINITION_REPRESENTATION(#336,#339);
#335=SHAPE_DEFINITION_REPRESENTATION(#337,#340);
#336=PRODUCT_DEFINITION_SHAPE('',$,#342);
#337=PRODUCT_DEFINITION_SHAPE('',$,#343);
#338=PRODUCT_DEFINITION_SHAPE($,$,#14);
#339=SHAPE_REPRESENTATION('',(#208,#220),#327);
#340=SHAPE_REPRESENTATION('',(#209),#328);
#341=PRODUCT_DEFINITION_CONTEXT('part definition',#349,'design');
#342=PRODUCT_DEFINITION('28175 Brush, Throttle',
'28175 Brush, Throttle v1',#344,#341);
#343=PRODUCT_DEFINITION(
'74405T109_Tight-Seal Strip Brush with Nylon Bristles',
'74405T109_Tight-Seal Strip Brush with Nylon Bristles',#345,#341);
#344=PRODUCT_DEFINITION_FORMATION('',$,#351);
#345=PRODUCT_DEFINITION_FORMATION('',$,#352);
#346=PRODUCT_RELATED_PRODUCT_CATEGORY('28175 Brush, Throttle v1',
'28175 Brush, Throttle v1',(#351));
#347=PRODUCT_RELATED_PRODUCT_CATEGORY(
'74405T109_Tight-Seal Strip Brush with Nylon Bristles',
'74405T109_Tight-Seal Strip Brush with Nylon Bristles',(#352));
#348=APPLICATION_PROTOCOL_DEFINITION('international standard',
'automotive_design',2009,#349);
#349=APPLICATION_CONTEXT(
'Core Data for Automotive Mechanical Design Process');
#350=PRODUCT_CONTEXT('part definition',#349,'mechanical');
#351=PRODUCT('28175 Brush, Throttle','28175 Brush, Throttle v1',$,(#350));
#352=PRODUCT('74405T109_Tight-Seal Strip Brush with Nylon Bristles',
'74405T109_Tight-Seal Strip Brush with Nylon Bristles',$,(#350));
#353=PRESENTATION_STYLE_ASSIGNMENT((#354));
#354=SURFACE_STYLE_USAGE(.BOTH.,#355);
#355=SURFACE_SIDE_STYLE('',(#356));
#356=SURFACE_STYLE_FILL_AREA(#357);
#357=FILL_AREA_STYLE('Steel - Satin',(#358));
#358=FILL_AREA_STYLE_COLOUR('Steel - Satin',#359);
#359=COLOUR_RGB('Steel - Satin',0.627450980392157,0.627450980392157,0.627450980392157);
ENDSEC;
END-ISO-10303-21;
