ISO-10303-21;
HEADER;
/* Generated by software containing ST-Developer
 * from STEP Tools, Inc. (www.steptools.com) 
 */
/* OPTION: using custom renumber hook */

FILE_DESCRIPTION(
/* description */ ('STEP AP242',
'CAx-IF Rec.Pracs.---Representation and Presentation of Product Manufa
cturing Information (PMI)---4.0---2014-10-13',
'CAx-IF Rec.Pracs.---3D Tessellated Geometry---0.4---2014-09-14','2;1'),

/* implementation_level */ '2;1');

FILE_NAME(
/* name */ '6834252efe473b6e1abc2306',
/* time_stamp */ '2025-05-26T08:24:15Z',
/* author */ (''),
/* organization */ (''),
/* preprocessor_version */ 'ST-DEVELOPER v20',
/* originating_system */ 'ONSHAPE BY PTC INC, 1.198',
/* authorisation */ '  ');

FILE_SCHEMA (('AP242_MANAGED_MODEL_BASED_3D_ENGINEERING_MIM_LF { 1 0 10303 442 1 1 4 }'));
ENDSEC;

DATA;
#10=SHAPE_REPRESENTATION_RELATIONSHIP('','',#251,#11);
#11=ADVANCED_BREP_SHAPE_REPRESENTATION('',(#249),#419);
#12=CIRCLE('',#255,0.002);
#13=CIRCLE('',#256,0.002);
#14=CIRCLE('',#259,0.002);
#15=CIRCLE('',#260,0.002);
#16=CIRCLE('',#263,0.002);
#17=CIRCLE('',#264,0.002);
#18=CIRCLE('',#267,0.003875);
#19=CIRCLE('',#268,0.003875);
#20=CIRCLE('',#270,0.0015);
#21=CIRCLE('',#271,0.0015);
#22=CIRCLE('',#273,0.0015);
#23=CIRCLE('',#274,0.0015);
#24=CIRCLE('',#276,0.002);
#25=CIRCLE('',#277,0.002);
#26=CYLINDRICAL_SURFACE('',#254,0.002);
#27=CYLINDRICAL_SURFACE('',#258,0.002);
#28=CYLINDRICAL_SURFACE('',#262,0.002);
#29=CYLINDRICAL_SURFACE('',#266,0.003875);
#30=CYLINDRICAL_SURFACE('',#269,0.0015);
#31=CYLINDRICAL_SURFACE('',#272,0.0015);
#32=CYLINDRICAL_SURFACE('',#275,0.002);
#33=ORIENTED_EDGE('',*,*,#93,.T.);
#34=ORIENTED_EDGE('',*,*,#94,.F.);
#35=ORIENTED_EDGE('',*,*,#95,.F.);
#36=ORIENTED_EDGE('',*,*,#96,.T.);
#37=ORIENTED_EDGE('',*,*,#97,.F.);
#38=ORIENTED_EDGE('',*,*,#96,.F.);
#39=ORIENTED_EDGE('',*,*,#98,.T.);
#40=ORIENTED_EDGE('',*,*,#99,.T.);
#41=ORIENTED_EDGE('',*,*,#100,.F.);
#42=ORIENTED_EDGE('',*,*,#99,.F.);
#43=ORIENTED_EDGE('',*,*,#101,.T.);
#44=ORIENTED_EDGE('',*,*,#102,.T.);
#45=ORIENTED_EDGE('',*,*,#103,.F.);
#46=ORIENTED_EDGE('',*,*,#102,.F.);
#47=ORIENTED_EDGE('',*,*,#104,.T.);
#48=ORIENTED_EDGE('',*,*,#105,.T.);
#49=ORIENTED_EDGE('',*,*,#106,.F.);
#50=ORIENTED_EDGE('',*,*,#105,.F.);
#51=ORIENTED_EDGE('',*,*,#107,.T.);
#52=ORIENTED_EDGE('',*,*,#108,.T.);
#53=ORIENTED_EDGE('',*,*,#109,.F.);
#54=ORIENTED_EDGE('',*,*,#108,.F.);
#55=ORIENTED_EDGE('',*,*,#110,.T.);
#56=ORIENTED_EDGE('',*,*,#111,.T.);
#57=ORIENTED_EDGE('',*,*,#112,.T.);
#58=ORIENTED_EDGE('',*,*,#111,.F.);
#59=ORIENTED_EDGE('',*,*,#113,.F.);
#60=ORIENTED_EDGE('',*,*,#114,.T.);
#61=ORIENTED_EDGE('',*,*,#115,.F.);
#62=ORIENTED_EDGE('',*,*,#116,.T.);
#63=ORIENTED_EDGE('',*,*,#117,.F.);
#64=ORIENTED_EDGE('',*,*,#118,.T.);
#65=ORIENTED_EDGE('',*,*,#119,.F.);
#66=ORIENTED_EDGE('',*,*,#120,.T.);
#67=ORIENTED_EDGE('',*,*,#121,.F.);
#68=ORIENTED_EDGE('',*,*,#114,.F.);
#69=ORIENTED_EDGE('',*,*,#122,.T.);
#70=ORIENTED_EDGE('',*,*,#94,.T.);
#71=ORIENTED_EDGE('',*,*,#119,.T.);
#72=ORIENTED_EDGE('',*,*,#117,.T.);
#73=ORIENTED_EDGE('',*,*,#115,.T.);
#74=ORIENTED_EDGE('',*,*,#95,.T.);
#75=ORIENTED_EDGE('',*,*,#122,.F.);
#76=ORIENTED_EDGE('',*,*,#113,.T.);
#77=ORIENTED_EDGE('',*,*,#110,.F.);
#78=ORIENTED_EDGE('',*,*,#107,.F.);
#79=ORIENTED_EDGE('',*,*,#104,.F.);
#80=ORIENTED_EDGE('',*,*,#101,.F.);
#81=ORIENTED_EDGE('',*,*,#98,.F.);
#82=ORIENTED_EDGE('',*,*,#120,.F.);
#83=ORIENTED_EDGE('',*,*,#118,.F.);
#84=ORIENTED_EDGE('',*,*,#116,.F.);
#85=ORIENTED_EDGE('',*,*,#93,.F.);
#86=ORIENTED_EDGE('',*,*,#97,.T.);
#87=ORIENTED_EDGE('',*,*,#100,.T.);
#88=ORIENTED_EDGE('',*,*,#103,.T.);
#89=ORIENTED_EDGE('',*,*,#106,.T.);
#90=ORIENTED_EDGE('',*,*,#109,.T.);
#91=ORIENTED_EDGE('',*,*,#112,.F.);
#92=ORIENTED_EDGE('',*,*,#121,.T.);
#93=EDGE_CURVE('',#123,#124,#145,.T.);
#94=EDGE_CURVE('',#125,#124,#146,.T.);
#95=EDGE_CURVE('',#126,#125,#147,.T.);
#96=EDGE_CURVE('',#126,#123,#148,.T.);
#97=EDGE_CURVE('',#123,#127,#12,.T.);
#98=EDGE_CURVE('',#126,#128,#13,.T.);
#99=EDGE_CURVE('',#128,#127,#149,.T.);
#100=EDGE_CURVE('',#127,#129,#150,.T.);
#101=EDGE_CURVE('',#128,#130,#151,.T.);
#102=EDGE_CURVE('',#130,#129,#152,.T.);
#103=EDGE_CURVE('',#129,#131,#14,.T.);
#104=EDGE_CURVE('',#130,#132,#15,.T.);
#105=EDGE_CURVE('',#132,#131,#153,.T.);
#106=EDGE_CURVE('',#131,#133,#154,.T.);
#107=EDGE_CURVE('',#132,#134,#155,.T.);
#108=EDGE_CURVE('',#134,#133,#156,.T.);
#109=EDGE_CURVE('',#133,#135,#16,.T.);
#110=EDGE_CURVE('',#134,#136,#17,.T.);
#111=EDGE_CURVE('',#136,#135,#157,.T.);
#112=EDGE_CURVE('',#137,#135,#158,.T.);
#113=EDGE_CURVE('',#138,#136,#159,.T.);
#114=EDGE_CURVE('',#138,#137,#160,.T.);
#115=EDGE_CURVE('',#139,#139,#18,.T.);
#116=EDGE_CURVE('',#140,#140,#19,.T.);
#117=EDGE_CURVE('',#141,#141,#20,.T.);
#118=EDGE_CURVE('',#142,#142,#21,.T.);
#119=EDGE_CURVE('',#143,#143,#22,.T.);
#120=EDGE_CURVE('',#144,#144,#23,.T.);
#121=EDGE_CURVE('',#137,#124,#24,.T.);
#122=EDGE_CURVE('',#138,#125,#25,.T.);
#123=VERTEX_POINT('',#355);
#124=VERTEX_POINT('',#356);
#125=VERTEX_POINT('',#358);
#126=VERTEX_POINT('',#360);
#127=VERTEX_POINT('',#364);
#128=VERTEX_POINT('',#366);
#129=VERTEX_POINT('',#370);
#130=VERTEX_POINT('',#372);
#131=VERTEX_POINT('',#376);
#132=VERTEX_POINT('',#378);
#133=VERTEX_POINT('',#382);
#134=VERTEX_POINT('',#384);
#135=VERTEX_POINT('',#388);
#136=VERTEX_POINT('',#390);
#137=VERTEX_POINT('',#394);
#138=VERTEX_POINT('',#396);
#139=VERTEX_POINT('',#400);
#140=VERTEX_POINT('',#402);
#141=VERTEX_POINT('',#405);
#142=VERTEX_POINT('',#407);
#143=VERTEX_POINT('',#410);
#144=VERTEX_POINT('',#412);
#145=LINE('',#354,#161);
#146=LINE('',#357,#162);
#147=LINE('',#359,#163);
#148=LINE('',#361,#164);
#149=LINE('',#367,#165);
#150=LINE('',#369,#166);
#151=LINE('',#371,#167);
#152=LINE('',#373,#168);
#153=LINE('',#379,#169);
#154=LINE('',#381,#170);
#155=LINE('',#383,#171);
#156=LINE('',#385,#172);
#157=LINE('',#391,#173);
#158=LINE('',#393,#174);
#159=LINE('',#395,#175);
#160=LINE('',#397,#176);
#161=VECTOR('',#284,1.);
#162=VECTOR('',#285,1.);
#163=VECTOR('',#286,1.);
#164=VECTOR('',#287,1.);
#165=VECTOR('',#294,1.);
#166=VECTOR('',#297,1.);
#167=VECTOR('',#298,1.);
#168=VECTOR('',#299,1.);
#169=VECTOR('',#306,1.);
#170=VECTOR('',#309,1.);
#171=VECTOR('',#310,1.);
#172=VECTOR('',#311,1.);
#173=VECTOR('',#318,1.);
#174=VECTOR('',#321,1.);
#175=VECTOR('',#322,1.);
#176=VECTOR('',#323,1.);
#177=EDGE_LOOP('',(#33,#34,#35,#36));
#178=EDGE_LOOP('',(#37,#38,#39,#40));
#179=EDGE_LOOP('',(#41,#42,#43,#44));
#180=EDGE_LOOP('',(#45,#46,#47,#48));
#181=EDGE_LOOP('',(#49,#50,#51,#52));
#182=EDGE_LOOP('',(#53,#54,#55,#56));
#183=EDGE_LOOP('',(#57,#58,#59,#60));
#184=EDGE_LOOP('',(#61));
#185=EDGE_LOOP('',(#62));
#186=EDGE_LOOP('',(#63));
#187=EDGE_LOOP('',(#64));
#188=EDGE_LOOP('',(#65));
#189=EDGE_LOOP('',(#66));
#190=EDGE_LOOP('',(#67,#68,#69,#70));
#191=EDGE_LOOP('',(#71));
#192=EDGE_LOOP('',(#72));
#193=EDGE_LOOP('',(#73));
#194=EDGE_LOOP('',(#74,#75,#76,#77,#78,#79,#80,#81));
#195=EDGE_LOOP('',(#82));
#196=EDGE_LOOP('',(#83));
#197=EDGE_LOOP('',(#84));
#198=EDGE_LOOP('',(#85,#86,#87,#88,#89,#90,#91,#92));
#199=FACE_BOUND('',#177,.T.);
#200=FACE_BOUND('',#178,.T.);
#201=FACE_BOUND('',#179,.T.);
#202=FACE_BOUND('',#180,.T.);
#203=FACE_BOUND('',#181,.T.);
#204=FACE_BOUND('',#182,.T.);
#205=FACE_BOUND('',#183,.T.);
#206=FACE_BOUND('',#184,.T.);
#207=FACE_BOUND('',#185,.T.);
#208=FACE_BOUND('',#186,.T.);
#209=FACE_BOUND('',#187,.T.);
#210=FACE_BOUND('',#188,.T.);
#211=FACE_BOUND('',#189,.T.);
#212=FACE_BOUND('',#190,.T.);
#213=FACE_BOUND('',#191,.T.);
#214=FACE_BOUND('',#192,.T.);
#215=FACE_BOUND('',#193,.T.);
#216=FACE_BOUND('',#194,.T.);
#217=FACE_BOUND('',#195,.T.);
#218=FACE_BOUND('',#196,.T.);
#219=FACE_BOUND('',#197,.T.);
#220=FACE_BOUND('',#198,.T.);
#221=PLANE('',#253);
#222=PLANE('',#257);
#223=PLANE('',#261);
#224=PLANE('',#265);
#225=PLANE('',#278);
#226=PLANE('',#279);
#227=ADVANCED_FACE('',(#199),#221,.F.);
#228=ADVANCED_FACE('',(#200),#26,.T.);
#229=ADVANCED_FACE('',(#201),#222,.T.);
#230=ADVANCED_FACE('',(#202),#27,.T.);
#231=ADVANCED_FACE('',(#203),#223,.T.);
#232=ADVANCED_FACE('',(#204),#28,.T.);
#233=ADVANCED_FACE('',(#205),#224,.F.);
#234=ADVANCED_FACE('',(#206,#207),#29,.F.);
#235=ADVANCED_FACE('',(#208,#209),#30,.F.);
#236=ADVANCED_FACE('',(#210,#211),#31,.F.);
#237=ADVANCED_FACE('',(#212),#32,.T.);
#238=ADVANCED_FACE('',(#213,#214,#215,#216),#225,.F.);
#239=ADVANCED_FACE('',(#217,#218,#219,#220),#226,.T.);
#240=CLOSED_SHELL('',(#227,#228,#229,#230,#231,#232,#233,#234,#235,#236,
#237,#238,#239));
#241=STYLED_ITEM('',(#242),#249);
#242=PRESENTATION_STYLE_ASSIGNMENT((#243));
#243=SURFACE_STYLE_USAGE(.BOTH.,#244);
#244=SURFACE_SIDE_STYLE('',(#245));
#245=SURFACE_STYLE_FILL_AREA(#246);
#246=FILL_AREA_STYLE('',(#247));
#247=FILL_AREA_STYLE_COLOUR('',#248);
#248=COLOUR_RGB('',0.972549019607843,0.529411764705882,0.00392156862745098);
#249=MANIFOLD_SOLID_BREP('Back_Plate_4',#240);
#250=SHAPE_DEFINITION_REPRESENTATION(#424,#251);
#251=SHAPE_REPRESENTATION('Back_Plate_4',(#252),#419);
#252=AXIS2_PLACEMENT_3D('',#352,#280,#281);
#253=AXIS2_PLACEMENT_3D('',#353,#282,#283);
#254=AXIS2_PLACEMENT_3D('',#362,#288,#289);
#255=AXIS2_PLACEMENT_3D('',#363,#290,#291);
#256=AXIS2_PLACEMENT_3D('',#365,#292,#293);
#257=AXIS2_PLACEMENT_3D('',#368,#295,#296);
#258=AXIS2_PLACEMENT_3D('',#374,#300,#301);
#259=AXIS2_PLACEMENT_3D('',#375,#302,#303);
#260=AXIS2_PLACEMENT_3D('',#377,#304,#305);
#261=AXIS2_PLACEMENT_3D('',#380,#307,#308);
#262=AXIS2_PLACEMENT_3D('',#386,#312,#313);
#263=AXIS2_PLACEMENT_3D('',#387,#314,#315);
#264=AXIS2_PLACEMENT_3D('',#389,#316,#317);
#265=AXIS2_PLACEMENT_3D('',#392,#319,#320);
#266=AXIS2_PLACEMENT_3D('',#398,#324,#325);
#267=AXIS2_PLACEMENT_3D('',#399,#326,#327);
#268=AXIS2_PLACEMENT_3D('',#401,#328,#329);
#269=AXIS2_PLACEMENT_3D('',#403,#330,#331);
#270=AXIS2_PLACEMENT_3D('',#404,#332,#333);
#271=AXIS2_PLACEMENT_3D('',#406,#334,#335);
#272=AXIS2_PLACEMENT_3D('',#408,#336,#337);
#273=AXIS2_PLACEMENT_3D('',#409,#338,#339);
#274=AXIS2_PLACEMENT_3D('',#411,#340,#341);
#275=AXIS2_PLACEMENT_3D('',#413,#342,#343);
#276=AXIS2_PLACEMENT_3D('',#414,#344,#345);
#277=AXIS2_PLACEMENT_3D('',#415,#346,#347);
#278=AXIS2_PLACEMENT_3D('',#416,#348,#349);
#279=AXIS2_PLACEMENT_3D('',#417,#350,#351);
#280=DIRECTION('',(0.,0.,1.));
#281=DIRECTION('',(1.,0.,0.));
#282=DIRECTION('',(-1.31974541252876E-16,-0.147809411129611,0.989015863361917));
#283=DIRECTION('',(0.,-0.989015863361917,-0.147809411129611));
#284=DIRECTION('',(1.,-1.95070792266881E-17,1.30524914859006E-16));
#285=DIRECTION('',(0.,0.989015863361917,0.147809411129611));
#286=DIRECTION('',(1.,-1.95070792266881E-17,1.30524914859006E-16));
#287=DIRECTION('',(0.,0.989015863361917,0.147809411129611));
#288=DIRECTION('',(0.,0.989015863361917,0.147809411129611));
#289=DIRECTION('',(0.,-0.147809411129611,0.989015863361917));
#290=DIRECTION('',(0.,0.989015863361917,0.147809411129611));
#291=DIRECTION('',(0.,-0.147809411129611,0.989015863361917));
#292=DIRECTION('',(0.,0.989015863361917,0.147809411129611));
#293=DIRECTION('',(0.,-0.147809411129611,0.989015863361917));
#294=DIRECTION('',(0.,0.989015863361917,0.147809411129611));
#295=DIRECTION('',(-1.,0.,0.));
#296=DIRECTION('',(0.,0.,1.));
#297=DIRECTION('',(0.,-0.147809411129611,0.989015863361917));
#298=DIRECTION('',(0.,-0.147809411129611,0.989015863361917));
#299=DIRECTION('',(0.,0.989015863361917,0.147809411129611));
#300=DIRECTION('',(0.,0.989015863361917,0.147809411129611));
#301=DIRECTION('',(0.,-0.147809411129611,0.989015863361917));
#302=DIRECTION('',(0.,0.989015863361917,0.147809411129611));
#303=DIRECTION('',(0.,-0.147809411129611,0.989015863361917));
#304=DIRECTION('',(0.,0.989015863361917,0.147809411129611));
#305=DIRECTION('',(0.,-0.147809411129611,0.989015863361917));
#306=DIRECTION('',(0.,0.989015863361917,0.147809411129611));
#307=DIRECTION('',(0.,-0.147809411129611,0.989015863361917));
#308=DIRECTION('',(0.,-0.989015863361917,-0.147809411129611));
#309=DIRECTION('',(1.,0.,0.));
#310=DIRECTION('',(1.,0.,0.));
#311=DIRECTION('',(0.,0.989015863361917,0.147809411129611));
#312=DIRECTION('',(0.,0.989015863361917,0.147809411129611));
#313=DIRECTION('',(0.,-0.147809411129611,0.989015863361917));
#314=DIRECTION('',(0.,0.989015863361917,0.147809411129611));
#315=DIRECTION('',(0.,-0.147809411129611,0.989015863361917));
#316=DIRECTION('',(0.,0.989015863361917,0.147809411129611));
#317=DIRECTION('',(0.,-0.147809411129611,0.989015863361917));
#318=DIRECTION('',(0.,0.989015863361917,0.147809411129611));
#319=DIRECTION('',(-1.,0.,0.));
#320=DIRECTION('',(0.,0.,1.));
#321=DIRECTION('',(0.,-0.147809411129611,0.989015863361917));
#322=DIRECTION('',(0.,-0.147809411129611,0.989015863361917));
#323=DIRECTION('',(0.,0.989015863361917,0.147809411129611));
#324=DIRECTION('',(0.,0.989015863361917,0.147809411129611));
#325=DIRECTION('',(0.,-0.147809411129611,0.989015863361917));
#326=DIRECTION('',(0.,0.989015863361917,0.147809411129611));
#327=DIRECTION('',(0.,-0.147809411129611,0.989015863361917));
#328=DIRECTION('',(0.,0.989015863361917,0.147809411129611));
#329=DIRECTION('',(0.,-0.147809411129611,0.989015863361917));
#330=DIRECTION('',(0.,0.989015863361917,0.147809411129611));
#331=DIRECTION('',(0.,-0.147809411129611,0.989015863361917));
#332=DIRECTION('',(0.,0.989015863361917,0.147809411129611));
#333=DIRECTION('',(0.,-0.147809411129611,0.989015863361917));
#334=DIRECTION('',(0.,0.989015863361917,0.147809411129611));
#335=DIRECTION('',(0.,-0.147809411129611,0.989015863361917));
#336=DIRECTION('',(0.,0.989015863361917,0.147809411129611));
#337=DIRECTION('',(0.,-0.147809411129611,0.989015863361917));
#338=DIRECTION('',(0.,0.989015863361917,0.147809411129611));
#339=DIRECTION('',(0.,-0.147809411129611,0.989015863361917));
#340=DIRECTION('',(0.,0.989015863361917,0.147809411129611));
#341=DIRECTION('',(0.,-0.147809411129611,0.989015863361917));
#342=DIRECTION('',(0.,0.989015863361917,0.147809411129611));
#343=DIRECTION('',(0.,-0.147809411129611,0.989015863361917));
#344=DIRECTION('',(0.,0.989015863361917,0.147809411129611));
#345=DIRECTION('',(0.,-0.147809411129611,0.989015863361917));
#346=DIRECTION('',(0.,0.989015863361917,0.147809411129611));
#347=DIRECTION('',(0.,-0.147809411129611,0.989015863361917));
#348=DIRECTION('',(0.,0.989015863361917,0.147809411129611));
#349=DIRECTION('',(-1.,0.,0.));
#350=DIRECTION('',(0.,0.989015863361917,0.147809411129611));
#351=DIRECTION('',(-1.,0.,0.));
#352=CARTESIAN_POINT('',(0.,0.,0.));
#353=CARTESIAN_POINT('',(0.03,0.0144965834960371,-0.00228233804297788));
#354=CARTESIAN_POINT('',(0.03,0.016474615222761,-0.00198671922071866));
#355=CARTESIAN_POINT('',(0.0235,0.016474615222761,-0.00198671922071867));
#356=CARTESIAN_POINT('',(0.0365,0.016474615222761,-0.00198671922071866));
#357=CARTESIAN_POINT('',(0.0365,0.0144965834960371,-0.00228233804297788));
#358=CARTESIAN_POINT('',(0.0365,0.0144965834960371,-0.00228233804297788));
#359=CARTESIAN_POINT('',(0.03,0.0144965834960371,-0.00228233804297788));
#360=CARTESIAN_POINT('',(0.0235,0.0144965834960371,-0.00228233804297788));
#361=CARTESIAN_POINT('',(0.0235,0.0144965834960371,-0.00228233804297788));
#362=CARTESIAN_POINT('',(0.0235,0.0142009646737779,-0.000304306316254051));
#363=CARTESIAN_POINT('',(0.0235,0.0161789964005018,-8.68749399482978E-6));
#364=CARTESIAN_POINT('',(0.0215,0.0161789964005018,-8.68749399482794E-6));
#365=CARTESIAN_POINT('',(0.0235,0.0142009646737779,-0.000304306316254051));
#366=CARTESIAN_POINT('',(0.0215,0.0142009646737779,-0.000304306316254049));
#367=CARTESIAN_POINT('',(0.0215,0.0142009646737779,-0.000304306316254049));
#368=CARTESIAN_POINT('',(0.0215,0.0137575364403891,0.0026627412738317));
#369=CARTESIAN_POINT('',(0.0215,0.0157355681671129,0.00295836009609092));
#370=CARTESIAN_POINT('',(0.0215,0.0152921399337241,0.00592540768617667));
#371=CARTESIAN_POINT('',(0.0215,0.0137575364403891,0.0026627412738317));
#372=CARTESIAN_POINT('',(0.0215,0.0133141082070002,0.00562978886391745));
#373=CARTESIAN_POINT('',(0.0215,0.0133141082070002,0.00562978886391745));
#374=CARTESIAN_POINT('',(0.0235,0.0133141082070002,0.00562978886391745));
#375=CARTESIAN_POINT('',(0.0235,0.0152921399337241,0.00592540768617667));
#376=CARTESIAN_POINT('',(0.0235,0.0149965211114648,0.00790343941290051));
#377=CARTESIAN_POINT('',(0.0235,0.0133141082070002,0.00562978886391745));
#378=CARTESIAN_POINT('',(0.0235,0.013018489384741,0.00760782059064129));
#379=CARTESIAN_POINT('',(0.0235,0.013018489384741,0.00760782059064129));
#380=CARTESIAN_POINT('',(0.03,0.013018489384741,0.00760782059064129));
#381=CARTESIAN_POINT('',(0.03,0.0149965211114648,0.00790343941290051));
#382=CARTESIAN_POINT('',(0.0365,0.0149965211114648,0.0079034394129005));
#383=CARTESIAN_POINT('',(0.03,0.013018489384741,0.00760782059064129));
#384=CARTESIAN_POINT('',(0.0365,0.013018489384741,0.00760782059064128));
#385=CARTESIAN_POINT('',(0.0365,0.013018489384741,0.00760782059064128));
#386=CARTESIAN_POINT('',(0.0365,0.0133141082070002,0.00562978886391745));
#387=CARTESIAN_POINT('',(0.0365,0.0152921399337241,0.00592540768617667));
#388=CARTESIAN_POINT('',(0.0385,0.0152921399337241,0.00592540768617667));
#389=CARTESIAN_POINT('',(0.0365,0.0133141082070002,0.00562978886391745));
#390=CARTESIAN_POINT('',(0.0385,0.0133141082070002,0.00562978886391745));
#391=CARTESIAN_POINT('',(0.0385,0.0133141082070002,0.00562978886391745));
#392=CARTESIAN_POINT('',(0.0385,0.0137575364403891,0.0026627412738317));
#393=CARTESIAN_POINT('',(0.0385,0.0157355681671129,0.00295836009609092));
#394=CARTESIAN_POINT('',(0.0385,0.0161789964005018,-8.68749399482539E-6));
#395=CARTESIAN_POINT('',(0.0385,0.0137575364403891,0.0026627412738317));
#396=CARTESIAN_POINT('',(0.0385,0.0142009646737779,-0.000304306316254047));
#397=CARTESIAN_POINT('',(0.0385,0.0142009646737779,-0.000304306316254047));
#398=CARTESIAN_POINT('',(0.03,0.0137575364403891,0.0026627412738317));
#399=CARTESIAN_POINT('',(0.03,0.0137575364403891,0.0026627412738317));
#400=CARTESIAN_POINT('',(0.03,0.0131847749722618,0.00649517774435913));
#401=CARTESIAN_POINT('',(0.03,0.0157355681671129,0.00295836009609093));
#402=CARTESIAN_POINT('',(0.03,0.0151628066989857,0.00679079656661836));
#403=CARTESIAN_POINT('',(0.02325,0.0137575364403891,0.0026627412738317));
#404=CARTESIAN_POINT('',(0.02325,0.0137575364403891,0.0026627412738317));
#405=CARTESIAN_POINT('',(0.02325,0.0135358223236946,0.00414626506887458));
#406=CARTESIAN_POINT('',(0.02325,0.0157355681671129,0.00295836009609092));
#407=CARTESIAN_POINT('',(0.02325,0.0155138540504185,0.0044418838911338));
#408=CARTESIAN_POINT('',(0.03675,0.0137575364403891,0.0026627412738317));
#409=CARTESIAN_POINT('',(0.03675,0.0137575364403891,0.0026627412738317));
#410=CARTESIAN_POINT('',(0.03675,0.0135358223236946,0.00414626506887458));
#411=CARTESIAN_POINT('',(0.03675,0.0157355681671129,0.00295836009609092));
#412=CARTESIAN_POINT('',(0.03675,0.0155138540504185,0.0044418838911338));
#413=CARTESIAN_POINT('',(0.0365,0.0142009646737779,-0.000304306316254047));
#414=CARTESIAN_POINT('',(0.0365,0.0161789964005018,-8.68749399482634E-6));
#415=CARTESIAN_POINT('',(0.0365,0.0142009646737779,-0.000304306316254047));
#416=CARTESIAN_POINT('',(0.03675,0.0137575364403891,0.0026627412738317));
#417=CARTESIAN_POINT('',(0.03675,0.0157355681671129,0.00295836009609092));
#418=MECHANICAL_DESIGN_GEOMETRIC_PRESENTATION_REPRESENTATION('',(#241),
#419);
#419=(
GEOMETRIC_REPRESENTATION_CONTEXT(3)
GLOBAL_UNCERTAINTY_ASSIGNED_CONTEXT((#420))
GLOBAL_UNIT_ASSIGNED_CONTEXT((#423,#422,#421))
REPRESENTATION_CONTEXT('Back_Plate_4','TOP_LEVEL_ASSEMBLY_PART')
);
#420=UNCERTAINTY_MEASURE_WITH_UNIT(LENGTH_MEASURE(1.E-8),#423,
'DISTANCE_ACCURACY_VALUE','Maximum Tolerance applied to model');
#421=(
NAMED_UNIT(*)
SI_UNIT($,.STERADIAN.)
SOLID_ANGLE_UNIT()
);
#422=(
NAMED_UNIT(*)
PLANE_ANGLE_UNIT()
SI_UNIT($,.RADIAN.)
);
#423=(
LENGTH_UNIT()
NAMED_UNIT(*)
SI_UNIT($,.METRE.)
);
#424=PRODUCT_DEFINITION_SHAPE('','',#425);
#425=PRODUCT_DEFINITION('','',#427,#426);
#426=PRODUCT_DEFINITION_CONTEXT('',#433,'design');
#427=PRODUCT_DEFINITION_FORMATION_WITH_SPECIFIED_SOURCE('','',#429,
 .NOT_KNOWN.);
#428=PRODUCT_RELATED_PRODUCT_CATEGORY('','',(#429));
#429=PRODUCT('Back_Plate_4','Back_Plate_4','Back_Plate_4',(#431));
#430=PRODUCT_CATEGORY('','');
#431=PRODUCT_CONTEXT('',#433,'mechanical');
#432=APPLICATION_PROTOCOL_DEFINITION('international standard',
'ap242_managed_model_based_3d_engineering',2011,#433);
#433=APPLICATION_CONTEXT('managed model based 3d engineering');
ENDSEC;
END-ISO-10303-21;
