ISO-10303-21;
HEADER;
/* Generated by software containing ST-Developer
 * from STEP Tools, Inc. (www.steptools.com) 
 */

FILE_DESCRIPTION(
/* description */ (''),
/* implementation_level */ '2;1');

FILE_NAME(
/* name */ '41464 Friction Cam Lever, Drum Brake, 3D-Printed v6.step',
/* time_stamp */ '2025-05-26T21:33:28-07:00',
/* author */ (''),
/* organization */ (''),
/* preprocessor_version */ 'ST-DEVELOPER v20.1',
/* originating_system */ 'Autodesk Translation Framework v14.10.0.0',
/* authorisation */ '');

FILE_SCHEMA (('AUTOMOTIVE_DESIGN { 1 0 10303 214 3 1 1 }'));
ENDSEC;

DATA;
#10=MECHANICAL_DESIGN_GEOMETRIC_PRESENTATION_REPRESENTATION('',(#13),#1067);
#11=SHAPE_REPRESENTATION_RELATIONSHIP('SRR','None',#1074,#12);
#12=ADVANCED_BREP_SHAPE_REPRESENTATION('',(#14),#1066);
#13=STYLED_ITEM('',(#1084),#14);
#14=MANIFOLD_SOLID_BREP('Body1',#659);
#15=FACE_BOUND('',#84,.T.);
#16=FACE_BOUND('',#115,.T.);
#17=FACE_BOUND('',#116,.T.);
#18=FACE_BOUND('',#118,.T.);
#19=FACE_BOUND('',#119,.T.);
#20=PLANE('',#676);
#21=PLANE('',#680);
#22=PLANE('',#681);
#23=PLANE('',#682);
#24=PLANE('',#683);
#25=PLANE('',#684);
#26=PLANE('',#685);
#27=PLANE('',#686);
#28=PLANE('',#687);
#29=PLANE('',#688);
#30=PLANE('',#689);
#31=PLANE('',#690);
#32=PLANE('',#691);
#33=PLANE('',#692);
#34=PLANE('',#693);
#35=PLANE('',#694);
#36=PLANE('',#695);
#37=PLANE('',#696);
#38=PLANE('',#697);
#39=PLANE('',#698);
#40=PLANE('',#699);
#41=PLANE('',#700);
#42=PLANE('',#701);
#43=PLANE('',#702);
#44=PLANE('',#703);
#45=PLANE('',#707);
#46=PLANE('',#711);
#47=PLANE('',#712);
#48=PLANE('',#713);
#49=FACE_OUTER_BOUND('',#82,.T.);
#50=FACE_OUTER_BOUND('',#83,.T.);
#51=FACE_OUTER_BOUND('',#85,.T.);
#52=FACE_OUTER_BOUND('',#86,.T.);
#53=FACE_OUTER_BOUND('',#87,.T.);
#54=FACE_OUTER_BOUND('',#88,.T.);
#55=FACE_OUTER_BOUND('',#89,.T.);
#56=FACE_OUTER_BOUND('',#90,.T.);
#57=FACE_OUTER_BOUND('',#91,.T.);
#58=FACE_OUTER_BOUND('',#92,.T.);
#59=FACE_OUTER_BOUND('',#93,.T.);
#60=FACE_OUTER_BOUND('',#94,.T.);
#61=FACE_OUTER_BOUND('',#95,.T.);
#62=FACE_OUTER_BOUND('',#96,.T.);
#63=FACE_OUTER_BOUND('',#97,.T.);
#64=FACE_OUTER_BOUND('',#98,.T.);
#65=FACE_OUTER_BOUND('',#99,.T.);
#66=FACE_OUTER_BOUND('',#100,.T.);
#67=FACE_OUTER_BOUND('',#101,.T.);
#68=FACE_OUTER_BOUND('',#102,.T.);
#69=FACE_OUTER_BOUND('',#103,.T.);
#70=FACE_OUTER_BOUND('',#104,.T.);
#71=FACE_OUTER_BOUND('',#105,.T.);
#72=FACE_OUTER_BOUND('',#106,.T.);
#73=FACE_OUTER_BOUND('',#107,.T.);
#74=FACE_OUTER_BOUND('',#108,.T.);
#75=FACE_OUTER_BOUND('',#109,.T.);
#76=FACE_OUTER_BOUND('',#110,.T.);
#77=FACE_OUTER_BOUND('',#111,.T.);
#78=FACE_OUTER_BOUND('',#112,.T.);
#79=FACE_OUTER_BOUND('',#113,.T.);
#80=FACE_OUTER_BOUND('',#114,.T.);
#81=FACE_OUTER_BOUND('',#117,.T.);
#82=EDGE_LOOP('',(#442,#443,#444,#445));
#83=EDGE_LOOP('',(#446));
#84=EDGE_LOOP('',(#447,#448,#449,#450,#451,#452,#453,#454,#455,#456,#457,
#458,#459,#460,#461,#462,#463,#464,#465,#466,#467,#468,#469,#470));
#85=EDGE_LOOP('',(#471,#472,#473,#474));
#86=EDGE_LOOP('',(#475,#476,#477,#478));
#87=EDGE_LOOP('',(#479,#480,#481,#482));
#88=EDGE_LOOP('',(#483,#484,#485,#486));
#89=EDGE_LOOP('',(#487,#488,#489,#490));
#90=EDGE_LOOP('',(#491,#492,#493,#494));
#91=EDGE_LOOP('',(#495,#496,#497,#498));
#92=EDGE_LOOP('',(#499,#500,#501,#502));
#93=EDGE_LOOP('',(#503,#504,#505,#506));
#94=EDGE_LOOP('',(#507,#508,#509,#510));
#95=EDGE_LOOP('',(#511,#512,#513,#514));
#96=EDGE_LOOP('',(#515,#516,#517,#518));
#97=EDGE_LOOP('',(#519,#520,#521,#522));
#98=EDGE_LOOP('',(#523,#524,#525,#526));
#99=EDGE_LOOP('',(#527,#528,#529,#530));
#100=EDGE_LOOP('',(#531,#532,#533,#534));
#101=EDGE_LOOP('',(#535,#536,#537,#538));
#102=EDGE_LOOP('',(#539,#540,#541,#542));
#103=EDGE_LOOP('',(#543,#544,#545,#546));
#104=EDGE_LOOP('',(#547,#548,#549,#550));
#105=EDGE_LOOP('',(#551,#552,#553,#554));
#106=EDGE_LOOP('',(#555,#556,#557,#558));
#107=EDGE_LOOP('',(#559,#560,#561,#562));
#108=EDGE_LOOP('',(#563,#564,#565,#566));
#109=EDGE_LOOP('',(#567,#568,#569,#570));
#110=EDGE_LOOP('',(#571,#572,#573,#574));
#111=EDGE_LOOP('',(#575,#576,#577,#578));
#112=EDGE_LOOP('',(#579,#580,#581,#582));
#113=EDGE_LOOP('',(#583,#584,#585,#586));
#114=EDGE_LOOP('',(#587,#588,#589,#590));
#115=EDGE_LOOP('',(#591));
#116=EDGE_LOOP('',(#592));
#117=EDGE_LOOP('',(#593,#594,#595,#596));
#118=EDGE_LOOP('',(#597,#598,#599,#600,#601,#602,#603,#604,#605,#606,#607,
#608,#609,#610,#611,#612,#613,#614,#615,#616,#617,#618,#619,#620));
#119=EDGE_LOOP('',(#621));
#120=LINE('',#885,#202);
#121=LINE('',#890,#203);
#122=LINE('',#892,#204);
#123=LINE('',#894,#205);
#124=LINE('',#896,#206);
#125=LINE('',#898,#207);
#126=LINE('',#900,#208);
#127=LINE('',#902,#209);
#128=LINE('',#904,#210);
#129=LINE('',#906,#211);
#130=LINE('',#908,#212);
#131=LINE('',#910,#213);
#132=LINE('',#912,#214);
#133=LINE('',#914,#215);
#134=LINE('',#916,#216);
#135=LINE('',#918,#217);
#136=LINE('',#920,#218);
#137=LINE('',#922,#219);
#138=LINE('',#924,#220);
#139=LINE('',#926,#221);
#140=LINE('',#928,#222);
#141=LINE('',#930,#223);
#142=LINE('',#932,#224);
#143=LINE('',#934,#225);
#144=LINE('',#935,#226);
#145=LINE('',#940,#227);
#146=LINE('',#944,#228);
#147=LINE('',#946,#229);
#148=LINE('',#947,#230);
#149=LINE('',#950,#231);
#150=LINE('',#951,#232);
#151=LINE('',#954,#233);
#152=LINE('',#955,#234);
#153=LINE('',#958,#235);
#154=LINE('',#959,#236);
#155=LINE('',#962,#237);
#156=LINE('',#963,#238);
#157=LINE('',#966,#239);
#158=LINE('',#967,#240);
#159=LINE('',#970,#241);
#160=LINE('',#971,#242);
#161=LINE('',#974,#243);
#162=LINE('',#975,#244);
#163=LINE('',#978,#245);
#164=LINE('',#979,#246);
#165=LINE('',#982,#247);
#166=LINE('',#983,#248);
#167=LINE('',#986,#249);
#168=LINE('',#987,#250);
#169=LINE('',#990,#251);
#170=LINE('',#991,#252);
#171=LINE('',#994,#253);
#172=LINE('',#995,#254);
#173=LINE('',#998,#255);
#174=LINE('',#999,#256);
#175=LINE('',#1002,#257);
#176=LINE('',#1003,#258);
#177=LINE('',#1006,#259);
#178=LINE('',#1007,#260);
#179=LINE('',#1010,#261);
#180=LINE('',#1011,#262);
#181=LINE('',#1014,#263);
#182=LINE('',#1015,#264);
#183=LINE('',#1018,#265);
#184=LINE('',#1019,#266);
#185=LINE('',#1022,#267);
#186=LINE('',#1023,#268);
#187=LINE('',#1026,#269);
#188=LINE('',#1027,#270);
#189=LINE('',#1030,#271);
#190=LINE('',#1031,#272);
#191=LINE('',#1034,#273);
#192=LINE('',#1035,#274);
#193=LINE('',#1037,#275);
#194=LINE('',#1043,#276);
#195=LINE('',#1046,#277);
#196=LINE('',#1049,#278);
#197=LINE('',#1051,#279);
#198=LINE('',#1052,#280);
#199=LINE('',#1058,#281);
#200=LINE('',#1060,#282);
#201=LINE('',#1061,#283);
#202=VECTOR('',#720,5.5);
#203=VECTOR('',#725,10.);
#204=VECTOR('',#726,10.);
#205=VECTOR('',#727,10.);
#206=VECTOR('',#728,10.);
#207=VECTOR('',#729,10.);
#208=VECTOR('',#730,10.);
#209=VECTOR('',#731,10.);
#210=VECTOR('',#732,10.);
#211=VECTOR('',#733,10.);
#212=VECTOR('',#734,10.);
#213=VECTOR('',#735,10.);
#214=VECTOR('',#736,10.);
#215=VECTOR('',#737,10.);
#216=VECTOR('',#738,10.);
#217=VECTOR('',#739,10.);
#218=VECTOR('',#740,10.);
#219=VECTOR('',#741,10.);
#220=VECTOR('',#742,10.);
#221=VECTOR('',#743,10.);
#222=VECTOR('',#744,10.);
#223=VECTOR('',#745,10.);
#224=VECTOR('',#746,10.);
#225=VECTOR('',#747,10.);
#226=VECTOR('',#748,10.);
#227=VECTOR('',#753,2.);
#228=VECTOR('',#758,10.);
#229=VECTOR('',#759,10.);
#230=VECTOR('',#760,10.);
#231=VECTOR('',#763,10.);
#232=VECTOR('',#764,10.);
#233=VECTOR('',#767,10.);
#234=VECTOR('',#768,10.);
#235=VECTOR('',#771,10.);
#236=VECTOR('',#772,10.);
#237=VECTOR('',#775,10.);
#238=VECTOR('',#776,10.);
#239=VECTOR('',#779,10.);
#240=VECTOR('',#780,10.);
#241=VECTOR('',#783,10.);
#242=VECTOR('',#784,10.);
#243=VECTOR('',#787,10.);
#244=VECTOR('',#788,10.);
#245=VECTOR('',#791,10.);
#246=VECTOR('',#792,10.);
#247=VECTOR('',#795,10.);
#248=VECTOR('',#796,10.);
#249=VECTOR('',#799,10.);
#250=VECTOR('',#800,10.);
#251=VECTOR('',#803,10.);
#252=VECTOR('',#804,10.);
#253=VECTOR('',#807,10.);
#254=VECTOR('',#808,10.);
#255=VECTOR('',#811,10.);
#256=VECTOR('',#812,10.);
#257=VECTOR('',#815,10.);
#258=VECTOR('',#816,10.);
#259=VECTOR('',#819,10.);
#260=VECTOR('',#820,10.);
#261=VECTOR('',#823,10.);
#262=VECTOR('',#824,10.);
#263=VECTOR('',#827,10.);
#264=VECTOR('',#828,10.);
#265=VECTOR('',#831,10.);
#266=VECTOR('',#832,10.);
#267=VECTOR('',#835,10.);
#268=VECTOR('',#836,10.);
#269=VECTOR('',#839,10.);
#270=VECTOR('',#840,10.);
#271=VECTOR('',#843,10.);
#272=VECTOR('',#844,10.);
#273=VECTOR('',#847,10.);
#274=VECTOR('',#848,10.);
#275=VECTOR('',#851,10.);
#276=VECTOR('',#856,10.);
#277=VECTOR('',#859,10.);
#278=VECTOR('',#862,10.);
#279=VECTOR('',#863,10.);
#280=VECTOR('',#864,10.);
#281=VECTOR('',#871,10.);
#282=VECTOR('',#874,10.);
#283=VECTOR('',#875,10.);
#284=CIRCLE('',#674,5.5);
#285=CIRCLE('',#675,5.5);
#286=CIRCLE('',#678,2.);
#287=CIRCLE('',#679,2.);
#288=CIRCLE('',#705,6.);
#289=CIRCLE('',#706,6.);
#290=CIRCLE('',#709,9.);
#291=CIRCLE('',#710,9.);
#292=VERTEX_POINT('',#882);
#293=VERTEX_POINT('',#884);
#294=VERTEX_POINT('',#888);
#295=VERTEX_POINT('',#889);
#296=VERTEX_POINT('',#891);
#297=VERTEX_POINT('',#893);
#298=VERTEX_POINT('',#895);
#299=VERTEX_POINT('',#897);
#300=VERTEX_POINT('',#899);
#301=VERTEX_POINT('',#901);
#302=VERTEX_POINT('',#903);
#303=VERTEX_POINT('',#905);
#304=VERTEX_POINT('',#907);
#305=VERTEX_POINT('',#909);
#306=VERTEX_POINT('',#911);
#307=VERTEX_POINT('',#913);
#308=VERTEX_POINT('',#915);
#309=VERTEX_POINT('',#917);
#310=VERTEX_POINT('',#919);
#311=VERTEX_POINT('',#921);
#312=VERTEX_POINT('',#923);
#313=VERTEX_POINT('',#925);
#314=VERTEX_POINT('',#927);
#315=VERTEX_POINT('',#929);
#316=VERTEX_POINT('',#931);
#317=VERTEX_POINT('',#933);
#318=VERTEX_POINT('',#937);
#319=VERTEX_POINT('',#939);
#320=VERTEX_POINT('',#943);
#321=VERTEX_POINT('',#945);
#322=VERTEX_POINT('',#949);
#323=VERTEX_POINT('',#953);
#324=VERTEX_POINT('',#957);
#325=VERTEX_POINT('',#961);
#326=VERTEX_POINT('',#965);
#327=VERTEX_POINT('',#969);
#328=VERTEX_POINT('',#973);
#329=VERTEX_POINT('',#977);
#330=VERTEX_POINT('',#981);
#331=VERTEX_POINT('',#985);
#332=VERTEX_POINT('',#989);
#333=VERTEX_POINT('',#993);
#334=VERTEX_POINT('',#997);
#335=VERTEX_POINT('',#1001);
#336=VERTEX_POINT('',#1005);
#337=VERTEX_POINT('',#1009);
#338=VERTEX_POINT('',#1013);
#339=VERTEX_POINT('',#1017);
#340=VERTEX_POINT('',#1021);
#341=VERTEX_POINT('',#1025);
#342=VERTEX_POINT('',#1029);
#343=VERTEX_POINT('',#1033);
#344=VERTEX_POINT('',#1039);
#345=VERTEX_POINT('',#1040);
#346=VERTEX_POINT('',#1042);
#347=VERTEX_POINT('',#1044);
#348=VERTEX_POINT('',#1048);
#349=VERTEX_POINT('',#1050);
#350=VERTEX_POINT('',#1054);
#351=VERTEX_POINT('',#1056);
#352=EDGE_CURVE('',#292,#292,#284,.T.);
#353=EDGE_CURVE('',#292,#293,#120,.T.);
#354=EDGE_CURVE('',#293,#293,#285,.T.);
#355=EDGE_CURVE('',#294,#295,#121,.T.);
#356=EDGE_CURVE('',#295,#296,#122,.T.);
#357=EDGE_CURVE('',#296,#297,#123,.T.);
#358=EDGE_CURVE('',#297,#298,#124,.T.);
#359=EDGE_CURVE('',#298,#299,#125,.T.);
#360=EDGE_CURVE('',#299,#300,#126,.T.);
#361=EDGE_CURVE('',#300,#301,#127,.T.);
#362=EDGE_CURVE('',#301,#302,#128,.T.);
#363=EDGE_CURVE('',#302,#303,#129,.T.);
#364=EDGE_CURVE('',#303,#304,#130,.T.);
#365=EDGE_CURVE('',#304,#305,#131,.T.);
#366=EDGE_CURVE('',#305,#306,#132,.T.);
#367=EDGE_CURVE('',#306,#307,#133,.T.);
#368=EDGE_CURVE('',#307,#308,#134,.T.);
#369=EDGE_CURVE('',#308,#309,#135,.T.);
#370=EDGE_CURVE('',#309,#310,#136,.T.);
#371=EDGE_CURVE('',#310,#311,#137,.T.);
#372=EDGE_CURVE('',#311,#312,#138,.T.);
#373=EDGE_CURVE('',#312,#313,#139,.T.);
#374=EDGE_CURVE('',#313,#314,#140,.T.);
#375=EDGE_CURVE('',#314,#315,#141,.T.);
#376=EDGE_CURVE('',#315,#316,#142,.T.);
#377=EDGE_CURVE('',#316,#317,#143,.T.);
#378=EDGE_CURVE('',#317,#294,#144,.T.);
#379=EDGE_CURVE('',#318,#318,#286,.T.);
#380=EDGE_CURVE('',#318,#319,#145,.T.);
#381=EDGE_CURVE('',#319,#319,#287,.T.);
#382=EDGE_CURVE('',#320,#295,#146,.T.);
#383=EDGE_CURVE('',#321,#320,#147,.T.);
#384=EDGE_CURVE('',#321,#296,#148,.T.);
#385=EDGE_CURVE('',#322,#321,#149,.T.);
#386=EDGE_CURVE('',#322,#297,#150,.T.);
#387=EDGE_CURVE('',#323,#322,#151,.T.);
#388=EDGE_CURVE('',#323,#298,#152,.T.);
#389=EDGE_CURVE('',#324,#323,#153,.T.);
#390=EDGE_CURVE('',#324,#299,#154,.T.);
#391=EDGE_CURVE('',#325,#324,#155,.T.);
#392=EDGE_CURVE('',#325,#300,#156,.T.);
#393=EDGE_CURVE('',#326,#325,#157,.T.);
#394=EDGE_CURVE('',#326,#301,#158,.T.);
#395=EDGE_CURVE('',#327,#326,#159,.T.);
#396=EDGE_CURVE('',#327,#302,#160,.T.);
#397=EDGE_CURVE('',#328,#327,#161,.T.);
#398=EDGE_CURVE('',#328,#303,#162,.T.);
#399=EDGE_CURVE('',#329,#328,#163,.T.);
#400=EDGE_CURVE('',#329,#304,#164,.T.);
#401=EDGE_CURVE('',#330,#329,#165,.T.);
#402=EDGE_CURVE('',#330,#305,#166,.T.);
#403=EDGE_CURVE('',#331,#330,#167,.T.);
#404=EDGE_CURVE('',#331,#306,#168,.T.);
#405=EDGE_CURVE('',#332,#331,#169,.T.);
#406=EDGE_CURVE('',#332,#307,#170,.T.);
#407=EDGE_CURVE('',#333,#332,#171,.T.);
#408=EDGE_CURVE('',#333,#308,#172,.T.);
#409=EDGE_CURVE('',#334,#333,#173,.T.);
#410=EDGE_CURVE('',#334,#309,#174,.T.);
#411=EDGE_CURVE('',#335,#334,#175,.T.);
#412=EDGE_CURVE('',#335,#310,#176,.T.);
#413=EDGE_CURVE('',#336,#335,#177,.T.);
#414=EDGE_CURVE('',#336,#311,#178,.T.);
#415=EDGE_CURVE('',#337,#336,#179,.T.);
#416=EDGE_CURVE('',#337,#312,#180,.T.);
#417=EDGE_CURVE('',#338,#337,#181,.T.);
#418=EDGE_CURVE('',#338,#313,#182,.T.);
#419=EDGE_CURVE('',#339,#338,#183,.T.);
#420=EDGE_CURVE('',#339,#314,#184,.T.);
#421=EDGE_CURVE('',#340,#339,#185,.T.);
#422=EDGE_CURVE('',#340,#315,#186,.T.);
#423=EDGE_CURVE('',#341,#340,#187,.T.);
#424=EDGE_CURVE('',#341,#316,#188,.T.);
#425=EDGE_CURVE('',#342,#341,#189,.T.);
#426=EDGE_CURVE('',#342,#317,#190,.T.);
#427=EDGE_CURVE('',#343,#342,#191,.T.);
#428=EDGE_CURVE('',#294,#343,#192,.T.);
#429=EDGE_CURVE('',#320,#343,#193,.T.);
#430=EDGE_CURVE('',#344,#345,#288,.T.);
#431=EDGE_CURVE('',#344,#346,#194,.T.);
#432=EDGE_CURVE('',#347,#346,#289,.T.);
#433=EDGE_CURVE('',#345,#347,#195,.T.);
#434=EDGE_CURVE('',#348,#345,#196,.T.);
#435=EDGE_CURVE('',#349,#347,#197,.T.);
#436=EDGE_CURVE('',#348,#349,#198,.T.);
#437=EDGE_CURVE('',#348,#350,#290,.T.);
#438=EDGE_CURVE('',#351,#349,#291,.T.);
#439=EDGE_CURVE('',#350,#351,#199,.T.);
#440=EDGE_CURVE('',#350,#344,#200,.T.);
#441=EDGE_CURVE('',#346,#351,#201,.T.);
#442=ORIENTED_EDGE('',*,*,#352,.F.);
#443=ORIENTED_EDGE('',*,*,#353,.T.);
#444=ORIENTED_EDGE('',*,*,#354,.F.);
#445=ORIENTED_EDGE('',*,*,#353,.F.);
#446=ORIENTED_EDGE('',*,*,#352,.T.);
#447=ORIENTED_EDGE('',*,*,#355,.T.);
#448=ORIENTED_EDGE('',*,*,#356,.T.);
#449=ORIENTED_EDGE('',*,*,#357,.T.);
#450=ORIENTED_EDGE('',*,*,#358,.T.);
#451=ORIENTED_EDGE('',*,*,#359,.T.);
#452=ORIENTED_EDGE('',*,*,#360,.T.);
#453=ORIENTED_EDGE('',*,*,#361,.T.);
#454=ORIENTED_EDGE('',*,*,#362,.T.);
#455=ORIENTED_EDGE('',*,*,#363,.T.);
#456=ORIENTED_EDGE('',*,*,#364,.T.);
#457=ORIENTED_EDGE('',*,*,#365,.T.);
#458=ORIENTED_EDGE('',*,*,#366,.T.);
#459=ORIENTED_EDGE('',*,*,#367,.T.);
#460=ORIENTED_EDGE('',*,*,#368,.T.);
#461=ORIENTED_EDGE('',*,*,#369,.T.);
#462=ORIENTED_EDGE('',*,*,#370,.T.);
#463=ORIENTED_EDGE('',*,*,#371,.T.);
#464=ORIENTED_EDGE('',*,*,#372,.T.);
#465=ORIENTED_EDGE('',*,*,#373,.T.);
#466=ORIENTED_EDGE('',*,*,#374,.T.);
#467=ORIENTED_EDGE('',*,*,#375,.T.);
#468=ORIENTED_EDGE('',*,*,#376,.T.);
#469=ORIENTED_EDGE('',*,*,#377,.T.);
#470=ORIENTED_EDGE('',*,*,#378,.T.);
#471=ORIENTED_EDGE('',*,*,#379,.F.);
#472=ORIENTED_EDGE('',*,*,#380,.T.);
#473=ORIENTED_EDGE('',*,*,#381,.F.);
#474=ORIENTED_EDGE('',*,*,#380,.F.);
#475=ORIENTED_EDGE('',*,*,#382,.F.);
#476=ORIENTED_EDGE('',*,*,#383,.F.);
#477=ORIENTED_EDGE('',*,*,#384,.T.);
#478=ORIENTED_EDGE('',*,*,#356,.F.);
#479=ORIENTED_EDGE('',*,*,#384,.F.);
#480=ORIENTED_EDGE('',*,*,#385,.F.);
#481=ORIENTED_EDGE('',*,*,#386,.T.);
#482=ORIENTED_EDGE('',*,*,#357,.F.);
#483=ORIENTED_EDGE('',*,*,#386,.F.);
#484=ORIENTED_EDGE('',*,*,#387,.F.);
#485=ORIENTED_EDGE('',*,*,#388,.T.);
#486=ORIENTED_EDGE('',*,*,#358,.F.);
#487=ORIENTED_EDGE('',*,*,#388,.F.);
#488=ORIENTED_EDGE('',*,*,#389,.F.);
#489=ORIENTED_EDGE('',*,*,#390,.T.);
#490=ORIENTED_EDGE('',*,*,#359,.F.);
#491=ORIENTED_EDGE('',*,*,#390,.F.);
#492=ORIENTED_EDGE('',*,*,#391,.F.);
#493=ORIENTED_EDGE('',*,*,#392,.T.);
#494=ORIENTED_EDGE('',*,*,#360,.F.);
#495=ORIENTED_EDGE('',*,*,#392,.F.);
#496=ORIENTED_EDGE('',*,*,#393,.F.);
#497=ORIENTED_EDGE('',*,*,#394,.T.);
#498=ORIENTED_EDGE('',*,*,#361,.F.);
#499=ORIENTED_EDGE('',*,*,#394,.F.);
#500=ORIENTED_EDGE('',*,*,#395,.F.);
#501=ORIENTED_EDGE('',*,*,#396,.T.);
#502=ORIENTED_EDGE('',*,*,#362,.F.);
#503=ORIENTED_EDGE('',*,*,#396,.F.);
#504=ORIENTED_EDGE('',*,*,#397,.F.);
#505=ORIENTED_EDGE('',*,*,#398,.T.);
#506=ORIENTED_EDGE('',*,*,#363,.F.);
#507=ORIENTED_EDGE('',*,*,#398,.F.);
#508=ORIENTED_EDGE('',*,*,#399,.F.);
#509=ORIENTED_EDGE('',*,*,#400,.T.);
#510=ORIENTED_EDGE('',*,*,#364,.F.);
#511=ORIENTED_EDGE('',*,*,#400,.F.);
#512=ORIENTED_EDGE('',*,*,#401,.F.);
#513=ORIENTED_EDGE('',*,*,#402,.T.);
#514=ORIENTED_EDGE('',*,*,#365,.F.);
#515=ORIENTED_EDGE('',*,*,#402,.F.);
#516=ORIENTED_EDGE('',*,*,#403,.F.);
#517=ORIENTED_EDGE('',*,*,#404,.T.);
#518=ORIENTED_EDGE('',*,*,#366,.F.);
#519=ORIENTED_EDGE('',*,*,#404,.F.);
#520=ORIENTED_EDGE('',*,*,#405,.F.);
#521=ORIENTED_EDGE('',*,*,#406,.T.);
#522=ORIENTED_EDGE('',*,*,#367,.F.);
#523=ORIENTED_EDGE('',*,*,#406,.F.);
#524=ORIENTED_EDGE('',*,*,#407,.F.);
#525=ORIENTED_EDGE('',*,*,#408,.T.);
#526=ORIENTED_EDGE('',*,*,#368,.F.);
#527=ORIENTED_EDGE('',*,*,#408,.F.);
#528=ORIENTED_EDGE('',*,*,#409,.F.);
#529=ORIENTED_EDGE('',*,*,#410,.T.);
#530=ORIENTED_EDGE('',*,*,#369,.F.);
#531=ORIENTED_EDGE('',*,*,#410,.F.);
#532=ORIENTED_EDGE('',*,*,#411,.F.);
#533=ORIENTED_EDGE('',*,*,#412,.T.);
#534=ORIENTED_EDGE('',*,*,#370,.F.);
#535=ORIENTED_EDGE('',*,*,#412,.F.);
#536=ORIENTED_EDGE('',*,*,#413,.F.);
#537=ORIENTED_EDGE('',*,*,#414,.T.);
#538=ORIENTED_EDGE('',*,*,#371,.F.);
#539=ORIENTED_EDGE('',*,*,#414,.F.);
#540=ORIENTED_EDGE('',*,*,#415,.F.);
#541=ORIENTED_EDGE('',*,*,#416,.T.);
#542=ORIENTED_EDGE('',*,*,#372,.F.);
#543=ORIENTED_EDGE('',*,*,#416,.F.);
#544=ORIENTED_EDGE('',*,*,#417,.F.);
#545=ORIENTED_EDGE('',*,*,#418,.T.);
#546=ORIENTED_EDGE('',*,*,#373,.F.);
#547=ORIENTED_EDGE('',*,*,#418,.F.);
#548=ORIENTED_EDGE('',*,*,#419,.F.);
#549=ORIENTED_EDGE('',*,*,#420,.T.);
#550=ORIENTED_EDGE('',*,*,#374,.F.);
#551=ORIENTED_EDGE('',*,*,#420,.F.);
#552=ORIENTED_EDGE('',*,*,#421,.F.);
#553=ORIENTED_EDGE('',*,*,#422,.T.);
#554=ORIENTED_EDGE('',*,*,#375,.F.);
#555=ORIENTED_EDGE('',*,*,#422,.F.);
#556=ORIENTED_EDGE('',*,*,#423,.F.);
#557=ORIENTED_EDGE('',*,*,#424,.T.);
#558=ORIENTED_EDGE('',*,*,#376,.F.);
#559=ORIENTED_EDGE('',*,*,#424,.F.);
#560=ORIENTED_EDGE('',*,*,#425,.F.);
#561=ORIENTED_EDGE('',*,*,#426,.T.);
#562=ORIENTED_EDGE('',*,*,#377,.F.);
#563=ORIENTED_EDGE('',*,*,#426,.F.);
#564=ORIENTED_EDGE('',*,*,#427,.F.);
#565=ORIENTED_EDGE('',*,*,#428,.F.);
#566=ORIENTED_EDGE('',*,*,#378,.F.);
#567=ORIENTED_EDGE('',*,*,#428,.T.);
#568=ORIENTED_EDGE('',*,*,#429,.F.);
#569=ORIENTED_EDGE('',*,*,#382,.T.);
#570=ORIENTED_EDGE('',*,*,#355,.F.);
#571=ORIENTED_EDGE('',*,*,#430,.F.);
#572=ORIENTED_EDGE('',*,*,#431,.T.);
#573=ORIENTED_EDGE('',*,*,#432,.F.);
#574=ORIENTED_EDGE('',*,*,#433,.F.);
#575=ORIENTED_EDGE('',*,*,#434,.T.);
#576=ORIENTED_EDGE('',*,*,#433,.T.);
#577=ORIENTED_EDGE('',*,*,#435,.F.);
#578=ORIENTED_EDGE('',*,*,#436,.F.);
#579=ORIENTED_EDGE('',*,*,#437,.F.);
#580=ORIENTED_EDGE('',*,*,#436,.T.);
#581=ORIENTED_EDGE('',*,*,#438,.F.);
#582=ORIENTED_EDGE('',*,*,#439,.F.);
#583=ORIENTED_EDGE('',*,*,#440,.F.);
#584=ORIENTED_EDGE('',*,*,#439,.T.);
#585=ORIENTED_EDGE('',*,*,#441,.F.);
#586=ORIENTED_EDGE('',*,*,#431,.F.);
#587=ORIENTED_EDGE('',*,*,#440,.T.);
#588=ORIENTED_EDGE('',*,*,#430,.T.);
#589=ORIENTED_EDGE('',*,*,#434,.F.);
#590=ORIENTED_EDGE('',*,*,#437,.T.);
#591=ORIENTED_EDGE('',*,*,#354,.T.);
#592=ORIENTED_EDGE('',*,*,#381,.T.);
#593=ORIENTED_EDGE('',*,*,#441,.T.);
#594=ORIENTED_EDGE('',*,*,#438,.T.);
#595=ORIENTED_EDGE('',*,*,#435,.T.);
#596=ORIENTED_EDGE('',*,*,#432,.T.);
#597=ORIENTED_EDGE('',*,*,#429,.T.);
#598=ORIENTED_EDGE('',*,*,#427,.T.);
#599=ORIENTED_EDGE('',*,*,#425,.T.);
#600=ORIENTED_EDGE('',*,*,#423,.T.);
#601=ORIENTED_EDGE('',*,*,#421,.T.);
#602=ORIENTED_EDGE('',*,*,#419,.T.);
#603=ORIENTED_EDGE('',*,*,#417,.T.);
#604=ORIENTED_EDGE('',*,*,#415,.T.);
#605=ORIENTED_EDGE('',*,*,#413,.T.);
#606=ORIENTED_EDGE('',*,*,#411,.T.);
#607=ORIENTED_EDGE('',*,*,#409,.T.);
#608=ORIENTED_EDGE('',*,*,#407,.T.);
#609=ORIENTED_EDGE('',*,*,#405,.T.);
#610=ORIENTED_EDGE('',*,*,#403,.T.);
#611=ORIENTED_EDGE('',*,*,#401,.T.);
#612=ORIENTED_EDGE('',*,*,#399,.T.);
#613=ORIENTED_EDGE('',*,*,#397,.T.);
#614=ORIENTED_EDGE('',*,*,#395,.T.);
#615=ORIENTED_EDGE('',*,*,#393,.T.);
#616=ORIENTED_EDGE('',*,*,#391,.T.);
#617=ORIENTED_EDGE('',*,*,#389,.T.);
#618=ORIENTED_EDGE('',*,*,#387,.T.);
#619=ORIENTED_EDGE('',*,*,#385,.T.);
#620=ORIENTED_EDGE('',*,*,#383,.T.);
#621=ORIENTED_EDGE('',*,*,#379,.T.);
#622=CYLINDRICAL_SURFACE('',#673,5.5);
#623=CYLINDRICAL_SURFACE('',#677,2.);
#624=CYLINDRICAL_SURFACE('',#704,6.);
#625=CYLINDRICAL_SURFACE('',#708,9.);
#626=ADVANCED_FACE('',(#49),#622,.T.);
#627=ADVANCED_FACE('',(#50,#15),#20,.T.);
#628=ADVANCED_FACE('',(#51),#623,.F.);
#629=ADVANCED_FACE('',(#52),#21,.T.);
#630=ADVANCED_FACE('',(#53),#22,.T.);
#631=ADVANCED_FACE('',(#54),#23,.T.);
#632=ADVANCED_FACE('',(#55),#24,.T.);
#633=ADVANCED_FACE('',(#56),#25,.T.);
#634=ADVANCED_FACE('',(#57),#26,.T.);
#635=ADVANCED_FACE('',(#58),#27,.T.);
#636=ADVANCED_FACE('',(#59),#28,.T.);
#637=ADVANCED_FACE('',(#60),#29,.T.);
#638=ADVANCED_FACE('',(#61),#30,.T.);
#639=ADVANCED_FACE('',(#62),#31,.T.);
#640=ADVANCED_FACE('',(#63),#32,.T.);
#641=ADVANCED_FACE('',(#64),#33,.T.);
#642=ADVANCED_FACE('',(#65),#34,.T.);
#643=ADVANCED_FACE('',(#66),#35,.T.);
#644=ADVANCED_FACE('',(#67),#36,.T.);
#645=ADVANCED_FACE('',(#68),#37,.T.);
#646=ADVANCED_FACE('',(#69),#38,.T.);
#647=ADVANCED_FACE('',(#70),#39,.T.);
#648=ADVANCED_FACE('',(#71),#40,.T.);
#649=ADVANCED_FACE('',(#72),#41,.T.);
#650=ADVANCED_FACE('',(#73),#42,.T.);
#651=ADVANCED_FACE('',(#74),#43,.T.);
#652=ADVANCED_FACE('',(#75),#44,.T.);
#653=ADVANCED_FACE('',(#76),#624,.T.);
#654=ADVANCED_FACE('',(#77),#45,.T.);
#655=ADVANCED_FACE('',(#78),#625,.T.);
#656=ADVANCED_FACE('',(#79),#46,.T.);
#657=ADVANCED_FACE('',(#80,#16,#17),#47,.T.);
#658=ADVANCED_FACE('',(#81,#18,#19),#48,.F.);
#659=CLOSED_SHELL('',(#626,#627,#628,#629,#630,#631,#632,#633,#634,#635,
#636,#637,#638,#639,#640,#641,#642,#643,#644,#645,#646,#647,#648,#649,#650,
#651,#652,#653,#654,#655,#656,#657,#658));
#660=DERIVED_UNIT_ELEMENT(#662,1.);
#661=DERIVED_UNIT_ELEMENT(#1069,-3.);
#662=(
MASS_UNIT()
NAMED_UNIT(*)
SI_UNIT(.KILO.,.GRAM.)
);
#663=DERIVED_UNIT((#660,#661));
#664=MEASURE_REPRESENTATION_ITEM('density measure',
POSITIVE_RATIO_MEASURE(7850.),#663);
#665=PROPERTY_DEFINITION_REPRESENTATION(#670,#667);
#666=PROPERTY_DEFINITION_REPRESENTATION(#671,#668);
#667=REPRESENTATION('material name',(#669),#1066);
#668=REPRESENTATION('density',(#664),#1066);
#669=DESCRIPTIVE_REPRESENTATION_ITEM('Steel','Steel');
#670=PROPERTY_DEFINITION('material property','material name',#1076);
#671=PROPERTY_DEFINITION('material property','density of part',#1076);
#672=AXIS2_PLACEMENT_3D('',#880,#714,#715);
#673=AXIS2_PLACEMENT_3D('',#881,#716,#717);
#674=AXIS2_PLACEMENT_3D('',#883,#718,#719);
#675=AXIS2_PLACEMENT_3D('',#886,#721,#722);
#676=AXIS2_PLACEMENT_3D('',#887,#723,#724);
#677=AXIS2_PLACEMENT_3D('',#936,#749,#750);
#678=AXIS2_PLACEMENT_3D('',#938,#751,#752);
#679=AXIS2_PLACEMENT_3D('',#941,#754,#755);
#680=AXIS2_PLACEMENT_3D('',#942,#756,#757);
#681=AXIS2_PLACEMENT_3D('',#948,#761,#762);
#682=AXIS2_PLACEMENT_3D('',#952,#765,#766);
#683=AXIS2_PLACEMENT_3D('',#956,#769,#770);
#684=AXIS2_PLACEMENT_3D('',#960,#773,#774);
#685=AXIS2_PLACEMENT_3D('',#964,#777,#778);
#686=AXIS2_PLACEMENT_3D('',#968,#781,#782);
#687=AXIS2_PLACEMENT_3D('',#972,#785,#786);
#688=AXIS2_PLACEMENT_3D('',#976,#789,#790);
#689=AXIS2_PLACEMENT_3D('',#980,#793,#794);
#690=AXIS2_PLACEMENT_3D('',#984,#797,#798);
#691=AXIS2_PLACEMENT_3D('',#988,#801,#802);
#692=AXIS2_PLACEMENT_3D('',#992,#805,#806);
#693=AXIS2_PLACEMENT_3D('',#996,#809,#810);
#694=AXIS2_PLACEMENT_3D('',#1000,#813,#814);
#695=AXIS2_PLACEMENT_3D('',#1004,#817,#818);
#696=AXIS2_PLACEMENT_3D('',#1008,#821,#822);
#697=AXIS2_PLACEMENT_3D('',#1012,#825,#826);
#698=AXIS2_PLACEMENT_3D('',#1016,#829,#830);
#699=AXIS2_PLACEMENT_3D('',#1020,#833,#834);
#700=AXIS2_PLACEMENT_3D('',#1024,#837,#838);
#701=AXIS2_PLACEMENT_3D('',#1028,#841,#842);
#702=AXIS2_PLACEMENT_3D('',#1032,#845,#846);
#703=AXIS2_PLACEMENT_3D('',#1036,#849,#850);
#704=AXIS2_PLACEMENT_3D('',#1038,#852,#853);
#705=AXIS2_PLACEMENT_3D('',#1041,#854,#855);
#706=AXIS2_PLACEMENT_3D('',#1045,#857,#858);
#707=AXIS2_PLACEMENT_3D('',#1047,#860,#861);
#708=AXIS2_PLACEMENT_3D('',#1053,#865,#866);
#709=AXIS2_PLACEMENT_3D('',#1055,#867,#868);
#710=AXIS2_PLACEMENT_3D('',#1057,#869,#870);
#711=AXIS2_PLACEMENT_3D('',#1059,#872,#873);
#712=AXIS2_PLACEMENT_3D('',#1062,#876,#877);
#713=AXIS2_PLACEMENT_3D('',#1063,#878,#879);
#714=DIRECTION('axis',(0.,0.,1.));
#715=DIRECTION('refdir',(1.,0.,0.));
#716=DIRECTION('center_axis',(0.,1.,0.));
#717=DIRECTION('ref_axis',(1.,0.,0.));
#718=DIRECTION('center_axis',(0.,1.,0.));
#719=DIRECTION('ref_axis',(1.,0.,0.));
#720=DIRECTION('',(0.,-1.,0.));
#721=DIRECTION('center_axis',(0.,-1.,0.));
#722=DIRECTION('ref_axis',(1.,0.,0.));
#723=DIRECTION('center_axis',(0.,1.,0.));
#724=DIRECTION('ref_axis',(1.,0.,0.));
#725=DIRECTION('',(0.5,0.,0.866025403784439));
#726=DIRECTION('',(-0.5,0.,0.866025403784439));
#727=DIRECTION('',(0.,0.,1.));
#728=DIRECTION('',(-0.866025403784439,0.,0.499999999999999));
#729=DIRECTION('',(-0.5,0.,0.866025403784439));
#730=DIRECTION('',(-1.,0.,-5.41679629967206E-16));
#731=DIRECTION('',(-0.866025403784439,0.,0.499999999999999));
#732=DIRECTION('',(-0.866025403784439,0.,-0.499999999999999));
#733=DIRECTION('',(-1.,0.,-5.41679629967206E-16));
#734=DIRECTION('',(-0.5,0.,-0.866025403784439));
#735=DIRECTION('',(-0.866025403784439,0.,-0.499999999999999));
#736=DIRECTION('',(0.,0.,-1.));
#737=DIRECTION('',(-0.5,0.,-0.866025403784439));
#738=DIRECTION('',(0.499999999999999,0.,-0.866025403784439));
#739=DIRECTION('',(0.,0.,-1.));
#740=DIRECTION('',(0.866025403784438,0.,-0.500000000000001));
#741=DIRECTION('',(0.499999999999999,0.,-0.866025403784439));
#742=DIRECTION('',(1.,0.,5.41679629967206E-16));
#743=DIRECTION('',(0.866025403784438,0.,-0.500000000000001));
#744=DIRECTION('',(0.866025403784439,0.,0.5));
#745=DIRECTION('',(1.,0.,5.41679629967206E-16));
#746=DIRECTION('',(0.5,0.,0.866025403784438));
#747=DIRECTION('',(0.866025403784439,0.,0.5));
#748=DIRECTION('',(0.,0.,1.));
#749=DIRECTION('center_axis',(0.,-1.,0.));
#750=DIRECTION('ref_axis',(1.,0.,0.));
#751=DIRECTION('center_axis',(0.,1.,0.));
#752=DIRECTION('ref_axis',(1.,0.,0.));
#753=DIRECTION('',(0.,1.,0.));
#754=DIRECTION('center_axis',(0.,-1.,0.));
#755=DIRECTION('ref_axis',(1.,0.,0.));
#756=DIRECTION('center_axis',(-0.866025403784439,0.,-0.5));
#757=DIRECTION('ref_axis',(0.5,0.,-0.866025403784439));
#758=DIRECTION('',(0.,1.,0.));
#759=DIRECTION('',(0.5,0.,-0.866025403784439));
#760=DIRECTION('',(0.,1.,0.));
#761=DIRECTION('center_axis',(-1.,0.,0.));
#762=DIRECTION('ref_axis',(0.,0.,-1.));
#763=DIRECTION('',(0.,0.,-1.));
#764=DIRECTION('',(0.,1.,0.));
#765=DIRECTION('center_axis',(-0.499999999999999,0.,-0.866025403784439));
#766=DIRECTION('ref_axis',(0.866025403784439,0.,-0.499999999999999));
#767=DIRECTION('',(0.866025403784439,0.,-0.499999999999999));
#768=DIRECTION('',(0.,1.,0.));
#769=DIRECTION('center_axis',(-0.866025403784439,0.,-0.5));
#770=DIRECTION('ref_axis',(0.5,0.,-0.866025403784439));
#771=DIRECTION('',(0.5,0.,-0.866025403784439));
#772=DIRECTION('',(0.,1.,0.));
#773=DIRECTION('center_axis',(5.41679629967206E-16,0.,-1.));
#774=DIRECTION('ref_axis',(1.,0.,5.41679629967206E-16));
#775=DIRECTION('',(1.,0.,5.41679629967206E-16));
#776=DIRECTION('',(0.,1.,0.));
#777=DIRECTION('center_axis',(-0.499999999999999,0.,-0.866025403784439));
#778=DIRECTION('ref_axis',(0.866025403784439,0.,-0.499999999999999));
#779=DIRECTION('',(0.866025403784439,0.,-0.499999999999999));
#780=DIRECTION('',(0.,1.,0.));
#781=DIRECTION('center_axis',(0.499999999999999,0.,-0.866025403784439));
#782=DIRECTION('ref_axis',(0.866025403784439,0.,0.499999999999999));
#783=DIRECTION('',(0.866025403784439,0.,0.499999999999999));
#784=DIRECTION('',(0.,1.,0.));
#785=DIRECTION('center_axis',(5.41679629967206E-16,0.,-1.));
#786=DIRECTION('ref_axis',(1.,0.,5.41679629967206E-16));
#787=DIRECTION('',(1.,0.,5.41679629967206E-16));
#788=DIRECTION('',(0.,1.,0.));
#789=DIRECTION('center_axis',(0.866025403784439,0.,-0.5));
#790=DIRECTION('ref_axis',(0.5,0.,0.866025403784439));
#791=DIRECTION('',(0.5,0.,0.866025403784439));
#792=DIRECTION('',(0.,1.,0.));
#793=DIRECTION('center_axis',(0.499999999999999,0.,-0.866025403784439));
#794=DIRECTION('ref_axis',(0.866025403784439,0.,0.499999999999999));
#795=DIRECTION('',(0.866025403784439,0.,0.499999999999999));
#796=DIRECTION('',(0.,1.,0.));
#797=DIRECTION('center_axis',(1.,0.,0.));
#798=DIRECTION('ref_axis',(0.,0.,1.));
#799=DIRECTION('',(0.,0.,1.));
#800=DIRECTION('',(0.,1.,0.));
#801=DIRECTION('center_axis',(0.866025403784439,0.,-0.5));
#802=DIRECTION('ref_axis',(0.5,0.,0.866025403784439));
#803=DIRECTION('',(0.5,0.,0.866025403784439));
#804=DIRECTION('',(0.,1.,0.));
#805=DIRECTION('center_axis',(0.866025403784439,0.,0.499999999999999));
#806=DIRECTION('ref_axis',(-0.499999999999999,0.,0.866025403784439));
#807=DIRECTION('',(-0.499999999999999,0.,0.866025403784439));
#808=DIRECTION('',(0.,1.,0.));
#809=DIRECTION('center_axis',(1.,0.,0.));
#810=DIRECTION('ref_axis',(0.,0.,1.));
#811=DIRECTION('',(0.,0.,1.));
#812=DIRECTION('',(0.,1.,0.));
#813=DIRECTION('center_axis',(0.500000000000001,0.,0.866025403784438));
#814=DIRECTION('ref_axis',(-0.866025403784438,0.,0.500000000000001));
#815=DIRECTION('',(-0.866025403784438,0.,0.500000000000001));
#816=DIRECTION('',(0.,1.,0.));
#817=DIRECTION('center_axis',(0.866025403784439,0.,0.499999999999999));
#818=DIRECTION('ref_axis',(-0.499999999999999,0.,0.866025403784439));
#819=DIRECTION('',(-0.499999999999999,0.,0.866025403784439));
#820=DIRECTION('',(0.,1.,0.));
#821=DIRECTION('center_axis',(-5.41679629967206E-16,0.,1.));
#822=DIRECTION('ref_axis',(-1.,0.,-5.41679629967206E-16));
#823=DIRECTION('',(-1.,0.,-5.41679629967206E-16));
#824=DIRECTION('',(0.,1.,0.));
#825=DIRECTION('center_axis',(0.500000000000001,0.,0.866025403784438));
#826=DIRECTION('ref_axis',(-0.866025403784438,0.,0.500000000000001));
#827=DIRECTION('',(-0.866025403784438,0.,0.500000000000001));
#828=DIRECTION('',(0.,1.,0.));
#829=DIRECTION('center_axis',(-0.5,0.,0.866025403784439));
#830=DIRECTION('ref_axis',(-0.866025403784439,0.,-0.5));
#831=DIRECTION('',(-0.866025403784439,0.,-0.5));
#832=DIRECTION('',(0.,1.,0.));
#833=DIRECTION('center_axis',(-5.41679629967206E-16,0.,1.));
#834=DIRECTION('ref_axis',(-1.,0.,-5.41679629967206E-16));
#835=DIRECTION('',(-1.,0.,-5.41679629967206E-16));
#836=DIRECTION('',(0.,1.,0.));
#837=DIRECTION('center_axis',(-0.866025403784439,0.,0.5));
#838=DIRECTION('ref_axis',(-0.5,0.,-0.866025403784439));
#839=DIRECTION('',(-0.5,0.,-0.866025403784438));
#840=DIRECTION('',(0.,1.,0.));
#841=DIRECTION('center_axis',(-0.5,0.,0.866025403784439));
#842=DIRECTION('ref_axis',(-0.866025403784439,0.,-0.5));
#843=DIRECTION('',(-0.866025403784439,0.,-0.5));
#844=DIRECTION('',(0.,1.,0.));
#845=DIRECTION('center_axis',(-1.,0.,0.));
#846=DIRECTION('ref_axis',(0.,0.,-1.));
#847=DIRECTION('',(0.,0.,-1.));
#848=DIRECTION('',(0.,-1.,0.));
#849=DIRECTION('center_axis',(-0.866025403784439,0.,0.5));
#850=DIRECTION('ref_axis',(-0.5,0.,-0.866025403784439));
#851=DIRECTION('',(-0.5,0.,-0.866025403784439));
#852=DIRECTION('center_axis',(0.,-1.,0.));
#853=DIRECTION('ref_axis',(1.,0.,0.));
#854=DIRECTION('center_axis',(0.,1.,0.));
#855=DIRECTION('ref_axis',(1.,0.,0.));
#856=DIRECTION('',(0.,-1.,0.));
#857=DIRECTION('center_axis',(0.,-1.,0.));
#858=DIRECTION('ref_axis',(1.,0.,0.));
#859=DIRECTION('',(0.,-1.,0.));
#860=DIRECTION('center_axis',(0.0750000000000002,0.,-0.997183533758957));
#861=DIRECTION('ref_axis',(0.997183533758957,0.,0.0750000000000002));
#862=DIRECTION('',(0.997183533758957,0.,0.0750000000000002));
#863=DIRECTION('',(0.997183533758957,0.,0.0750000000000002));
#864=DIRECTION('',(0.,-1.,0.));
#865=DIRECTION('center_axis',(0.,-1.,0.));
#866=DIRECTION('ref_axis',(-1.,0.,-3.21624529935327E-16));
#867=DIRECTION('center_axis',(0.,1.,0.));
#868=DIRECTION('ref_axis',(1.,0.,0.));
#869=DIRECTION('center_axis',(0.,-1.,0.));
#870=DIRECTION('ref_axis',(1.,0.,0.));
#871=DIRECTION('',(0.,-1.,0.));
#872=DIRECTION('center_axis',(0.0749999999999995,0.,0.997183533758957));
#873=DIRECTION('ref_axis',(-0.997183533758957,0.,0.0749999999999995));
#874=DIRECTION('',(0.997183533758957,0.,-0.0749999999999995));
#875=DIRECTION('',(-0.997183533758957,0.,0.0749999999999995));
#876=DIRECTION('center_axis',(0.,1.,0.));
#877=DIRECTION('ref_axis',(1.,0.,0.));
#878=DIRECTION('center_axis',(0.,1.,0.));
#879=DIRECTION('ref_axis',(1.,0.,0.));
#880=CARTESIAN_POINT('',(0.,0.,0.));
#881=CARTESIAN_POINT('Origin',(0.,0.,0.));
#882=CARTESIAN_POINT('',(-5.5,1.,6.93889390390723E-16));
#883=CARTESIAN_POINT('Origin',(0.,1.,0.));
#884=CARTESIAN_POINT('',(-5.5,0.,6.73555739531044E-16));
#885=CARTESIAN_POINT('',(-5.5,0.,6.73555739531044E-16));
#886=CARTESIAN_POINT('Origin',(0.,0.,0.));
#887=CARTESIAN_POINT('Origin',(0.,1.,0.));
#888=CARTESIAN_POINT('',(3.54999999999997,1.,-0.951219633130468));
#889=CARTESIAN_POINT('',(4.0991869112463,1.,2.35922392732846E-15));
#890=CARTESIAN_POINT('',(4.0991869112463,1.,2.35924411378349E-15));
#891=CARTESIAN_POINT('',(3.54999999999997,1.,0.951219633130473));
#892=CARTESIAN_POINT('',(2.04959345562315,1.,3.54999999999997));
#893=CARTESIAN_POINT('',(3.54999999999997,1.,2.04959345562316));
#894=CARTESIAN_POINT('',(3.54999999999997,1.,2.04959345562316));
#895=CARTESIAN_POINT('',(2.59878036686949,1.,2.5987803668695));
#896=CARTESIAN_POINT('',(-3.61898742473382E-14,1.,4.09918691124632));
#897=CARTESIAN_POINT('',(2.04959345562315,1.,3.54999999999997));
#898=CARTESIAN_POINT('',(2.04959345562315,1.,3.54999999999997));
#899=CARTESIAN_POINT('',(0.951219633130476,1.,3.54999999999997));
#900=CARTESIAN_POINT('',(-2.04959345562315,1.,3.54999999999997));
#901=CARTESIAN_POINT('',(-3.60822483003176E-14,1.,4.09918691124632));
#902=CARTESIAN_POINT('',(-3.61898742473382E-14,1.,4.09918691124632));
#903=CARTESIAN_POINT('',(-0.951219633130547,1.,3.54999999999997));
#904=CARTESIAN_POINT('',(-3.55000000000005,1.,2.04959345562315));
#905=CARTESIAN_POINT('',(-2.04959345562315,1.,3.54999999999997));
#906=CARTESIAN_POINT('',(-2.04959345562315,1.,3.54999999999997));
#907=CARTESIAN_POINT('',(-2.59878036686945,1.,2.59878036686955));
#908=CARTESIAN_POINT('',(-4.0991869112463,1.,-2.47210431493657E-16));
#909=CARTESIAN_POINT('',(-3.55000000000005,1.,2.04959345562315));
#910=CARTESIAN_POINT('',(-3.55000000000005,1.,2.04959345562315));
#911=CARTESIAN_POINT('',(-3.55000000000005,1.,0.951219633130333));
#912=CARTESIAN_POINT('',(-3.55000000000005,1.,-2.04959345562309));
#913=CARTESIAN_POINT('',(-4.0991869112463,1.,-2.77555756156289E-16));
#914=CARTESIAN_POINT('',(-4.0991869112463,1.,-2.47210431493657E-16));
#915=CARTESIAN_POINT('',(-3.55000000000005,1.,-0.951219633130335));
#916=CARTESIAN_POINT('',(-2.04959345562316,1.,-3.54999999999997));
#917=CARTESIAN_POINT('',(-3.55000000000005,1.,-2.04959345562309));
#918=CARTESIAN_POINT('',(-3.55000000000005,1.,-2.04959345562309));
#919=CARTESIAN_POINT('',(-2.59878036686951,1.,-2.59878036686947));
#920=CARTESIAN_POINT('',(1.13775292277693E-15,1.,-4.0991869112463));
#921=CARTESIAN_POINT('',(-2.04959345562316,1.,-3.54999999999997));
#922=CARTESIAN_POINT('',(-2.04959345562316,1.,-3.54999999999997));
#923=CARTESIAN_POINT('',(-0.951219633130458,1.,-3.54999999999997));
#924=CARTESIAN_POINT('',(2.04959345562315,1.,-3.54999999999997));
#925=CARTESIAN_POINT('',(1.11022302462516E-15,1.,-4.0991869112463));
#926=CARTESIAN_POINT('',(1.13775292277693E-15,1.,-4.0991869112463));
#927=CARTESIAN_POINT('',(0.951219633130466,1.,-3.54999999999997));
#928=CARTESIAN_POINT('',(3.54999999999997,1.,-2.04959345562314));
#929=CARTESIAN_POINT('',(2.04959345562315,1.,-3.54999999999997));
#930=CARTESIAN_POINT('',(2.04959345562315,1.,-3.54999999999997));
#931=CARTESIAN_POINT('',(2.59878036686949,1.,-2.59878036686948));
#932=CARTESIAN_POINT('',(4.0991869112463,1.,2.35924411378349E-15));
#933=CARTESIAN_POINT('',(3.54999999999997,1.,-2.04959345562314));
#934=CARTESIAN_POINT('',(3.54999999999997,1.,-2.04959345562314));
#935=CARTESIAN_POINT('',(3.54999999999997,1.,2.04959345562316));
#936=CARTESIAN_POINT('Origin',(40.,0.,1.5527994560275E-14));
#937=CARTESIAN_POINT('',(38.,-5.,1.58206781009085E-14));
#938=CARTESIAN_POINT('Origin',(40.,-5.,1.5527994560275E-14));
#939=CARTESIAN_POINT('',(38.,0.,1.57729239201045E-14));
#940=CARTESIAN_POINT('',(38.,0.,1.52830652004455E-14));
#941=CARTESIAN_POINT('Origin',(40.,0.,1.5527994560275E-14));
#942=CARTESIAN_POINT('Origin',(3.54999999999997,0.,0.951219633130473));
#943=CARTESIAN_POINT('',(4.0991869112463,-5.,2.35922392732846E-15));
#944=CARTESIAN_POINT('',(4.0991869112463,0.,2.35924411378349E-15));
#945=CARTESIAN_POINT('',(3.54999999999997,-5.,0.951219633130473));
#946=CARTESIAN_POINT('',(2.04959345562315,-5.,3.54999999999997));
#947=CARTESIAN_POINT('',(3.54999999999997,0.,0.951219633130473));
#948=CARTESIAN_POINT('Origin',(3.54999999999997,0.,2.04959345562316));
#949=CARTESIAN_POINT('',(3.54999999999997,-5.,2.04959345562316));
#950=CARTESIAN_POINT('',(3.54999999999997,-5.,2.04959345562316));
#951=CARTESIAN_POINT('',(3.54999999999997,0.,2.04959345562316));
#952=CARTESIAN_POINT('Origin',(2.59878036686949,0.,2.5987803668695));
#953=CARTESIAN_POINT('',(2.59878036686949,-5.,2.5987803668695));
#954=CARTESIAN_POINT('',(-3.61898742473382E-14,-5.,4.09918691124632));
#955=CARTESIAN_POINT('',(2.59878036686949,0.,2.5987803668695));
#956=CARTESIAN_POINT('Origin',(2.04959345562315,0.,3.54999999999997));
#957=CARTESIAN_POINT('',(2.04959345562315,-5.,3.54999999999997));
#958=CARTESIAN_POINT('',(2.04959345562315,-5.,3.54999999999997));
#959=CARTESIAN_POINT('',(2.04959345562315,0.,3.54999999999997));
#960=CARTESIAN_POINT('Origin',(0.951219633130476,0.,3.54999999999997));
#961=CARTESIAN_POINT('',(0.951219633130476,-5.,3.54999999999997));
#962=CARTESIAN_POINT('',(-2.04959345562315,-5.,3.54999999999997));
#963=CARTESIAN_POINT('',(0.951219633130476,0.,3.54999999999997));
#964=CARTESIAN_POINT('Origin',(-3.61898742473382E-14,0.,4.09918691124632));
#965=CARTESIAN_POINT('',(-3.60822483003176E-14,-5.,4.09918691124632));
#966=CARTESIAN_POINT('',(-3.61898742473382E-14,-5.,4.09918691124632));
#967=CARTESIAN_POINT('',(-3.61898742473382E-14,0.,4.09918691124632));
#968=CARTESIAN_POINT('Origin',(-0.951219633130547,0.,3.54999999999997));
#969=CARTESIAN_POINT('',(-0.951219633130547,-5.,3.54999999999997));
#970=CARTESIAN_POINT('',(-3.55000000000005,-5.,2.04959345562315));
#971=CARTESIAN_POINT('',(-0.951219633130547,0.,3.54999999999997));
#972=CARTESIAN_POINT('Origin',(-2.04959345562315,0.,3.54999999999997));
#973=CARTESIAN_POINT('',(-2.04959345562315,-5.,3.54999999999997));
#974=CARTESIAN_POINT('',(-2.04959345562315,-5.,3.54999999999997));
#975=CARTESIAN_POINT('',(-2.04959345562315,0.,3.54999999999997));
#976=CARTESIAN_POINT('Origin',(-2.59878036686945,0.,2.59878036686955));
#977=CARTESIAN_POINT('',(-2.59878036686945,-5.,2.59878036686955));
#978=CARTESIAN_POINT('',(-4.0991869112463,-5.,-2.47210431493657E-16));
#979=CARTESIAN_POINT('',(-2.59878036686945,0.,2.59878036686955));
#980=CARTESIAN_POINT('Origin',(-3.55000000000005,0.,2.04959345562315));
#981=CARTESIAN_POINT('',(-3.55000000000005,-5.,2.04959345562315));
#982=CARTESIAN_POINT('',(-3.55000000000005,-5.,2.04959345562315));
#983=CARTESIAN_POINT('',(-3.55000000000005,0.,2.04959345562315));
#984=CARTESIAN_POINT('Origin',(-3.55000000000005,0.,0.951219633130333));
#985=CARTESIAN_POINT('',(-3.55000000000005,-5.,0.951219633130333));
#986=CARTESIAN_POINT('',(-3.55000000000005,-5.,-2.04959345562309));
#987=CARTESIAN_POINT('',(-3.55000000000005,0.,0.951219633130333));
#988=CARTESIAN_POINT('Origin',(-4.0991869112463,0.,-2.47210431493657E-16));
#989=CARTESIAN_POINT('',(-4.0991869112463,-5.,-2.77555756156289E-16));
#990=CARTESIAN_POINT('',(-4.0991869112463,-5.,-2.47210431493657E-16));
#991=CARTESIAN_POINT('',(-4.0991869112463,0.,-2.47210431493657E-16));
#992=CARTESIAN_POINT('Origin',(-3.55000000000005,0.,-0.951219633130335));
#993=CARTESIAN_POINT('',(-3.55000000000005,-5.,-0.951219633130335));
#994=CARTESIAN_POINT('',(-2.04959345562316,-5.,-3.54999999999997));
#995=CARTESIAN_POINT('',(-3.55000000000005,0.,-0.951219633130335));
#996=CARTESIAN_POINT('Origin',(-3.55000000000005,0.,-2.04959345562309));
#997=CARTESIAN_POINT('',(-3.55000000000005,-5.,-2.04959345562309));
#998=CARTESIAN_POINT('',(-3.55000000000005,-5.,-2.04959345562309));
#999=CARTESIAN_POINT('',(-3.55000000000005,0.,-2.04959345562309));
#1000=CARTESIAN_POINT('Origin',(-2.59878036686951,0.,-2.59878036686947));
#1001=CARTESIAN_POINT('',(-2.59878036686951,-5.,-2.59878036686947));
#1002=CARTESIAN_POINT('',(1.13775292277693E-15,-5.,-4.0991869112463));
#1003=CARTESIAN_POINT('',(-2.59878036686951,0.,-2.59878036686947));
#1004=CARTESIAN_POINT('Origin',(-2.04959345562316,0.,-3.54999999999997));
#1005=CARTESIAN_POINT('',(-2.04959345562316,-5.,-3.54999999999997));
#1006=CARTESIAN_POINT('',(-2.04959345562316,-5.,-3.54999999999997));
#1007=CARTESIAN_POINT('',(-2.04959345562316,0.,-3.54999999999997));
#1008=CARTESIAN_POINT('Origin',(-0.951219633130458,0.,-3.54999999999997));
#1009=CARTESIAN_POINT('',(-0.951219633130458,-5.,-3.54999999999997));
#1010=CARTESIAN_POINT('',(2.04959345562315,-5.,-3.54999999999997));
#1011=CARTESIAN_POINT('',(-0.951219633130458,0.,-3.54999999999997));
#1012=CARTESIAN_POINT('Origin',(1.13775292277693E-15,0.,-4.0991869112463));
#1013=CARTESIAN_POINT('',(1.11022302462516E-15,-5.,-4.0991869112463));
#1014=CARTESIAN_POINT('',(1.13775292277693E-15,-5.,-4.0991869112463));
#1015=CARTESIAN_POINT('',(1.13775292277693E-15,0.,-4.0991869112463));
#1016=CARTESIAN_POINT('Origin',(0.951219633130466,0.,-3.54999999999997));
#1017=CARTESIAN_POINT('',(0.951219633130466,-5.,-3.54999999999997));
#1018=CARTESIAN_POINT('',(3.54999999999997,-5.,-2.04959345562314));
#1019=CARTESIAN_POINT('',(0.951219633130466,0.,-3.54999999999997));
#1020=CARTESIAN_POINT('Origin',(2.04959345562315,0.,-3.54999999999997));
#1021=CARTESIAN_POINT('',(2.04959345562315,-5.,-3.54999999999997));
#1022=CARTESIAN_POINT('',(2.04959345562315,-5.,-3.54999999999997));
#1023=CARTESIAN_POINT('',(2.04959345562315,0.,-3.54999999999997));
#1024=CARTESIAN_POINT('Origin',(2.59878036686949,0.,-2.59878036686948));
#1025=CARTESIAN_POINT('',(2.59878036686949,-5.,-2.59878036686948));
#1026=CARTESIAN_POINT('',(4.0991869112463,-5.,2.35924411378349E-15));
#1027=CARTESIAN_POINT('',(2.59878036686949,0.,-2.59878036686948));
#1028=CARTESIAN_POINT('Origin',(3.54999999999997,0.,-2.04959345562314));
#1029=CARTESIAN_POINT('',(3.54999999999997,-5.,-2.04959345562314));
#1030=CARTESIAN_POINT('',(3.54999999999997,-5.,-2.04959345562314));
#1031=CARTESIAN_POINT('',(3.54999999999997,0.,-2.04959345562314));
#1032=CARTESIAN_POINT('Origin',(3.54999999999997,0.,-0.951219633130468));
#1033=CARTESIAN_POINT('',(3.54999999999997,-5.,-0.951219633130468));
#1034=CARTESIAN_POINT('',(3.54999999999997,-5.,2.04959345562316));
#1035=CARTESIAN_POINT('',(3.54999999999997,0.,-0.951219633130468));
#1036=CARTESIAN_POINT('Origin',(4.0991869112463,0.,2.35924411378349E-15));
#1037=CARTESIAN_POINT('',(4.0991869112463,-5.,2.35924411378349E-15));
#1038=CARTESIAN_POINT('Origin',(40.,0.,1.5527994560275E-14));
#1039=CARTESIAN_POINT('',(40.45,0.,5.98310120255376));
#1040=CARTESIAN_POINT('',(40.45,0.,-5.98310120255373));
#1041=CARTESIAN_POINT('Origin',(40.,0.,1.5527994560275E-14));
#1042=CARTESIAN_POINT('',(40.45,-5.,5.98310120255376));
#1043=CARTESIAN_POINT('',(40.45,0.,5.98310120255376));
#1044=CARTESIAN_POINT('',(40.45,-5.,-5.98310120255373));
#1045=CARTESIAN_POINT('Origin',(40.,-5.,1.5527994560275E-14));
#1046=CARTESIAN_POINT('',(40.45,0.,-5.98310120255373));
#1047=CARTESIAN_POINT('Origin',(0.675000000000006,0.,-8.97465180383061));
#1048=CARTESIAN_POINT('',(0.675000000000006,0.,-8.97465180383061));
#1049=CARTESIAN_POINT('',(0.675000000000006,0.,-8.97465180383061));
#1050=CARTESIAN_POINT('',(0.675000000000006,-5.,-8.97465180383061));
#1051=CARTESIAN_POINT('',(0.675000000000006,-5.,-8.97465180383061));
#1052=CARTESIAN_POINT('',(0.675000000000006,0.,-8.97465180383061));
#1053=CARTESIAN_POINT('Origin',(0.,0.,0.));
#1054=CARTESIAN_POINT('',(0.675,0.,8.97465180383061));
#1055=CARTESIAN_POINT('Origin',(0.,0.,0.));
#1056=CARTESIAN_POINT('',(0.675,-5.,8.97465180383061));
#1057=CARTESIAN_POINT('Origin',(0.,-5.,0.));
#1058=CARTESIAN_POINT('',(0.675,0.,8.97465180383061));
#1059=CARTESIAN_POINT('Origin',(40.45,0.,5.98310120255376));
#1060=CARTESIAN_POINT('',(0.675,0.,8.97465180383061));
#1061=CARTESIAN_POINT('',(0.675,-5.,8.97465180383061));
#1062=CARTESIAN_POINT('Origin',(18.5,0.,0.));
#1063=CARTESIAN_POINT('Origin',(18.5,-5.,0.));
#1064=UNCERTAINTY_MEASURE_WITH_UNIT(LENGTH_MEASURE(0.01),#1068,
'DISTANCE_ACCURACY_VALUE',
'Maximum model space distance between geometric entities at asserted c
onnectivities');
#1065=UNCERTAINTY_MEASURE_WITH_UNIT(LENGTH_MEASURE(0.01),#1068,
'DISTANCE_ACCURACY_VALUE',
'Maximum model space distance between geometric entities at asserted c
onnectivities');
#1066=(
GEOMETRIC_REPRESENTATION_CONTEXT(3)
GLOBAL_UNCERTAINTY_ASSIGNED_CONTEXT((#1064))
GLOBAL_UNIT_ASSIGNED_CONTEXT((#1068,#1070,#1071))
REPRESENTATION_CONTEXT('','3D')
);
#1067=(
GEOMETRIC_REPRESENTATION_CONTEXT(3)
GLOBAL_UNCERTAINTY_ASSIGNED_CONTEXT((#1065))
GLOBAL_UNIT_ASSIGNED_CONTEXT((#1068,#1070,#1071))
REPRESENTATION_CONTEXT('','3D')
);
#1068=(
LENGTH_UNIT()
NAMED_UNIT(*)
SI_UNIT(.MILLI.,.METRE.)
);
#1069=(
LENGTH_UNIT()
NAMED_UNIT(*)
SI_UNIT($,.METRE.)
);
#1070=(
NAMED_UNIT(*)
PLANE_ANGLE_UNIT()
SI_UNIT($,.RADIAN.)
);
#1071=(
NAMED_UNIT(*)
SI_UNIT($,.STERADIAN.)
SOLID_ANGLE_UNIT()
);
#1072=SHAPE_DEFINITION_REPRESENTATION(#1073,#1074);
#1073=PRODUCT_DEFINITION_SHAPE('',$,#1076);
#1074=SHAPE_REPRESENTATION('',(#672),#1066);
#1075=PRODUCT_DEFINITION_CONTEXT('part definition',#1080,'design');
#1076=PRODUCT_DEFINITION(
'41464 Friction Cam Lever, Drum Brake, 3D-Printed',
'41464 Friction Cam Lever, Drum Brake, 3D-Printed v6',#1077,#1075);
#1077=PRODUCT_DEFINITION_FORMATION('',$,#1082);
#1078=PRODUCT_RELATED_PRODUCT_CATEGORY(
'41464 Friction Cam Lever, Drum Brake, 3D-Printed v6',
'41464 Friction Cam Lever, Drum Brake, 3D-Printed v6',(#1082));
#1079=APPLICATION_PROTOCOL_DEFINITION('international standard',
'automotive_design',2009,#1080);
#1080=APPLICATION_CONTEXT(
'Core Data for Automotive Mechanical Design Process');
#1081=PRODUCT_CONTEXT('part definition',#1080,'mechanical');
#1082=PRODUCT('41464 Friction Cam Lever, Drum Brake, 3D-Printed',
'41464 Friction Cam Lever, Drum Brake, 3D-Printed v6',$,(#1081));
#1083=PRESENTATION_STYLE_ASSIGNMENT((#1085));
#1084=PRESENTATION_STYLE_ASSIGNMENT((#1086));
#1085=SURFACE_STYLE_USAGE(.BOTH.,#1087);
#1086=SURFACE_STYLE_USAGE(.BOTH.,#1088);
#1087=SURFACE_SIDE_STYLE('',(#1089));
#1088=SURFACE_SIDE_STYLE('',(#1090));
#1089=SURFACE_STYLE_FILL_AREA(#1091);
#1090=SURFACE_STYLE_FILL_AREA(#1092);
#1091=FILL_AREA_STYLE('Steel - Satin',(#1093));
#1092=FILL_AREA_STYLE(
'PA 12 - Nylon - PA 603-CF (with EOS P 3D Printers)',(#1094));
#1093=FILL_AREA_STYLE_COLOUR('Steel - Satin',#1095);
#1094=FILL_AREA_STYLE_COLOUR(
'PA 12 - Nylon - PA 603-CF (with EOS P 3D Printers)',#1096);
#1095=COLOUR_RGB('Steel - Satin',0.627450980392157,0.627450980392157,0.627450980392157);
#1096=COLOUR_RGB('PA 12 - Nylon - PA 603-CF (with EOS P 3D Printers)',0.247058823529412,
0.247058823529412,0.247058823529412);
ENDSEC;
END-ISO-10303-21;
