ISO-10303-21;
HEADER;
/* Generated by software containing ST-Developer
 * from STEP Tools, Inc. (www.steptools.com) 
 */

FILE_DESCRIPTION(
/* description */ (''),
/* implementation_level */ '2;1');

FILE_NAME(
/* name */ '31074 Angle Sensor, Retaining Plate.step',
/* time_stamp */ '2025-05-26T12:15:14-07:00',
/* author */ (''),
/* organization */ (''),
/* preprocessor_version */ 'ST-DEVELOPER v20.1',
/* originating_system */ 'Autodesk Translation Framework v14.10.0.0',
/* authorisation */ '');

FILE_SCHEMA (('AUTOMOTIVE_DESIGN { 1 0 10303 214 3 1 1 }'));
ENDSEC;

DATA;
#10=MECHANICAL_DESIGN_GEOMETRIC_PRESENTATION_REPRESENTATION('',(#13),#1207);
#11=SHAPE_REPRESENTATION_RELATIONSHIP('SRR','None',#1214,#12);
#12=ADVANCED_BREP_SHAPE_REPRESENTATION('',(#14),#1206);
#13=STYLED_ITEM('',(#1224),#14);
#14=MANIFOLD_SOLID_BREP('Body1',#720);
#15=FACE_BOUND('',#121,.T.);
#16=FACE_BOUND('',#122,.T.);
#17=FACE_BOUND('',#123,.T.);
#18=FACE_BOUND('',#124,.T.);
#19=PLANE('',#758);
#20=PLANE('',#759);
#21=PLANE('',#762);
#22=PLANE('',#763);
#23=PLANE('',#764);
#24=PLANE('',#765);
#25=PLANE('',#766);
#26=PLANE('',#767);
#27=PLANE('',#768);
#28=PLANE('',#769);
#29=PLANE('',#773);
#30=PLANE('',#777);
#31=PLANE('',#778);
#32=PLANE('',#779);
#33=PLANE('',#780);
#34=PLANE('',#781);
#35=PLANE('',#782);
#36=PLANE('',#784);
#37=PLANE('',#786);
#38=PLANE('',#787);
#39=PLANE('',#788);
#40=PLANE('',#789);
#41=PLANE('',#790);
#42=PLANE('',#791);
#43=PLANE('',#792);
#44=PLANE('',#793);
#45=CYLINDRICAL_SURFACE('',#738,2.25);
#46=CYLINDRICAL_SURFACE('',#744,2.25);
#47=CYLINDRICAL_SURFACE('',#750,2.25);
#48=CYLINDRICAL_SURFACE('',#756,2.25);
#49=CYLINDRICAL_SURFACE('',#783,3.);
#50=CYLINDRICAL_SURFACE('',#785,3.);
#51=FACE_OUTER_BOUND('',#89,.T.);
#52=FACE_OUTER_BOUND('',#90,.T.);
#53=FACE_OUTER_BOUND('',#91,.T.);
#54=FACE_OUTER_BOUND('',#92,.T.);
#55=FACE_OUTER_BOUND('',#93,.T.);
#56=FACE_OUTER_BOUND('',#94,.T.);
#57=FACE_OUTER_BOUND('',#95,.T.);
#58=FACE_OUTER_BOUND('',#96,.T.);
#59=FACE_OUTER_BOUND('',#97,.T.);
#60=FACE_OUTER_BOUND('',#98,.T.);
#61=FACE_OUTER_BOUND('',#99,.T.);
#62=FACE_OUTER_BOUND('',#100,.T.);
#63=FACE_OUTER_BOUND('',#101,.T.);
#64=FACE_OUTER_BOUND('',#102,.T.);
#65=FACE_OUTER_BOUND('',#103,.T.);
#66=FACE_OUTER_BOUND('',#104,.T.);
#67=FACE_OUTER_BOUND('',#105,.T.);
#68=FACE_OUTER_BOUND('',#106,.T.);
#69=FACE_OUTER_BOUND('',#107,.T.);
#70=FACE_OUTER_BOUND('',#108,.T.);
#71=FACE_OUTER_BOUND('',#109,.T.);
#72=FACE_OUTER_BOUND('',#110,.T.);
#73=FACE_OUTER_BOUND('',#111,.T.);
#74=FACE_OUTER_BOUND('',#112,.T.);
#75=FACE_OUTER_BOUND('',#113,.T.);
#76=FACE_OUTER_BOUND('',#114,.T.);
#77=FACE_OUTER_BOUND('',#115,.T.);
#78=FACE_OUTER_BOUND('',#116,.T.);
#79=FACE_OUTER_BOUND('',#117,.T.);
#80=FACE_OUTER_BOUND('',#118,.T.);
#81=FACE_OUTER_BOUND('',#119,.T.);
#82=FACE_OUTER_BOUND('',#120,.T.);
#83=FACE_OUTER_BOUND('',#125,.T.);
#84=FACE_OUTER_BOUND('',#126,.T.);
#85=FACE_OUTER_BOUND('',#127,.T.);
#86=FACE_OUTER_BOUND('',#128,.T.);
#87=FACE_OUTER_BOUND('',#129,.T.);
#88=FACE_OUTER_BOUND('',#130,.T.);
#89=EDGE_LOOP('',(#472,#473,#474,#475,#476,#477,#478));
#90=EDGE_LOOP('',(#479,#480,#481,#482));
#91=EDGE_LOOP('',(#483,#484,#485,#486,#487,#488));
#92=EDGE_LOOP('',(#489,#490,#491,#492));
#93=EDGE_LOOP('',(#493,#494,#495,#496,#497,#498));
#94=EDGE_LOOP('',(#499,#500,#501,#502));
#95=EDGE_LOOP('',(#503,#504,#505,#506,#507,#508));
#96=EDGE_LOOP('',(#509,#510,#511,#512));
#97=EDGE_LOOP('',(#513,#514,#515,#516,#517,#518,#519,#520));
#98=EDGE_LOOP('',(#521,#522,#523,#524,#525,#526,#527,#528,#529,#530,#531,
#532,#533,#534,#535,#536,#537,#538,#539,#540,#541,#542,#543,#544,#545));
#99=EDGE_LOOP('',(#546,#547,#548,#549));
#100=EDGE_LOOP('',(#550,#551,#552,#553));
#101=EDGE_LOOP('',(#554,#555,#556,#557));
#102=EDGE_LOOP('',(#558,#559,#560,#561));
#103=EDGE_LOOP('',(#562,#563,#564,#565));
#104=EDGE_LOOP('',(#566,#567,#568,#569));
#105=EDGE_LOOP('',(#570,#571,#572,#573));
#106=EDGE_LOOP('',(#574,#575,#576,#577));
#107=EDGE_LOOP('',(#578,#579,#580,#581));
#108=EDGE_LOOP('',(#582,#583,#584,#585));
#109=EDGE_LOOP('',(#586,#587,#588,#589));
#110=EDGE_LOOP('',(#590,#591,#592,#593));
#111=EDGE_LOOP('',(#594,#595,#596,#597));
#112=EDGE_LOOP('',(#598,#599,#600,#601));
#113=EDGE_LOOP('',(#602,#603,#604,#605,#606));
#114=EDGE_LOOP('',(#607,#608,#609,#610));
#115=EDGE_LOOP('',(#611,#612,#613,#614));
#116=EDGE_LOOP('',(#615,#616,#617,#618));
#117=EDGE_LOOP('',(#619,#620,#621,#622));
#118=EDGE_LOOP('',(#623,#624,#625,#626));
#119=EDGE_LOOP('',(#627,#628,#629,#630));
#120=EDGE_LOOP('',(#631,#632,#633,#634,#635,#636,#637,#638,#639,#640,#641,
#642,#643,#644));
#121=EDGE_LOOP('',(#645));
#122=EDGE_LOOP('',(#646));
#123=EDGE_LOOP('',(#647));
#124=EDGE_LOOP('',(#648));
#125=EDGE_LOOP('',(#649,#650,#651,#652,#653,#654,#655));
#126=EDGE_LOOP('',(#656,#657,#658,#659));
#127=EDGE_LOOP('',(#660,#661,#662,#663));
#128=EDGE_LOOP('',(#664,#665,#666,#667));
#129=EDGE_LOOP('',(#668,#669,#670,#671));
#130=EDGE_LOOP('',(#672,#673,#674,#675));
#131=LINE('',#1005,#206);
#132=LINE('',#1010,#207);
#133=LINE('',#1021,#208);
#134=LINE('',#1026,#209);
#135=LINE('',#1037,#210);
#136=LINE('',#1042,#211);
#137=LINE('',#1053,#212);
#138=LINE('',#1058,#213);
#139=LINE('',#1061,#214);
#140=LINE('',#1063,#215);
#141=LINE('',#1065,#216);
#142=LINE('',#1067,#217);
#143=LINE('',#1069,#218);
#144=LINE('',#1070,#219);
#145=LINE('',#1073,#220);
#146=LINE('',#1075,#221);
#147=LINE('',#1077,#222);
#148=LINE('',#1081,#223);
#149=LINE('',#1085,#224);
#150=LINE('',#1087,#225);
#151=LINE('',#1088,#226);
#152=LINE('',#1090,#227);
#153=LINE('',#1092,#228);
#154=LINE('',#1094,#229);
#155=LINE('',#1095,#230);
#156=LINE('',#1096,#231);
#157=LINE('',#1100,#232);
#158=LINE('',#1101,#233);
#159=LINE('',#1102,#234);
#160=LINE('',#1105,#235);
#161=LINE('',#1107,#236);
#162=LINE('',#1108,#237);
#163=LINE('',#1111,#238);
#164=LINE('',#1113,#239);
#165=LINE('',#1114,#240);
#166=LINE('',#1117,#241);
#167=LINE('',#1119,#242);
#168=LINE('',#1120,#243);
#169=LINE('',#1123,#244);
#170=LINE('',#1125,#245);
#171=LINE('',#1126,#246);
#172=LINE('',#1129,#247);
#173=LINE('',#1131,#248);
#174=LINE('',#1132,#249);
#175=LINE('',#1135,#250);
#176=LINE('',#1137,#251);
#177=LINE('',#1138,#252);
#178=LINE('',#1142,#253);
#179=LINE('',#1144,#254);
#180=LINE('',#1146,#255);
#181=LINE('',#1147,#256);
#182=LINE('',#1152,#257);
#183=LINE('',#1157,#258);
#184=LINE('',#1158,#259);
#185=LINE('',#1159,#260);
#186=LINE('',#1164,#261);
#187=LINE('',#1167,#262);
#188=LINE('',#1168,#263);
#189=LINE('',#1171,#264);
#190=LINE('',#1173,#265);
#191=LINE('',#1174,#266);
#192=LINE('',#1176,#267);
#193=LINE('',#1177,#268);
#194=LINE('',#1179,#269);
#195=LINE('',#1180,#270);
#196=LINE('',#1182,#271);
#197=LINE('',#1184,#272);
#198=LINE('',#1186,#273);
#199=LINE('',#1188,#274);
#200=LINE('',#1190,#275);
#201=LINE('',#1192,#276);
#202=LINE('',#1195,#277);
#203=LINE('',#1197,#278);
#204=LINE('',#1200,#279);
#205=LINE('',#1202,#280);
#206=VECTOR('',#800,3.475);
#207=VECTOR('',#807,2.25);
#208=VECTOR('',#814,3.475);
#209=VECTOR('',#821,2.25);
#210=VECTOR('',#828,3.475);
#211=VECTOR('',#835,2.25);
#212=VECTOR('',#842,3.475);
#213=VECTOR('',#849,2.25);
#214=VECTOR('',#854,10.);
#215=VECTOR('',#855,10.);
#216=VECTOR('',#856,10.);
#217=VECTOR('',#857,10.);
#218=VECTOR('',#858,10.);
#219=VECTOR('',#859,10.);
#220=VECTOR('',#862,10.);
#221=VECTOR('',#863,10.);
#222=VECTOR('',#864,10.);
#223=VECTOR('',#867,10.);
#224=VECTOR('',#870,10.);
#225=VECTOR('',#871,10.);
#226=VECTOR('',#872,10.);
#227=VECTOR('',#873,10.);
#228=VECTOR('',#874,10.);
#229=VECTOR('',#875,10.);
#230=VECTOR('',#876,10.);
#231=VECTOR('',#877,10.);
#232=VECTOR('',#880,10.);
#233=VECTOR('',#881,10.);
#234=VECTOR('',#882,10.);
#235=VECTOR('',#885,10.);
#236=VECTOR('',#886,10.);
#237=VECTOR('',#887,10.);
#238=VECTOR('',#890,10.);
#239=VECTOR('',#891,10.);
#240=VECTOR('',#892,10.);
#241=VECTOR('',#895,10.);
#242=VECTOR('',#896,10.);
#243=VECTOR('',#897,10.);
#244=VECTOR('',#900,10.);
#245=VECTOR('',#901,10.);
#246=VECTOR('',#902,10.);
#247=VECTOR('',#905,10.);
#248=VECTOR('',#906,10.);
#249=VECTOR('',#907,10.);
#250=VECTOR('',#910,10.);
#251=VECTOR('',#911,10.);
#252=VECTOR('',#912,10.);
#253=VECTOR('',#915,10.);
#254=VECTOR('',#916,10.);
#255=VECTOR('',#917,10.);
#256=VECTOR('',#918,10.);
#257=VECTOR('',#923,10.);
#258=VECTOR('',#928,10.);
#259=VECTOR('',#929,10.);
#260=VECTOR('',#930,10.);
#261=VECTOR('',#935,10.);
#262=VECTOR('',#940,10.);
#263=VECTOR('',#941,10.);
#264=VECTOR('',#944,10.);
#265=VECTOR('',#945,10.);
#266=VECTOR('',#946,10.);
#267=VECTOR('',#949,10.);
#268=VECTOR('',#950,10.);
#269=VECTOR('',#953,10.);
#270=VECTOR('',#954,10.);
#271=VECTOR('',#957,10.);
#272=VECTOR('',#960,10.);
#273=VECTOR('',#963,10.);
#274=VECTOR('',#966,10.);
#275=VECTOR('',#969,10.);
#276=VECTOR('',#972,10.);
#277=VECTOR('',#977,10.);
#278=VECTOR('',#980,10.);
#279=VECTOR('',#985,10.);
#280=VECTOR('',#988,10.);
#281=CIRCLE('',#735,4.70000000000001);
#282=CIRCLE('',#736,2.25);
#283=CIRCLE('',#737,4.70000000000001);
#284=CIRCLE('',#739,2.25);
#285=CIRCLE('',#741,4.70000000000001);
#286=CIRCLE('',#742,2.25);
#287=CIRCLE('',#743,4.70000000000001);
#288=CIRCLE('',#745,2.25);
#289=CIRCLE('',#747,4.70000000000001);
#290=CIRCLE('',#748,2.25);
#291=CIRCLE('',#749,4.70000000000001);
#292=CIRCLE('',#751,2.25);
#293=CIRCLE('',#753,4.70000000000001);
#294=CIRCLE('',#754,2.25);
#295=CIRCLE('',#755,4.70000000000001);
#296=CIRCLE('',#757,2.25);
#297=CIRCLE('',#760,3.);
#298=CIRCLE('',#761,3.);
#299=CIRCLE('',#771,3.);
#300=CIRCLE('',#772,4.);
#301=CIRCLE('',#775,3.);
#302=CIRCLE('',#776,4.);
#303=(
BOUNDED_CURVE()
B_SPLINE_CURVE(2,(#995,#996,#997),.UNSPECIFIED.,.F.,.F.)
B_SPLINE_CURVE_WITH_KNOTS((3,3),(0.102704240607473,0.671714224949877),
 .UNSPECIFIED.)
CURVE()
GEOMETRIC_REPRESENTATION_ITEM()
RATIONAL_B_SPLINE_CURVE((1.08881419200601,1.29043472691588,1.))
REPRESENTATION_ITEM('')
);
#304=(
BOUNDED_CURVE()
B_SPLINE_CURVE(2,(#999,#1000,#1001),.UNSPECIFIED.,.F.,.F.)
B_SPLINE_CURVE_WITH_KNOTS((3,3),(0.,0.396420952443625),.UNSPECIFIED.)
CURVE()
GEOMETRIC_REPRESENTATION_ITEM()
RATIONAL_B_SPLINE_CURVE((1.,1.14969318830522,1.08445111994917))
REPRESENTATION_ITEM('')
);
#305=(
BOUNDED_CURVE()
B_SPLINE_CURVE(2,(#1015,#1016,#1017),.UNSPECIFIED.,.F.,.F.)
B_SPLINE_CURVE_WITH_KNOTS((3,3),(0.,0.671714224949879),.UNSPECIFIED.)
CURVE()
GEOMETRIC_REPRESENTATION_ITEM()
RATIONAL_B_SPLINE_CURVE((1.,1.34285714285712,1.))
REPRESENTATION_ITEM('')
);
#306=(
BOUNDED_CURVE()
B_SPLINE_CURVE(2,(#1031,#1032,#1033),.UNSPECIFIED.,.F.,.F.)
B_SPLINE_CURVE_WITH_KNOTS((3,3),(0.,0.671714224949878),.UNSPECIFIED.)
CURVE()
GEOMETRIC_REPRESENTATION_ITEM()
RATIONAL_B_SPLINE_CURVE((1.,1.34285714285712,1.))
REPRESENTATION_ITEM('')
);
#307=(
BOUNDED_CURVE()
B_SPLINE_CURVE(2,(#1047,#1048,#1049),.UNSPECIFIED.,.F.,.F.)
B_SPLINE_CURVE_WITH_KNOTS((3,3),(0.,0.671714224949877),.UNSPECIFIED.)
CURVE()
GEOMETRIC_REPRESENTATION_ITEM()
RATIONAL_B_SPLINE_CURVE((1.,1.34285714285715,1.))
REPRESENTATION_ITEM('')
);
#308=VERTEX_POINT('',#993);
#309=VERTEX_POINT('',#994);
#310=VERTEX_POINT('',#998);
#311=VERTEX_POINT('',#1002);
#312=VERTEX_POINT('',#1004);
#313=VERTEX_POINT('',#1009);
#314=VERTEX_POINT('',#1013);
#315=VERTEX_POINT('',#1014);
#316=VERTEX_POINT('',#1018);
#317=VERTEX_POINT('',#1020);
#318=VERTEX_POINT('',#1025);
#319=VERTEX_POINT('',#1029);
#320=VERTEX_POINT('',#1030);
#321=VERTEX_POINT('',#1034);
#322=VERTEX_POINT('',#1036);
#323=VERTEX_POINT('',#1041);
#324=VERTEX_POINT('',#1045);
#325=VERTEX_POINT('',#1046);
#326=VERTEX_POINT('',#1050);
#327=VERTEX_POINT('',#1052);
#328=VERTEX_POINT('',#1057);
#329=VERTEX_POINT('',#1062);
#330=VERTEX_POINT('',#1064);
#331=VERTEX_POINT('',#1066);
#332=VERTEX_POINT('',#1068);
#333=VERTEX_POINT('',#1072);
#334=VERTEX_POINT('',#1074);
#335=VERTEX_POINT('',#1076);
#336=VERTEX_POINT('',#1078);
#337=VERTEX_POINT('',#1080);
#338=VERTEX_POINT('',#1082);
#339=VERTEX_POINT('',#1084);
#340=VERTEX_POINT('',#1086);
#341=VERTEX_POINT('',#1089);
#342=VERTEX_POINT('',#1091);
#343=VERTEX_POINT('',#1093);
#344=VERTEX_POINT('',#1098);
#345=VERTEX_POINT('',#1099);
#346=VERTEX_POINT('',#1104);
#347=VERTEX_POINT('',#1106);
#348=VERTEX_POINT('',#1110);
#349=VERTEX_POINT('',#1112);
#350=VERTEX_POINT('',#1116);
#351=VERTEX_POINT('',#1118);
#352=VERTEX_POINT('',#1122);
#353=VERTEX_POINT('',#1124);
#354=VERTEX_POINT('',#1128);
#355=VERTEX_POINT('',#1130);
#356=VERTEX_POINT('',#1134);
#357=VERTEX_POINT('',#1136);
#358=VERTEX_POINT('',#1140);
#359=VERTEX_POINT('',#1141);
#360=VERTEX_POINT('',#1143);
#361=VERTEX_POINT('',#1145);
#362=VERTEX_POINT('',#1149);
#363=VERTEX_POINT('',#1151);
#364=VERTEX_POINT('',#1155);
#365=VERTEX_POINT('',#1156);
#366=VERTEX_POINT('',#1161);
#367=VERTEX_POINT('',#1163);
#368=VERTEX_POINT('',#1170);
#369=VERTEX_POINT('',#1172);
#370=EDGE_CURVE('',#308,#309,#303,.T.);
#371=EDGE_CURVE('',#310,#308,#304,.T.);
#372=EDGE_CURVE('',#311,#310,#281,.T.);
#373=EDGE_CURVE('',#311,#312,#131,.T.);
#374=EDGE_CURVE('',#312,#312,#282,.T.);
#375=EDGE_CURVE('',#309,#311,#283,.T.);
#376=EDGE_CURVE('',#312,#313,#132,.T.);
#377=EDGE_CURVE('',#313,#313,#284,.T.);
#378=EDGE_CURVE('',#314,#315,#305,.T.);
#379=EDGE_CURVE('',#316,#314,#285,.T.);
#380=EDGE_CURVE('',#316,#317,#133,.T.);
#381=EDGE_CURVE('',#317,#317,#286,.T.);
#382=EDGE_CURVE('',#315,#316,#287,.T.);
#383=EDGE_CURVE('',#317,#318,#134,.T.);
#384=EDGE_CURVE('',#318,#318,#288,.T.);
#385=EDGE_CURVE('',#319,#320,#306,.T.);
#386=EDGE_CURVE('',#321,#319,#289,.T.);
#387=EDGE_CURVE('',#321,#322,#135,.T.);
#388=EDGE_CURVE('',#322,#322,#290,.T.);
#389=EDGE_CURVE('',#320,#321,#291,.T.);
#390=EDGE_CURVE('',#322,#323,#136,.T.);
#391=EDGE_CURVE('',#323,#323,#292,.T.);
#392=EDGE_CURVE('',#324,#325,#307,.T.);
#393=EDGE_CURVE('',#326,#324,#293,.T.);
#394=EDGE_CURVE('',#326,#327,#137,.T.);
#395=EDGE_CURVE('',#327,#327,#294,.T.);
#396=EDGE_CURVE('',#325,#326,#295,.T.);
#397=EDGE_CURVE('',#327,#328,#138,.T.);
#398=EDGE_CURVE('',#328,#328,#296,.T.);
#399=EDGE_CURVE('',#315,#319,#139,.T.);
#400=EDGE_CURVE('',#320,#329,#140,.T.);
#401=EDGE_CURVE('',#330,#329,#141,.T.);
#402=EDGE_CURVE('',#331,#330,#142,.T.);
#403=EDGE_CURVE('',#332,#331,#143,.T.);
#404=EDGE_CURVE('',#332,#314,#144,.T.);
#405=EDGE_CURVE('',#333,#310,#145,.T.);
#406=EDGE_CURVE('',#334,#333,#146,.T.);
#407=EDGE_CURVE('',#335,#334,#147,.T.);
#408=EDGE_CURVE('',#336,#335,#297,.T.);
#409=EDGE_CURVE('',#337,#336,#148,.T.);
#410=EDGE_CURVE('',#338,#337,#298,.T.);
#411=EDGE_CURVE('',#339,#338,#149,.T.);
#412=EDGE_CURVE('',#340,#339,#150,.T.);
#413=EDGE_CURVE('',#329,#340,#151,.T.);
#414=EDGE_CURVE('',#341,#332,#152,.T.);
#415=EDGE_CURVE('',#342,#341,#153,.T.);
#416=EDGE_CURVE('',#343,#342,#154,.T.);
#417=EDGE_CURVE('',#325,#343,#155,.T.);
#418=EDGE_CURVE('',#309,#324,#156,.T.);
#419=EDGE_CURVE('',#344,#345,#157,.T.);
#420=EDGE_CURVE('',#345,#331,#158,.T.);
#421=EDGE_CURVE('',#344,#330,#159,.T.);
#422=EDGE_CURVE('',#345,#346,#160,.T.);
#423=EDGE_CURVE('',#346,#347,#161,.T.);
#424=EDGE_CURVE('',#347,#331,#162,.T.);
#425=EDGE_CURVE('',#346,#348,#163,.T.);
#426=EDGE_CURVE('',#348,#349,#164,.T.);
#427=EDGE_CURVE('',#349,#347,#165,.T.);
#428=EDGE_CURVE('',#348,#350,#166,.T.);
#429=EDGE_CURVE('',#350,#351,#167,.T.);
#430=EDGE_CURVE('',#351,#349,#168,.T.);
#431=EDGE_CURVE('',#350,#352,#169,.T.);
#432=EDGE_CURVE('',#352,#353,#170,.T.);
#433=EDGE_CURVE('',#353,#351,#171,.T.);
#434=EDGE_CURVE('',#354,#353,#172,.T.);
#435=EDGE_CURVE('',#352,#355,#173,.T.);
#436=EDGE_CURVE('',#355,#354,#174,.T.);
#437=EDGE_CURVE('',#356,#354,#175,.T.);
#438=EDGE_CURVE('',#355,#357,#176,.T.);
#439=EDGE_CURVE('',#357,#356,#177,.T.);
#440=EDGE_CURVE('',#358,#359,#178,.T.);
#441=EDGE_CURVE('',#359,#360,#179,.T.);
#442=EDGE_CURVE('',#360,#361,#180,.T.);
#443=EDGE_CURVE('',#361,#358,#181,.T.);
#444=EDGE_CURVE('',#359,#362,#299,.T.);
#445=EDGE_CURVE('',#362,#363,#182,.T.);
#446=EDGE_CURVE('',#363,#360,#300,.T.);
#447=EDGE_CURVE('',#364,#365,#183,.T.);
#448=EDGE_CURVE('',#365,#363,#184,.T.);
#449=EDGE_CURVE('',#362,#364,#185,.T.);
#450=EDGE_CURVE('',#364,#366,#301,.T.);
#451=EDGE_CURVE('',#366,#367,#186,.T.);
#452=EDGE_CURVE('',#367,#365,#302,.T.);
#453=EDGE_CURVE('',#357,#367,#187,.T.);
#454=EDGE_CURVE('',#366,#356,#188,.T.);
#455=EDGE_CURVE('',#368,#358,#189,.T.);
#456=EDGE_CURVE('',#361,#369,#190,.T.);
#457=EDGE_CURVE('',#369,#368,#191,.T.);
#458=EDGE_CURVE('',#330,#368,#192,.T.);
#459=EDGE_CURVE('',#369,#344,#193,.T.);
#460=EDGE_CURVE('',#308,#353,#194,.T.);
#461=EDGE_CURVE('',#354,#333,#195,.T.);
#462=EDGE_CURVE('',#334,#356,#196,.T.);
#463=EDGE_CURVE('',#335,#366,#197,.T.);
#464=EDGE_CURVE('',#364,#336,#198,.T.);
#465=EDGE_CURVE('',#337,#362,#199,.T.);
#466=EDGE_CURVE('',#359,#338,#200,.T.);
#467=EDGE_CURVE('',#339,#358,#201,.T.);
#468=EDGE_CURVE('',#351,#343,#202,.T.);
#469=EDGE_CURVE('',#340,#368,#203,.T.);
#470=EDGE_CURVE('',#342,#349,#204,.T.);
#471=EDGE_CURVE('',#347,#341,#205,.T.);
#472=ORIENTED_EDGE('',*,*,#370,.F.);
#473=ORIENTED_EDGE('',*,*,#371,.F.);
#474=ORIENTED_EDGE('',*,*,#372,.F.);
#475=ORIENTED_EDGE('',*,*,#373,.T.);
#476=ORIENTED_EDGE('',*,*,#374,.T.);
#477=ORIENTED_EDGE('',*,*,#373,.F.);
#478=ORIENTED_EDGE('',*,*,#375,.F.);
#479=ORIENTED_EDGE('',*,*,#374,.F.);
#480=ORIENTED_EDGE('',*,*,#376,.T.);
#481=ORIENTED_EDGE('',*,*,#377,.F.);
#482=ORIENTED_EDGE('',*,*,#376,.F.);
#483=ORIENTED_EDGE('',*,*,#378,.F.);
#484=ORIENTED_EDGE('',*,*,#379,.F.);
#485=ORIENTED_EDGE('',*,*,#380,.T.);
#486=ORIENTED_EDGE('',*,*,#381,.T.);
#487=ORIENTED_EDGE('',*,*,#380,.F.);
#488=ORIENTED_EDGE('',*,*,#382,.F.);
#489=ORIENTED_EDGE('',*,*,#381,.F.);
#490=ORIENTED_EDGE('',*,*,#383,.T.);
#491=ORIENTED_EDGE('',*,*,#384,.F.);
#492=ORIENTED_EDGE('',*,*,#383,.F.);
#493=ORIENTED_EDGE('',*,*,#385,.F.);
#494=ORIENTED_EDGE('',*,*,#386,.F.);
#495=ORIENTED_EDGE('',*,*,#387,.T.);
#496=ORIENTED_EDGE('',*,*,#388,.T.);
#497=ORIENTED_EDGE('',*,*,#387,.F.);
#498=ORIENTED_EDGE('',*,*,#389,.F.);
#499=ORIENTED_EDGE('',*,*,#388,.F.);
#500=ORIENTED_EDGE('',*,*,#390,.T.);
#501=ORIENTED_EDGE('',*,*,#391,.F.);
#502=ORIENTED_EDGE('',*,*,#390,.F.);
#503=ORIENTED_EDGE('',*,*,#392,.F.);
#504=ORIENTED_EDGE('',*,*,#393,.F.);
#505=ORIENTED_EDGE('',*,*,#394,.T.);
#506=ORIENTED_EDGE('',*,*,#395,.T.);
#507=ORIENTED_EDGE('',*,*,#394,.F.);
#508=ORIENTED_EDGE('',*,*,#396,.F.);
#509=ORIENTED_EDGE('',*,*,#395,.F.);
#510=ORIENTED_EDGE('',*,*,#397,.T.);
#511=ORIENTED_EDGE('',*,*,#398,.F.);
#512=ORIENTED_EDGE('',*,*,#397,.F.);
#513=ORIENTED_EDGE('',*,*,#378,.T.);
#514=ORIENTED_EDGE('',*,*,#399,.T.);
#515=ORIENTED_EDGE('',*,*,#385,.T.);
#516=ORIENTED_EDGE('',*,*,#400,.T.);
#517=ORIENTED_EDGE('',*,*,#401,.F.);
#518=ORIENTED_EDGE('',*,*,#402,.F.);
#519=ORIENTED_EDGE('',*,*,#403,.F.);
#520=ORIENTED_EDGE('',*,*,#404,.T.);
#521=ORIENTED_EDGE('',*,*,#375,.T.);
#522=ORIENTED_EDGE('',*,*,#372,.T.);
#523=ORIENTED_EDGE('',*,*,#405,.F.);
#524=ORIENTED_EDGE('',*,*,#406,.F.);
#525=ORIENTED_EDGE('',*,*,#407,.F.);
#526=ORIENTED_EDGE('',*,*,#408,.F.);
#527=ORIENTED_EDGE('',*,*,#409,.F.);
#528=ORIENTED_EDGE('',*,*,#410,.F.);
#529=ORIENTED_EDGE('',*,*,#411,.F.);
#530=ORIENTED_EDGE('',*,*,#412,.F.);
#531=ORIENTED_EDGE('',*,*,#413,.F.);
#532=ORIENTED_EDGE('',*,*,#400,.F.);
#533=ORIENTED_EDGE('',*,*,#389,.T.);
#534=ORIENTED_EDGE('',*,*,#386,.T.);
#535=ORIENTED_EDGE('',*,*,#399,.F.);
#536=ORIENTED_EDGE('',*,*,#382,.T.);
#537=ORIENTED_EDGE('',*,*,#379,.T.);
#538=ORIENTED_EDGE('',*,*,#404,.F.);
#539=ORIENTED_EDGE('',*,*,#414,.F.);
#540=ORIENTED_EDGE('',*,*,#415,.F.);
#541=ORIENTED_EDGE('',*,*,#416,.F.);
#542=ORIENTED_EDGE('',*,*,#417,.F.);
#543=ORIENTED_EDGE('',*,*,#396,.T.);
#544=ORIENTED_EDGE('',*,*,#393,.T.);
#545=ORIENTED_EDGE('',*,*,#418,.F.);
#546=ORIENTED_EDGE('',*,*,#419,.T.);
#547=ORIENTED_EDGE('',*,*,#420,.T.);
#548=ORIENTED_EDGE('',*,*,#402,.T.);
#549=ORIENTED_EDGE('',*,*,#421,.F.);
#550=ORIENTED_EDGE('',*,*,#422,.T.);
#551=ORIENTED_EDGE('',*,*,#423,.T.);
#552=ORIENTED_EDGE('',*,*,#424,.T.);
#553=ORIENTED_EDGE('',*,*,#420,.F.);
#554=ORIENTED_EDGE('',*,*,#425,.T.);
#555=ORIENTED_EDGE('',*,*,#426,.T.);
#556=ORIENTED_EDGE('',*,*,#427,.T.);
#557=ORIENTED_EDGE('',*,*,#423,.F.);
#558=ORIENTED_EDGE('',*,*,#428,.T.);
#559=ORIENTED_EDGE('',*,*,#429,.T.);
#560=ORIENTED_EDGE('',*,*,#430,.T.);
#561=ORIENTED_EDGE('',*,*,#426,.F.);
#562=ORIENTED_EDGE('',*,*,#431,.T.);
#563=ORIENTED_EDGE('',*,*,#432,.T.);
#564=ORIENTED_EDGE('',*,*,#433,.T.);
#565=ORIENTED_EDGE('',*,*,#429,.F.);
#566=ORIENTED_EDGE('',*,*,#434,.T.);
#567=ORIENTED_EDGE('',*,*,#432,.F.);
#568=ORIENTED_EDGE('',*,*,#435,.T.);
#569=ORIENTED_EDGE('',*,*,#436,.T.);
#570=ORIENTED_EDGE('',*,*,#437,.T.);
#571=ORIENTED_EDGE('',*,*,#436,.F.);
#572=ORIENTED_EDGE('',*,*,#438,.T.);
#573=ORIENTED_EDGE('',*,*,#439,.T.);
#574=ORIENTED_EDGE('',*,*,#440,.T.);
#575=ORIENTED_EDGE('',*,*,#441,.T.);
#576=ORIENTED_EDGE('',*,*,#442,.T.);
#577=ORIENTED_EDGE('',*,*,#443,.T.);
#578=ORIENTED_EDGE('',*,*,#441,.F.);
#579=ORIENTED_EDGE('',*,*,#444,.T.);
#580=ORIENTED_EDGE('',*,*,#445,.T.);
#581=ORIENTED_EDGE('',*,*,#446,.T.);
#582=ORIENTED_EDGE('',*,*,#447,.T.);
#583=ORIENTED_EDGE('',*,*,#448,.T.);
#584=ORIENTED_EDGE('',*,*,#445,.F.);
#585=ORIENTED_EDGE('',*,*,#449,.T.);
#586=ORIENTED_EDGE('',*,*,#447,.F.);
#587=ORIENTED_EDGE('',*,*,#450,.T.);
#588=ORIENTED_EDGE('',*,*,#451,.T.);
#589=ORIENTED_EDGE('',*,*,#452,.T.);
#590=ORIENTED_EDGE('',*,*,#453,.T.);
#591=ORIENTED_EDGE('',*,*,#451,.F.);
#592=ORIENTED_EDGE('',*,*,#454,.T.);
#593=ORIENTED_EDGE('',*,*,#439,.F.);
#594=ORIENTED_EDGE('',*,*,#455,.T.);
#595=ORIENTED_EDGE('',*,*,#443,.F.);
#596=ORIENTED_EDGE('',*,*,#456,.T.);
#597=ORIENTED_EDGE('',*,*,#457,.T.);
#598=ORIENTED_EDGE('',*,*,#458,.T.);
#599=ORIENTED_EDGE('',*,*,#457,.F.);
#600=ORIENTED_EDGE('',*,*,#459,.T.);
#601=ORIENTED_EDGE('',*,*,#421,.T.);
#602=ORIENTED_EDGE('',*,*,#371,.T.);
#603=ORIENTED_EDGE('',*,*,#460,.T.);
#604=ORIENTED_EDGE('',*,*,#434,.F.);
#605=ORIENTED_EDGE('',*,*,#461,.T.);
#606=ORIENTED_EDGE('',*,*,#405,.T.);
#607=ORIENTED_EDGE('',*,*,#437,.F.);
#608=ORIENTED_EDGE('',*,*,#462,.F.);
#609=ORIENTED_EDGE('',*,*,#406,.T.);
#610=ORIENTED_EDGE('',*,*,#461,.F.);
#611=ORIENTED_EDGE('',*,*,#454,.F.);
#612=ORIENTED_EDGE('',*,*,#463,.F.);
#613=ORIENTED_EDGE('',*,*,#407,.T.);
#614=ORIENTED_EDGE('',*,*,#462,.T.);
#615=ORIENTED_EDGE('',*,*,#450,.F.);
#616=ORIENTED_EDGE('',*,*,#464,.T.);
#617=ORIENTED_EDGE('',*,*,#408,.T.);
#618=ORIENTED_EDGE('',*,*,#463,.T.);
#619=ORIENTED_EDGE('',*,*,#449,.F.);
#620=ORIENTED_EDGE('',*,*,#465,.F.);
#621=ORIENTED_EDGE('',*,*,#409,.T.);
#622=ORIENTED_EDGE('',*,*,#464,.F.);
#623=ORIENTED_EDGE('',*,*,#444,.F.);
#624=ORIENTED_EDGE('',*,*,#466,.T.);
#625=ORIENTED_EDGE('',*,*,#410,.T.);
#626=ORIENTED_EDGE('',*,*,#465,.T.);
#627=ORIENTED_EDGE('',*,*,#440,.F.);
#628=ORIENTED_EDGE('',*,*,#467,.F.);
#629=ORIENTED_EDGE('',*,*,#411,.T.);
#630=ORIENTED_EDGE('',*,*,#466,.F.);
#631=ORIENTED_EDGE('',*,*,#442,.F.);
#632=ORIENTED_EDGE('',*,*,#446,.F.);
#633=ORIENTED_EDGE('',*,*,#448,.F.);
#634=ORIENTED_EDGE('',*,*,#452,.F.);
#635=ORIENTED_EDGE('',*,*,#453,.F.);
#636=ORIENTED_EDGE('',*,*,#438,.F.);
#637=ORIENTED_EDGE('',*,*,#435,.F.);
#638=ORIENTED_EDGE('',*,*,#431,.F.);
#639=ORIENTED_EDGE('',*,*,#428,.F.);
#640=ORIENTED_EDGE('',*,*,#425,.F.);
#641=ORIENTED_EDGE('',*,*,#422,.F.);
#642=ORIENTED_EDGE('',*,*,#419,.F.);
#643=ORIENTED_EDGE('',*,*,#459,.F.);
#644=ORIENTED_EDGE('',*,*,#456,.F.);
#645=ORIENTED_EDGE('',*,*,#377,.T.);
#646=ORIENTED_EDGE('',*,*,#384,.T.);
#647=ORIENTED_EDGE('',*,*,#391,.T.);
#648=ORIENTED_EDGE('',*,*,#398,.T.);
#649=ORIENTED_EDGE('',*,*,#370,.T.);
#650=ORIENTED_EDGE('',*,*,#418,.T.);
#651=ORIENTED_EDGE('',*,*,#392,.T.);
#652=ORIENTED_EDGE('',*,*,#417,.T.);
#653=ORIENTED_EDGE('',*,*,#468,.F.);
#654=ORIENTED_EDGE('',*,*,#433,.F.);
#655=ORIENTED_EDGE('',*,*,#460,.F.);
#656=ORIENTED_EDGE('',*,*,#458,.F.);
#657=ORIENTED_EDGE('',*,*,#401,.T.);
#658=ORIENTED_EDGE('',*,*,#413,.T.);
#659=ORIENTED_EDGE('',*,*,#469,.T.);
#660=ORIENTED_EDGE('',*,*,#455,.F.);
#661=ORIENTED_EDGE('',*,*,#469,.F.);
#662=ORIENTED_EDGE('',*,*,#412,.T.);
#663=ORIENTED_EDGE('',*,*,#467,.T.);
#664=ORIENTED_EDGE('',*,*,#430,.F.);
#665=ORIENTED_EDGE('',*,*,#468,.T.);
#666=ORIENTED_EDGE('',*,*,#416,.T.);
#667=ORIENTED_EDGE('',*,*,#470,.T.);
#668=ORIENTED_EDGE('',*,*,#427,.F.);
#669=ORIENTED_EDGE('',*,*,#470,.F.);
#670=ORIENTED_EDGE('',*,*,#415,.T.);
#671=ORIENTED_EDGE('',*,*,#471,.F.);
#672=ORIENTED_EDGE('',*,*,#424,.F.);
#673=ORIENTED_EDGE('',*,*,#471,.T.);
#674=ORIENTED_EDGE('',*,*,#414,.T.);
#675=ORIENTED_EDGE('',*,*,#403,.T.);
#676=CONICAL_SURFACE('',#734,3.475,0.785398163397448);
#677=CONICAL_SURFACE('',#740,3.475,0.785398163397448);
#678=CONICAL_SURFACE('',#746,3.475,0.785398163397448);
#679=CONICAL_SURFACE('',#752,3.475,0.785398163397448);
#680=CONICAL_SURFACE('',#770,3.5,0.785398163397449);
#681=CONICAL_SURFACE('',#774,3.5,0.785398163397449);
#682=ADVANCED_FACE('',(#51),#676,.F.);
#683=ADVANCED_FACE('',(#52),#45,.F.);
#684=ADVANCED_FACE('',(#53),#677,.F.);
#685=ADVANCED_FACE('',(#54),#46,.F.);
#686=ADVANCED_FACE('',(#55),#678,.F.);
#687=ADVANCED_FACE('',(#56),#47,.F.);
#688=ADVANCED_FACE('',(#57),#679,.F.);
#689=ADVANCED_FACE('',(#58),#48,.F.);
#690=ADVANCED_FACE('',(#59),#19,.T.);
#691=ADVANCED_FACE('',(#60),#20,.T.);
#692=ADVANCED_FACE('',(#61),#21,.T.);
#693=ADVANCED_FACE('',(#62),#22,.T.);
#694=ADVANCED_FACE('',(#63),#23,.T.);
#695=ADVANCED_FACE('',(#64),#24,.T.);
#696=ADVANCED_FACE('',(#65),#25,.T.);
#697=ADVANCED_FACE('',(#66),#26,.T.);
#698=ADVANCED_FACE('',(#67),#27,.T.);
#699=ADVANCED_FACE('',(#68),#28,.T.);
#700=ADVANCED_FACE('',(#69),#680,.F.);
#701=ADVANCED_FACE('',(#70),#29,.T.);
#702=ADVANCED_FACE('',(#71),#681,.F.);
#703=ADVANCED_FACE('',(#72),#30,.T.);
#704=ADVANCED_FACE('',(#73),#31,.T.);
#705=ADVANCED_FACE('',(#74),#32,.T.);
#706=ADVANCED_FACE('',(#75),#33,.T.);
#707=ADVANCED_FACE('',(#76),#34,.T.);
#708=ADVANCED_FACE('',(#77),#35,.T.);
#709=ADVANCED_FACE('',(#78),#49,.F.);
#710=ADVANCED_FACE('',(#79),#36,.T.);
#711=ADVANCED_FACE('',(#80),#50,.F.);
#712=ADVANCED_FACE('',(#81),#37,.T.);
#713=ADVANCED_FACE('',(#82,#15,#16,#17,#18),#38,.T.);
#714=ADVANCED_FACE('',(#83),#39,.T.);
#715=ADVANCED_FACE('',(#84),#40,.T.);
#716=ADVANCED_FACE('',(#85),#41,.T.);
#717=ADVANCED_FACE('',(#86),#42,.T.);
#718=ADVANCED_FACE('',(#87),#43,.T.);
#719=ADVANCED_FACE('',(#88),#44,.T.);
#720=CLOSED_SHELL('',(#682,#683,#684,#685,#686,#687,#688,#689,#690,#691,
#692,#693,#694,#695,#696,#697,#698,#699,#700,#701,#702,#703,#704,#705,#706,
#707,#708,#709,#710,#711,#712,#713,#714,#715,#716,#717,#718,#719));
#721=DERIVED_UNIT_ELEMENT(#723,1.);
#722=DERIVED_UNIT_ELEMENT(#1209,-3.);
#723=(
MASS_UNIT()
NAMED_UNIT(*)
SI_UNIT(.KILO.,.GRAM.)
);
#724=DERIVED_UNIT((#721,#722));
#725=MEASURE_REPRESENTATION_ITEM('density measure',
POSITIVE_RATIO_MEASURE(7850.),#724);
#726=PROPERTY_DEFINITION_REPRESENTATION(#731,#728);
#727=PROPERTY_DEFINITION_REPRESENTATION(#732,#729);
#728=REPRESENTATION('material name',(#730),#1206);
#729=REPRESENTATION('density',(#725),#1206);
#730=DESCRIPTIVE_REPRESENTATION_ITEM('Steel','Steel');
#731=PROPERTY_DEFINITION('material property','material name',#1216);
#732=PROPERTY_DEFINITION('material property','density of part',#1216);
#733=AXIS2_PLACEMENT_3D('',#991,#794,#795);
#734=AXIS2_PLACEMENT_3D('',#992,#796,#797);
#735=AXIS2_PLACEMENT_3D('',#1003,#798,#799);
#736=AXIS2_PLACEMENT_3D('',#1006,#801,#802);
#737=AXIS2_PLACEMENT_3D('',#1007,#803,#804);
#738=AXIS2_PLACEMENT_3D('',#1008,#805,#806);
#739=AXIS2_PLACEMENT_3D('',#1011,#808,#809);
#740=AXIS2_PLACEMENT_3D('',#1012,#810,#811);
#741=AXIS2_PLACEMENT_3D('',#1019,#812,#813);
#742=AXIS2_PLACEMENT_3D('',#1022,#815,#816);
#743=AXIS2_PLACEMENT_3D('',#1023,#817,#818);
#744=AXIS2_PLACEMENT_3D('',#1024,#819,#820);
#745=AXIS2_PLACEMENT_3D('',#1027,#822,#823);
#746=AXIS2_PLACEMENT_3D('',#1028,#824,#825);
#747=AXIS2_PLACEMENT_3D('',#1035,#826,#827);
#748=AXIS2_PLACEMENT_3D('',#1038,#829,#830);
#749=AXIS2_PLACEMENT_3D('',#1039,#831,#832);
#750=AXIS2_PLACEMENT_3D('',#1040,#833,#834);
#751=AXIS2_PLACEMENT_3D('',#1043,#836,#837);
#752=AXIS2_PLACEMENT_3D('',#1044,#838,#839);
#753=AXIS2_PLACEMENT_3D('',#1051,#840,#841);
#754=AXIS2_PLACEMENT_3D('',#1054,#843,#844);
#755=AXIS2_PLACEMENT_3D('',#1055,#845,#846);
#756=AXIS2_PLACEMENT_3D('',#1056,#847,#848);
#757=AXIS2_PLACEMENT_3D('',#1059,#850,#851);
#758=AXIS2_PLACEMENT_3D('',#1060,#852,#853);
#759=AXIS2_PLACEMENT_3D('',#1071,#860,#861);
#760=AXIS2_PLACEMENT_3D('',#1079,#865,#866);
#761=AXIS2_PLACEMENT_3D('',#1083,#868,#869);
#762=AXIS2_PLACEMENT_3D('',#1097,#878,#879);
#763=AXIS2_PLACEMENT_3D('',#1103,#883,#884);
#764=AXIS2_PLACEMENT_3D('',#1109,#888,#889);
#765=AXIS2_PLACEMENT_3D('',#1115,#893,#894);
#766=AXIS2_PLACEMENT_3D('',#1121,#898,#899);
#767=AXIS2_PLACEMENT_3D('',#1127,#903,#904);
#768=AXIS2_PLACEMENT_3D('',#1133,#908,#909);
#769=AXIS2_PLACEMENT_3D('',#1139,#913,#914);
#770=AXIS2_PLACEMENT_3D('',#1148,#919,#920);
#771=AXIS2_PLACEMENT_3D('',#1150,#921,#922);
#772=AXIS2_PLACEMENT_3D('',#1153,#924,#925);
#773=AXIS2_PLACEMENT_3D('',#1154,#926,#927);
#774=AXIS2_PLACEMENT_3D('',#1160,#931,#932);
#775=AXIS2_PLACEMENT_3D('',#1162,#933,#934);
#776=AXIS2_PLACEMENT_3D('',#1165,#936,#937);
#777=AXIS2_PLACEMENT_3D('',#1166,#938,#939);
#778=AXIS2_PLACEMENT_3D('',#1169,#942,#943);
#779=AXIS2_PLACEMENT_3D('',#1175,#947,#948);
#780=AXIS2_PLACEMENT_3D('',#1178,#951,#952);
#781=AXIS2_PLACEMENT_3D('',#1181,#955,#956);
#782=AXIS2_PLACEMENT_3D('',#1183,#958,#959);
#783=AXIS2_PLACEMENT_3D('',#1185,#961,#962);
#784=AXIS2_PLACEMENT_3D('',#1187,#964,#965);
#785=AXIS2_PLACEMENT_3D('',#1189,#967,#968);
#786=AXIS2_PLACEMENT_3D('',#1191,#970,#971);
#787=AXIS2_PLACEMENT_3D('',#1193,#973,#974);
#788=AXIS2_PLACEMENT_3D('',#1194,#975,#976);
#789=AXIS2_PLACEMENT_3D('',#1196,#978,#979);
#790=AXIS2_PLACEMENT_3D('',#1198,#981,#982);
#791=AXIS2_PLACEMENT_3D('',#1199,#983,#984);
#792=AXIS2_PLACEMENT_3D('',#1201,#986,#987);
#793=AXIS2_PLACEMENT_3D('',#1203,#989,#990);
#794=DIRECTION('axis',(0.,0.,1.));
#795=DIRECTION('refdir',(1.,0.,0.));
#796=DIRECTION('center_axis',(-1.,0.,0.));
#797=DIRECTION('ref_axis',(0.,-1.,0.));
#798=DIRECTION('center_axis',(1.,0.,0.));
#799=DIRECTION('ref_axis',(0.,-1.,0.));
#800=DIRECTION('',(0.707106781186548,-0.707106781186547,-8.65956056235493E-17));
#801=DIRECTION('center_axis',(1.,0.,0.));
#802=DIRECTION('ref_axis',(0.,-1.,0.));
#803=DIRECTION('center_axis',(1.,0.,0.));
#804=DIRECTION('ref_axis',(0.,-1.,0.));
#805=DIRECTION('center_axis',(1.,0.,0.));
#806=DIRECTION('ref_axis',(0.,-1.,0.));
#807=DIRECTION('',(1.,0.,0.));
#808=DIRECTION('center_axis',(-1.,0.,0.));
#809=DIRECTION('ref_axis',(0.,-1.,0.));
#810=DIRECTION('center_axis',(-1.,0.,0.));
#811=DIRECTION('ref_axis',(0.,-1.,0.));
#812=DIRECTION('center_axis',(1.,0.,0.));
#813=DIRECTION('ref_axis',(0.,-1.,0.));
#814=DIRECTION('',(0.707106781186548,-0.707106781186547,-8.65956056235493E-17));
#815=DIRECTION('center_axis',(1.,0.,0.));
#816=DIRECTION('ref_axis',(0.,-1.,0.));
#817=DIRECTION('center_axis',(1.,0.,0.));
#818=DIRECTION('ref_axis',(0.,-1.,0.));
#819=DIRECTION('center_axis',(1.,0.,0.));
#820=DIRECTION('ref_axis',(0.,-1.,0.));
#821=DIRECTION('',(1.,0.,0.));
#822=DIRECTION('center_axis',(-1.,0.,0.));
#823=DIRECTION('ref_axis',(0.,-1.,0.));
#824=DIRECTION('center_axis',(-1.,0.,0.));
#825=DIRECTION('ref_axis',(0.,-1.,0.));
#826=DIRECTION('center_axis',(1.,0.,0.));
#827=DIRECTION('ref_axis',(0.,-1.,0.));
#828=DIRECTION('',(0.707106781186548,-0.707106781186547,-8.65956056235493E-17));
#829=DIRECTION('center_axis',(1.,0.,0.));
#830=DIRECTION('ref_axis',(0.,-1.,0.));
#831=DIRECTION('center_axis',(1.,0.,0.));
#832=DIRECTION('ref_axis',(0.,-1.,0.));
#833=DIRECTION('center_axis',(1.,0.,0.));
#834=DIRECTION('ref_axis',(0.,-1.,0.));
#835=DIRECTION('',(1.,0.,0.));
#836=DIRECTION('center_axis',(-1.,0.,0.));
#837=DIRECTION('ref_axis',(0.,-1.,0.));
#838=DIRECTION('center_axis',(-1.,0.,0.));
#839=DIRECTION('ref_axis',(0.,-1.,0.));
#840=DIRECTION('center_axis',(1.,0.,0.));
#841=DIRECTION('ref_axis',(0.,-1.,0.));
#842=DIRECTION('',(0.707106781186548,-0.707106781186547,-8.65956056235493E-17));
#843=DIRECTION('center_axis',(1.,0.,0.));
#844=DIRECTION('ref_axis',(0.,-1.,0.));
#845=DIRECTION('center_axis',(1.,0.,0.));
#846=DIRECTION('ref_axis',(0.,-1.,0.));
#847=DIRECTION('center_axis',(1.,0.,0.));
#848=DIRECTION('ref_axis',(0.,-1.,0.));
#849=DIRECTION('',(1.,0.,0.));
#850=DIRECTION('center_axis',(-1.,0.,0.));
#851=DIRECTION('ref_axis',(0.,-1.,0.));
#852=DIRECTION('center_axis',(0.,0.,1.));
#853=DIRECTION('ref_axis',(0.,-1.,0.));
#854=DIRECTION('',(0.,-1.,0.));
#855=DIRECTION('',(0.,-1.,0.));
#856=DIRECTION('',(-1.,0.,0.));
#857=DIRECTION('',(0.,-1.,0.));
#858=DIRECTION('',(1.,0.,0.));
#859=DIRECTION('',(0.,-1.,0.));
#860=DIRECTION('center_axis',(-1.,0.,0.));
#861=DIRECTION('ref_axis',(0.,-1.,0.));
#862=DIRECTION('',(0.,0.707106781186548,-0.707106781186548));
#863=DIRECTION('',(0.,0.,-1.));
#864=DIRECTION('',(0.,-1.,8.26212483441977E-16));
#865=DIRECTION('center_axis',(-1.,0.,0.));
#866=DIRECTION('ref_axis',(0.,0.707106781186548,-0.707106781186548));
#867=DIRECTION('',(0.,1.4210854715202E-15,-1.));
#868=DIRECTION('center_axis',(-1.,0.,0.));
#869=DIRECTION('ref_axis',(0.,0.707106781186543,0.707106781186552));
#870=DIRECTION('',(0.,1.,1.23931872516297E-15));
#871=DIRECTION('',(0.,0.,-1.));
#872=DIRECTION('',(0.,-0.707106781186548,-0.707106781186548));
#873=DIRECTION('',(0.,-0.707106781186548,0.707106781186548));
#874=DIRECTION('',(0.,0.,1.));
#875=DIRECTION('',(0.,0.707106781186548,0.707106781186548));
#876=DIRECTION('',(0.,1.,0.));
#877=DIRECTION('',(0.,1.,0.));
#878=DIRECTION('center_axis',(0.707106781186554,0.,0.707106781186541));
#879=DIRECTION('ref_axis',(0.707106781186541,0.,-0.707106781186554));
#880=DIRECTION('',(0.,1.,0.));
#881=DIRECTION('',(-0.67859834454584,0.281084637714824,0.678598344545852));
#882=DIRECTION('',(-0.678598344545839,-0.28108463771483,0.678598344545851));
#883=DIRECTION('center_axis',(0.707106781186548,0.5,0.5));
#884=DIRECTION('ref_axis',(0.577350269189625,0.,-0.816496580927726));
#885=DIRECTION('',(0.,0.707106781186548,-0.707106781186548));
#886=DIRECTION('',(-0.67859834454584,0.678598344545852,0.281084637714824));
#887=DIRECTION('',(0.,-0.707106781186548,0.707106781186548));
#888=DIRECTION('center_axis',(0.707106781186554,0.707106781186541,0.));
#889=DIRECTION('ref_axis',(0.,0.,-1.));
#890=DIRECTION('',(0.,0.,-1.));
#891=DIRECTION('',(-0.67859834454584,0.678598344545852,-0.281084637714824));
#892=DIRECTION('',(0.,0.,1.));
#893=DIRECTION('center_axis',(0.707106781186548,0.5,-0.5));
#894=DIRECTION('ref_axis',(-0.577350269189625,0.,-0.816496580927726));
#895=DIRECTION('',(0.,-0.707106781186548,-0.707106781186548));
#896=DIRECTION('',(-0.67859834454584,0.281084637714824,-0.678598344545852));
#897=DIRECTION('',(0.,0.707106781186548,0.707106781186548));
#898=DIRECTION('center_axis',(0.707106781186554,0.,-0.707106781186541));
#899=DIRECTION('ref_axis',(-0.707106781186541,0.,-0.707106781186554));
#900=DIRECTION('',(0.,-1.,0.));
#901=DIRECTION('',(-0.678598344545839,-0.28108463771483,-0.678598344545851));
#902=DIRECTION('',(0.,1.,0.));
#903=DIRECTION('center_axis',(0.707106781186548,-0.5,-0.5));
#904=DIRECTION('ref_axis',(-0.577350269189625,0.,-0.816496580927726));
#905=DIRECTION('',(0.,0.707106781186548,-0.707106781186548));
#906=DIRECTION('',(0.,-0.707106781186548,0.707106781186548));
#907=DIRECTION('',(-0.67859834454584,-0.678598344545852,-0.281084637714824));
#908=DIRECTION('center_axis',(0.707106781186554,-0.707106781186541,0.));
#909=DIRECTION('ref_axis',(0.,0.,-1.));
#910=DIRECTION('',(0.,0.,-1.));
#911=DIRECTION('',(0.,0.,1.));
#912=DIRECTION('',(-0.577350269189619,-0.577350269189629,0.577350269189629));
#913=DIRECTION('center_axis',(0.707106781186554,8.76330674614192E-16,-0.707106781186541));
#914=DIRECTION('ref_axis',(-0.707106781186541,0.,-0.707106781186554));
#915=DIRECTION('',(0.,1.,1.23931872516297E-15));
#916=DIRECTION('',(0.707106781186541,0.,0.707106781186554));
#917=DIRECTION('',(0.,-1.,-1.23931872516297E-15));
#918=DIRECTION('',(-0.577350269189619,-0.577350269189629,-0.577350269189629));
#919=DIRECTION('center_axis',(1.,0.,0.));
#920=DIRECTION('ref_axis',(0.,0.707106781186543,0.707106781186552));
#921=DIRECTION('center_axis',(-1.,0.,0.));
#922=DIRECTION('ref_axis',(0.,0.707106781186543,0.707106781186552));
#923=DIRECTION('',(0.707106781186541,0.707106781186554,0.));
#924=DIRECTION('center_axis',(1.,0.,0.));
#925=DIRECTION('ref_axis',(0.,0.707106781186543,0.707106781186552));
#926=DIRECTION('center_axis',(0.707106781186548,-0.707106781186548,-1.00485917355761E-15));
#927=DIRECTION('ref_axis',(-1.4210854715202E-15,0.,-1.));
#928=DIRECTION('',(0.707106781186548,0.707106781186548,0.));
#929=DIRECTION('',(0.,-1.4210854715202E-15,1.));
#930=DIRECTION('',(0.,1.4210854715202E-15,-1.));
#931=DIRECTION('center_axis',(1.,0.,0.));
#932=DIRECTION('ref_axis',(0.,0.707106781186548,-0.707106781186548));
#933=DIRECTION('center_axis',(-1.,0.,0.));
#934=DIRECTION('ref_axis',(0.,0.707106781186548,-0.707106781186548));
#935=DIRECTION('',(0.707106781186554,-6.28036983473518E-15,-0.707106781186541));
#936=DIRECTION('center_axis',(1.,0.,0.));
#937=DIRECTION('ref_axis',(0.,0.707106781186548,-0.707106781186548));
#938=DIRECTION('center_axis',(0.707106781186554,5.84220449742794E-16,0.707106781186541));
#939=DIRECTION('ref_axis',(0.707106781186541,0.,-0.707106781186554));
#940=DIRECTION('',(0.,1.,-8.26212483441977E-16));
#941=DIRECTION('',(0.,-1.,8.26212483441977E-16));
#942=DIRECTION('center_axis',(0.707106781186554,-0.707106781186541,0.));
#943=DIRECTION('ref_axis',(0.,0.,-1.));
#944=DIRECTION('',(0.,0.,-1.));
#945=DIRECTION('',(0.,0.,1.));
#946=DIRECTION('',(-0.678598344545838,-0.67859834454585,0.281084637714835));
#947=DIRECTION('center_axis',(0.707106781186548,-0.5,0.5));
#948=DIRECTION('ref_axis',(0.577350269189625,0.,-0.816496580927726));
#949=DIRECTION('',(0.,-0.707106781186548,-0.707106781186548));
#950=DIRECTION('',(0.,0.707106781186548,0.707106781186548));
#951=DIRECTION('center_axis',(0.,-0.707106781186548,-0.707106781186548));
#952=DIRECTION('ref_axis',(-1.,0.,0.));
#953=DIRECTION('',(1.,0.,0.));
#954=DIRECTION('',(-1.,0.,0.));
#955=DIRECTION('center_axis',(0.,-1.,0.));
#956=DIRECTION('ref_axis',(0.,0.,-1.));
#957=DIRECTION('',(1.,0.,0.));
#958=DIRECTION('center_axis',(0.,8.26212483441976E-16,1.));
#959=DIRECTION('ref_axis',(0.,-1.,8.26212483441977E-16));
#960=DIRECTION('',(1.,0.,0.));
#961=DIRECTION('center_axis',(1.,0.,0.));
#962=DIRECTION('ref_axis',(0.,0.707106781186548,-0.707106781186548));
#963=DIRECTION('',(-1.,0.,0.));
#964=DIRECTION('center_axis',(0.,-1.,-1.4210854715202E-15));
#965=DIRECTION('ref_axis',(0.,1.4210854715202E-15,-1.));
#966=DIRECTION('',(1.,0.,0.));
#967=DIRECTION('center_axis',(1.,0.,0.));
#968=DIRECTION('ref_axis',(0.,0.707106781186543,0.707106781186552));
#969=DIRECTION('',(-1.,0.,0.));
#970=DIRECTION('center_axis',(0.,1.23931872516297E-15,-1.));
#971=DIRECTION('ref_axis',(0.,1.,1.23931872516297E-15));
#972=DIRECTION('',(1.,0.,0.));
#973=DIRECTION('center_axis',(1.,0.,0.));
#974=DIRECTION('ref_axis',(0.,0.,-1.));
#975=DIRECTION('center_axis',(0.,0.,-1.));
#976=DIRECTION('ref_axis',(0.,1.,0.));
#977=DIRECTION('',(-1.,0.,0.));
#978=DIRECTION('center_axis',(0.,-0.707106781186548,0.707106781186548));
#979=DIRECTION('ref_axis',(1.,0.,0.));
#980=DIRECTION('',(1.,0.,0.));
#981=DIRECTION('center_axis',(0.,-1.,0.));
#982=DIRECTION('ref_axis',(0.,0.,-1.));
#983=DIRECTION('center_axis',(0.,0.707106781186548,-0.707106781186548));
#984=DIRECTION('ref_axis',(-1.,0.,0.));
#985=DIRECTION('',(1.,0.,0.));
#986=DIRECTION('center_axis',(0.,1.,0.));
#987=DIRECTION('ref_axis',(0.,0.,1.));
#988=DIRECTION('',(-1.,0.,0.));
#989=DIRECTION('center_axis',(0.,0.707106781186548,0.707106781186548));
#990=DIRECTION('ref_axis',(1.,0.,0.));
#991=CARTESIAN_POINT('',(0.,0.,0.));
#992=CARTESIAN_POINT('Origin',(89.200665,46.6740647863308,-120.565813120825));
#993=CARTESIAN_POINT('',(88.6445361258507,44.6740647863307,-124.065813120825));
#994=CARTESIAN_POINT('',(87.975665,49.8109422146024,-124.065813120825));
#995=CARTESIAN_POINT('Ctrl Pts',(88.6445361258507,44.6740647863307,-124.065813120825));
#996=CARTESIAN_POINT('Ctrl Pts',(89.8212172864005,47.0457414873105,-124.065813120825));
#997=CARTESIAN_POINT('Ctrl Pts',(87.975665,49.8109422146025,-124.065813120825));
#998=CARTESIAN_POINT('',(87.975665,42.0579190256787,-121.449667360172));
#999=CARTESIAN_POINT('Ctrl Pts',(87.975665,42.0579190256786,-121.449667360172));
#1000=CARTESIAN_POINT('Ctrl Pts',(89.0939875882566,43.4662002745669,-122.857948609061));
#1001=CARTESIAN_POINT('Ctrl Pts',(88.6445361258507,44.6740647863307,-124.065813120825));
#1002=CARTESIAN_POINT('',(87.975665,51.3740647863308,-120.565813120825));
#1003=CARTESIAN_POINT('Origin',(87.975665,46.6740647863308,-120.565813120825));
#1004=CARTESIAN_POINT('',(90.425665,48.9240647863308,-120.565813120825));
#1005=CARTESIAN_POINT('',(89.200665,50.1490647863308,-120.565813120825));
#1006=CARTESIAN_POINT('Origin',(90.425665,46.6740647863308,-120.565813120825));
#1007=CARTESIAN_POINT('Origin',(87.975665,46.6740647863308,-120.565813120825));
#1008=CARTESIAN_POINT('Origin',(90.475665,46.6740647863308,-120.565813120825));
#1009=CARTESIAN_POINT('',(90.975665,48.9240647863308,-120.565813120825));
#1010=CARTESIAN_POINT('',(90.475665,48.9240647863308,-120.565813120825));
#1011=CARTESIAN_POINT('Origin',(90.975665,46.6740647863308,-120.565813120825));
#1012=CARTESIAN_POINT('Origin',(89.200665,78.6740647863307,-79.5658131208246));
#1013=CARTESIAN_POINT('',(87.975665,81.8109422146024,-76.0658131208247));
#1014=CARTESIAN_POINT('',(87.975665,75.5371873580591,-76.0658131208247));
#1015=CARTESIAN_POINT('Ctrl Pts',(87.975665,81.8109422146024,-76.0658131208247));
#1016=CARTESIAN_POINT('Ctrl Pts',(90.0692820212767,78.6740647863307,-76.0658131208247));
#1017=CARTESIAN_POINT('Ctrl Pts',(87.975665,75.5371873580591,-76.0658131208247));
#1018=CARTESIAN_POINT('',(87.975665,83.3740647863308,-79.5658131208246));
#1019=CARTESIAN_POINT('Origin',(87.975665,78.6740647863307,-79.5658131208246));
#1020=CARTESIAN_POINT('',(90.425665,80.9240647863307,-79.5658131208246));
#1021=CARTESIAN_POINT('',(89.200665,82.1490647863307,-79.5658131208246));
#1022=CARTESIAN_POINT('Origin',(90.425665,78.6740647863307,-79.5658131208246));
#1023=CARTESIAN_POINT('Origin',(87.975665,78.6740647863307,-79.5658131208246));
#1024=CARTESIAN_POINT('Origin',(90.475665,78.6740647863307,-79.5658131208246));
#1025=CARTESIAN_POINT('',(90.975665,80.9240647863307,-79.5658131208246));
#1026=CARTESIAN_POINT('',(90.475665,80.9240647863307,-79.5658131208246));
#1027=CARTESIAN_POINT('Origin',(90.975665,78.6740647863307,-79.5658131208246));
#1028=CARTESIAN_POINT('Origin',(89.200665,51.6740647863308,-79.5658131208246));
#1029=CARTESIAN_POINT('',(87.975665,54.8109422146025,-76.0658131208247));
#1030=CARTESIAN_POINT('',(87.975665,48.5371873580591,-76.0658131208247));
#1031=CARTESIAN_POINT('Ctrl Pts',(87.975665,54.8109422146025,-76.0658131208247));
#1032=CARTESIAN_POINT('Ctrl Pts',(90.0692820212767,51.6740647863308,-76.0658131208247));
#1033=CARTESIAN_POINT('Ctrl Pts',(87.975665,48.5371873580591,-76.0658131208247));
#1034=CARTESIAN_POINT('',(87.975665,56.3740647863308,-79.5658131208246));
#1035=CARTESIAN_POINT('Origin',(87.975665,51.6740647863308,-79.5658131208246));
#1036=CARTESIAN_POINT('',(90.425665,53.9240647863308,-79.5658131208246));
#1037=CARTESIAN_POINT('',(89.200665,55.1490647863308,-79.5658131208246));
#1038=CARTESIAN_POINT('Origin',(90.425665,51.6740647863308,-79.5658131208246));
#1039=CARTESIAN_POINT('Origin',(87.975665,51.6740647863308,-79.5658131208246));
#1040=CARTESIAN_POINT('Origin',(90.475665,51.6740647863308,-79.5658131208246));
#1041=CARTESIAN_POINT('',(90.975665,53.9240647863308,-79.5658131208246));
#1042=CARTESIAN_POINT('',(90.475665,53.9240647863308,-79.5658131208246));
#1043=CARTESIAN_POINT('Origin',(90.975665,51.6740647863308,-79.5658131208246));
#1044=CARTESIAN_POINT('Origin',(89.200665,78.6740647863307,-120.565813120825));
#1045=CARTESIAN_POINT('',(87.975665,75.5371873580591,-124.065813120825));
#1046=CARTESIAN_POINT('',(87.975665,81.8109422146024,-124.065813120825));
#1047=CARTESIAN_POINT('Ctrl Pts',(87.975665,75.5371873580591,-124.065813120825));
#1048=CARTESIAN_POINT('Ctrl Pts',(90.0692820212767,78.6740647863307,-124.065813120825));
#1049=CARTESIAN_POINT('Ctrl Pts',(87.975665,81.8109422146024,-124.065813120825));
#1050=CARTESIAN_POINT('',(87.975665,83.3740647863308,-120.565813120825));
#1051=CARTESIAN_POINT('Origin',(87.975665,78.6740647863307,-120.565813120825));
#1052=CARTESIAN_POINT('',(90.425665,80.9240647863307,-120.565813120825));
#1053=CARTESIAN_POINT('',(89.200665,82.1490647863307,-120.565813120825));
#1054=CARTESIAN_POINT('Origin',(90.425665,78.6740647863307,-120.565813120825));
#1055=CARTESIAN_POINT('Origin',(87.975665,78.6740647863307,-120.565813120825));
#1056=CARTESIAN_POINT('Origin',(90.475665,78.6740647863307,-120.565813120825));
#1057=CARTESIAN_POINT('',(90.975665,80.9240647863307,-120.565813120825));
#1058=CARTESIAN_POINT('',(90.475665,80.9240647863307,-120.565813120825));
#1059=CARTESIAN_POINT('Origin',(90.975665,78.6740647863307,-120.565813120825));
#1060=CARTESIAN_POINT('Origin',(87.975665,88.6740647863307,-76.0658131208247));
#1061=CARTESIAN_POINT('',(87.975665,88.6740647863307,-76.0658131208247));
#1062=CARTESIAN_POINT('',(87.975665,44.6740647863307,-76.0658131208247));
#1063=CARTESIAN_POINT('',(87.975665,88.6740647863307,-76.0658131208247));
#1064=CARTESIAN_POINT('',(89.975665,44.6740647863307,-76.0658131208247));
#1065=CARTESIAN_POINT('',(87.975665,44.6740647863307,-76.0658131208247));
#1066=CARTESIAN_POINT('',(89.975665,83.6740647863307,-76.0658131208247));
#1067=CARTESIAN_POINT('',(89.975665,76.4240647863307,-76.0658131208247));
#1068=CARTESIAN_POINT('',(87.975665,83.6740647863307,-76.0658131208247));
#1069=CARTESIAN_POINT('',(87.975665,83.6740647863307,-76.0658131208247));
#1070=CARTESIAN_POINT('',(87.975665,88.6740647863307,-76.0658131208247));
#1071=CARTESIAN_POINT('Origin',(87.975665,64.1740647863307,-100.065813120825));
#1072=CARTESIAN_POINT('',(87.975665,39.6740647863307,-119.065813120825));
#1073=CARTESIAN_POINT('',(87.975665,42.2990647863308,-121.690813120825));
#1074=CARTESIAN_POINT('',(87.975665,39.6740647863307,-112.565813120825));
#1075=CARTESIAN_POINT('',(87.975665,39.6740647863307,-76.0658131208247));
#1076=CARTESIAN_POINT('',(87.975665,79.6740647863307,-112.565813120825));
#1077=CARTESIAN_POINT('',(87.975665,82.6740647863308,-112.565813120825));
#1078=CARTESIAN_POINT('',(87.975665,82.6740647863308,-109.565813120825));
#1079=CARTESIAN_POINT('Origin',(87.975665,79.6740647863307,-109.565813120825));
#1080=CARTESIAN_POINT('',(87.975665,82.6740647863307,-90.5658131208246));
#1081=CARTESIAN_POINT('',(87.975665,82.6740647863307,-87.5658131208246));
#1082=CARTESIAN_POINT('',(87.975665,79.6740647863307,-87.5658131208246));
#1083=CARTESIAN_POINT('Origin',(87.975665,79.6740647863307,-90.5658131208246));
#1084=CARTESIAN_POINT('',(87.975665,39.6740647863307,-87.5658131208247));
#1085=CARTESIAN_POINT('',(87.975665,39.6740647863307,-87.5658131208247));
#1086=CARTESIAN_POINT('',(87.975665,39.6740647863307,-81.0658131208247));
#1087=CARTESIAN_POINT('',(87.975665,39.6740647863307,-76.0658131208247));
#1088=CARTESIAN_POINT('',(87.975665,42.2990647863308,-78.4408131208246));
#1089=CARTESIAN_POINT('',(87.975665,88.6740647863307,-81.0658131208247));
#1090=CARTESIAN_POINT('',(87.975665,86.0490647863307,-78.4408131208246));
#1091=CARTESIAN_POINT('',(87.975665,88.6740647863307,-119.065813120825));
#1092=CARTESIAN_POINT('',(87.975665,88.6740647863307,-124.065813120825));
#1093=CARTESIAN_POINT('',(87.975665,83.6740647863307,-124.065813120825));
#1094=CARTESIAN_POINT('',(87.975665,86.0490647863307,-121.690813120825));
#1095=CARTESIAN_POINT('',(87.975665,39.6740647863307,-124.065813120825));
#1096=CARTESIAN_POINT('',(87.975665,39.6740647863307,-124.065813120825));
#1097=CARTESIAN_POINT('Origin',(90.475665,76.4240647863307,-76.5658131208246));
#1098=CARTESIAN_POINT('',(90.975665,45.0882783487038,-77.0658131208246));
#1099=CARTESIAN_POINT('',(90.975665,83.2598512239577,-77.0658131208246));
#1100=CARTESIAN_POINT('',(90.975665,76.4240647863307,-77.0658131208246));
#1101=CARTESIAN_POINT('',(90.975665,83.2598512239577,-77.0658131208246));
#1102=CARTESIAN_POINT('',(90.975665,45.0882783487038,-77.0658131208246));
#1103=CARTESIAN_POINT('Origin',(90.475665,85.6955113957375,-78.7943665114179));
#1104=CARTESIAN_POINT('',(90.975665,87.6740647863308,-81.4800266831977));
#1105=CARTESIAN_POINT('',(90.975665,85.3419580051442,-79.1479199020112));
#1106=CARTESIAN_POINT('',(89.975665,88.6740647863307,-81.0658131208247));
#1107=CARTESIAN_POINT('',(90.975665,87.6740647863308,-81.4800266831977));
#1108=CARTESIAN_POINT('',(89.975665,86.0490647863307,-78.4408131208246));
#1109=CARTESIAN_POINT('Origin',(90.475665,88.1740647863307,-112.065813120825));
#1110=CARTESIAN_POINT('',(90.975665,87.6740647863308,-118.651599558451));
#1111=CARTESIAN_POINT('',(90.975665,87.6740647863308,-112.065813120825));
#1112=CARTESIAN_POINT('',(89.975665,88.6740647863307,-119.065813120825));
#1113=CARTESIAN_POINT('',(90.975665,87.6740647863308,-118.651599558451));
#1114=CARTESIAN_POINT('',(89.975665,88.6740647863307,-112.065813120825));
#1115=CARTESIAN_POINT('Origin',(90.475665,85.6955113957375,-121.337259730231));
#1116=CARTESIAN_POINT('',(90.975665,83.2598512239577,-123.065813120825));
#1117=CARTESIAN_POINT('',(90.975665,85.3419580051442,-120.983706339638));
#1118=CARTESIAN_POINT('',(89.975665,83.6740647863307,-124.065813120825));
#1119=CARTESIAN_POINT('',(90.975665,83.2598512239577,-123.065813120825));
#1120=CARTESIAN_POINT('',(89.975665,86.0490647863307,-121.690813120825));
#1121=CARTESIAN_POINT('Origin',(90.475665,51.9240647863307,-123.565813120825));
#1122=CARTESIAN_POINT('',(90.975665,45.0882783487038,-123.065813120825));
#1123=CARTESIAN_POINT('',(90.975665,51.9240647863307,-123.065813120825));
#1124=CARTESIAN_POINT('',(89.975665,44.6740647863307,-124.065813120825));
#1125=CARTESIAN_POINT('',(90.975665,45.0882783487038,-123.065813120825));
#1126=CARTESIAN_POINT('',(89.975665,51.9240647863307,-124.065813120825));
#1127=CARTESIAN_POINT('Origin',(90.475665,42.652618176924,-121.337259730231));
#1128=CARTESIAN_POINT('',(89.975665,39.6740647863307,-119.065813120825));
#1129=CARTESIAN_POINT('',(89.975665,42.2990647863308,-121.690813120825));
#1130=CARTESIAN_POINT('',(90.975665,40.6740647863307,-118.651599558451));
#1131=CARTESIAN_POINT('',(90.975665,43.0061715675173,-120.983706339638));
#1132=CARTESIAN_POINT('',(90.975665,40.6740647863307,-118.651599558451));
#1133=CARTESIAN_POINT('Origin',(90.475665,40.1740647863307,-106.315813120825));
#1134=CARTESIAN_POINT('',(89.975665,39.6740647863307,-112.565813120825));
#1135=CARTESIAN_POINT('',(89.975665,39.6740647863307,-106.315813120825));
#1136=CARTESIAN_POINT('',(90.975665,40.6740647863307,-113.565813120825));
#1137=CARTESIAN_POINT('',(90.975665,40.6740647863307,-106.315813120825));
#1138=CARTESIAN_POINT('',(90.975665,40.6740647863307,-113.565813120825));
#1139=CARTESIAN_POINT('Origin',(90.475665,51.9240647863307,-87.0658131208246));
#1140=CARTESIAN_POINT('',(89.975665,39.6740647863307,-87.5658131208247));
#1141=CARTESIAN_POINT('',(89.975665,79.6740647863307,-87.5658131208246));
#1142=CARTESIAN_POINT('',(89.975665,51.9240647863307,-87.5658131208246));
#1143=CARTESIAN_POINT('',(90.975665,79.6740647863307,-86.5658131208246));
#1144=CARTESIAN_POINT('',(89.975665,79.6740647863307,-87.5658131208246));
#1145=CARTESIAN_POINT('',(90.975665,40.6740647863307,-86.5658131208247));
#1146=CARTESIAN_POINT('',(90.975665,51.9240647863307,-86.5658131208246));
#1147=CARTESIAN_POINT('',(90.975665,40.6740647863307,-86.5658131208247));
#1148=CARTESIAN_POINT('Origin',(90.475665,79.6740647863307,-90.5658131208246));
#1149=CARTESIAN_POINT('',(89.975665,82.6740647863307,-90.5658131208246));
#1150=CARTESIAN_POINT('Origin',(89.975665,79.6740647863307,-90.5658131208246));
#1151=CARTESIAN_POINT('',(90.975665,83.6740647863307,-90.5658131208246));
#1152=CARTESIAN_POINT('',(89.975665,82.6740647863307,-90.5658131208246));
#1153=CARTESIAN_POINT('Origin',(90.975665,79.6740647863307,-90.5658131208246));
#1154=CARTESIAN_POINT('Origin',(90.475665,83.1740647863307,-93.8158131208246));
#1155=CARTESIAN_POINT('',(89.975665,82.6740647863308,-109.565813120825));
#1156=CARTESIAN_POINT('',(90.975665,83.6740647863307,-109.565813120825));
#1157=CARTESIAN_POINT('',(89.975665,82.6740647863308,-109.565813120825));
#1158=CARTESIAN_POINT('',(90.975665,83.6740647863307,-93.8158131208246));
#1159=CARTESIAN_POINT('',(89.975665,82.6740647863307,-93.8158131208246));
#1160=CARTESIAN_POINT('Origin',(90.475665,79.6740647863307,-109.565813120825));
#1161=CARTESIAN_POINT('',(89.975665,79.6740647863307,-112.565813120825));
#1162=CARTESIAN_POINT('Origin',(89.975665,79.6740647863307,-109.565813120825));
#1163=CARTESIAN_POINT('',(90.975665,79.6740647863307,-113.565813120825));
#1164=CARTESIAN_POINT('',(89.975665,79.6740647863307,-112.565813120825));
#1165=CARTESIAN_POINT('Origin',(90.975665,79.6740647863307,-109.565813120825));
#1166=CARTESIAN_POINT('Origin',(90.475665,73.4240647863307,-113.065813120825));
#1167=CARTESIAN_POINT('',(90.975665,73.4240647863307,-113.565813120825));
#1168=CARTESIAN_POINT('',(89.975665,73.4240647863307,-112.565813120825));
#1169=CARTESIAN_POINT('Origin',(90.475665,40.1740647863307,-88.0658131208246));
#1170=CARTESIAN_POINT('',(89.975665,39.6740647863307,-81.0658131208247));
#1171=CARTESIAN_POINT('',(89.975665,39.6740647863307,-88.0658131208246));
#1172=CARTESIAN_POINT('',(90.975665,40.6740647863307,-81.4800266831978));
#1173=CARTESIAN_POINT('',(90.975665,40.6740647863307,-88.0658131208246));
#1174=CARTESIAN_POINT('',(90.975665,40.6740647863307,-81.4800266831978));
#1175=CARTESIAN_POINT('Origin',(90.475665,42.652618176924,-78.7943665114179));
#1176=CARTESIAN_POINT('',(89.975665,42.2990647863308,-78.4408131208246));
#1177=CARTESIAN_POINT('',(90.975665,43.0061715675173,-79.1479199020112));
#1178=CARTESIAN_POINT('Origin',(87.975665,42.1740647863307,-121.565813120825));
#1179=CARTESIAN_POINT('',(87.975665,44.6740647863307,-124.065813120825));
#1180=CARTESIAN_POINT('',(87.975665,39.6740647863307,-119.065813120825));
#1181=CARTESIAN_POINT('Origin',(87.975665,39.6740647863307,-112.565813120825));
#1182=CARTESIAN_POINT('',(87.975665,39.6740647863307,-112.565813120825));
#1183=CARTESIAN_POINT('Origin',(87.975665,82.6740647863308,-112.565813120825));
#1184=CARTESIAN_POINT('',(87.975665,79.6740647863307,-112.565813120825));
#1185=CARTESIAN_POINT('Origin',(87.975665,79.6740647863307,-109.565813120825));
#1186=CARTESIAN_POINT('',(87.975665,82.6740647863308,-109.565813120825));
#1187=CARTESIAN_POINT('Origin',(87.975665,82.6740647863307,-87.5658131208246));
#1188=CARTESIAN_POINT('',(87.975665,82.6740647863307,-90.5658131208246));
#1189=CARTESIAN_POINT('Origin',(87.975665,79.6740647863307,-90.5658131208246));
#1190=CARTESIAN_POINT('',(87.975665,79.6740647863307,-87.5658131208246));
#1191=CARTESIAN_POINT('Origin',(87.975665,39.6740647863307,-87.5658131208247));
#1192=CARTESIAN_POINT('',(87.975665,39.6740647863307,-87.5658131208247));
#1193=CARTESIAN_POINT('Origin',(90.975665,64.1740647863307,-100.065813120825));
#1194=CARTESIAN_POINT('Origin',(87.975665,39.6740647863307,-124.065813120825));
#1195=CARTESIAN_POINT('',(87.975665,83.6740647863307,-124.065813120825));
#1196=CARTESIAN_POINT('Origin',(87.975665,42.1740647863307,-78.5658131208247));
#1197=CARTESIAN_POINT('',(87.975665,39.6740647863307,-81.0658131208247));
#1198=CARTESIAN_POINT('Origin',(87.975665,39.6740647863307,-76.0658131208247));
#1199=CARTESIAN_POINT('Origin',(87.975665,86.1740647863307,-121.565813120825));
#1200=CARTESIAN_POINT('',(87.975665,88.6740647863307,-119.065813120825));
#1201=CARTESIAN_POINT('Origin',(87.975665,88.6740647863307,-124.065813120825));
#1202=CARTESIAN_POINT('',(87.975665,88.6740647863307,-81.0658131208247));
#1203=CARTESIAN_POINT('Origin',(87.975665,86.1740647863307,-78.5658131208247));
#1204=UNCERTAINTY_MEASURE_WITH_UNIT(LENGTH_MEASURE(0.01),#1208,
'DISTANCE_ACCURACY_VALUE',
'Maximum model space distance between geometric entities at asserted c
onnectivities');
#1205=UNCERTAINTY_MEASURE_WITH_UNIT(LENGTH_MEASURE(0.01),#1208,
'DISTANCE_ACCURACY_VALUE',
'Maximum model space distance between geometric entities at asserted c
onnectivities');
#1206=(
GEOMETRIC_REPRESENTATION_CONTEXT(3)
GLOBAL_UNCERTAINTY_ASSIGNED_CONTEXT((#1204))
GLOBAL_UNIT_ASSIGNED_CONTEXT((#1208,#1210,#1211))
REPRESENTATION_CONTEXT('','3D')
);
#1207=(
GEOMETRIC_REPRESENTATION_CONTEXT(3)
GLOBAL_UNCERTAINTY_ASSIGNED_CONTEXT((#1205))
GLOBAL_UNIT_ASSIGNED_CONTEXT((#1208,#1210,#1211))
REPRESENTATION_CONTEXT('','3D')
);
#1208=(
LENGTH_UNIT()
NAMED_UNIT(*)
SI_UNIT(.MILLI.,.METRE.)
);
#1209=(
LENGTH_UNIT()
NAMED_UNIT(*)
SI_UNIT($,.METRE.)
);
#1210=(
NAMED_UNIT(*)
PLANE_ANGLE_UNIT()
SI_UNIT($,.RADIAN.)
);
#1211=(
NAMED_UNIT(*)
SI_UNIT($,.STERADIAN.)
SOLID_ANGLE_UNIT()
);
#1212=SHAPE_DEFINITION_REPRESENTATION(#1213,#1214);
#1213=PRODUCT_DEFINITION_SHAPE('',$,#1216);
#1214=SHAPE_REPRESENTATION('',(#733),#1206);
#1215=PRODUCT_DEFINITION_CONTEXT('part definition',#1220,'design');
#1216=PRODUCT_DEFINITION('31074','Angle Sensor, Retaining Plate',#1217,
#1215);
#1217=PRODUCT_DEFINITION_FORMATION('',$,#1222);
#1218=PRODUCT_RELATED_PRODUCT_CATEGORY('Angle Sensor, Retaining Plate',
'Angle Sensor, Retaining Plate',(#1222));
#1219=APPLICATION_PROTOCOL_DEFINITION('international standard',
'automotive_design',2009,#1220);
#1220=APPLICATION_CONTEXT(
'Core Data for Automotive Mechanical Design Process');
#1221=PRODUCT_CONTEXT('part definition',#1220,'mechanical');
#1222=PRODUCT('31074','Angle Sensor, Retaining Plate',$,(#1221));
#1223=PRESENTATION_STYLE_ASSIGNMENT((#1225));
#1224=PRESENTATION_STYLE_ASSIGNMENT((#1226));
#1225=SURFACE_STYLE_USAGE(.BOTH.,#1227);
#1226=SURFACE_STYLE_USAGE(.BOTH.,#1228);
#1227=SURFACE_SIDE_STYLE('',(#1229));
#1228=SURFACE_SIDE_STYLE('',(#1230));
#1229=SURFACE_STYLE_FILL_AREA(#1231);
#1230=SURFACE_STYLE_FILL_AREA(#1232);
#1231=FILL_AREA_STYLE('Steel - Satin',(#1233));
#1232=FILL_AREA_STYLE(
'PA 12 - Nylon - PA 603-CF (with EOS P 3D Printers)',(#1234));
#1233=FILL_AREA_STYLE_COLOUR('Steel - Satin',#1235);
#1234=FILL_AREA_STYLE_COLOUR(
'PA 12 - Nylon - PA 603-CF (with EOS P 3D Printers)',#1236);
#1235=COLOUR_RGB('Steel - Satin',0.627450980392157,0.627450980392157,0.627450980392157);
#1236=COLOUR_RGB('PA 12 - Nylon - PA 603-CF (with EOS P 3D Printers)',0.247058823529412,
0.247058823529412,0.247058823529412);
ENDSEC;
END-ISO-10303-21;
