ISO-10303-21;
HEADER;
/* Generated by software containing ST-Developer
 * from STEP Tools, Inc. (www.steptools.com) 
 */
/* OPTION: using custom renumber hook */

FILE_DESCRIPTION(
/* description */ ('STEP AP242',
'CAx-IF Rec.Pracs.---Representation and Presentation of Product Manufa
cturing Information (PMI)---4.0---2014-10-13',
'CAx-IF Rec.Pracs.---3D Tessellated Geometry---0.4---2014-09-14','2;1'),

/* implementation_level */ '2;1');

FILE_NAME(
/* name */ '68342522fe473b6e1abc22d5',
/* time_stamp */ '2025-05-26T08:24:03Z',
/* author */ (''),
/* organization */ (''),
/* preprocessor_version */ 'ST-DEVELOPER v20',
/* originating_system */ 'ONSHAPE BY PTC INC, 1.198',
/* authorisation */ '  ');

FILE_SCHEMA (('AP242_MANAGED_MODEL_BASED_3D_ENGINEERING_MIM_LF { 1 0 10303 442 1 1 4 }'));
ENDSEC;

DATA;
#10=SHAPE_REPRESENTATION_RELATIONSHIP('','',#286,#11);
#11=ADVANCED_BREP_SHAPE_REPRESENTATION('',(#284),#477);
#12=ELLIPSE('',#294,0.00507713305942872,0.005);
#13=ELLIPSE('',#296,0.00507713305942872,0.005);
#14=CYLINDRICAL_SURFACE('',#291,0.005);
#15=CYLINDRICAL_SURFACE('',#305,0.00175);
#16=CYLINDRICAL_SURFACE('',#308,0.00175);
#17=CYLINDRICAL_SURFACE('',#315,0.004);
#18=CYLINDRICAL_SURFACE('',#316,0.004);
#19=CIRCLE('',#289,0.004);
#20=CIRCLE('',#290,0.004);
#21=CIRCLE('',#292,0.005);
#22=CIRCLE('',#293,0.005);
#23=CIRCLE('',#295,0.005);
#24=CIRCLE('',#299,0.004);
#25=CIRCLE('',#300,0.004);
#26=CIRCLE('',#303,0.00175);
#27=CIRCLE('',#304,0.00175);
#28=CIRCLE('',#306,0.00175);
#29=CIRCLE('',#309,0.00175);
#30=ORIENTED_EDGE('',*,*,#100,.F.);
#31=ORIENTED_EDGE('',*,*,#101,.T.);
#32=ORIENTED_EDGE('',*,*,#102,.T.);
#33=ORIENTED_EDGE('',*,*,#103,.F.);
#34=ORIENTED_EDGE('',*,*,#104,.F.);
#35=ORIENTED_EDGE('',*,*,#105,.T.);
#36=ORIENTED_EDGE('',*,*,#106,.T.);
#37=ORIENTED_EDGE('',*,*,#107,.F.);
#38=ORIENTED_EDGE('',*,*,#108,.F.);
#39=ORIENTED_EDGE('',*,*,#109,.F.);
#40=ORIENTED_EDGE('',*,*,#110,.T.);
#41=ORIENTED_EDGE('',*,*,#111,.F.);
#42=ORIENTED_EDGE('',*,*,#112,.F.);
#43=ORIENTED_EDGE('',*,*,#113,.F.);
#44=ORIENTED_EDGE('',*,*,#104,.T.);
#45=ORIENTED_EDGE('',*,*,#114,.F.);
#46=ORIENTED_EDGE('',*,*,#115,.F.);
#47=ORIENTED_EDGE('',*,*,#116,.F.);
#48=ORIENTED_EDGE('',*,*,#117,.T.);
#49=ORIENTED_EDGE('',*,*,#118,.F.);
#50=ORIENTED_EDGE('',*,*,#119,.F.);
#51=ORIENTED_EDGE('',*,*,#120,.T.);
#52=ORIENTED_EDGE('',*,*,#121,.T.);
#53=ORIENTED_EDGE('',*,*,#115,.T.);
#54=ORIENTED_EDGE('',*,*,#122,.T.);
#55=ORIENTED_EDGE('',*,*,#102,.F.);
#56=ORIENTED_EDGE('',*,*,#123,.T.);
#57=ORIENTED_EDGE('',*,*,#116,.T.);
#58=ORIENTED_EDGE('',*,*,#124,.T.);
#59=ORIENTED_EDGE('',*,*,#125,.T.);
#60=ORIENTED_EDGE('',*,*,#126,.T.);
#61=ORIENTED_EDGE('',*,*,#114,.T.);
#62=ORIENTED_EDGE('',*,*,#103,.T.);
#63=ORIENTED_EDGE('',*,*,#124,.F.);
#64=ORIENTED_EDGE('',*,*,#122,.F.);
#65=ORIENTED_EDGE('',*,*,#108,.T.);
#66=ORIENTED_EDGE('',*,*,#127,.T.);
#67=ORIENTED_EDGE('',*,*,#126,.F.);
#68=ORIENTED_EDGE('',*,*,#127,.F.);
#69=ORIENTED_EDGE('',*,*,#128,.T.);
#70=ORIENTED_EDGE('',*,*,#125,.F.);
#71=ORIENTED_EDGE('',*,*,#128,.F.);
#72=ORIENTED_EDGE('',*,*,#111,.T.);
#73=ORIENTED_EDGE('',*,*,#129,.T.);
#74=ORIENTED_EDGE('',*,*,#119,.T.);
#75=ORIENTED_EDGE('',*,*,#130,.F.);
#76=ORIENTED_EDGE('',*,*,#106,.F.);
#77=ORIENTED_EDGE('',*,*,#131,.T.);
#78=ORIENTED_EDGE('',*,*,#120,.F.);
#79=ORIENTED_EDGE('',*,*,#129,.F.);
#80=ORIENTED_EDGE('',*,*,#110,.F.);
#81=ORIENTED_EDGE('',*,*,#132,.F.);
#82=ORIENTED_EDGE('',*,*,#107,.T.);
#83=ORIENTED_EDGE('',*,*,#132,.T.);
#84=ORIENTED_EDGE('',*,*,#109,.T.);
#85=ORIENTED_EDGE('',*,*,#133,.F.);
#86=ORIENTED_EDGE('',*,*,#100,.T.);
#87=ORIENTED_EDGE('',*,*,#133,.T.);
#88=ORIENTED_EDGE('',*,*,#112,.T.);
#89=ORIENTED_EDGE('',*,*,#130,.T.);
#90=ORIENTED_EDGE('',*,*,#118,.T.);
#91=ORIENTED_EDGE('',*,*,#134,.F.);
#92=ORIENTED_EDGE('',*,*,#113,.T.);
#93=ORIENTED_EDGE('',*,*,#121,.F.);
#94=ORIENTED_EDGE('',*,*,#131,.F.);
#95=ORIENTED_EDGE('',*,*,#105,.F.);
#96=ORIENTED_EDGE('',*,*,#101,.F.);
#97=ORIENTED_EDGE('',*,*,#134,.T.);
#98=ORIENTED_EDGE('',*,*,#117,.F.);
#99=ORIENTED_EDGE('',*,*,#123,.F.);
#100=EDGE_CURVE('',#135,#136,#160,.T.);
#101=EDGE_CURVE('',#135,#137,#19,.T.);
#102=EDGE_CURVE('',#137,#138,#161,.T.);
#103=EDGE_CURVE('',#139,#138,#162,.T.);
#104=EDGE_CURVE('',#140,#139,#163,.T.);
#105=EDGE_CURVE('',#140,#141,#20,.T.);
#106=EDGE_CURVE('',#141,#142,#164,.T.);
#107=EDGE_CURVE('',#136,#142,#165,.T.);
#108=EDGE_CURVE('',#143,#143,#21,.T.);
#109=EDGE_CURVE('',#144,#145,#22,.T.);
#110=EDGE_CURVE('',#144,#146,#12,.T.);
#111=EDGE_CURVE('',#147,#146,#23,.T.);
#112=EDGE_CURVE('',#145,#147,#13,.T.);
#113=EDGE_CURVE('',#140,#148,#166,.T.);
#114=EDGE_CURVE('',#149,#139,#167,.T.);
#115=EDGE_CURVE('',#148,#149,#168,.T.);
#116=EDGE_CURVE('',#150,#151,#169,.T.);
#117=EDGE_CURVE('',#150,#152,#24,.T.);
#118=EDGE_CURVE('',#153,#152,#170,.T.);
#119=EDGE_CURVE('',#154,#153,#171,.T.);
#120=EDGE_CURVE('',#154,#155,#172,.T.);
#121=EDGE_CURVE('',#155,#148,#25,.T.);
#122=EDGE_CURVE('',#149,#151,#173,.T.);
#123=EDGE_CURVE('',#137,#150,#174,.T.);
#124=EDGE_CURVE('',#151,#138,#175,.T.);
#125=EDGE_CURVE('',#156,#156,#26,.T.);
#126=EDGE_CURVE('',#157,#157,#27,.T.);
#127=EDGE_CURVE('',#158,#158,#28,.T.);
#128=EDGE_CURVE('',#159,#159,#29,.T.);
#129=EDGE_CURVE('',#146,#154,#176,.T.);
#130=EDGE_CURVE('',#147,#153,#177,.T.);
#131=EDGE_CURVE('',#141,#155,#178,.T.);
#132=EDGE_CURVE('',#142,#144,#179,.T.);
#133=EDGE_CURVE('',#136,#145,#180,.T.);
#134=EDGE_CURVE('',#135,#152,#181,.T.);
#135=VERTEX_POINT('',#402);
#136=VERTEX_POINT('',#403);
#137=VERTEX_POINT('',#405);
#138=VERTEX_POINT('',#407);
#139=VERTEX_POINT('',#409);
#140=VERTEX_POINT('',#411);
#141=VERTEX_POINT('',#413);
#142=VERTEX_POINT('',#415);
#143=VERTEX_POINT('',#419);
#144=VERTEX_POINT('',#421);
#145=VERTEX_POINT('',#422);
#146=VERTEX_POINT('',#424);
#147=VERTEX_POINT('',#426);
#148=VERTEX_POINT('',#430);
#149=VERTEX_POINT('',#432);
#150=VERTEX_POINT('',#436);
#151=VERTEX_POINT('',#437);
#152=VERTEX_POINT('',#439);
#153=VERTEX_POINT('',#441);
#154=VERTEX_POINT('',#443);
#155=VERTEX_POINT('',#445);
#156=VERTEX_POINT('',#453);
#157=VERTEX_POINT('',#455);
#158=VERTEX_POINT('',#458);
#159=VERTEX_POINT('',#462);
#160=LINE('',#401,#182);
#161=LINE('',#406,#183);
#162=LINE('',#408,#184);
#163=LINE('',#410,#185);
#164=LINE('',#414,#186);
#165=LINE('',#416,#187);
#166=LINE('',#429,#188);
#167=LINE('',#431,#189);
#168=LINE('',#433,#190);
#169=LINE('',#435,#191);
#170=LINE('',#440,#192);
#171=LINE('',#442,#193);
#172=LINE('',#444,#194);
#173=LINE('',#447,#195);
#174=LINE('',#449,#196);
#175=LINE('',#450,#197);
#176=LINE('',#465,#198);
#177=LINE('',#466,#199);
#178=LINE('',#468,#200);
#179=LINE('',#469,#201);
#180=LINE('',#471,#202);
#181=LINE('',#473,#203);
#182=VECTOR('',#321,1.);
#183=VECTOR('',#324,1.);
#184=VECTOR('',#325,1.);
#185=VECTOR('',#326,1.);
#186=VECTOR('',#329,1.);
#187=VECTOR('',#330,1.);
#188=VECTOR('',#345,1.);
#189=VECTOR('',#346,1.);
#190=VECTOR('',#347,1.);
#191=VECTOR('',#350,1.);
#192=VECTOR('',#353,1.);
#193=VECTOR('',#354,1.);
#194=VECTOR('',#355,1.);
#195=VECTOR('',#358,1.);
#196=VECTOR('',#361,1.);
#197=VECTOR('',#362,1.);
#198=VECTOR('',#383,1.);
#199=VECTOR('',#384,1.);
#200=VECTOR('',#387,1.);
#201=VECTOR('',#388,1.);
#202=VECTOR('',#391,1.);
#203=VECTOR('',#394,1.);
#204=EDGE_LOOP('',(#30,#31,#32,#33,#34,#35,#36,#37));
#205=EDGE_LOOP('',(#38));
#206=EDGE_LOOP('',(#39,#40,#41,#42));
#207=EDGE_LOOP('',(#43,#44,#45,#46));
#208=EDGE_LOOP('',(#47,#48,#49,#50,#51,#52,#53,#54));
#209=EDGE_LOOP('',(#55,#56,#57,#58));
#210=EDGE_LOOP('',(#59));
#211=EDGE_LOOP('',(#60));
#212=EDGE_LOOP('',(#61,#62,#63,#64));
#213=EDGE_LOOP('',(#65));
#214=EDGE_LOOP('',(#66));
#215=EDGE_LOOP('',(#67));
#216=EDGE_LOOP('',(#68));
#217=EDGE_LOOP('',(#69));
#218=EDGE_LOOP('',(#70));
#219=EDGE_LOOP('',(#71));
#220=EDGE_LOOP('',(#72,#73,#74,#75));
#221=EDGE_LOOP('',(#76,#77,#78,#79,#80,#81));
#222=EDGE_LOOP('',(#82,#83,#84,#85));
#223=EDGE_LOOP('',(#86,#87,#88,#89,#90,#91));
#224=EDGE_LOOP('',(#92,#93,#94,#95));
#225=EDGE_LOOP('',(#96,#97,#98,#99));
#226=FACE_BOUND('',#204,.T.);
#227=FACE_BOUND('',#205,.T.);
#228=FACE_BOUND('',#206,.T.);
#229=FACE_BOUND('',#207,.T.);
#230=FACE_BOUND('',#208,.T.);
#231=FACE_BOUND('',#209,.T.);
#232=FACE_BOUND('',#210,.T.);
#233=FACE_BOUND('',#211,.T.);
#234=FACE_BOUND('',#212,.T.);
#235=FACE_BOUND('',#213,.T.);
#236=FACE_BOUND('',#214,.T.);
#237=FACE_BOUND('',#215,.T.);
#238=FACE_BOUND('',#216,.T.);
#239=FACE_BOUND('',#217,.T.);
#240=FACE_BOUND('',#218,.T.);
#241=FACE_BOUND('',#219,.T.);
#242=FACE_BOUND('',#220,.T.);
#243=FACE_BOUND('',#221,.T.);
#244=FACE_BOUND('',#222,.T.);
#245=FACE_BOUND('',#223,.T.);
#246=FACE_BOUND('',#224,.T.);
#247=FACE_BOUND('',#225,.T.);
#248=PLANE('',#288);
#249=PLANE('',#297);
#250=PLANE('',#298);
#251=PLANE('',#301);
#252=PLANE('',#302);
#253=PLANE('',#307);
#254=PLANE('',#310);
#255=PLANE('',#311);
#256=PLANE('',#312);
#257=PLANE('',#313);
#258=PLANE('',#314);
#259=ADVANCED_FACE('',(#226),#248,.T.);
#260=ADVANCED_FACE('',(#227,#228),#14,.F.);
#261=ADVANCED_FACE('',(#229),#249,.T.);
#262=ADVANCED_FACE('',(#230),#250,.F.);
#263=ADVANCED_FACE('',(#231),#251,.F.);
#264=ADVANCED_FACE('',(#232,#233,#234,#235),#252,.F.);
#265=ADVANCED_FACE('',(#236,#237),#15,.F.);
#266=ADVANCED_FACE('',(#238),#253,.F.);
#267=ADVANCED_FACE('',(#239,#240),#16,.F.);
#268=ADVANCED_FACE('',(#241),#254,.F.);
#269=ADVANCED_FACE('',(#242),#255,.F.);
#270=ADVANCED_FACE('',(#243),#256,.T.);
#271=ADVANCED_FACE('',(#244),#257,.F.);
#272=ADVANCED_FACE('',(#245),#258,.F.);
#273=ADVANCED_FACE('',(#246),#17,.T.);
#274=ADVANCED_FACE('',(#247),#18,.T.);
#275=CLOSED_SHELL('',(#259,#260,#261,#262,#263,#264,#265,#266,#267,#268,
#269,#270,#271,#272,#273,#274));
#276=STYLED_ITEM('',(#277),#284);
#277=PRESENTATION_STYLE_ASSIGNMENT((#278));
#278=SURFACE_STYLE_USAGE(.BOTH.,#279);
#279=SURFACE_SIDE_STYLE('',(#280));
#280=SURFACE_STYLE_FILL_AREA(#281);
#281=FILL_AREA_STYLE('',(#282));
#282=FILL_AREA_STYLE_COLOUR('',#283);
#283=COLOUR_RGB('',0.498039215686275,0.498039215686275,0.498039215686275);
#284=MANIFOLD_SOLID_BREP('Part 17',#275);
#285=SHAPE_DEFINITION_REPRESENTATION(#482,#286);
#286=SHAPE_REPRESENTATION('Part 17',(#287),#477);
#287=AXIS2_PLACEMENT_3D('',#399,#317,#318);
#288=AXIS2_PLACEMENT_3D('',#400,#319,#320);
#289=AXIS2_PLACEMENT_3D('',#404,#322,#323);
#290=AXIS2_PLACEMENT_3D('',#412,#327,#328);
#291=AXIS2_PLACEMENT_3D('',#417,#331,#332);
#292=AXIS2_PLACEMENT_3D('',#418,#333,#334);
#293=AXIS2_PLACEMENT_3D('',#420,#335,#336);
#294=AXIS2_PLACEMENT_3D('',#423,#337,#338);
#295=AXIS2_PLACEMENT_3D('',#425,#339,#340);
#296=AXIS2_PLACEMENT_3D('',#427,#341,#342);
#297=AXIS2_PLACEMENT_3D('',#428,#343,#344);
#298=AXIS2_PLACEMENT_3D('',#434,#348,#349);
#299=AXIS2_PLACEMENT_3D('',#438,#351,#352);
#300=AXIS2_PLACEMENT_3D('',#446,#356,#357);
#301=AXIS2_PLACEMENT_3D('',#448,#359,#360);
#302=AXIS2_PLACEMENT_3D('',#451,#363,#364);
#303=AXIS2_PLACEMENT_3D('',#452,#365,#366);
#304=AXIS2_PLACEMENT_3D('',#454,#367,#368);
#305=AXIS2_PLACEMENT_3D('',#456,#369,#370);
#306=AXIS2_PLACEMENT_3D('',#457,#371,#372);
#307=AXIS2_PLACEMENT_3D('',#459,#373,#374);
#308=AXIS2_PLACEMENT_3D('',#460,#375,#376);
#309=AXIS2_PLACEMENT_3D('',#461,#377,#378);
#310=AXIS2_PLACEMENT_3D('',#463,#379,#380);
#311=AXIS2_PLACEMENT_3D('',#464,#381,#382);
#312=AXIS2_PLACEMENT_3D('',#467,#385,#386);
#313=AXIS2_PLACEMENT_3D('',#470,#389,#390);
#314=AXIS2_PLACEMENT_3D('',#472,#392,#393);
#315=AXIS2_PLACEMENT_3D('',#474,#395,#396);
#316=AXIS2_PLACEMENT_3D('',#475,#397,#398);
#317=DIRECTION('',(0.,0.,1.));
#318=DIRECTION('',(1.,0.,0.));
#319=DIRECTION('',(0.,-1.,-5.41836582159554E-16));
#320=DIRECTION('',(0.,5.41836582159554E-16,-1.));
#321=DIRECTION('',(-0.984807753012208,-9.40889350852846E-17,0.17364817766693));
#322=DIRECTION('',(0.,-1.,-5.41836582159554E-16));
#323=DIRECTION('',(0.,5.41836582159554E-16,-1.));
#324=DIRECTION('',(0.,-5.41836582159554E-16,1.));
#325=DIRECTION('',(1.,0.,0.));
#326=DIRECTION('',(0.,-5.41836582159554E-16,1.));
#327=DIRECTION('',(0.,-1.,-5.41836582159554E-16));
#328=DIRECTION('',(0.,5.41836582159554E-16,-1.));
#329=DIRECTION('',(0.984807753012208,-9.40889350852843E-17,0.17364817766693));
#330=DIRECTION('',(-1.,0.,0.));
#331=DIRECTION('',(0.,-5.41836582159554E-16,1.));
#332=DIRECTION('',(0.,-1.,-5.41836582159554E-16));
#333=DIRECTION('',(0.,5.41836582159554E-16,-1.));
#334=DIRECTION('',(0.,1.,5.41836582159554E-16));
#335=DIRECTION('',(0.,-5.41836582159554E-16,1.));
#336=DIRECTION('',(0.,-1.,-5.41836582159554E-16));
#337=DIRECTION('',(0.17364817766693,5.33604866976365E-16,-0.984807753012208));
#338=DIRECTION('',(0.984807753012208,-9.40889350852843E-17,0.17364817766693));
#339=DIRECTION('',(0.,-5.41836582159554E-16,1.));
#340=DIRECTION('',(0.,-1.,-5.41836582159554E-16));
#341=DIRECTION('',(0.17364817766693,-5.33604866976365E-16,0.984807753012208));
#342=DIRECTION('',(-0.984807753012208,-9.40889350852841E-17,0.17364817766693));
#343=DIRECTION('',(-1.,0.,0.));
#344=DIRECTION('',(0.,0.,1.));
#345=DIRECTION('',(0.,1.,5.41836582159554E-16));
#346=DIRECTION('',(0.,-1.,-5.41836582159554E-16));
#347=DIRECTION('',(0.,-5.41836582159554E-16,1.));
#348=DIRECTION('',(0.,-1.,-5.41836582159554E-16));
#349=DIRECTION('',(0.,5.41836582159554E-16,-1.));
#350=DIRECTION('',(0.,-5.41836582159554E-16,1.));
#351=DIRECTION('',(0.,1.,5.41836582159554E-16));
#352=DIRECTION('',(0.,-5.41836582159554E-16,1.));
#353=DIRECTION('',(0.984807753012208,9.40889350852846E-17,-0.17364817766693));
#354=DIRECTION('',(1.,0.,0.));
#355=DIRECTION('',(-0.984807753012208,9.40889350852843E-17,-0.17364817766693));
#356=DIRECTION('',(0.,1.,5.41836582159554E-16));
#357=DIRECTION('',(0.,-5.41836582159554E-16,1.));
#358=DIRECTION('',(1.,0.,0.));
#359=DIRECTION('',(-1.,0.,0.));
#360=DIRECTION('',(0.,0.,1.));
#361=DIRECTION('',(0.,1.,5.41836582159554E-16));
#362=DIRECTION('',(0.,-1.,-5.41836582159554E-16));
#363=DIRECTION('',(0.,5.41836582159554E-16,-1.));
#364=DIRECTION('',(1.,0.,0.));
#365=DIRECTION('',(0.,5.41836582159554E-16,-1.));
#366=DIRECTION('',(0.,1.,5.41836582159554E-16));
#367=DIRECTION('',(0.,5.41836582159554E-16,-1.));
#368=DIRECTION('',(0.,1.,5.41836582159554E-16));
#369=DIRECTION('',(0.,-5.41836582159554E-16,1.));
#370=DIRECTION('',(0.,-1.,-5.41836582159554E-16));
#371=DIRECTION('',(0.,5.41836582159554E-16,-1.));
#372=DIRECTION('',(0.,1.,5.41836582159554E-16));
#373=DIRECTION('',(0.,5.41836582159554E-16,-1.));
#374=DIRECTION('',(1.,0.,0.));
#375=DIRECTION('',(0.,-5.41836582159554E-16,1.));
#376=DIRECTION('',(0.,-1.,-5.41836582159554E-16));
#377=DIRECTION('',(0.,5.41836582159554E-16,-1.));
#378=DIRECTION('',(0.,1.,5.41836582159554E-16));
#379=DIRECTION('',(0.,5.41836582159554E-16,-1.));
#380=DIRECTION('',(1.,0.,0.));
#381=DIRECTION('',(0.,-5.41836582159554E-16,1.));
#382=DIRECTION('',(0.,-1.,-5.41836582159554E-16));
#383=DIRECTION('',(0.,1.,5.41836582159554E-16));
#384=DIRECTION('',(0.,1.,5.41836582159554E-16));
#385=DIRECTION('',(0.17364817766693,5.33604866976365E-16,-0.984807753012208));
#386=DIRECTION('',(-0.984807753012208,0.,-0.17364817766693));
#387=DIRECTION('',(0.,1.,5.41836582159554E-16));
#388=DIRECTION('',(0.,1.,5.41836582159554E-16));
#389=DIRECTION('',(0.,-5.41836582159554E-16,1.));
#390=DIRECTION('',(0.,-1.,-5.41836582159554E-16));
#391=DIRECTION('',(0.,1.,5.41836582159554E-16));
#392=DIRECTION('',(0.17364817766693,-5.33604866976365E-16,0.984807753012208));
#393=DIRECTION('',(0.984807753012208,0.,-0.17364817766693));
#394=DIRECTION('',(0.,1.,5.41836582159554E-16));
#395=DIRECTION('',(0.,1.,5.41836582159554E-16));
#396=DIRECTION('',(0.,-5.41836582159554E-16,1.));
#397=DIRECTION('',(0.,1.,5.41836582159554E-16));
#398=DIRECTION('',(0.,-5.41836582159554E-16,1.));
#399=CARTESIAN_POINT('',(0.,0.,0.));
#400=CARTESIAN_POINT('',(0.0475,-0.0025,-0.0226));
#401=CARTESIAN_POINT('',(0.0479450800404555,-0.0025,-0.0200758256582902));
#402=CARTESIAN_POINT('',(0.0643054072893323,-0.0025,-0.0229605927654871));
#403=CARTESIAN_POINT('',(0.0495,-0.0025,-0.02035));
#404=CARTESIAN_POINT('',(0.065,-0.0025,-0.0190213617534382));
#405=CARTESIAN_POINT('',(0.069,-0.0025,-0.0190213617534382));
#406=CARTESIAN_POINT('',(0.069,-0.0025,-0.0226));
#407=CARTESIAN_POINT('',(0.069,-0.0025,-0.018));
#408=CARTESIAN_POINT('',(0.0475,-0.0025,-0.018));
#409=CARTESIAN_POINT('',(0.026,-0.0025,-0.018));
#410=CARTESIAN_POINT('',(0.026,-0.0025,-0.0226));
#411=CARTESIAN_POINT('',(0.026,-0.0025,-0.0190213617534382));
#412=CARTESIAN_POINT('',(0.03,-0.0025,-0.0190213617534382));
#413=CARTESIAN_POINT('',(0.0306945927106677,-0.0025,-0.0229605927654871));
#414=CARTESIAN_POINT('',(0.0470549199595445,-0.0025,-0.0200758256582902));
#415=CARTESIAN_POINT('',(0.0455,-0.0025,-0.02035));
#416=CARTESIAN_POINT('',(0.0475,-0.0025,-0.02035));
#417=CARTESIAN_POINT('',(0.0475,0.004,-0.0226));
#418=CARTESIAN_POINT('',(0.0475,0.004,-0.018));
#419=CARTESIAN_POINT('',(0.0475,0.009,-0.018));
#420=CARTESIAN_POINT('',(0.0475,0.004,-0.02035));
#421=CARTESIAN_POINT('',(0.0455,-0.000582575694955822,-0.02035));
#422=CARTESIAN_POINT('',(0.0495,-0.00058257569495582,-0.02035));
#423=CARTESIAN_POINT('',(0.0475,0.004,-0.0199973460385831));
#424=CARTESIAN_POINT('',(0.0455,0.00858257569495585,-0.02035));
#425=CARTESIAN_POINT('',(0.0475,0.004,-0.02035));
#426=CARTESIAN_POINT('',(0.0495,0.00858257569495585,-0.02035));
#427=CARTESIAN_POINT('',(0.0475,0.004,-0.0199973460385831));
#428=CARTESIAN_POINT('',(0.026,0.004,-0.0226));
#429=CARTESIAN_POINT('',(0.026,-0.0145,-0.0190213617534382));
#430=CARTESIAN_POINT('',(0.026,0.0105,-0.0190213617534382));
#431=CARTESIAN_POINT('',(0.026,0.004,-0.018));
#432=CARTESIAN_POINT('',(0.026,0.0105,-0.018));
#433=CARTESIAN_POINT('',(0.026,0.0105,-0.0226));
#434=CARTESIAN_POINT('',(0.0475,0.0105,-0.0226));
#435=CARTESIAN_POINT('',(0.069,0.0105,-0.0226));
#436=CARTESIAN_POINT('',(0.069,0.0105,-0.0190213617534382));
#437=CARTESIAN_POINT('',(0.069,0.0105,-0.018));
#438=CARTESIAN_POINT('',(0.065,0.0105,-0.0190213617534382));
#439=CARTESIAN_POINT('',(0.0643054072893323,0.0105,-0.0229605927654871));
#440=CARTESIAN_POINT('',(0.0569027036446661,0.0105,-0.0216552963827436));
#441=CARTESIAN_POINT('',(0.0495,0.0105,-0.02035));
#442=CARTESIAN_POINT('',(0.0475,0.0105,-0.02035));
#443=CARTESIAN_POINT('',(0.0455,0.0105,-0.02035));
#444=CARTESIAN_POINT('',(0.0380972963553338,0.0105,-0.0216552963827435));
#445=CARTESIAN_POINT('',(0.0306945927106677,0.0105,-0.0229605927654871));
#446=CARTESIAN_POINT('',(0.03,0.0105,-0.0190213617534382));
#447=CARTESIAN_POINT('',(0.0475,0.0105,-0.018));
#448=CARTESIAN_POINT('',(0.069,0.004,-0.0226));
#449=CARTESIAN_POINT('',(0.069,-0.0145,-0.0190213617534382));
#450=CARTESIAN_POINT('',(0.069,0.004,-0.018));
#451=CARTESIAN_POINT('',(0.0475,0.004,-0.018));
#452=CARTESIAN_POINT('',(0.03,0.004,-0.018));
#453=CARTESIAN_POINT('',(0.03,0.00575,-0.018));
#454=CARTESIAN_POINT('',(0.065,0.004,-0.018));
#455=CARTESIAN_POINT('',(0.065,0.00575,-0.018));
#456=CARTESIAN_POINT('',(0.065,0.004,-0.021));
#457=CARTESIAN_POINT('',(0.065,0.004,-0.021));
#458=CARTESIAN_POINT('',(0.065,0.00575,-0.021));
#459=CARTESIAN_POINT('',(0.0475,0.004,-0.021));
#460=CARTESIAN_POINT('',(0.03,0.004,-0.021));
#461=CARTESIAN_POINT('',(0.03,0.004,-0.021));
#462=CARTESIAN_POINT('',(0.03,0.00575,-0.021));
#463=CARTESIAN_POINT('',(0.0475,0.004,-0.021));
#464=CARTESIAN_POINT('',(0.0475,-0.0145,-0.02035));
#465=CARTESIAN_POINT('',(0.0455,-0.0145,-0.02035));
#466=CARTESIAN_POINT('',(0.0495,-0.0145,-0.02035));
#467=CARTESIAN_POINT('',(0.0380972963553338,-0.0145,-0.0216552963827436));
#468=CARTESIAN_POINT('',(0.0306945927106677,-0.0025,-0.0229605927654871));
#469=CARTESIAN_POINT('',(0.0455,-0.0145,-0.02035));
#470=CARTESIAN_POINT('',(0.0475,-0.0145,-0.02035));
#471=CARTESIAN_POINT('',(0.0495,-0.0145,-0.02035));
#472=CARTESIAN_POINT('',(0.0569027036446661,-0.0145,-0.0216552963827436));
#473=CARTESIAN_POINT('',(0.0643054072893323,-0.0025,-0.0229605927654871));
#474=CARTESIAN_POINT('',(0.03,-0.0145,-0.0190213617534382));
#475=CARTESIAN_POINT('',(0.065,-0.0145,-0.0190213617534382));
#476=MECHANICAL_DESIGN_GEOMETRIC_PRESENTATION_REPRESENTATION('',(#276),
#477);
#477=(
GEOMETRIC_REPRESENTATION_CONTEXT(3)
GLOBAL_UNCERTAINTY_ASSIGNED_CONTEXT((#478))
GLOBAL_UNIT_ASSIGNED_CONTEXT((#481,#480,#479))
REPRESENTATION_CONTEXT('Part 17','TOP_LEVEL_ASSEMBLY_PART')
);
#478=UNCERTAINTY_MEASURE_WITH_UNIT(LENGTH_MEASURE(1.E-8),#481,
'DISTANCE_ACCURACY_VALUE','Maximum Tolerance applied to model');
#479=(
NAMED_UNIT(*)
SI_UNIT($,.STERADIAN.)
SOLID_ANGLE_UNIT()
);
#480=(
NAMED_UNIT(*)
PLANE_ANGLE_UNIT()
SI_UNIT($,.RADIAN.)
);
#481=(
LENGTH_UNIT()
NAMED_UNIT(*)
SI_UNIT($,.METRE.)
);
#482=PRODUCT_DEFINITION_SHAPE('','',#483);
#483=PRODUCT_DEFINITION('','',#485,#484);
#484=PRODUCT_DEFINITION_CONTEXT('',#491,'design');
#485=PRODUCT_DEFINITION_FORMATION_WITH_SPECIFIED_SOURCE('','',#487,
 .NOT_KNOWN.);
#486=PRODUCT_RELATED_PRODUCT_CATEGORY('','',(#487));
#487=PRODUCT('Part 17','Part 17','Part 17',(#489));
#488=PRODUCT_CATEGORY('','');
#489=PRODUCT_CONTEXT('',#491,'mechanical');
#490=APPLICATION_PROTOCOL_DEFINITION('international standard',
'ap242_managed_model_based_3d_engineering',2011,#491);
#491=APPLICATION_CONTEXT('managed model based 3d engineering');
ENDSEC;
END-ISO-10303-21;
