ISO-10303-21;
HEADER;
/* Generated by software containing ST-Developer
 * from STEP Tools, Inc. (www.steptools.com) 
 */
/* OPTION: using custom renumber hook */

FILE_DESCRIPTION(
/* description */ ('STEP AP242',
'CAx-IF Rec.Pracs.---Representation and Presentation of Product Manufa
cturing Information (PMI)---4.0---2014-10-13',
'CAx-IF Rec.Pracs.---3D Tessellated Geometry---0.4---2014-09-14','2;1'),

/* implementation_level */ '2;1');

FILE_NAME(
/* name */ '68342538fe473b6e1abc231a',
/* time_stamp */ '2025-05-26T08:24:25Z',
/* author */ (''),
/* organization */ (''),
/* preprocessor_version */ 'ST-DEVELOPER v20',
/* originating_system */ 'ONSHAPE BY PTC INC, 1.198',
/* authorisation */ '  ');

FILE_SCHEMA (('AP242_MANAGED_MODEL_BASED_3D_ENGINEERING_MIM_LF { 1 0 10303 442 1 1 4 }'));
ENDSEC;

DATA;
#10=SHAPE_REPRESENTATION_RELATIONSHIP('','',#647,#11);
#11=ADVANCED_BREP_SHAPE_REPRESENTATION('',(#645),#1049);
#12=CIRCLE('',#652,0.00075);
#13=CIRCLE('',#653,0.00075);
#14=CIRCLE('',#669,0.0015);
#15=CIRCLE('',#670,0.0015);
#16=CIRCLE('',#672,0.0015);
#17=CIRCLE('',#673,0.0015);
#18=CIRCLE('',#675,0.00075);
#19=CIRCLE('',#676,0.00075);
#20=CIRCLE('',#678,0.00075);
#21=CIRCLE('',#679,0.00075);
#22=CIRCLE('',#681,0.00075);
#23=CIRCLE('',#682,0.00075);
#24=CIRCLE('',#684,0.00075);
#25=CIRCLE('',#685,0.00075);
#26=CIRCLE('',#687,0.00075);
#27=CIRCLE('',#688,0.00075);
#28=CIRCLE('',#690,0.00075);
#29=CIRCLE('',#691,0.00075);
#30=CIRCLE('',#693,0.00075);
#31=CIRCLE('',#694,0.00075);
#32=CIRCLE('',#696,0.00075);
#33=CIRCLE('',#697,0.00075);
#34=CIRCLE('',#699,0.00075);
#35=CIRCLE('',#700,0.00075);
#36=CIRCLE('',#703,0.0015);
#37=CIRCLE('',#704,0.0015);
#38=CYLINDRICAL_SURFACE('',#651,0.00075);
#39=CYLINDRICAL_SURFACE('',#668,0.0015);
#40=CYLINDRICAL_SURFACE('',#671,0.0015);
#41=CYLINDRICAL_SURFACE('',#674,0.00075);
#42=CYLINDRICAL_SURFACE('',#677,0.00075);
#43=CYLINDRICAL_SURFACE('',#680,0.00075);
#44=CYLINDRICAL_SURFACE('',#683,0.00075);
#45=CYLINDRICAL_SURFACE('',#686,0.00075);
#46=CYLINDRICAL_SURFACE('',#689,0.00075);
#47=CYLINDRICAL_SURFACE('',#692,0.00075);
#48=CYLINDRICAL_SURFACE('',#695,0.00075);
#49=CYLINDRICAL_SURFACE('',#698,0.00075);
#50=CYLINDRICAL_SURFACE('',#702,0.0015);
#51=ORIENTED_EDGE('',*,*,#207,.F.);
#52=ORIENTED_EDGE('',*,*,#208,.F.);
#53=ORIENTED_EDGE('',*,*,#209,.T.);
#54=ORIENTED_EDGE('',*,*,#210,.T.);
#55=ORIENTED_EDGE('',*,*,#211,.F.);
#56=ORIENTED_EDGE('',*,*,#212,.F.);
#57=ORIENTED_EDGE('',*,*,#213,.T.);
#58=ORIENTED_EDGE('',*,*,#208,.T.);
#59=ORIENTED_EDGE('',*,*,#214,.F.);
#60=ORIENTED_EDGE('',*,*,#215,.F.);
#61=ORIENTED_EDGE('',*,*,#216,.T.);
#62=ORIENTED_EDGE('',*,*,#212,.T.);
#63=ORIENTED_EDGE('',*,*,#217,.F.);
#64=ORIENTED_EDGE('',*,*,#218,.F.);
#65=ORIENTED_EDGE('',*,*,#219,.T.);
#66=ORIENTED_EDGE('',*,*,#215,.T.);
#67=ORIENTED_EDGE('',*,*,#220,.F.);
#68=ORIENTED_EDGE('',*,*,#221,.F.);
#69=ORIENTED_EDGE('',*,*,#222,.T.);
#70=ORIENTED_EDGE('',*,*,#218,.T.);
#71=ORIENTED_EDGE('',*,*,#223,.T.);
#72=ORIENTED_EDGE('',*,*,#224,.F.);
#73=ORIENTED_EDGE('',*,*,#225,.F.);
#74=ORIENTED_EDGE('',*,*,#221,.T.);
#75=ORIENTED_EDGE('',*,*,#226,.F.);
#76=ORIENTED_EDGE('',*,*,#227,.F.);
#77=ORIENTED_EDGE('',*,*,#228,.T.);
#78=ORIENTED_EDGE('',*,*,#224,.T.);
#79=ORIENTED_EDGE('',*,*,#229,.F.);
#80=ORIENTED_EDGE('',*,*,#230,.F.);
#81=ORIENTED_EDGE('',*,*,#231,.T.);
#82=ORIENTED_EDGE('',*,*,#227,.T.);
#83=ORIENTED_EDGE('',*,*,#232,.T.);
#84=ORIENTED_EDGE('',*,*,#233,.F.);
#85=ORIENTED_EDGE('',*,*,#234,.F.);
#86=ORIENTED_EDGE('',*,*,#230,.T.);
#87=ORIENTED_EDGE('',*,*,#235,.T.);
#88=ORIENTED_EDGE('',*,*,#236,.F.);
#89=ORIENTED_EDGE('',*,*,#237,.F.);
#90=ORIENTED_EDGE('',*,*,#233,.T.);
#91=ORIENTED_EDGE('',*,*,#238,.T.);
#92=ORIENTED_EDGE('',*,*,#239,.F.);
#93=ORIENTED_EDGE('',*,*,#240,.F.);
#94=ORIENTED_EDGE('',*,*,#236,.T.);
#95=ORIENTED_EDGE('',*,*,#241,.T.);
#96=ORIENTED_EDGE('',*,*,#242,.F.);
#97=ORIENTED_EDGE('',*,*,#243,.F.);
#98=ORIENTED_EDGE('',*,*,#239,.T.);
#99=ORIENTED_EDGE('',*,*,#244,.T.);
#100=ORIENTED_EDGE('',*,*,#245,.F.);
#101=ORIENTED_EDGE('',*,*,#246,.F.);
#102=ORIENTED_EDGE('',*,*,#242,.T.);
#103=ORIENTED_EDGE('',*,*,#247,.T.);
#104=ORIENTED_EDGE('',*,*,#248,.F.);
#105=ORIENTED_EDGE('',*,*,#249,.F.);
#106=ORIENTED_EDGE('',*,*,#245,.T.);
#107=ORIENTED_EDGE('',*,*,#250,.T.);
#108=ORIENTED_EDGE('',*,*,#251,.F.);
#109=ORIENTED_EDGE('',*,*,#252,.F.);
#110=ORIENTED_EDGE('',*,*,#248,.T.);
#111=ORIENTED_EDGE('',*,*,#253,.T.);
#112=ORIENTED_EDGE('',*,*,#254,.F.);
#113=ORIENTED_EDGE('',*,*,#255,.F.);
#114=ORIENTED_EDGE('',*,*,#251,.T.);
#115=ORIENTED_EDGE('',*,*,#256,.T.);
#116=ORIENTED_EDGE('',*,*,#257,.F.);
#117=ORIENTED_EDGE('',*,*,#258,.F.);
#118=ORIENTED_EDGE('',*,*,#254,.T.);
#119=ORIENTED_EDGE('',*,*,#259,.T.);
#120=ORIENTED_EDGE('',*,*,#260,.F.);
#121=ORIENTED_EDGE('',*,*,#261,.T.);
#122=ORIENTED_EDGE('',*,*,#262,.F.);
#123=ORIENTED_EDGE('',*,*,#263,.T.);
#124=ORIENTED_EDGE('',*,*,#264,.F.);
#125=ORIENTED_EDGE('',*,*,#265,.T.);
#126=ORIENTED_EDGE('',*,*,#266,.F.);
#127=ORIENTED_EDGE('',*,*,#267,.T.);
#128=ORIENTED_EDGE('',*,*,#268,.F.);
#129=ORIENTED_EDGE('',*,*,#269,.T.);
#130=ORIENTED_EDGE('',*,*,#270,.F.);
#131=ORIENTED_EDGE('',*,*,#271,.T.);
#132=ORIENTED_EDGE('',*,*,#272,.F.);
#133=ORIENTED_EDGE('',*,*,#273,.T.);
#134=ORIENTED_EDGE('',*,*,#274,.F.);
#135=ORIENTED_EDGE('',*,*,#275,.T.);
#136=ORIENTED_EDGE('',*,*,#276,.F.);
#137=ORIENTED_EDGE('',*,*,#277,.T.);
#138=ORIENTED_EDGE('',*,*,#278,.F.);
#139=ORIENTED_EDGE('',*,*,#279,.T.);
#140=ORIENTED_EDGE('',*,*,#280,.F.);
#141=ORIENTED_EDGE('',*,*,#281,.F.);
#142=ORIENTED_EDGE('',*,*,#210,.F.);
#143=ORIENTED_EDGE('',*,*,#282,.T.);
#144=ORIENTED_EDGE('',*,*,#257,.T.);
#145=ORIENTED_EDGE('',*,*,#283,.T.);
#146=ORIENTED_EDGE('',*,*,#284,.F.);
#147=ORIENTED_EDGE('',*,*,#209,.F.);
#148=ORIENTED_EDGE('',*,*,#213,.F.);
#149=ORIENTED_EDGE('',*,*,#216,.F.);
#150=ORIENTED_EDGE('',*,*,#219,.F.);
#151=ORIENTED_EDGE('',*,*,#222,.F.);
#152=ORIENTED_EDGE('',*,*,#225,.T.);
#153=ORIENTED_EDGE('',*,*,#228,.F.);
#154=ORIENTED_EDGE('',*,*,#231,.F.);
#155=ORIENTED_EDGE('',*,*,#234,.T.);
#156=ORIENTED_EDGE('',*,*,#237,.T.);
#157=ORIENTED_EDGE('',*,*,#240,.T.);
#158=ORIENTED_EDGE('',*,*,#243,.T.);
#159=ORIENTED_EDGE('',*,*,#246,.T.);
#160=ORIENTED_EDGE('',*,*,#249,.T.);
#161=ORIENTED_EDGE('',*,*,#252,.T.);
#162=ORIENTED_EDGE('',*,*,#255,.T.);
#163=ORIENTED_EDGE('',*,*,#258,.T.);
#164=ORIENTED_EDGE('',*,*,#282,.F.);
#165=ORIENTED_EDGE('',*,*,#279,.F.);
#166=ORIENTED_EDGE('',*,*,#277,.F.);
#167=ORIENTED_EDGE('',*,*,#275,.F.);
#168=ORIENTED_EDGE('',*,*,#273,.F.);
#169=ORIENTED_EDGE('',*,*,#271,.F.);
#170=ORIENTED_EDGE('',*,*,#269,.F.);
#171=ORIENTED_EDGE('',*,*,#267,.F.);
#172=ORIENTED_EDGE('',*,*,#265,.F.);
#173=ORIENTED_EDGE('',*,*,#263,.F.);
#174=ORIENTED_EDGE('',*,*,#261,.F.);
#175=ORIENTED_EDGE('',*,*,#259,.F.);
#176=ORIENTED_EDGE('',*,*,#283,.F.);
#177=ORIENTED_EDGE('',*,*,#207,.T.);
#178=ORIENTED_EDGE('',*,*,#281,.T.);
#179=ORIENTED_EDGE('',*,*,#256,.F.);
#180=ORIENTED_EDGE('',*,*,#253,.F.);
#181=ORIENTED_EDGE('',*,*,#250,.F.);
#182=ORIENTED_EDGE('',*,*,#247,.F.);
#183=ORIENTED_EDGE('',*,*,#244,.F.);
#184=ORIENTED_EDGE('',*,*,#241,.F.);
#185=ORIENTED_EDGE('',*,*,#238,.F.);
#186=ORIENTED_EDGE('',*,*,#235,.F.);
#187=ORIENTED_EDGE('',*,*,#232,.F.);
#188=ORIENTED_EDGE('',*,*,#229,.T.);
#189=ORIENTED_EDGE('',*,*,#226,.T.);
#190=ORIENTED_EDGE('',*,*,#223,.F.);
#191=ORIENTED_EDGE('',*,*,#220,.T.);
#192=ORIENTED_EDGE('',*,*,#217,.T.);
#193=ORIENTED_EDGE('',*,*,#214,.T.);
#194=ORIENTED_EDGE('',*,*,#211,.T.);
#195=ORIENTED_EDGE('',*,*,#280,.T.);
#196=ORIENTED_EDGE('',*,*,#278,.T.);
#197=ORIENTED_EDGE('',*,*,#276,.T.);
#198=ORIENTED_EDGE('',*,*,#274,.T.);
#199=ORIENTED_EDGE('',*,*,#272,.T.);
#200=ORIENTED_EDGE('',*,*,#270,.T.);
#201=ORIENTED_EDGE('',*,*,#268,.T.);
#202=ORIENTED_EDGE('',*,*,#266,.T.);
#203=ORIENTED_EDGE('',*,*,#264,.T.);
#204=ORIENTED_EDGE('',*,*,#262,.T.);
#205=ORIENTED_EDGE('',*,*,#260,.T.);
#206=ORIENTED_EDGE('',*,*,#284,.T.);
#207=EDGE_CURVE('',#285,#286,#345,.T.);
#208=EDGE_CURVE('',#287,#285,#346,.T.);
#209=EDGE_CURVE('',#287,#288,#347,.T.);
#210=EDGE_CURVE('',#288,#286,#348,.T.);
#211=EDGE_CURVE('',#289,#285,#349,.T.);
#212=EDGE_CURVE('',#290,#289,#350,.T.);
#213=EDGE_CURVE('',#290,#287,#351,.T.);
#214=EDGE_CURVE('',#291,#289,#12,.T.);
#215=EDGE_CURVE('',#292,#291,#352,.T.);
#216=EDGE_CURVE('',#292,#290,#13,.T.);
#217=EDGE_CURVE('',#293,#291,#353,.T.);
#218=EDGE_CURVE('',#294,#293,#354,.T.);
#219=EDGE_CURVE('',#294,#292,#355,.T.);
#220=EDGE_CURVE('',#295,#293,#356,.T.);
#221=EDGE_CURVE('',#296,#295,#357,.T.);
#222=EDGE_CURVE('',#296,#294,#358,.T.);
#223=EDGE_CURVE('',#295,#297,#359,.T.);
#224=EDGE_CURVE('',#298,#297,#360,.T.);
#225=EDGE_CURVE('',#296,#298,#361,.T.);
#226=EDGE_CURVE('',#299,#297,#362,.T.);
#227=EDGE_CURVE('',#300,#299,#363,.T.);
#228=EDGE_CURVE('',#300,#298,#364,.T.);
#229=EDGE_CURVE('',#301,#299,#365,.T.);
#230=EDGE_CURVE('',#302,#301,#366,.T.);
#231=EDGE_CURVE('',#302,#300,#367,.T.);
#232=EDGE_CURVE('',#301,#303,#368,.T.);
#233=EDGE_CURVE('',#304,#303,#369,.T.);
#234=EDGE_CURVE('',#302,#304,#370,.T.);
#235=EDGE_CURVE('',#303,#305,#371,.T.);
#236=EDGE_CURVE('',#306,#305,#372,.T.);
#237=EDGE_CURVE('',#304,#306,#373,.T.);
#238=EDGE_CURVE('',#305,#307,#374,.T.);
#239=EDGE_CURVE('',#308,#307,#375,.T.);
#240=EDGE_CURVE('',#306,#308,#376,.T.);
#241=EDGE_CURVE('',#307,#309,#377,.T.);
#242=EDGE_CURVE('',#310,#309,#378,.T.);
#243=EDGE_CURVE('',#308,#310,#379,.T.);
#244=EDGE_CURVE('',#309,#311,#380,.T.);
#245=EDGE_CURVE('',#312,#311,#381,.T.);
#246=EDGE_CURVE('',#310,#312,#382,.T.);
#247=EDGE_CURVE('',#311,#313,#383,.T.);
#248=EDGE_CURVE('',#314,#313,#384,.T.);
#249=EDGE_CURVE('',#312,#314,#385,.T.);
#250=EDGE_CURVE('',#313,#315,#386,.T.);
#251=EDGE_CURVE('',#316,#315,#387,.T.);
#252=EDGE_CURVE('',#314,#316,#388,.T.);
#253=EDGE_CURVE('',#315,#317,#389,.T.);
#254=EDGE_CURVE('',#318,#317,#390,.T.);
#255=EDGE_CURVE('',#316,#318,#391,.T.);
#256=EDGE_CURVE('',#317,#319,#392,.T.);
#257=EDGE_CURVE('',#320,#319,#393,.T.);
#258=EDGE_CURVE('',#318,#320,#394,.T.);
#259=EDGE_CURVE('',#321,#321,#14,.T.);
#260=EDGE_CURVE('',#322,#322,#15,.T.);
#261=EDGE_CURVE('',#323,#323,#16,.T.);
#262=EDGE_CURVE('',#324,#324,#17,.T.);
#263=EDGE_CURVE('',#325,#325,#18,.T.);
#264=EDGE_CURVE('',#326,#326,#19,.T.);
#265=EDGE_CURVE('',#327,#327,#20,.T.);
#266=EDGE_CURVE('',#328,#328,#21,.T.);
#267=EDGE_CURVE('',#329,#329,#22,.T.);
#268=EDGE_CURVE('',#330,#330,#23,.T.);
#269=EDGE_CURVE('',#331,#331,#24,.T.);
#270=EDGE_CURVE('',#332,#332,#25,.T.);
#271=EDGE_CURVE('',#333,#333,#26,.T.);
#272=EDGE_CURVE('',#334,#334,#27,.T.);
#273=EDGE_CURVE('',#335,#335,#28,.T.);
#274=EDGE_CURVE('',#336,#336,#29,.T.);
#275=EDGE_CURVE('',#337,#337,#30,.T.);
#276=EDGE_CURVE('',#338,#338,#31,.T.);
#277=EDGE_CURVE('',#339,#339,#32,.T.);
#278=EDGE_CURVE('',#340,#340,#33,.T.);
#279=EDGE_CURVE('',#341,#341,#34,.T.);
#280=EDGE_CURVE('',#342,#342,#35,.T.);
#281=EDGE_CURVE('',#286,#319,#395,.T.);
#282=EDGE_CURVE('',#288,#320,#396,.T.);
#283=EDGE_CURVE('',#343,#343,#36,.T.);
#284=EDGE_CURVE('',#344,#344,#37,.T.);
#285=VERTEX_POINT('',#880);
#286=VERTEX_POINT('',#881);
#287=VERTEX_POINT('',#883);
#288=VERTEX_POINT('',#885);
#289=VERTEX_POINT('',#889);
#290=VERTEX_POINT('',#891);
#291=VERTEX_POINT('',#895);
#292=VERTEX_POINT('',#897);
#293=VERTEX_POINT('',#901);
#294=VERTEX_POINT('',#903);
#295=VERTEX_POINT('',#907);
#296=VERTEX_POINT('',#909);
#297=VERTEX_POINT('',#913);
#298=VERTEX_POINT('',#915);
#299=VERTEX_POINT('',#919);
#300=VERTEX_POINT('',#921);
#301=VERTEX_POINT('',#925);
#302=VERTEX_POINT('',#927);
#303=VERTEX_POINT('',#931);
#304=VERTEX_POINT('',#933);
#305=VERTEX_POINT('',#937);
#306=VERTEX_POINT('',#939);
#307=VERTEX_POINT('',#943);
#308=VERTEX_POINT('',#945);
#309=VERTEX_POINT('',#949);
#310=VERTEX_POINT('',#951);
#311=VERTEX_POINT('',#955);
#312=VERTEX_POINT('',#957);
#313=VERTEX_POINT('',#961);
#314=VERTEX_POINT('',#963);
#315=VERTEX_POINT('',#967);
#316=VERTEX_POINT('',#969);
#317=VERTEX_POINT('',#973);
#318=VERTEX_POINT('',#975);
#319=VERTEX_POINT('',#979);
#320=VERTEX_POINT('',#981);
#321=VERTEX_POINT('',#985);
#322=VERTEX_POINT('',#987);
#323=VERTEX_POINT('',#990);
#324=VERTEX_POINT('',#992);
#325=VERTEX_POINT('',#995);
#326=VERTEX_POINT('',#997);
#327=VERTEX_POINT('',#1000);
#328=VERTEX_POINT('',#1002);
#329=VERTEX_POINT('',#1005);
#330=VERTEX_POINT('',#1007);
#331=VERTEX_POINT('',#1010);
#332=VERTEX_POINT('',#1012);
#333=VERTEX_POINT('',#1015);
#334=VERTEX_POINT('',#1017);
#335=VERTEX_POINT('',#1020);
#336=VERTEX_POINT('',#1022);
#337=VERTEX_POINT('',#1025);
#338=VERTEX_POINT('',#1027);
#339=VERTEX_POINT('',#1030);
#340=VERTEX_POINT('',#1032);
#341=VERTEX_POINT('',#1035);
#342=VERTEX_POINT('',#1037);
#343=VERTEX_POINT('',#1043);
#344=VERTEX_POINT('',#1045);
#345=LINE('',#879,#397);
#346=LINE('',#882,#398);
#347=LINE('',#884,#399);
#348=LINE('',#886,#400);
#349=LINE('',#888,#401);
#350=LINE('',#890,#402);
#351=LINE('',#892,#403);
#352=LINE('',#896,#404);
#353=LINE('',#900,#405);
#354=LINE('',#902,#406);
#355=LINE('',#904,#407);
#356=LINE('',#906,#408);
#357=LINE('',#908,#409);
#358=LINE('',#910,#410);
#359=LINE('',#912,#411);
#360=LINE('',#914,#412);
#361=LINE('',#916,#413);
#362=LINE('',#918,#414);
#363=LINE('',#920,#415);
#364=LINE('',#922,#416);
#365=LINE('',#924,#417);
#366=LINE('',#926,#418);
#367=LINE('',#928,#419);
#368=LINE('',#930,#420);
#369=LINE('',#932,#421);
#370=LINE('',#934,#422);
#371=LINE('',#936,#423);
#372=LINE('',#938,#424);
#373=LINE('',#940,#425);
#374=LINE('',#942,#426);
#375=LINE('',#944,#427);
#376=LINE('',#946,#428);
#377=LINE('',#948,#429);
#378=LINE('',#950,#430);
#379=LINE('',#952,#431);
#380=LINE('',#954,#432);
#381=LINE('',#956,#433);
#382=LINE('',#958,#434);
#383=LINE('',#960,#435);
#384=LINE('',#962,#436);
#385=LINE('',#964,#437);
#386=LINE('',#966,#438);
#387=LINE('',#968,#439);
#388=LINE('',#970,#440);
#389=LINE('',#972,#441);
#390=LINE('',#974,#442);
#391=LINE('',#976,#443);
#392=LINE('',#978,#444);
#393=LINE('',#980,#445);
#394=LINE('',#982,#446);
#395=LINE('',#1039,#447);
#396=LINE('',#1040,#448);
#397=VECTOR('',#711,1.);
#398=VECTOR('',#712,1.);
#399=VECTOR('',#713,1.);
#400=VECTOR('',#714,1.);
#401=VECTOR('',#717,1.);
#402=VECTOR('',#718,1.);
#403=VECTOR('',#719,1.);
#404=VECTOR('',#724,1.);
#405=VECTOR('',#729,1.);
#406=VECTOR('',#730,1.);
#407=VECTOR('',#731,1.);
#408=VECTOR('',#734,1.);
#409=VECTOR('',#735,1.);
#410=VECTOR('',#736,1.);
#411=VECTOR('',#739,1.);
#412=VECTOR('',#740,1.);
#413=VECTOR('',#741,1.);
#414=VECTOR('',#744,1.);
#415=VECTOR('',#745,1.);
#416=VECTOR('',#746,1.);
#417=VECTOR('',#749,1.);
#418=VECTOR('',#750,1.);
#419=VECTOR('',#751,1.);
#420=VECTOR('',#754,1.);
#421=VECTOR('',#755,1.);
#422=VECTOR('',#756,1.);
#423=VECTOR('',#759,1.);
#424=VECTOR('',#760,1.);
#425=VECTOR('',#761,1.);
#426=VECTOR('',#764,1.);
#427=VECTOR('',#765,1.);
#428=VECTOR('',#766,1.);
#429=VECTOR('',#769,1.);
#430=VECTOR('',#770,1.);
#431=VECTOR('',#771,1.);
#432=VECTOR('',#774,1.);
#433=VECTOR('',#775,1.);
#434=VECTOR('',#776,1.);
#435=VECTOR('',#779,1.);
#436=VECTOR('',#780,1.);
#437=VECTOR('',#781,1.);
#438=VECTOR('',#784,1.);
#439=VECTOR('',#785,1.);
#440=VECTOR('',#786,1.);
#441=VECTOR('',#789,1.);
#442=VECTOR('',#790,1.);
#443=VECTOR('',#791,1.);
#444=VECTOR('',#794,1.);
#445=VECTOR('',#795,1.);
#446=VECTOR('',#796,1.);
#447=VECTOR('',#865,1.);
#448=VECTOR('',#866,1.);
#449=EDGE_LOOP('',(#51,#52,#53,#54));
#450=EDGE_LOOP('',(#55,#56,#57,#58));
#451=EDGE_LOOP('',(#59,#60,#61,#62));
#452=EDGE_LOOP('',(#63,#64,#65,#66));
#453=EDGE_LOOP('',(#67,#68,#69,#70));
#454=EDGE_LOOP('',(#71,#72,#73,#74));
#455=EDGE_LOOP('',(#75,#76,#77,#78));
#456=EDGE_LOOP('',(#79,#80,#81,#82));
#457=EDGE_LOOP('',(#83,#84,#85,#86));
#458=EDGE_LOOP('',(#87,#88,#89,#90));
#459=EDGE_LOOP('',(#91,#92,#93,#94));
#460=EDGE_LOOP('',(#95,#96,#97,#98));
#461=EDGE_LOOP('',(#99,#100,#101,#102));
#462=EDGE_LOOP('',(#103,#104,#105,#106));
#463=EDGE_LOOP('',(#107,#108,#109,#110));
#464=EDGE_LOOP('',(#111,#112,#113,#114));
#465=EDGE_LOOP('',(#115,#116,#117,#118));
#466=EDGE_LOOP('',(#119));
#467=EDGE_LOOP('',(#120));
#468=EDGE_LOOP('',(#121));
#469=EDGE_LOOP('',(#122));
#470=EDGE_LOOP('',(#123));
#471=EDGE_LOOP('',(#124));
#472=EDGE_LOOP('',(#125));
#473=EDGE_LOOP('',(#126));
#474=EDGE_LOOP('',(#127));
#475=EDGE_LOOP('',(#128));
#476=EDGE_LOOP('',(#129));
#477=EDGE_LOOP('',(#130));
#478=EDGE_LOOP('',(#131));
#479=EDGE_LOOP('',(#132));
#480=EDGE_LOOP('',(#133));
#481=EDGE_LOOP('',(#134));
#482=EDGE_LOOP('',(#135));
#483=EDGE_LOOP('',(#136));
#484=EDGE_LOOP('',(#137));
#485=EDGE_LOOP('',(#138));
#486=EDGE_LOOP('',(#139));
#487=EDGE_LOOP('',(#140));
#488=EDGE_LOOP('',(#141,#142,#143,#144));
#489=EDGE_LOOP('',(#145));
#490=EDGE_LOOP('',(#146));
#491=EDGE_LOOP('',(#147,#148,#149,#150,#151,#152,#153,#154,#155,#156,#157,
#158,#159,#160,#161,#162,#163,#164));
#492=EDGE_LOOP('',(#165));
#493=EDGE_LOOP('',(#166));
#494=EDGE_LOOP('',(#167));
#495=EDGE_LOOP('',(#168));
#496=EDGE_LOOP('',(#169));
#497=EDGE_LOOP('',(#170));
#498=EDGE_LOOP('',(#171));
#499=EDGE_LOOP('',(#172));
#500=EDGE_LOOP('',(#173));
#501=EDGE_LOOP('',(#174));
#502=EDGE_LOOP('',(#175));
#503=EDGE_LOOP('',(#176));
#504=EDGE_LOOP('',(#177,#178,#179,#180,#181,#182,#183,#184,#185,#186,#187,
#188,#189,#190,#191,#192,#193,#194));
#505=EDGE_LOOP('',(#195));
#506=EDGE_LOOP('',(#196));
#507=EDGE_LOOP('',(#197));
#508=EDGE_LOOP('',(#198));
#509=EDGE_LOOP('',(#199));
#510=EDGE_LOOP('',(#200));
#511=EDGE_LOOP('',(#201));
#512=EDGE_LOOP('',(#202));
#513=EDGE_LOOP('',(#203));
#514=EDGE_LOOP('',(#204));
#515=EDGE_LOOP('',(#205));
#516=EDGE_LOOP('',(#206));
#517=FACE_BOUND('',#449,.T.);
#518=FACE_BOUND('',#450,.T.);
#519=FACE_BOUND('',#451,.T.);
#520=FACE_BOUND('',#452,.T.);
#521=FACE_BOUND('',#453,.T.);
#522=FACE_BOUND('',#454,.T.);
#523=FACE_BOUND('',#455,.T.);
#524=FACE_BOUND('',#456,.T.);
#525=FACE_BOUND('',#457,.T.);
#526=FACE_BOUND('',#458,.T.);
#527=FACE_BOUND('',#459,.T.);
#528=FACE_BOUND('',#460,.T.);
#529=FACE_BOUND('',#461,.T.);
#530=FACE_BOUND('',#462,.T.);
#531=FACE_BOUND('',#463,.T.);
#532=FACE_BOUND('',#464,.T.);
#533=FACE_BOUND('',#465,.T.);
#534=FACE_BOUND('',#466,.T.);
#535=FACE_BOUND('',#467,.T.);
#536=FACE_BOUND('',#468,.T.);
#537=FACE_BOUND('',#469,.T.);
#538=FACE_BOUND('',#470,.T.);
#539=FACE_BOUND('',#471,.T.);
#540=FACE_BOUND('',#472,.T.);
#541=FACE_BOUND('',#473,.T.);
#542=FACE_BOUND('',#474,.T.);
#543=FACE_BOUND('',#475,.T.);
#544=FACE_BOUND('',#476,.T.);
#545=FACE_BOUND('',#477,.T.);
#546=FACE_BOUND('',#478,.T.);
#547=FACE_BOUND('',#479,.T.);
#548=FACE_BOUND('',#480,.T.);
#549=FACE_BOUND('',#481,.T.);
#550=FACE_BOUND('',#482,.T.);
#551=FACE_BOUND('',#483,.T.);
#552=FACE_BOUND('',#484,.T.);
#553=FACE_BOUND('',#485,.T.);
#554=FACE_BOUND('',#486,.T.);
#555=FACE_BOUND('',#487,.T.);
#556=FACE_BOUND('',#488,.T.);
#557=FACE_BOUND('',#489,.T.);
#558=FACE_BOUND('',#490,.T.);
#559=FACE_BOUND('',#491,.T.);
#560=FACE_BOUND('',#492,.T.);
#561=FACE_BOUND('',#493,.T.);
#562=FACE_BOUND('',#494,.T.);
#563=FACE_BOUND('',#495,.T.);
#564=FACE_BOUND('',#496,.T.);
#565=FACE_BOUND('',#497,.T.);
#566=FACE_BOUND('',#498,.T.);
#567=FACE_BOUND('',#499,.T.);
#568=FACE_BOUND('',#500,.T.);
#569=FACE_BOUND('',#501,.T.);
#570=FACE_BOUND('',#502,.T.);
#571=FACE_BOUND('',#503,.T.);
#572=FACE_BOUND('',#504,.T.);
#573=FACE_BOUND('',#505,.T.);
#574=FACE_BOUND('',#506,.T.);
#575=FACE_BOUND('',#507,.T.);
#576=FACE_BOUND('',#508,.T.);
#577=FACE_BOUND('',#509,.T.);
#578=FACE_BOUND('',#510,.T.);
#579=FACE_BOUND('',#511,.T.);
#580=FACE_BOUND('',#512,.T.);
#581=FACE_BOUND('',#513,.T.);
#582=FACE_BOUND('',#514,.T.);
#583=FACE_BOUND('',#515,.T.);
#584=FACE_BOUND('',#516,.T.);
#585=PLANE('',#649);
#586=PLANE('',#650);
#587=PLANE('',#654);
#588=PLANE('',#655);
#589=PLANE('',#656);
#590=PLANE('',#657);
#591=PLANE('',#658);
#592=PLANE('',#659);
#593=PLANE('',#660);
#594=PLANE('',#661);
#595=PLANE('',#662);
#596=PLANE('',#663);
#597=PLANE('',#664);
#598=PLANE('',#665);
#599=PLANE('',#666);
#600=PLANE('',#667);
#601=PLANE('',#701);
#602=PLANE('',#705);
#603=PLANE('',#706);
#604=ADVANCED_FACE('',(#517),#585,.T.);
#605=ADVANCED_FACE('',(#518),#586,.T.);
#606=ADVANCED_FACE('',(#519),#38,.F.);
#607=ADVANCED_FACE('',(#520),#587,.T.);
#608=ADVANCED_FACE('',(#521),#588,.T.);
#609=ADVANCED_FACE('',(#522),#589,.F.);
#610=ADVANCED_FACE('',(#523),#590,.T.);
#611=ADVANCED_FACE('',(#524),#591,.T.);
#612=ADVANCED_FACE('',(#525),#592,.F.);
#613=ADVANCED_FACE('',(#526),#593,.F.);
#614=ADVANCED_FACE('',(#527),#594,.F.);
#615=ADVANCED_FACE('',(#528),#595,.F.);
#616=ADVANCED_FACE('',(#529),#596,.F.);
#617=ADVANCED_FACE('',(#530),#597,.F.);
#618=ADVANCED_FACE('',(#531),#598,.F.);
#619=ADVANCED_FACE('',(#532),#599,.F.);
#620=ADVANCED_FACE('',(#533),#600,.F.);
#621=ADVANCED_FACE('',(#534,#535),#39,.F.);
#622=ADVANCED_FACE('',(#536,#537),#40,.F.);
#623=ADVANCED_FACE('',(#538,#539),#41,.F.);
#624=ADVANCED_FACE('',(#540,#541),#42,.F.);
#625=ADVANCED_FACE('',(#542,#543),#43,.F.);
#626=ADVANCED_FACE('',(#544,#545),#44,.F.);
#627=ADVANCED_FACE('',(#546,#547),#45,.F.);
#628=ADVANCED_FACE('',(#548,#549),#46,.F.);
#629=ADVANCED_FACE('',(#550,#551),#47,.F.);
#630=ADVANCED_FACE('',(#552,#553),#48,.F.);
#631=ADVANCED_FACE('',(#554,#555),#49,.F.);
#632=ADVANCED_FACE('',(#556),#601,.T.);
#633=ADVANCED_FACE('',(#557,#558),#50,.F.);
#634=ADVANCED_FACE('',(#559,#560,#561,#562,#563,#564,#565,#566,#567,#568,
#569,#570,#571),#602,.T.);
#635=ADVANCED_FACE('',(#572,#573,#574,#575,#576,#577,#578,#579,#580,#581,
#582,#583,#584),#603,.F.);
#636=CLOSED_SHELL('',(#604,#605,#606,#607,#608,#609,#610,#611,#612,#613,
#614,#615,#616,#617,#618,#619,#620,#621,#622,#623,#624,#625,#626,#627,#628,
#629,#630,#631,#632,#633,#634,#635));
#637=STYLED_ITEM('',(#638),#645);
#638=PRESENTATION_STYLE_ASSIGNMENT((#639));
#639=SURFACE_STYLE_USAGE(.BOTH.,#640);
#640=SURFACE_SIDE_STYLE('',(#641));
#641=SURFACE_STYLE_FILL_AREA(#642);
#642=FILL_AREA_STYLE('',(#643));
#643=FILL_AREA_STYLE_COLOUR('',#644);
#644=COLOUR_RGB('',0.615686274509804,0.811764705882353,0.929411764705882);
#645=MANIFOLD_SOLID_BREP('Analog_Stick_Secure',#636);
#646=SHAPE_DEFINITION_REPRESENTATION(#1054,#647);
#647=SHAPE_REPRESENTATION('Analog_Stick_Secure',(#648),#1049);
#648=AXIS2_PLACEMENT_3D('',#877,#707,#708);
#649=AXIS2_PLACEMENT_3D('',#878,#709,#710);
#650=AXIS2_PLACEMENT_3D('',#887,#715,#716);
#651=AXIS2_PLACEMENT_3D('',#893,#720,#721);
#652=AXIS2_PLACEMENT_3D('',#894,#722,#723);
#653=AXIS2_PLACEMENT_3D('',#898,#725,#726);
#654=AXIS2_PLACEMENT_3D('',#899,#727,#728);
#655=AXIS2_PLACEMENT_3D('',#905,#732,#733);
#656=AXIS2_PLACEMENT_3D('',#911,#737,#738);
#657=AXIS2_PLACEMENT_3D('',#917,#742,#743);
#658=AXIS2_PLACEMENT_3D('',#923,#747,#748);
#659=AXIS2_PLACEMENT_3D('',#929,#752,#753);
#660=AXIS2_PLACEMENT_3D('',#935,#757,#758);
#661=AXIS2_PLACEMENT_3D('',#941,#762,#763);
#662=AXIS2_PLACEMENT_3D('',#947,#767,#768);
#663=AXIS2_PLACEMENT_3D('',#953,#772,#773);
#664=AXIS2_PLACEMENT_3D('',#959,#777,#778);
#665=AXIS2_PLACEMENT_3D('',#965,#782,#783);
#666=AXIS2_PLACEMENT_3D('',#971,#787,#788);
#667=AXIS2_PLACEMENT_3D('',#977,#792,#793);
#668=AXIS2_PLACEMENT_3D('',#983,#797,#798);
#669=AXIS2_PLACEMENT_3D('',#984,#799,#800);
#670=AXIS2_PLACEMENT_3D('',#986,#801,#802);
#671=AXIS2_PLACEMENT_3D('',#988,#803,#804);
#672=AXIS2_PLACEMENT_3D('',#989,#805,#806);
#673=AXIS2_PLACEMENT_3D('',#991,#807,#808);
#674=AXIS2_PLACEMENT_3D('',#993,#809,#810);
#675=AXIS2_PLACEMENT_3D('',#994,#811,#812);
#676=AXIS2_PLACEMENT_3D('',#996,#813,#814);
#677=AXIS2_PLACEMENT_3D('',#998,#815,#816);
#678=AXIS2_PLACEMENT_3D('',#999,#817,#818);
#679=AXIS2_PLACEMENT_3D('',#1001,#819,#820);
#680=AXIS2_PLACEMENT_3D('',#1003,#821,#822);
#681=AXIS2_PLACEMENT_3D('',#1004,#823,#824);
#682=AXIS2_PLACEMENT_3D('',#1006,#825,#826);
#683=AXIS2_PLACEMENT_3D('',#1008,#827,#828);
#684=AXIS2_PLACEMENT_3D('',#1009,#829,#830);
#685=AXIS2_PLACEMENT_3D('',#1011,#831,#832);
#686=AXIS2_PLACEMENT_3D('',#1013,#833,#834);
#687=AXIS2_PLACEMENT_3D('',#1014,#835,#836);
#688=AXIS2_PLACEMENT_3D('',#1016,#837,#838);
#689=AXIS2_PLACEMENT_3D('',#1018,#839,#840);
#690=AXIS2_PLACEMENT_3D('',#1019,#841,#842);
#691=AXIS2_PLACEMENT_3D('',#1021,#843,#844);
#692=AXIS2_PLACEMENT_3D('',#1023,#845,#846);
#693=AXIS2_PLACEMENT_3D('',#1024,#847,#848);
#694=AXIS2_PLACEMENT_3D('',#1026,#849,#850);
#695=AXIS2_PLACEMENT_3D('',#1028,#851,#852);
#696=AXIS2_PLACEMENT_3D('',#1029,#853,#854);
#697=AXIS2_PLACEMENT_3D('',#1031,#855,#856);
#698=AXIS2_PLACEMENT_3D('',#1033,#857,#858);
#699=AXIS2_PLACEMENT_3D('',#1034,#859,#860);
#700=AXIS2_PLACEMENT_3D('',#1036,#861,#862);
#701=AXIS2_PLACEMENT_3D('',#1038,#863,#864);
#702=AXIS2_PLACEMENT_3D('',#1041,#867,#868);
#703=AXIS2_PLACEMENT_3D('',#1042,#869,#870);
#704=AXIS2_PLACEMENT_3D('',#1044,#871,#872);
#705=AXIS2_PLACEMENT_3D('',#1046,#873,#874);
#706=AXIS2_PLACEMENT_3D('',#1047,#875,#876);
#707=DIRECTION('',(0.,0.,1.));
#708=DIRECTION('',(1.,0.,0.));
#709=DIRECTION('',(0.,0.4067366430758,-0.913545457642601));
#710=DIRECTION('',(0.,0.913545457642601,0.4067366430758));
#711=DIRECTION('',(0.,-0.913545457642601,-0.4067366430758));
#712=DIRECTION('',(-1.,0.,0.));
#713=DIRECTION('',(0.,-0.913545457642601,-0.4067366430758));
#714=DIRECTION('',(-1.,0.,0.));
#715=DIRECTION('',(0.,0.95293197586645,-0.303184183906853));
#716=DIRECTION('',(0.,0.303184183906853,0.95293197586645));
#717=DIRECTION('',(0.,-0.303184183906853,-0.952931975866449));
#718=DIRECTION('',(-1.,0.,0.));
#719=DIRECTION('',(0.,-0.303184183906853,-0.952931975866449));
#720=DIRECTION('',(-1.,0.,0.));
#721=DIRECTION('',(0.,0.,1.));
#722=DIRECTION('',(1.,0.,0.));
#723=DIRECTION('',(0.,0.,-1.));
#724=DIRECTION('',(-1.,0.,0.));
#725=DIRECTION('',(1.,0.,0.));
#726=DIRECTION('',(0.,0.,-1.));
#727=DIRECTION('',(0.,0.952931975866449,-0.303184183906854));
#728=DIRECTION('',(0.,0.303184183906854,0.952931975866449));
#729=DIRECTION('',(0.,-0.303184183906854,-0.952931975866449));
#730=DIRECTION('',(-1.,0.,0.));
#731=DIRECTION('',(0.,-0.303184183906854,-0.952931975866449));
#732=DIRECTION('',(0.,0.9135454576426,0.406736643075802));
#733=DIRECTION('',(0.,-0.406736643075802,0.9135454576426));
#734=DIRECTION('',(0.,0.406736643075802,-0.9135454576426));
#735=DIRECTION('',(-1.,0.,0.));
#736=DIRECTION('',(0.,0.406736643075802,-0.9135454576426));
#737=DIRECTION('',(0.,0.4067366430758,-0.913545457642601));
#738=DIRECTION('',(0.,0.913545457642601,0.4067366430758));
#739=DIRECTION('',(0.,-0.913545457642601,-0.4067366430758));
#740=DIRECTION('',(-1.,0.,0.));
#741=DIRECTION('',(0.,-0.913545457642601,-0.4067366430758));
#742=DIRECTION('',(0.,0.913545457642601,0.4067366430758));
#743=DIRECTION('',(0.,-0.4067366430758,0.913545457642601));
#744=DIRECTION('',(0.,0.4067366430758,-0.913545457642601));
#745=DIRECTION('',(-1.,0.,0.));
#746=DIRECTION('',(0.,0.4067366430758,-0.913545457642601));
#747=DIRECTION('',(0.,-0.4067366430758,0.913545457642601));
#748=DIRECTION('',(0.,-0.913545457642601,-0.4067366430758));
#749=DIRECTION('',(0.,0.913545457642601,0.4067366430758));
#750=DIRECTION('',(-1.,0.,0.));
#751=DIRECTION('',(0.,0.913545457642601,0.4067366430758));
#752=DIRECTION('',(0.,-0.76311547785303,-0.646262150726114));
#753=DIRECTION('',(0.,0.646262150726114,-0.76311547785303));
#754=DIRECTION('',(0.,-0.646262150726114,0.76311547785303));
#755=DIRECTION('',(-1.,0.,0.));
#756=DIRECTION('',(0.,-0.646262150726114,0.76311547785303));
#757=DIRECTION('',(0.,0.104528463267654,-0.994521895368273));
#758=DIRECTION('',(0.,0.994521895368273,0.104528463267654));
#759=DIRECTION('',(0.,-0.994521895368273,-0.104528463267654));
#760=DIRECTION('',(-1.,0.,0.));
#761=DIRECTION('',(0.,-0.994521895368273,-0.104528463267654));
#762=DIRECTION('',(0.,0.948318225883067,-0.317320882480168));
#763=DIRECTION('',(0.,0.317320882480168,0.948318225883067));
#764=DIRECTION('',(0.,-0.317320882480168,-0.948318225883067));
#765=DIRECTION('',(-1.,0.,0.));
#766=DIRECTION('',(0.,-0.317320882480168,-0.948318225883067));
#767=DIRECTION('',(0.,0.148351751538077,-0.988934658011127));
#768=DIRECTION('',(0.,0.988934658011127,0.148351751538077));
#769=DIRECTION('',(0.,-0.988934658011127,-0.148351751538077));
#770=DIRECTION('',(-1.,0.,0.));
#771=DIRECTION('',(0.,-0.988934658011127,-0.148351751538077));
#772=DIRECTION('',(0.,0.4067366430758,-0.913545457642601));
#773=DIRECTION('',(0.,0.913545457642601,0.4067366430758));
#774=DIRECTION('',(0.,-0.913545457642601,-0.4067366430758));
#775=DIRECTION('',(-1.,0.,0.));
#776=DIRECTION('',(0.,-0.913545457642601,-0.4067366430758));
#777=DIRECTION('',(0.,0.918254002886373,-0.395991901663598));
#778=DIRECTION('',(0.,0.395991901663598,0.918254002886373));
#779=DIRECTION('',(0.,-0.395991901663598,-0.918254002886373));
#780=DIRECTION('',(-1.,0.,0.));
#781=DIRECTION('',(0.,-0.395991901663598,-0.918254002886373));
#782=DIRECTION('',(0.,0.913545457642601,0.4067366430758));
#783=DIRECTION('',(0.,-0.4067366430758,0.913545457642601));
#784=DIRECTION('',(0.,0.4067366430758,-0.913545457642601));
#785=DIRECTION('',(-1.,0.,0.));
#786=DIRECTION('',(0.,0.4067366430758,-0.913545457642601));
#787=DIRECTION('',(0.,0.0395520593845113,0.999217511154826));
#788=DIRECTION('',(0.,-0.999217511154826,0.0395520593845113));
#789=DIRECTION('',(0.,0.999217511154826,-0.0395520593845113));
#790=DIRECTION('',(-1.,0.,0.));
#791=DIRECTION('',(0.,0.999217511154826,-0.0395520593845113));
#792=DIRECTION('',(0.,0.913545457642601,0.4067366430758));
#793=DIRECTION('',(0.,-0.4067366430758,0.913545457642601));
#794=DIRECTION('',(0.,0.4067366430758,-0.913545457642601));
#795=DIRECTION('',(-1.,0.,0.));
#796=DIRECTION('',(0.,0.4067366430758,-0.913545457642601));
#797=DIRECTION('',(-1.,0.,0.));
#798=DIRECTION('',(0.,0.,1.));
#799=DIRECTION('',(1.,0.,0.));
#800=DIRECTION('',(0.,0.,-1.));
#801=DIRECTION('',(1.,0.,0.));
#802=DIRECTION('',(0.,0.,-1.));
#803=DIRECTION('',(-1.,0.,0.));
#804=DIRECTION('',(0.,0.,1.));
#805=DIRECTION('',(1.,0.,0.));
#806=DIRECTION('',(0.,0.,-1.));
#807=DIRECTION('',(1.,0.,0.));
#808=DIRECTION('',(0.,0.,-1.));
#809=DIRECTION('',(-1.,0.,0.));
#810=DIRECTION('',(0.,0.,1.));
#811=DIRECTION('',(1.,0.,0.));
#812=DIRECTION('',(0.,0.,-1.));
#813=DIRECTION('',(1.,0.,0.));
#814=DIRECTION('',(0.,0.,-1.));
#815=DIRECTION('',(-1.,0.,0.));
#816=DIRECTION('',(0.,0.,1.));
#817=DIRECTION('',(1.,0.,0.));
#818=DIRECTION('',(0.,0.,-1.));
#819=DIRECTION('',(1.,0.,0.));
#820=DIRECTION('',(0.,0.,-1.));
#821=DIRECTION('',(-1.,0.,0.));
#822=DIRECTION('',(0.,0.,1.));
#823=DIRECTION('',(1.,0.,0.));
#824=DIRECTION('',(0.,0.,-1.));
#825=DIRECTION('',(1.,0.,0.));
#826=DIRECTION('',(0.,0.,-1.));
#827=DIRECTION('',(-1.,0.,0.));
#828=DIRECTION('',(0.,0.,1.));
#829=DIRECTION('',(1.,0.,0.));
#830=DIRECTION('',(0.,0.,-1.));
#831=DIRECTION('',(1.,0.,0.));
#832=DIRECTION('',(0.,0.,-1.));
#833=DIRECTION('',(-1.,0.,0.));
#834=DIRECTION('',(0.,0.,1.));
#835=DIRECTION('',(1.,0.,0.));
#836=DIRECTION('',(0.,0.,-1.));
#837=DIRECTION('',(1.,0.,0.));
#838=DIRECTION('',(0.,0.,-1.));
#839=DIRECTION('',(-1.,0.,0.));
#840=DIRECTION('',(0.,0.,1.));
#841=DIRECTION('',(1.,0.,0.));
#842=DIRECTION('',(0.,0.,-1.));
#843=DIRECTION('',(1.,0.,0.));
#844=DIRECTION('',(0.,0.,-1.));
#845=DIRECTION('',(-1.,0.,0.));
#846=DIRECTION('',(0.,0.,1.));
#847=DIRECTION('',(1.,0.,0.));
#848=DIRECTION('',(0.,0.,-1.));
#849=DIRECTION('',(1.,0.,0.));
#850=DIRECTION('',(0.,0.,-1.));
#851=DIRECTION('',(-1.,0.,0.));
#852=DIRECTION('',(0.,0.,1.));
#853=DIRECTION('',(1.,0.,0.));
#854=DIRECTION('',(0.,0.,-1.));
#855=DIRECTION('',(1.,0.,0.));
#856=DIRECTION('',(0.,0.,-1.));
#857=DIRECTION('',(-1.,0.,0.));
#858=DIRECTION('',(0.,0.,1.));
#859=DIRECTION('',(1.,0.,0.));
#860=DIRECTION('',(0.,0.,-1.));
#861=DIRECTION('',(1.,0.,0.));
#862=DIRECTION('',(0.,0.,-1.));
#863=DIRECTION('',(0.,-0.0273090197529048,-0.999627039170177));
#864=DIRECTION('',(0.,0.999627039170178,-0.0273090197529048));
#865=DIRECTION('',(0.,-0.999627039170177,0.0273090197529048));
#866=DIRECTION('',(0.,-0.999627039170177,0.0273090197529048));
#867=DIRECTION('',(-1.,0.,0.));
#868=DIRECTION('',(0.,0.,1.));
#869=DIRECTION('',(1.,0.,0.));
#870=DIRECTION('',(0.,0.,-1.));
#871=DIRECTION('',(1.,0.,0.));
#872=DIRECTION('',(0.,0.,-1.));
#873=DIRECTION('',(1.,0.,0.));
#874=DIRECTION('',(0.,1.,0.));
#875=DIRECTION('',(1.,0.,0.));
#876=DIRECTION('',(0.,1.,0.));
#877=CARTESIAN_POINT('',(0.,0.,0.));
#878=CARTESIAN_POINT('',(0.10375,-0.00473644612831017,-0.0228840570056949));
#879=CARTESIAN_POINT('',(0.10175,-0.00473644612831017,-0.0228840570056949));
#880=CARTESIAN_POINT('',(0.10175,0.0147254717279557,-0.0142190529049669));
#881=CARTESIAN_POINT('',(0.10175,-0.00543779846424827,-0.0231963191841627));
#882=CARTESIAN_POINT('',(0.10375,0.0147254717279557,-0.0142190529049669));
#883=CARTESIAN_POINT('',(0.10375,0.0147254717279557,-0.0142190529049669));
#884=CARTESIAN_POINT('',(0.10375,-0.00473644612831017,-0.0228840570056949));
#885=CARTESIAN_POINT('',(0.10375,-0.00543779846424827,-0.0231963191841627));
#886=CARTESIAN_POINT('',(0.10375,-0.00543779846424827,-0.0231963191841627));
#887=CARTESIAN_POINT('',(0.10375,0.0148172771345333,-0.0139305012188007));
#888=CARTESIAN_POINT('',(0.10175,0.0148172771345333,-0.0139305012188007));
#889=CARTESIAN_POINT('',(0.10175,0.014909082541111,-0.0136419495326345));
#890=CARTESIAN_POINT('',(0.10375,0.014909082541111,-0.0136419495326345));
#891=CARTESIAN_POINT('',(0.10375,0.014909082541111,-0.0136419495326345));
#892=CARTESIAN_POINT('',(0.10375,0.0148172771345333,-0.0139305012188007));
#893=CARTESIAN_POINT('',(0.10375,0.0146612768464316,-0.0129340707734642));
#894=CARTESIAN_POINT('',(0.10175,0.0146612768464316,-0.0129340707734642));
#895=CARTESIAN_POINT('',(0.10175,0.0152725576512879,-0.012499518385812));
#896=CARTESIAN_POINT('',(0.10375,0.0152725576512879,-0.012499518385812));
#897=CARTESIAN_POINT('',(0.10375,0.0152725576512879,-0.012499518385812));
#898=CARTESIAN_POINT('',(0.10375,0.0146612768464316,-0.0129340707734642));
#899=CARTESIAN_POINT('',(0.10375,0.0154470183952349,-0.0119511744079096));
#900=CARTESIAN_POINT('',(0.10175,0.0154470183952349,-0.0119511744079096));
#901=CARTESIAN_POINT('',(0.10175,0.0160776937088145,-0.00996891179461875));
#902=CARTESIAN_POINT('',(0.10375,0.0160776937088145,-0.00996891179461875));
#903=CARTESIAN_POINT('',(0.10375,0.0160776937088145,-0.00996891179461875));
#904=CARTESIAN_POINT('',(0.10375,0.0154470183952349,-0.0119511744079096));
#905=CARTESIAN_POINT('',(0.10375,0.0149251441916807,-0.00738024319539057));
#906=CARTESIAN_POINT('',(0.10175,0.0149251441916807,-0.00738024319539057));
#907=CARTESIAN_POINT('',(0.10175,0.0137725946745468,-0.0047915745961624));
#908=CARTESIAN_POINT('',(0.10375,0.0137725946745468,-0.0047915745961624));
#909=CARTESIAN_POINT('',(0.10375,0.0137725946745468,-0.0047915745961624));
#910=CARTESIAN_POINT('',(0.10375,0.0149251441916807,-0.00738024319539057));
#911=CARTESIAN_POINT('',(0.10375,0.0108035719372084,-0.00611346868615874));
#912=CARTESIAN_POINT('',(0.10175,0.0108035719372084,-0.00611346868615874));
#913=CARTESIAN_POINT('',(0.10175,0.00783454919986996,-0.00743536277615509));
#914=CARTESIAN_POINT('',(0.10375,0.00783454919986996,-0.00743536277615509));
#915=CARTESIAN_POINT('',(0.10375,0.00783454919986996,-0.00743536277615509));
#916=CARTESIAN_POINT('',(0.10375,0.0108035719372084,-0.00611346868615874));
#917=CARTESIAN_POINT('',(0.10375,0.00702107591371836,-0.00560827186086988));
#918=CARTESIAN_POINT('',(0.10175,0.00702107591371836,-0.00560827186086988));
#919=CARTESIAN_POINT('',(0.10175,0.00620760262756676,-0.00378118094558467));
#920=CARTESIAN_POINT('',(0.10375,0.00620760262756676,-0.00378118094558467));
#921=CARTESIAN_POINT('',(0.10375,0.00620760262756676,-0.00378118094558467));
#922=CARTESIAN_POINT('',(0.10375,0.00702107591371836,-0.00560827186086988));
#923=CARTESIAN_POINT('',(0.10375,0.00483728444110286,-0.00439128591019837));
#924=CARTESIAN_POINT('',(0.10175,0.00483728444110286,-0.00439128591019837));
#925=CARTESIAN_POINT('',(0.10175,0.00346696625463896,-0.00500139087481207));
#926=CARTESIAN_POINT('',(0.10375,0.00346696625463896,-0.00500139087481207));
#927=CARTESIAN_POINT('',(0.10375,0.00346696625463896,-0.00500139087481207));
#928=CARTESIAN_POINT('',(0.10375,0.00483728444110286,-0.00439128591019837));
#929=CARTESIAN_POINT('',(0.10375,0.00145951413200352,-0.00263096304748099));
#930=CARTESIAN_POINT('',(0.10175,0.00145951413200352,-0.00263096304748099));
#931=CARTESIAN_POINT('',(0.10175,-0.000547937990631907,-0.000260535220149906));
#932=CARTESIAN_POINT('',(0.10375,-0.000547937990631907,-0.000260535220149906));
#933=CARTESIAN_POINT('',(0.10375,-0.000547937990631907,-0.000260535220149906));
#934=CARTESIAN_POINT('',(0.10375,0.00145951413200352,-0.00263096304748099));
#935=CARTESIAN_POINT('',(0.10375,-0.00228233334955666,-0.000442827517998031));
#936=CARTESIAN_POINT('',(0.10175,-0.00228233334955666,-0.000442827517998031));
#937=CARTESIAN_POINT('',(0.10175,-0.00401672870848142,-0.000625119815846157));
#938=CARTESIAN_POINT('',(0.10375,-0.00401672870848142,-0.000625119815846157));
#939=CARTESIAN_POINT('',(0.10375,-0.00401672870848142,-0.000625119815846157));
#940=CARTESIAN_POINT('',(0.10375,-0.00228233334955666,-0.000442827517998031));
#941=CARTESIAN_POINT('',(0.10375,-0.00494033233197402,-0.00338532312425722));
#942=CARTESIAN_POINT('',(0.10175,-0.00494033233197402,-0.00338532312425722));
#943=CARTESIAN_POINT('',(0.10175,-0.00586393595546663,-0.00614552643266829));
#944=CARTESIAN_POINT('',(0.10375,-0.00586393595546663,-0.00614552643266829));
#945=CARTESIAN_POINT('',(0.10375,-0.00586393595546663,-0.00614552643266829));
#946=CARTESIAN_POINT('',(0.10375,-0.00494033233197402,-0.00338532312425722));
#947=CARTESIAN_POINT('',(0.10375,-0.00738993473237415,-0.0063744440760791));
#948=CARTESIAN_POINT('',(0.10175,-0.00738993473237415,-0.0063744440760791));
#949=CARTESIAN_POINT('',(0.10175,-0.00891593350928167,-0.00660336171948993));
#950=CARTESIAN_POINT('',(0.10375,-0.00891593350928167,-0.00660336171948993));
#951=CARTESIAN_POINT('',(0.10375,-0.00891593350928167,-0.00660336171948993));
#952=CARTESIAN_POINT('',(0.10375,-0.00738993473237415,-0.0063744440760791));
#953=CARTESIAN_POINT('',(0.10375,-0.0111997971533882,-0.00762020332717942));
#954=CARTESIAN_POINT('',(0.10175,-0.0111997971533882,-0.00762020332717942));
#955=CARTESIAN_POINT('',(0.10175,-0.0134836607974947,-0.00863704493486893));
#956=CARTESIAN_POINT('',(0.10375,-0.0134836607974947,-0.00863704493486893));
#957=CARTESIAN_POINT('',(0.10375,-0.0134836607974947,-0.00863704493486893));
#958=CARTESIAN_POINT('',(0.10375,-0.0111997971533882,-0.00762020332717942));
#959=CARTESIAN_POINT('',(0.10375,-0.0146105436275047,-0.0112501404681196));
#960=CARTESIAN_POINT('',(0.10175,-0.0146105436275047,-0.0112501404681196));
#961=CARTESIAN_POINT('',(0.10175,-0.0157374264575146,-0.0138632360013703));
#962=CARTESIAN_POINT('',(0.10375,-0.0157374264575146,-0.0138632360013703));
#963=CARTESIAN_POINT('',(0.10375,-0.0157374264575146,-0.0138632360013703));
#964=CARTESIAN_POINT('',(0.10375,-0.0146105436275047,-0.0112501404681196));
#965=CARTESIAN_POINT('',(0.10375,-0.0149283157642343,-0.0156805283726372));
#966=CARTESIAN_POINT('',(0.10175,-0.0149283157642343,-0.0156805283726372));
#967=CARTESIAN_POINT('',(0.10175,-0.0141192050709539,-0.0174978207439041));
#968=CARTESIAN_POINT('',(0.10375,-0.0141192050709539,-0.0174978207439041));
#969=CARTESIAN_POINT('',(0.10375,-0.0141192050709539,-0.0174978207439041));
#970=CARTESIAN_POINT('',(0.10375,-0.0149283157642343,-0.0156805283726372));
#971=CARTESIAN_POINT('',(0.10375,-0.0122141355368846,-0.0175732291735022));
#972=CARTESIAN_POINT('',(0.10175,-0.0122141355368846,-0.0175732291735022));
#973=CARTESIAN_POINT('',(0.10175,-0.0103090660028154,-0.0176486376031003));
#974=CARTESIAN_POINT('',(0.10375,-0.0103090660028154,-0.0176486376031003));
#975=CARTESIAN_POINT('',(0.10375,-0.0103090660028154,-0.0176486376031003));
#976=CARTESIAN_POINT('',(0.10375,-0.0122141355368846,-0.0175732291735022));
#977=CARTESIAN_POINT('',(0.10375,-0.00908885607358797,-0.0203892739760282));
#978=CARTESIAN_POINT('',(0.10175,-0.00908885607358797,-0.0203892739760282));
#979=CARTESIAN_POINT('',(0.10175,-0.00786864614436057,-0.023129910348956));
#980=CARTESIAN_POINT('',(0.10375,-0.00786864614436057,-0.023129910348956));
#981=CARTESIAN_POINT('',(0.10375,-0.00786864614436057,-0.023129910348956));
#982=CARTESIAN_POINT('',(0.10375,-0.00908885607358797,-0.0203892739760282));
#983=CARTESIAN_POINT('',(0.10375,-0.0127156097441912,-0.0156894493848086));
#984=CARTESIAN_POINT('',(0.10375,-0.0127156097441912,-0.0156894493848086));
#985=CARTESIAN_POINT('',(0.10375,-0.0127156097441912,-0.0171894493848086));
#986=CARTESIAN_POINT('',(0.10175,-0.0127156097441912,-0.0156894493848086));
#987=CARTESIAN_POINT('',(0.10175,-0.0127156097441912,-0.0171894493848086));
#988=CARTESIAN_POINT('',(0.10375,-0.0101992869749665,-0.00987999234348536));
#989=CARTESIAN_POINT('',(0.10375,-0.0101992869749665,-0.00987999234348536));
#990=CARTESIAN_POINT('',(0.10375,-0.0101992869749665,-0.0113799923434854));
#991=CARTESIAN_POINT('',(0.10175,-0.0101992869749665,-0.00987999234348536));
#992=CARTESIAN_POINT('',(0.10175,-0.0101992869749665,-0.0113799923434854));
#993=CARTESIAN_POINT('',(0.10375,-0.0064494510358299,-0.0220047815108379));
#994=CARTESIAN_POINT('',(0.10375,-0.0064494510358299,-0.0220047815108379));
#995=CARTESIAN_POINT('',(0.10375,-0.0064494510358299,-0.0227547815108379));
#996=CARTESIAN_POINT('',(0.10175,-0.0064494510358299,-0.0220047815108379));
#997=CARTESIAN_POINT('',(0.10175,-0.0064494510358299,-0.0227547815108379));
#998=CARTESIAN_POINT('',(0.10375,-0.00759832085359124,-0.0196702369852747));
#999=CARTESIAN_POINT('',(0.10375,-0.00759832085359124,-0.0196702369852747));
#1000=CARTESIAN_POINT('',(0.10375,-0.00759832085359124,-0.0204202369852747));
#1001=CARTESIAN_POINT('',(0.10175,-0.00759832085359124,-0.0196702369852747));
#1002=CARTESIAN_POINT('',(0.10175,-0.00759832085359124,-0.0204202369852747));
#1003=CARTESIAN_POINT('',(0.10375,-0.00852380791551648,-0.0173456996768607));
#1004=CARTESIAN_POINT('',(0.10375,-0.00852380791551648,-0.0173456996768607));
#1005=CARTESIAN_POINT('',(0.10375,-0.00852380791551648,-0.0180956996768607));
#1006=CARTESIAN_POINT('',(0.10175,-0.00852380791551648,-0.0173456996768607));
#1007=CARTESIAN_POINT('',(0.10175,-0.00852380791551648,-0.0180956996768607));
#1008=CARTESIAN_POINT('',(0.10375,-0.0048267665723939,-0.00751726463829818));
#1009=CARTESIAN_POINT('',(0.10375,-0.0048267665723939,-0.00751726463829818));
#1010=CARTESIAN_POINT('',(0.10375,-0.0048267665723939,-0.00826726463829818));
#1011=CARTESIAN_POINT('',(0.10175,-0.0048267665723939,-0.00751726463829818));
#1012=CARTESIAN_POINT('',(0.10175,-0.0048267665723939,-0.00826726463829818));
#1013=CARTESIAN_POINT('',(0.10375,-0.0025429029282874,-0.00650042303060868));
#1014=CARTESIAN_POINT('',(0.10375,-0.0025429029282874,-0.00650042303060868));
#1015=CARTESIAN_POINT('',(0.10375,-0.0025429029282874,-0.00725042303060868));
#1016=CARTESIAN_POINT('',(0.10175,-0.0025429029282874,-0.00650042303060868));
#1017=CARTESIAN_POINT('',(0.10175,-0.0025429029282874,-0.00725042303060868));
#1018=CARTESIAN_POINT('',(0.10375,-0.000147347906262849,-0.00548858503149373));
#1019=CARTESIAN_POINT('',(0.10375,-0.000147347906262849,-0.00548858503149373));
#1020=CARTESIAN_POINT('',(0.10375,-0.000147347906262849,-0.00623858503149373));
#1021=CARTESIAN_POINT('',(0.10175,-0.000147347906262849,-0.00548858503149373));
#1022=CARTESIAN_POINT('',(0.10175,-0.000147347906262849,-0.00623858503149373));
#1023=CARTESIAN_POINT('',(0.10375,0.0100935495582186,-0.0149677539888432));
#1024=CARTESIAN_POINT('',(0.10375,0.0100935495582186,-0.0149677539888432));
#1025=CARTESIAN_POINT('',(0.10375,0.0100935495582186,-0.0157177539888432));
#1026=CARTESIAN_POINT('',(0.10175,0.0100935495582186,-0.0149677539888432));
#1027=CARTESIAN_POINT('',(0.10175,0.0100935495582186,-0.0157177539888432));
#1028=CARTESIAN_POINT('',(0.10375,0.012302204316592,-0.00763550711913709));
#1029=CARTESIAN_POINT('',(0.10375,0.012302204316592,-0.00763550711913709));
#1030=CARTESIAN_POINT('',(0.10375,0.012302204316592,-0.00838550711913709));
#1031=CARTESIAN_POINT('',(0.10175,0.012302204316592,-0.00763550711913709));
#1032=CARTESIAN_POINT('',(0.10175,0.012302204316592,-0.00838550711913709));
#1033=CARTESIAN_POINT('',(0.10375,0.00773447702837896,-0.0096691903345161));
#1034=CARTESIAN_POINT('',(0.10375,0.00773447702837896,-0.0096691903345161));
#1035=CARTESIAN_POINT('',(0.10375,0.00773447702837896,-0.0104191903345161));
#1036=CARTESIAN_POINT('',(0.10175,0.00773447702837896,-0.0096691903345161));
#1037=CARTESIAN_POINT('',(0.10175,0.00773447702837896,-0.0104191903345161));
#1038=CARTESIAN_POINT('',(0.10375,-0.00665322230430442,-0.0231631147665593));
#1039=CARTESIAN_POINT('',(0.10175,-0.00665322230430442,-0.0231631147665593));
#1040=CARTESIAN_POINT('',(0.10375,-0.00665322230430442,-0.0231631147665593));
#1041=CARTESIAN_POINT('',(0.10375,-0.00152058876119554,-0.00226305169053376));
#1042=CARTESIAN_POINT('',(0.10375,-0.00152058876119554,-0.00226305169053376));
#1043=CARTESIAN_POINT('',(0.10375,-0.00152058876119554,-0.00376305169053376));
#1044=CARTESIAN_POINT('',(0.10175,-0.00152058876119554,-0.00226305169053376));
#1045=CARTESIAN_POINT('',(0.10175,-0.00152058876119554,-0.00376305169053376));
#1046=CARTESIAN_POINT('',(0.10375,0.000170133625649955,-0.0115981595920813));
#1047=CARTESIAN_POINT('',(0.10175,0.000170133625649955,-0.0115981595920813));
#1048=MECHANICAL_DESIGN_GEOMETRIC_PRESENTATION_REPRESENTATION('',(#637),
#1049);
#1049=(
GEOMETRIC_REPRESENTATION_CONTEXT(3)
GLOBAL_UNCERTAINTY_ASSIGNED_CONTEXT((#1050))
GLOBAL_UNIT_ASSIGNED_CONTEXT((#1053,#1052,#1051))
REPRESENTATION_CONTEXT('Analog_Stick_Secure','TOP_LEVEL_ASSEMBLY_PART')
);
#1050=UNCERTAINTY_MEASURE_WITH_UNIT(LENGTH_MEASURE(1.E-8),#1053,
'DISTANCE_ACCURACY_VALUE','Maximum Tolerance applied to model');
#1051=(
NAMED_UNIT(*)
SI_UNIT($,.STERADIAN.)
SOLID_ANGLE_UNIT()
);
#1052=(
NAMED_UNIT(*)
PLANE_ANGLE_UNIT()
SI_UNIT($,.RADIAN.)
);
#1053=(
LENGTH_UNIT()
NAMED_UNIT(*)
SI_UNIT($,.METRE.)
);
#1054=PRODUCT_DEFINITION_SHAPE('','',#1055);
#1055=PRODUCT_DEFINITION('','',#1057,#1056);
#1056=PRODUCT_DEFINITION_CONTEXT('',#1063,'design');
#1057=PRODUCT_DEFINITION_FORMATION_WITH_SPECIFIED_SOURCE('','',#1059,
 .NOT_KNOWN.);
#1058=PRODUCT_RELATED_PRODUCT_CATEGORY('','',(#1059));
#1059=PRODUCT('Analog_Stick_Secure','Analog_Stick_Secure',
'Analog_Stick_Secure',(#1061));
#1060=PRODUCT_CATEGORY('','');
#1061=PRODUCT_CONTEXT('',#1063,'mechanical');
#1062=APPLICATION_PROTOCOL_DEFINITION('international standard',
'ap242_managed_model_based_3d_engineering',2011,#1063);
#1063=APPLICATION_CONTEXT('managed model based 3d engineering');
ENDSEC;
END-ISO-10303-21;
